%FSLAX45Y45*%
G04 Gerber Fmt 4.5, Leading zero omitted, Abs format (unit mm)*
G04 Created by KiCad (PCBNEW (5.1.2)-1) date 2024-09-19 10:14:31*
%MOMM*%
%LPD*%
G04 APERTURE LIST*
%ADD10C,0.050000*%
%ADD11C,0.200000*%
%ADD12C,0.300000*%
G04 APERTURE END LIST*
D10*
X10236200Y-6604000D02*
X10261600Y-6604000D01*
X10236200Y-11938000D02*
X10236200Y-6604000D01*
X16687800Y-11938000D02*
X10236200Y-11938000D01*
X16687800Y-6604000D02*
X16687800Y-11938000D01*
X10261600Y-6604000D02*
X16687800Y-6604000D01*
D11*
X16235100Y-7496000D02*
X16270100Y-7531000D01*
X16270100Y-7496000D02*
X16235100Y-7531000D01*
X16202600Y-7521000D02*
X16302600Y-7521000D01*
X16202600Y-7506000D02*
X16302600Y-7506000D01*
X16302600Y-7521000D02*
G75*
G03X16302600Y-7506000I0J7500D01*
G01*
X16202600Y-7506000D02*
G75*
G03X16202600Y-7521000I0J-7500D01*
G01*
X16235100Y-8211000D02*
X16270100Y-8246000D01*
X16270100Y-8211000D02*
X16235100Y-8246000D01*
X16202600Y-8236000D02*
X16302600Y-8236000D01*
X16202600Y-8221000D02*
X16302600Y-8221000D01*
X16302600Y-8236000D02*
G75*
G03X16302600Y-8221000I0J7500D01*
G01*
X16202600Y-8221000D02*
G75*
G03X16202600Y-8236000I0J-7500D01*
G01*
X10662135Y-7746535D02*
G75*
G03X10662135Y-7746535I-20000J0D01*
G01*
X10662600Y-8534400D02*
G75*
G03X10662600Y-8534400I-20000J0D01*
G01*
X11373800Y-6731000D02*
G75*
G03X11373800Y-6731000I-20000J0D01*
G01*
X11424600Y-8382000D02*
G75*
G03X11424600Y-8382000I-20000J0D01*
G01*
X11754800Y-8559800D02*
G75*
G03X11754800Y-8559800I-20000J0D01*
G01*
X12313600Y-8356600D02*
G75*
G03X12313600Y-8356600I-20000J0D01*
G01*
X12491400Y-8102600D02*
G75*
G03X12491400Y-8102600I-20000J0D01*
G01*
X13151800Y-6731000D02*
G75*
G03X13151800Y-6731000I-20000J0D01*
G01*
X14345600Y-7188200D02*
G75*
G03X14345600Y-7188200I-20000J0D01*
G01*
X16230600Y-7719000D02*
X16230600Y-7763000D01*
X16208600Y-7741000D02*
X16252600Y-7741000D01*
X16230600Y-7849000D02*
X16230600Y-7893000D01*
X16208600Y-7871000D02*
X16252600Y-7871000D01*
X16230600Y-7979000D02*
X16230600Y-8023000D01*
X16208600Y-8001000D02*
X16252600Y-8001000D01*
X16330600Y-7784000D02*
X16330600Y-7828000D01*
X16308600Y-7806000D02*
X16352600Y-7806000D01*
X16330600Y-7914000D02*
X16330600Y-7958000D01*
X16308600Y-7936000D02*
X16352600Y-7936000D01*
X11022949Y-11200749D02*
X11022949Y-11151251D01*
X10973451Y-11151251D01*
X10973451Y-11200749D01*
X11022949Y-11200749D01*
X11022949Y-11708749D02*
X11022949Y-11659251D01*
X10973451Y-11659251D01*
X10973451Y-11708749D01*
X11022949Y-11708749D01*
X12496149Y-10489549D02*
X12496149Y-10440051D01*
X12446651Y-10440051D01*
X12446651Y-10489549D01*
X12496149Y-10489549D01*
X12496149Y-10745549D02*
X12496149Y-10696051D01*
X12446651Y-10696051D01*
X12446651Y-10745549D01*
X12496149Y-10745549D01*
X10820400Y-9438000D02*
X10860400Y-9398000D01*
X10820400Y-9358000D01*
X10780400Y-9398000D01*
X10820400Y-9438000D01*
X11836400Y-9438000D02*
X11876400Y-9398000D01*
X11836400Y-9358000D01*
X11796400Y-9398000D01*
X11836400Y-9438000D01*
X10820400Y-10403200D02*
X10860400Y-10363200D01*
X10820400Y-10323200D01*
X10780400Y-10363200D01*
X10820400Y-10403200D01*
X11836400Y-10403200D02*
X11876400Y-10363200D01*
X11836400Y-10323200D01*
X11796400Y-10363200D01*
X11836400Y-10403200D01*
X13284200Y-8015600D02*
X13324200Y-7975600D01*
X13284200Y-7935600D01*
X13244200Y-7975600D01*
X13284200Y-8015600D01*
X14300200Y-8015600D02*
X14340200Y-7975600D01*
X14300200Y-7935600D01*
X14260200Y-7975600D01*
X14300200Y-8015600D01*
X10820400Y-9742800D02*
X10860400Y-9702800D01*
X10820400Y-9662800D01*
X10780400Y-9702800D01*
X10820400Y-9742800D01*
X11836400Y-9742800D02*
X11876400Y-9702800D01*
X11836400Y-9662800D01*
X11796400Y-9702800D01*
X11836400Y-9742800D01*
X10820400Y-10885800D02*
X10860400Y-10845800D01*
X10820400Y-10805800D01*
X10780400Y-10845800D01*
X10820400Y-10885800D01*
X11836400Y-10885800D02*
X11876400Y-10845800D01*
X11836400Y-10805800D01*
X11796400Y-10845800D01*
X11836400Y-10885800D01*
X13360400Y-10708000D02*
X13400400Y-10668000D01*
X13360400Y-10628000D01*
X13320400Y-10668000D01*
X13360400Y-10708000D01*
X14376400Y-10708000D02*
X14416400Y-10668000D01*
X14376400Y-10628000D01*
X14336400Y-10668000D01*
X14376400Y-10708000D01*
X11582400Y-11774800D02*
X11622400Y-11734800D01*
X11582400Y-11694800D01*
X11542400Y-11734800D01*
X11582400Y-11774800D01*
X12598400Y-11774800D02*
X12638400Y-11734800D01*
X12598400Y-11694800D01*
X12558400Y-11734800D01*
X12598400Y-11774800D01*
X10820400Y-10047600D02*
X10860400Y-10007600D01*
X10820400Y-9967600D01*
X10780400Y-10007600D01*
X10820400Y-10047600D01*
X11836400Y-10047600D02*
X11876400Y-10007600D01*
X11836400Y-9967600D01*
X11796400Y-10007600D01*
X11836400Y-10047600D01*
X13284200Y-7634600D02*
X13324200Y-7594600D01*
X13284200Y-7554600D01*
X13244200Y-7594600D01*
X13284200Y-7634600D01*
X14300200Y-7634600D02*
X14340200Y-7594600D01*
X14300200Y-7554600D01*
X14260200Y-7594600D01*
X14300200Y-7634600D01*
X12115800Y-10385800D02*
X12155800Y-10345800D01*
X12115800Y-10305800D01*
X12075800Y-10345800D01*
X12115800Y-10385800D01*
X12115800Y-10885800D02*
X12155800Y-10845800D01*
X12115800Y-10805800D01*
X12075800Y-10845800D01*
X12115800Y-10885800D01*
X13360400Y-10377800D02*
X13400400Y-10337800D01*
X13360400Y-10297800D01*
X13320400Y-10337800D01*
X13360400Y-10377800D01*
X14376400Y-10377800D02*
X14416400Y-10337800D01*
X14376400Y-10297800D01*
X14336400Y-10337800D01*
X14376400Y-10377800D01*
X13360400Y-11038200D02*
X13400400Y-10998200D01*
X13360400Y-10958200D01*
X13320400Y-10998200D01*
X13360400Y-11038200D01*
X14376400Y-11038200D02*
X14416400Y-10998200D01*
X14376400Y-10958200D01*
X14336400Y-10998200D01*
X14376400Y-11038200D01*
X11582400Y-11216000D02*
X11622400Y-11176000D01*
X11582400Y-11136000D01*
X11542400Y-11176000D01*
X11582400Y-11216000D01*
X12598400Y-11216000D02*
X12638400Y-11176000D01*
X12598400Y-11136000D01*
X12558400Y-11176000D01*
X12598400Y-11216000D01*
X11303000Y-11325600D02*
X11343000Y-11285600D01*
X11303000Y-11245600D01*
X11263000Y-11285600D01*
X11303000Y-11325600D01*
X11303000Y-11825600D02*
X11343000Y-11785600D01*
X11303000Y-11745600D01*
X11263000Y-11785600D01*
X11303000Y-11825600D01*
X14877160Y-9128760D02*
X14958440Y-9210040D01*
X14958440Y-9128760D02*
X14877160Y-9210040D01*
X14958440Y-9169400D02*
G75*
G03X14958440Y-9169400I-40640J0D01*
G01*
X14937800Y-9138760D02*
X14897800Y-9138760D01*
X14937800Y-9200040D02*
X14897800Y-9200040D01*
X14897800Y-9138760D02*
G75*
G03X14897800Y-9200040I0J-30640D01*
G01*
X14937800Y-9200040D02*
G75*
G03X14937800Y-9138760I0J30640D01*
G01*
X14877160Y-10378760D02*
X14958440Y-10460040D01*
X14958440Y-10378760D02*
X14877160Y-10460040D01*
X14958440Y-10419400D02*
G75*
G03X14958440Y-10419400I-40640J0D01*
G01*
X14937800Y-10388760D02*
X14897800Y-10388760D01*
X14937800Y-10450040D02*
X14897800Y-10450040D01*
X14897800Y-10388760D02*
G75*
G03X14897800Y-10450040I0J-30640D01*
G01*
X14937800Y-10450040D02*
G75*
G03X14937800Y-10388760I0J30640D01*
G01*
X15377160Y-9128760D02*
X15458440Y-9210040D01*
X15458440Y-9128760D02*
X15377160Y-9210040D01*
X15458440Y-9169400D02*
G75*
G03X15458440Y-9169400I-40640J0D01*
G01*
X15437800Y-9138760D02*
X15397800Y-9138760D01*
X15437800Y-9200040D02*
X15397800Y-9200040D01*
X15397800Y-9138760D02*
G75*
G03X15397800Y-9200040I0J-30640D01*
G01*
X15437800Y-9200040D02*
G75*
G03X15437800Y-9138760I0J30640D01*
G01*
X15377160Y-10378760D02*
X15458440Y-10460040D01*
X15458440Y-10378760D02*
X15377160Y-10460040D01*
X15458440Y-10419400D02*
G75*
G03X15458440Y-10419400I-40640J0D01*
G01*
X15437800Y-10388760D02*
X15397800Y-10388760D01*
X15437800Y-10450040D02*
X15397800Y-10450040D01*
X15397800Y-10388760D02*
G75*
G03X15397800Y-10450040I0J-30640D01*
G01*
X15437800Y-10450040D02*
G75*
G03X15437800Y-10388760I0J30640D01*
G01*
X14877160Y-7503160D02*
X14958440Y-7584440D01*
X14958440Y-7503160D02*
X14877160Y-7584440D01*
X14958440Y-7543800D02*
G75*
G03X14958440Y-7543800I-40640J0D01*
G01*
X14937800Y-7513160D02*
X14897800Y-7513160D01*
X14937800Y-7574440D02*
X14897800Y-7574440D01*
X14897800Y-7513160D02*
G75*
G03X14897800Y-7574440I0J-30640D01*
G01*
X14937800Y-7574440D02*
G75*
G03X14937800Y-7513160I0J30640D01*
G01*
X14877160Y-8753160D02*
X14958440Y-8834440D01*
X14958440Y-8753160D02*
X14877160Y-8834440D01*
X14958440Y-8793800D02*
G75*
G03X14958440Y-8793800I-40640J0D01*
G01*
X14937800Y-8763160D02*
X14897800Y-8763160D01*
X14937800Y-8824440D02*
X14897800Y-8824440D01*
X14897800Y-8763160D02*
G75*
G03X14897800Y-8824440I0J-30640D01*
G01*
X14937800Y-8824440D02*
G75*
G03X14937800Y-8763160I0J30640D01*
G01*
X15377160Y-7503160D02*
X15458440Y-7584440D01*
X15458440Y-7503160D02*
X15377160Y-7584440D01*
X15458440Y-7543800D02*
G75*
G03X15458440Y-7543800I-40640J0D01*
G01*
X15437800Y-7513160D02*
X15397800Y-7513160D01*
X15437800Y-7574440D02*
X15397800Y-7574440D01*
X15397800Y-7513160D02*
G75*
G03X15397800Y-7574440I0J-30640D01*
G01*
X15437800Y-7574440D02*
G75*
G03X15437800Y-7513160I0J30640D01*
G01*
X15377160Y-8753160D02*
X15458440Y-8834440D01*
X15458440Y-8753160D02*
X15377160Y-8834440D01*
X15458440Y-8793800D02*
G75*
G03X15458440Y-8793800I-40640J0D01*
G01*
X15437800Y-8763160D02*
X15397800Y-8763160D01*
X15437800Y-8824440D02*
X15397800Y-8824440D01*
X15397800Y-8763160D02*
G75*
G03X15397800Y-8824440I0J-30640D01*
G01*
X15437800Y-8824440D02*
G75*
G03X15437800Y-8763160I0J30640D01*
G01*
X12401000Y-9264100D02*
X12491000Y-9354100D01*
X12491000Y-9264100D02*
X12401000Y-9354100D01*
X12446000Y-9264100D02*
X12446000Y-9354100D01*
X12401000Y-9309100D02*
X12491000Y-9309100D01*
X12401000Y-9518100D02*
X12491000Y-9608100D01*
X12491000Y-9518100D02*
X12401000Y-9608100D01*
X12446000Y-9518100D02*
X12446000Y-9608100D01*
X12401000Y-9563100D02*
X12491000Y-9563100D01*
X12401000Y-9772100D02*
X12491000Y-9862100D01*
X12491000Y-9772100D02*
X12401000Y-9862100D01*
X12446000Y-9772100D02*
X12446000Y-9862100D01*
X12401000Y-9817100D02*
X12491000Y-9817100D01*
X12401000Y-10026100D02*
X12491000Y-10116100D01*
X12491000Y-10026100D02*
X12401000Y-10116100D01*
X12446000Y-10026100D02*
X12446000Y-10116100D01*
X12401000Y-10071100D02*
X12491000Y-10071100D01*
X16109400Y-11308800D02*
X16199400Y-11398800D01*
X16199400Y-11308800D02*
X16109400Y-11398800D01*
X16154400Y-11308800D02*
X16154400Y-11398800D01*
X16109400Y-11353800D02*
X16199400Y-11353800D01*
X16363400Y-11308800D02*
X16453400Y-11398800D01*
X16453400Y-11308800D02*
X16363400Y-11398800D01*
X16408400Y-11308800D02*
X16408400Y-11398800D01*
X16363400Y-11353800D02*
X16453400Y-11353800D01*
X15423600Y-11308800D02*
X15513600Y-11398800D01*
X15513600Y-11308800D02*
X15423600Y-11398800D01*
X15468600Y-11308800D02*
X15468600Y-11398800D01*
X15423600Y-11353800D02*
X15513600Y-11353800D01*
X15677600Y-11308800D02*
X15767600Y-11398800D01*
X15767600Y-11308800D02*
X15677600Y-11398800D01*
X15722600Y-11308800D02*
X15722600Y-11398800D01*
X15677600Y-11353800D02*
X15767600Y-11353800D01*
X14737800Y-11308800D02*
X14827800Y-11398800D01*
X14827800Y-11308800D02*
X14737800Y-11398800D01*
X14782800Y-11308800D02*
X14782800Y-11398800D01*
X14737800Y-11353800D02*
X14827800Y-11353800D01*
X14991800Y-11308800D02*
X15081800Y-11398800D01*
X15081800Y-11308800D02*
X14991800Y-11398800D01*
X15036800Y-11308800D02*
X15036800Y-11398800D01*
X14991800Y-11353800D02*
X15081800Y-11353800D01*
X13488200Y-6909600D02*
X13588200Y-7009600D01*
X13588200Y-6909600D02*
X13488200Y-7009600D01*
X13573556Y-6994956D02*
X13573556Y-6924244D01*
X13502844Y-6924244D01*
X13502844Y-6994956D01*
X13573556Y-6994956D01*
X13742200Y-6909600D02*
X13842200Y-7009600D01*
X13842200Y-6909600D02*
X13742200Y-7009600D01*
X13827556Y-6994956D02*
X13827556Y-6924244D01*
X13756844Y-6924244D01*
X13756844Y-6994956D01*
X13827556Y-6994956D01*
X13996200Y-6909600D02*
X14096200Y-7009600D01*
X14096200Y-6909600D02*
X13996200Y-7009600D01*
X14081556Y-6994956D02*
X14081556Y-6924244D01*
X14010844Y-6924244D01*
X14010844Y-6994956D01*
X14081556Y-6994956D01*
X11481600Y-7316000D02*
X11581600Y-7416000D01*
X11581600Y-7316000D02*
X11481600Y-7416000D01*
X11566956Y-7401356D02*
X11566956Y-7330644D01*
X11496244Y-7330644D01*
X11496244Y-7401356D01*
X11566956Y-7401356D01*
X11735600Y-7316000D02*
X11835600Y-7416000D01*
X11835600Y-7316000D02*
X11735600Y-7416000D01*
X11820956Y-7401356D02*
X11820956Y-7330644D01*
X11750244Y-7330644D01*
X11750244Y-7401356D01*
X11820956Y-7401356D01*
X11989600Y-7316000D02*
X12089600Y-7416000D01*
X12089600Y-7316000D02*
X11989600Y-7416000D01*
X12074956Y-7401356D02*
X12074956Y-7330644D01*
X12004244Y-7330644D01*
X12004244Y-7401356D01*
X12074956Y-7401356D01*
X12243600Y-7316000D02*
X12343600Y-7416000D01*
X12343600Y-7316000D02*
X12243600Y-7416000D01*
X12328956Y-7401356D02*
X12328956Y-7330644D01*
X12258244Y-7330644D01*
X12258244Y-7401356D01*
X12328956Y-7401356D01*
X12497600Y-7316000D02*
X12597600Y-7416000D01*
X12597600Y-7316000D02*
X12497600Y-7416000D01*
X12582956Y-7401356D02*
X12582956Y-7330644D01*
X12512244Y-7330644D01*
X12512244Y-7401356D01*
X12582956Y-7401356D01*
X16180600Y-8640800D02*
X16280600Y-8740800D01*
X16280600Y-8640800D02*
X16180600Y-8740800D01*
X16265956Y-8726156D02*
X16265956Y-8655444D01*
X16195244Y-8655444D01*
X16195244Y-8726156D01*
X16265956Y-8726156D01*
X16180600Y-8890800D02*
X16280600Y-8990800D01*
X16280600Y-8890800D02*
X16180600Y-8990800D01*
X16265956Y-8976156D02*
X16265956Y-8905444D01*
X16195244Y-8905444D01*
X16195244Y-8976156D01*
X16265956Y-8976156D01*
X12914800Y-7062000D02*
X13014800Y-7162000D01*
X13014800Y-7062000D02*
X12914800Y-7162000D01*
X13000156Y-7147356D02*
X13000156Y-7076644D01*
X12929444Y-7076644D01*
X12929444Y-7147356D01*
X13000156Y-7147356D01*
X12914800Y-7316000D02*
X13014800Y-7416000D01*
X13014800Y-7316000D02*
X12914800Y-7416000D01*
X13000156Y-7401356D02*
X13000156Y-7330644D01*
X12929444Y-7330644D01*
X12929444Y-7401356D01*
X13000156Y-7401356D01*
X12914800Y-7570000D02*
X13014800Y-7670000D01*
X13014800Y-7570000D02*
X12914800Y-7670000D01*
X13000156Y-7655356D02*
X13000156Y-7584644D01*
X12929444Y-7584644D01*
X12929444Y-7655356D01*
X13000156Y-7655356D01*
X12914800Y-7824000D02*
X13014800Y-7924000D01*
X13014800Y-7824000D02*
X12914800Y-7924000D01*
X13000156Y-7909356D02*
X13000156Y-7838644D01*
X12929444Y-7838644D01*
X12929444Y-7909356D01*
X13000156Y-7909356D01*
X12914800Y-8078000D02*
X13014800Y-8178000D01*
X13014800Y-8078000D02*
X12914800Y-8178000D01*
X13000156Y-8163356D02*
X13000156Y-8092644D01*
X12929444Y-8092644D01*
X12929444Y-8163356D01*
X13000156Y-8163356D01*
X12914800Y-8332000D02*
X13014800Y-8432000D01*
X13014800Y-8332000D02*
X12914800Y-8432000D01*
X13000156Y-8417356D02*
X13000156Y-8346644D01*
X12929444Y-8346644D01*
X12929444Y-8417356D01*
X13000156Y-8417356D01*
X12914800Y-8586000D02*
X13014800Y-8686000D01*
X13014800Y-8586000D02*
X12914800Y-8686000D01*
X13000156Y-8671356D02*
X13000156Y-8600644D01*
X12929444Y-8600644D01*
X12929444Y-8671356D01*
X13000156Y-8671356D01*
X12914800Y-8840000D02*
X13014800Y-8940000D01*
X13014800Y-8840000D02*
X12914800Y-8940000D01*
X13000156Y-8925356D02*
X13000156Y-8854644D01*
X12929444Y-8854644D01*
X12929444Y-8925356D01*
X13000156Y-8925356D01*
X12914800Y-9094000D02*
X13014800Y-9194000D01*
X13014800Y-9094000D02*
X12914800Y-9194000D01*
X13000156Y-9179356D02*
X13000156Y-9108644D01*
X12929444Y-9108644D01*
X12929444Y-9179356D01*
X13000156Y-9179356D01*
X12914800Y-9348000D02*
X13014800Y-9448000D01*
X13014800Y-9348000D02*
X12914800Y-9448000D01*
X13000156Y-9433356D02*
X13000156Y-9362644D01*
X12929444Y-9362644D01*
X12929444Y-9433356D01*
X13000156Y-9433356D01*
X12914800Y-9602000D02*
X13014800Y-9702000D01*
X13014800Y-9602000D02*
X12914800Y-9702000D01*
X13000156Y-9687356D02*
X13000156Y-9616644D01*
X12929444Y-9616644D01*
X12929444Y-9687356D01*
X13000156Y-9687356D01*
X12914800Y-9856000D02*
X13014800Y-9956000D01*
X13014800Y-9856000D02*
X12914800Y-9956000D01*
X13000156Y-9941356D02*
X13000156Y-9870644D01*
X12929444Y-9870644D01*
X12929444Y-9941356D01*
X13000156Y-9941356D01*
X12914800Y-10110000D02*
X13014800Y-10210000D01*
X13014800Y-10110000D02*
X12914800Y-10210000D01*
X13000156Y-10195356D02*
X13000156Y-10124644D01*
X12929444Y-10124644D01*
X12929444Y-10195356D01*
X13000156Y-10195356D01*
X12914800Y-10364000D02*
X13014800Y-10464000D01*
X13014800Y-10364000D02*
X12914800Y-10464000D01*
X13000156Y-10449356D02*
X13000156Y-10378644D01*
X12929444Y-10378644D01*
X12929444Y-10449356D01*
X13000156Y-10449356D01*
X12914800Y-10618000D02*
X13014800Y-10718000D01*
X13014800Y-10618000D02*
X12914800Y-10718000D01*
X13000156Y-10703356D02*
X13000156Y-10632644D01*
X12929444Y-10632644D01*
X12929444Y-10703356D01*
X13000156Y-10703356D01*
X12914800Y-10872000D02*
X13014800Y-10972000D01*
X13014800Y-10872000D02*
X12914800Y-10972000D01*
X13000156Y-10957356D02*
X13000156Y-10886644D01*
X12929444Y-10886644D01*
X12929444Y-10957356D01*
X13000156Y-10957356D01*
X12914800Y-11126000D02*
X13014800Y-11226000D01*
X13014800Y-11126000D02*
X12914800Y-11226000D01*
X13000156Y-11211356D02*
X13000156Y-11140644D01*
X12929444Y-11140644D01*
X12929444Y-11211356D01*
X13000156Y-11211356D01*
X12914800Y-11380000D02*
X13014800Y-11480000D01*
X13014800Y-11380000D02*
X12914800Y-11480000D01*
X13000156Y-11465356D02*
X13000156Y-11394644D01*
X12929444Y-11394644D01*
X12929444Y-11465356D01*
X13000156Y-11465356D01*
X12914800Y-11634000D02*
X13014800Y-11734000D01*
X13014800Y-11634000D02*
X12914800Y-11734000D01*
X13000156Y-11719356D02*
X13000156Y-11648644D01*
X12929444Y-11648644D01*
X12929444Y-11719356D01*
X13000156Y-11719356D01*
X16180600Y-10368000D02*
X16280600Y-10468000D01*
X16280600Y-10368000D02*
X16180600Y-10468000D01*
X16265956Y-10453356D02*
X16265956Y-10382644D01*
X16195244Y-10382644D01*
X16195244Y-10453356D01*
X16265956Y-10453356D01*
X16180600Y-10618000D02*
X16280600Y-10718000D01*
X16280600Y-10618000D02*
X16180600Y-10718000D01*
X16265956Y-10703356D02*
X16265956Y-10632644D01*
X16195244Y-10632644D01*
X16195244Y-10703356D01*
X16265956Y-10703356D01*
X11227600Y-6909600D02*
X11327600Y-7009600D01*
X11327600Y-6909600D02*
X11227600Y-7009600D01*
X11312956Y-6994956D02*
X11312956Y-6924244D01*
X11242244Y-6924244D01*
X11242244Y-6994956D01*
X11312956Y-6994956D01*
X11481600Y-6909600D02*
X11581600Y-7009600D01*
X11581600Y-6909600D02*
X11481600Y-7009600D01*
X11566956Y-6994956D02*
X11566956Y-6924244D01*
X11496244Y-6924244D01*
X11496244Y-6994956D01*
X11566956Y-6994956D01*
X11735600Y-6909600D02*
X11835600Y-7009600D01*
X11835600Y-6909600D02*
X11735600Y-7009600D01*
X11820956Y-6994956D02*
X11820956Y-6924244D01*
X11750244Y-6924244D01*
X11750244Y-6994956D01*
X11820956Y-6994956D01*
X11989600Y-6909600D02*
X12089600Y-7009600D01*
X12089600Y-6909600D02*
X11989600Y-7009600D01*
X12074956Y-6994956D02*
X12074956Y-6924244D01*
X12004244Y-6924244D01*
X12004244Y-6994956D01*
X12074956Y-6994956D01*
X12243600Y-6909600D02*
X12343600Y-7009600D01*
X12343600Y-6909600D02*
X12243600Y-7009600D01*
X12328956Y-6994956D02*
X12328956Y-6924244D01*
X12258244Y-6924244D01*
X12258244Y-6994956D01*
X12328956Y-6994956D01*
X12497600Y-6909600D02*
X12597600Y-7009600D01*
X12597600Y-6909600D02*
X12497600Y-7009600D01*
X12582956Y-6994956D02*
X12582956Y-6924244D01*
X12512244Y-6924244D01*
X12512244Y-6994956D01*
X12582956Y-6994956D01*
X13488200Y-7163600D02*
X13588200Y-7263600D01*
X13588200Y-7163600D02*
X13488200Y-7263600D01*
X13573556Y-7248956D02*
X13573556Y-7178244D01*
X13502844Y-7178244D01*
X13502844Y-7248956D01*
X13573556Y-7248956D01*
X13742200Y-7163600D02*
X13842200Y-7263600D01*
X13842200Y-7163600D02*
X13742200Y-7263600D01*
X13827556Y-7248956D02*
X13827556Y-7178244D01*
X13756844Y-7178244D01*
X13756844Y-7248956D01*
X13827556Y-7248956D01*
X13996200Y-7163600D02*
X14096200Y-7263600D01*
X14096200Y-7163600D02*
X13996200Y-7263600D01*
X14081556Y-7248956D02*
X14081556Y-7178244D01*
X14010844Y-7178244D01*
X14010844Y-7248956D01*
X14081556Y-7248956D01*
X10973600Y-8865400D02*
X11073600Y-8965400D01*
X11073600Y-8865400D02*
X10973600Y-8965400D01*
X11058956Y-8950756D02*
X11058956Y-8880044D01*
X10988244Y-8880044D01*
X10988244Y-8950756D01*
X11058956Y-8950756D01*
X11227600Y-8865400D02*
X11327600Y-8965400D01*
X11327600Y-8865400D02*
X11227600Y-8965400D01*
X11312956Y-8950756D02*
X11312956Y-8880044D01*
X11242244Y-8880044D01*
X11242244Y-8950756D01*
X11312956Y-8950756D01*
X11481600Y-8865400D02*
X11581600Y-8965400D01*
X11581600Y-8865400D02*
X11481600Y-8965400D01*
X11566956Y-8950756D02*
X11566956Y-8880044D01*
X11496244Y-8880044D01*
X11496244Y-8950756D01*
X11566956Y-8950756D01*
X11735600Y-8865400D02*
X11835600Y-8965400D01*
X11835600Y-8865400D02*
X11735600Y-8965400D01*
X11820956Y-8950756D02*
X11820956Y-8880044D01*
X11750244Y-8880044D01*
X11750244Y-8950756D01*
X11820956Y-8950756D01*
X11989600Y-8865400D02*
X12089600Y-8965400D01*
X12089600Y-8865400D02*
X11989600Y-8965400D01*
X12074956Y-8950756D02*
X12074956Y-8880044D01*
X12004244Y-8880044D01*
X12004244Y-8950756D01*
X12074956Y-8950756D01*
X12243600Y-8865400D02*
X12343600Y-8965400D01*
X12343600Y-8865400D02*
X12243600Y-8965400D01*
X12328956Y-8950756D02*
X12328956Y-8880044D01*
X12258244Y-8880044D01*
X12258244Y-8950756D01*
X12328956Y-8950756D01*
X12497600Y-8865400D02*
X12597600Y-8965400D01*
X12597600Y-8865400D02*
X12497600Y-8965400D01*
X12582956Y-8950756D02*
X12582956Y-8880044D01*
X12512244Y-8880044D01*
X12512244Y-8950756D01*
X12582956Y-8950756D01*
X10897400Y-7290600D02*
X10997400Y-7390600D01*
X10997400Y-7290600D02*
X10897400Y-7390600D01*
X10982756Y-7375956D02*
X10982756Y-7305244D01*
X10912044Y-7305244D01*
X10912044Y-7375956D01*
X10982756Y-7375956D01*
X10897400Y-7544600D02*
X10997400Y-7644600D01*
X10997400Y-7544600D02*
X10897400Y-7644600D01*
X10982756Y-7629956D02*
X10982756Y-7559244D01*
X10912044Y-7559244D01*
X10912044Y-7629956D01*
X10982756Y-7629956D01*
X10897400Y-7798600D02*
X10997400Y-7898600D01*
X10997400Y-7798600D02*
X10897400Y-7898600D01*
X10982756Y-7883956D02*
X10982756Y-7813244D01*
X10912044Y-7813244D01*
X10912044Y-7883956D01*
X10982756Y-7883956D01*
X10897400Y-8052600D02*
X10997400Y-8152600D01*
X10997400Y-8052600D02*
X10897400Y-8152600D01*
X10982756Y-8137956D02*
X10982756Y-8067244D01*
X10912044Y-8067244D01*
X10912044Y-8137956D01*
X10982756Y-8137956D01*
X10897400Y-8306600D02*
X10997400Y-8406600D01*
X10997400Y-8306600D02*
X10897400Y-8406600D01*
X10982756Y-8391956D02*
X10982756Y-8321244D01*
X10912044Y-8321244D01*
X10912044Y-8391956D01*
X10982756Y-8391956D01*
X13513600Y-8382800D02*
X13613600Y-8482800D01*
X13613600Y-8382800D02*
X13513600Y-8482800D01*
X13598956Y-8468156D02*
X13598956Y-8397444D01*
X13528244Y-8397444D01*
X13528244Y-8468156D01*
X13598956Y-8468156D01*
X13767600Y-8382800D02*
X13867600Y-8482800D01*
X13867600Y-8382800D02*
X13767600Y-8482800D01*
X13852956Y-8468156D02*
X13852956Y-8397444D01*
X13782244Y-8397444D01*
X13782244Y-8468156D01*
X13852956Y-8468156D01*
X14021600Y-8382800D02*
X14121600Y-8482800D01*
X14121600Y-8382800D02*
X14021600Y-8482800D01*
X14106956Y-8468156D02*
X14106956Y-8397444D01*
X14036244Y-8397444D01*
X14036244Y-8468156D01*
X14106956Y-8468156D01*
X15545600Y-6909600D02*
X15645600Y-7009600D01*
X15645600Y-6909600D02*
X15545600Y-7009600D01*
X15630956Y-6994956D02*
X15630956Y-6924244D01*
X15560244Y-6924244D01*
X15560244Y-6994956D01*
X15630956Y-6994956D01*
X15545600Y-7163600D02*
X15645600Y-7263600D01*
X15645600Y-7163600D02*
X15545600Y-7263600D01*
X15630956Y-7248956D02*
X15630956Y-7178244D01*
X15560244Y-7178244D01*
X15560244Y-7248956D01*
X15630956Y-7248956D01*
X10414800Y-7062000D02*
X10514800Y-7162000D01*
X10514800Y-7062000D02*
X10414800Y-7162000D01*
X10500156Y-7147356D02*
X10500156Y-7076644D01*
X10429444Y-7076644D01*
X10429444Y-7147356D01*
X10500156Y-7147356D01*
X10414800Y-7316000D02*
X10514800Y-7416000D01*
X10514800Y-7316000D02*
X10414800Y-7416000D01*
X10500156Y-7401356D02*
X10500156Y-7330644D01*
X10429444Y-7330644D01*
X10429444Y-7401356D01*
X10500156Y-7401356D01*
X10414800Y-7570000D02*
X10514800Y-7670000D01*
X10514800Y-7570000D02*
X10414800Y-7670000D01*
X10500156Y-7655356D02*
X10500156Y-7584644D01*
X10429444Y-7584644D01*
X10429444Y-7655356D01*
X10500156Y-7655356D01*
X10414800Y-7824000D02*
X10514800Y-7924000D01*
X10514800Y-7824000D02*
X10414800Y-7924000D01*
X10500156Y-7909356D02*
X10500156Y-7838644D01*
X10429444Y-7838644D01*
X10429444Y-7909356D01*
X10500156Y-7909356D01*
X10414800Y-8078000D02*
X10514800Y-8178000D01*
X10514800Y-8078000D02*
X10414800Y-8178000D01*
X10500156Y-8163356D02*
X10500156Y-8092644D01*
X10429444Y-8092644D01*
X10429444Y-8163356D01*
X10500156Y-8163356D01*
X10414800Y-8332000D02*
X10514800Y-8432000D01*
X10514800Y-8332000D02*
X10414800Y-8432000D01*
X10500156Y-8417356D02*
X10500156Y-8346644D01*
X10429444Y-8346644D01*
X10429444Y-8417356D01*
X10500156Y-8417356D01*
X10414800Y-8586000D02*
X10514800Y-8686000D01*
X10514800Y-8586000D02*
X10414800Y-8686000D01*
X10500156Y-8671356D02*
X10500156Y-8600644D01*
X10429444Y-8600644D01*
X10429444Y-8671356D01*
X10500156Y-8671356D01*
X10414800Y-8840000D02*
X10514800Y-8940000D01*
X10514800Y-8840000D02*
X10414800Y-8940000D01*
X10500156Y-8925356D02*
X10500156Y-8854644D01*
X10429444Y-8854644D01*
X10429444Y-8925356D01*
X10500156Y-8925356D01*
X10414800Y-9094000D02*
X10514800Y-9194000D01*
X10514800Y-9094000D02*
X10414800Y-9194000D01*
X10500156Y-9179356D02*
X10500156Y-9108644D01*
X10429444Y-9108644D01*
X10429444Y-9179356D01*
X10500156Y-9179356D01*
X10414800Y-9348000D02*
X10514800Y-9448000D01*
X10514800Y-9348000D02*
X10414800Y-9448000D01*
X10500156Y-9433356D02*
X10500156Y-9362644D01*
X10429444Y-9362644D01*
X10429444Y-9433356D01*
X10500156Y-9433356D01*
X10414800Y-9602000D02*
X10514800Y-9702000D01*
X10514800Y-9602000D02*
X10414800Y-9702000D01*
X10500156Y-9687356D02*
X10500156Y-9616644D01*
X10429444Y-9616644D01*
X10429444Y-9687356D01*
X10500156Y-9687356D01*
X10414800Y-9856000D02*
X10514800Y-9956000D01*
X10514800Y-9856000D02*
X10414800Y-9956000D01*
X10500156Y-9941356D02*
X10500156Y-9870644D01*
X10429444Y-9870644D01*
X10429444Y-9941356D01*
X10500156Y-9941356D01*
X10414800Y-10110000D02*
X10514800Y-10210000D01*
X10514800Y-10110000D02*
X10414800Y-10210000D01*
X10500156Y-10195356D02*
X10500156Y-10124644D01*
X10429444Y-10124644D01*
X10429444Y-10195356D01*
X10500156Y-10195356D01*
X10414800Y-10364000D02*
X10514800Y-10464000D01*
X10514800Y-10364000D02*
X10414800Y-10464000D01*
X10500156Y-10449356D02*
X10500156Y-10378644D01*
X10429444Y-10378644D01*
X10429444Y-10449356D01*
X10500156Y-10449356D01*
X10414800Y-10618000D02*
X10514800Y-10718000D01*
X10514800Y-10618000D02*
X10414800Y-10718000D01*
X10500156Y-10703356D02*
X10500156Y-10632644D01*
X10429444Y-10632644D01*
X10429444Y-10703356D01*
X10500156Y-10703356D01*
X10414800Y-10872000D02*
X10514800Y-10972000D01*
X10514800Y-10872000D02*
X10414800Y-10972000D01*
X10500156Y-10957356D02*
X10500156Y-10886644D01*
X10429444Y-10886644D01*
X10429444Y-10957356D01*
X10500156Y-10957356D01*
X10414800Y-11126000D02*
X10514800Y-11226000D01*
X10514800Y-11126000D02*
X10414800Y-11226000D01*
X10500156Y-11211356D02*
X10500156Y-11140644D01*
X10429444Y-11140644D01*
X10429444Y-11211356D01*
X10500156Y-11211356D01*
X10414800Y-11380000D02*
X10514800Y-11480000D01*
X10514800Y-11380000D02*
X10414800Y-11480000D01*
X10500156Y-11465356D02*
X10500156Y-11394644D01*
X10429444Y-11394644D01*
X10429444Y-11465356D01*
X10500156Y-11465356D01*
X10414800Y-11634000D02*
X10514800Y-11734000D01*
X10514800Y-11634000D02*
X10414800Y-11734000D01*
X10500156Y-11719356D02*
X10500156Y-11648644D01*
X10429444Y-11648644D01*
X10429444Y-11719356D01*
X10500156Y-11719356D01*
X13462800Y-9475000D02*
X13562800Y-9575000D01*
X13562800Y-9475000D02*
X13462800Y-9575000D01*
X13548156Y-9560356D02*
X13548156Y-9489644D01*
X13477444Y-9489644D01*
X13477444Y-9560356D01*
X13548156Y-9560356D01*
X14112800Y-9475000D02*
X14212800Y-9575000D01*
X14212800Y-9475000D02*
X14112800Y-9575000D01*
X14198156Y-9560356D02*
X14198156Y-9489644D01*
X14127444Y-9489644D01*
X14127444Y-9560356D01*
X14198156Y-9560356D01*
X11481600Y-7570000D02*
X11581600Y-7670000D01*
X11581600Y-7570000D02*
X11481600Y-7670000D01*
X11566956Y-7655356D02*
X11566956Y-7584644D01*
X11496244Y-7584644D01*
X11496244Y-7655356D01*
X11566956Y-7655356D01*
X11735600Y-7570000D02*
X11835600Y-7670000D01*
X11835600Y-7570000D02*
X11735600Y-7670000D01*
X11820956Y-7655356D02*
X11820956Y-7584644D01*
X11750244Y-7584644D01*
X11750244Y-7655356D01*
X11820956Y-7655356D01*
X11989600Y-7570000D02*
X12089600Y-7670000D01*
X12089600Y-7570000D02*
X11989600Y-7670000D01*
X12074956Y-7655356D02*
X12074956Y-7584644D01*
X12004244Y-7584644D01*
X12004244Y-7655356D01*
X12074956Y-7655356D01*
X12243600Y-7570000D02*
X12343600Y-7670000D01*
X12343600Y-7570000D02*
X12243600Y-7670000D01*
X12328956Y-7655356D02*
X12328956Y-7584644D01*
X12258244Y-7584644D01*
X12258244Y-7655356D01*
X12328956Y-7655356D01*
X12497600Y-7570000D02*
X12597600Y-7670000D01*
X12597600Y-7570000D02*
X12497600Y-7670000D01*
X12582956Y-7655356D02*
X12582956Y-7584644D01*
X12512244Y-7584644D01*
X12512244Y-7655356D01*
X12582956Y-7655356D01*
X11481600Y-7824000D02*
X11581600Y-7924000D01*
X11581600Y-7824000D02*
X11481600Y-7924000D01*
X11566956Y-7909356D02*
X11566956Y-7838644D01*
X11496244Y-7838644D01*
X11496244Y-7909356D01*
X11566956Y-7909356D01*
X11735600Y-7824000D02*
X11835600Y-7924000D01*
X11835600Y-7824000D02*
X11735600Y-7924000D01*
X11820956Y-7909356D02*
X11820956Y-7838644D01*
X11750244Y-7838644D01*
X11750244Y-7909356D01*
X11820956Y-7909356D01*
X11989600Y-7824000D02*
X12089600Y-7924000D01*
X12089600Y-7824000D02*
X11989600Y-7924000D01*
X12074956Y-7909356D02*
X12074956Y-7838644D01*
X12004244Y-7838644D01*
X12004244Y-7909356D01*
X12074956Y-7909356D01*
X12243600Y-7824000D02*
X12343600Y-7924000D01*
X12343600Y-7824000D02*
X12243600Y-7924000D01*
X12328956Y-7909356D02*
X12328956Y-7838644D01*
X12258244Y-7838644D01*
X12258244Y-7909356D01*
X12328956Y-7909356D01*
X12497600Y-7824000D02*
X12597600Y-7924000D01*
X12597600Y-7824000D02*
X12497600Y-7924000D01*
X12582956Y-7909356D02*
X12582956Y-7838644D01*
X12512244Y-7838644D01*
X12512244Y-7909356D01*
X12582956Y-7909356D01*
X14580400Y-6909600D02*
X14680400Y-7009600D01*
X14680400Y-6909600D02*
X14580400Y-7009600D01*
X14665756Y-6994956D02*
X14665756Y-6924244D01*
X14595044Y-6924244D01*
X14595044Y-6994956D01*
X14665756Y-6994956D01*
X14834400Y-6909600D02*
X14934400Y-7009600D01*
X14934400Y-6909600D02*
X14834400Y-7009600D01*
X14919756Y-6994956D02*
X14919756Y-6924244D01*
X14849044Y-6924244D01*
X14849044Y-6994956D01*
X14919756Y-6994956D01*
X15088400Y-6909600D02*
X15188400Y-7009600D01*
X15188400Y-6909600D02*
X15088400Y-7009600D01*
X15173756Y-6994956D02*
X15173756Y-6924244D01*
X15103044Y-6924244D01*
X15103044Y-6994956D01*
X15173756Y-6994956D01*
X13513600Y-8636800D02*
X13613600Y-8736800D01*
X13613600Y-8636800D02*
X13513600Y-8736800D01*
X13598956Y-8722156D02*
X13598956Y-8651444D01*
X13528244Y-8651444D01*
X13528244Y-8722156D01*
X13598956Y-8722156D01*
X13767600Y-8636800D02*
X13867600Y-8736800D01*
X13867600Y-8636800D02*
X13767600Y-8736800D01*
X13852956Y-8722156D02*
X13852956Y-8651444D01*
X13782244Y-8651444D01*
X13782244Y-8722156D01*
X13852956Y-8722156D01*
X14021600Y-8636800D02*
X14121600Y-8736800D01*
X14121600Y-8636800D02*
X14021600Y-8736800D01*
X14106956Y-8722156D02*
X14106956Y-8651444D01*
X14036244Y-8651444D01*
X14036244Y-8722156D01*
X14106956Y-8722156D01*
X16180600Y-9504400D02*
X16280600Y-9604400D01*
X16280600Y-9504400D02*
X16180600Y-9604400D01*
X16265956Y-9589756D02*
X16265956Y-9519044D01*
X16195244Y-9519044D01*
X16195244Y-9589756D01*
X16265956Y-9589756D01*
X16180600Y-9754400D02*
X16280600Y-9854400D01*
X16280600Y-9754400D02*
X16180600Y-9854400D01*
X16265956Y-9839756D02*
X16265956Y-9769044D01*
X16195244Y-9769044D01*
X16195244Y-9839756D01*
X16265956Y-9839756D01*
D12*
X10520128Y-12406214D02*
X10520128Y-12106214D01*
X10591557Y-12106214D01*
X10634414Y-12120500D01*
X10662986Y-12149071D01*
X10677271Y-12177643D01*
X10691557Y-12234786D01*
X10691557Y-12277643D01*
X10677271Y-12334786D01*
X10662986Y-12363357D01*
X10634414Y-12391929D01*
X10591557Y-12406214D01*
X10520128Y-12406214D01*
X10820128Y-12406214D02*
X10820128Y-12206214D01*
X10820128Y-12263357D02*
X10834414Y-12234786D01*
X10848700Y-12220500D01*
X10877271Y-12206214D01*
X10905843Y-12206214D01*
X11005843Y-12406214D02*
X11005843Y-12206214D01*
X11005843Y-12106214D02*
X10991557Y-12120500D01*
X11005843Y-12134786D01*
X11020128Y-12120500D01*
X11005843Y-12106214D01*
X11005843Y-12134786D01*
X11191557Y-12406214D02*
X11162986Y-12391929D01*
X11148700Y-12363357D01*
X11148700Y-12106214D01*
X11348700Y-12406214D02*
X11320128Y-12391929D01*
X11305843Y-12363357D01*
X11305843Y-12106214D01*
X11691557Y-12406214D02*
X11691557Y-12106214D01*
X11791557Y-12320500D01*
X11891557Y-12106214D01*
X11891557Y-12406214D01*
X12162986Y-12406214D02*
X12162986Y-12249071D01*
X12148700Y-12220500D01*
X12120128Y-12206214D01*
X12062986Y-12206214D01*
X12034414Y-12220500D01*
X12162986Y-12391929D02*
X12134414Y-12406214D01*
X12062986Y-12406214D01*
X12034414Y-12391929D01*
X12020128Y-12363357D01*
X12020128Y-12334786D01*
X12034414Y-12306214D01*
X12062986Y-12291929D01*
X12134414Y-12291929D01*
X12162986Y-12277643D01*
X12305843Y-12206214D02*
X12305843Y-12506214D01*
X12305843Y-12220500D02*
X12334414Y-12206214D01*
X12391557Y-12206214D01*
X12420128Y-12220500D01*
X12434414Y-12234786D01*
X12448700Y-12263357D01*
X12448700Y-12349071D01*
X12434414Y-12377643D01*
X12420128Y-12391929D01*
X12391557Y-12406214D01*
X12334414Y-12406214D01*
X12305843Y-12391929D01*
X12577271Y-12377643D02*
X12591557Y-12391929D01*
X12577271Y-12406214D01*
X12562986Y-12391929D01*
X12577271Y-12377643D01*
X12577271Y-12406214D01*
X12577271Y-12220500D02*
X12591557Y-12234786D01*
X12577271Y-12249071D01*
X12562986Y-12234786D01*
X12577271Y-12220500D01*
X12577271Y-12249071D01*
X10198700Y-12883000D02*
X10233700Y-12918000D01*
X10233700Y-12883000D02*
X10198700Y-12918000D01*
X10577271Y-12736214D02*
X10605843Y-12736214D01*
X10634414Y-12750500D01*
X10648700Y-12764786D01*
X10662986Y-12793357D01*
X10677271Y-12850500D01*
X10677271Y-12921929D01*
X10662986Y-12979071D01*
X10648700Y-13007643D01*
X10634414Y-13021929D01*
X10605843Y-13036214D01*
X10577271Y-13036214D01*
X10548700Y-13021929D01*
X10534414Y-13007643D01*
X10520128Y-12979071D01*
X10505843Y-12921929D01*
X10505843Y-12850500D01*
X10520128Y-12793357D01*
X10534414Y-12764786D01*
X10548700Y-12750500D01*
X10577271Y-12736214D01*
X10805843Y-13007643D02*
X10820128Y-13021929D01*
X10805843Y-13036214D01*
X10791557Y-13021929D01*
X10805843Y-13007643D01*
X10805843Y-13036214D01*
X10920128Y-12736214D02*
X11105843Y-12736214D01*
X11005843Y-12850500D01*
X11048700Y-12850500D01*
X11077271Y-12864786D01*
X11091557Y-12879071D01*
X11105843Y-12907643D01*
X11105843Y-12979071D01*
X11091557Y-13007643D01*
X11077271Y-13021929D01*
X11048700Y-13036214D01*
X10962986Y-13036214D01*
X10934414Y-13021929D01*
X10920128Y-13007643D01*
X11377271Y-12736214D02*
X11234414Y-12736214D01*
X11220128Y-12879071D01*
X11234414Y-12864786D01*
X11262986Y-12850500D01*
X11334414Y-12850500D01*
X11362986Y-12864786D01*
X11377271Y-12879071D01*
X11391557Y-12907643D01*
X11391557Y-12979071D01*
X11377271Y-13007643D01*
X11362986Y-13021929D01*
X11334414Y-13036214D01*
X11262986Y-13036214D01*
X11234414Y-13021929D01*
X11220128Y-13007643D01*
X11520128Y-13036214D02*
X11520128Y-12836214D01*
X11520128Y-12864786D02*
X11534414Y-12850500D01*
X11562986Y-12836214D01*
X11605843Y-12836214D01*
X11634414Y-12850500D01*
X11648700Y-12879071D01*
X11648700Y-13036214D01*
X11648700Y-12879071D02*
X11662986Y-12850500D01*
X11691557Y-12836214D01*
X11734414Y-12836214D01*
X11762986Y-12850500D01*
X11777271Y-12879071D01*
X11777271Y-13036214D01*
X11920128Y-13036214D02*
X11920128Y-12836214D01*
X11920128Y-12864786D02*
X11934414Y-12850500D01*
X11962986Y-12836214D01*
X12005843Y-12836214D01*
X12034414Y-12850500D01*
X12048700Y-12879071D01*
X12048700Y-13036214D01*
X12048700Y-12879071D02*
X12062986Y-12850500D01*
X12091557Y-12836214D01*
X12134414Y-12836214D01*
X12162986Y-12850500D01*
X12177271Y-12879071D01*
X12177271Y-13036214D01*
X12762986Y-12721929D02*
X12505843Y-13107643D01*
X13148700Y-12736214D02*
X13177271Y-12736214D01*
X13205843Y-12750500D01*
X13220128Y-12764786D01*
X13234414Y-12793357D01*
X13248700Y-12850500D01*
X13248700Y-12921929D01*
X13234414Y-12979071D01*
X13220128Y-13007643D01*
X13205843Y-13021929D01*
X13177271Y-13036214D01*
X13148700Y-13036214D01*
X13120128Y-13021929D01*
X13105843Y-13007643D01*
X13091557Y-12979071D01*
X13077271Y-12921929D01*
X13077271Y-12850500D01*
X13091557Y-12793357D01*
X13105843Y-12764786D01*
X13120128Y-12750500D01*
X13148700Y-12736214D01*
X13377271Y-13007643D02*
X13391557Y-13021929D01*
X13377271Y-13036214D01*
X13362986Y-13021929D01*
X13377271Y-13007643D01*
X13377271Y-13036214D01*
X13577271Y-12736214D02*
X13605843Y-12736214D01*
X13634414Y-12750500D01*
X13648700Y-12764786D01*
X13662986Y-12793357D01*
X13677271Y-12850500D01*
X13677271Y-12921929D01*
X13662986Y-12979071D01*
X13648700Y-13007643D01*
X13634414Y-13021929D01*
X13605843Y-13036214D01*
X13577271Y-13036214D01*
X13548700Y-13021929D01*
X13534414Y-13007643D01*
X13520128Y-12979071D01*
X13505843Y-12921929D01*
X13505843Y-12850500D01*
X13520128Y-12793357D01*
X13534414Y-12764786D01*
X13548700Y-12750500D01*
X13577271Y-12736214D01*
X13962986Y-13036214D02*
X13791557Y-13036214D01*
X13877271Y-13036214D02*
X13877271Y-12736214D01*
X13848700Y-12779071D01*
X13820128Y-12807643D01*
X13791557Y-12821929D01*
X14220128Y-12836214D02*
X14220128Y-13036214D01*
X14148700Y-12721929D02*
X14077271Y-12936214D01*
X14262986Y-12936214D01*
X14362986Y-12736214D02*
X14362986Y-12793357D01*
X14477271Y-12736214D02*
X14477271Y-12793357D01*
X14920128Y-13150500D02*
X14905843Y-13136214D01*
X14877271Y-13093357D01*
X14862986Y-13064786D01*
X14848700Y-13021929D01*
X14834414Y-12950500D01*
X14834414Y-12893357D01*
X14848700Y-12821929D01*
X14862986Y-12779071D01*
X14877271Y-12750500D01*
X14905843Y-12707643D01*
X14920128Y-12693357D01*
X15091557Y-12736214D02*
X15120128Y-12736214D01*
X15148700Y-12750500D01*
X15162986Y-12764786D01*
X15177271Y-12793357D01*
X15191557Y-12850500D01*
X15191557Y-12921929D01*
X15177271Y-12979071D01*
X15162986Y-13007643D01*
X15148700Y-13021929D01*
X15120128Y-13036214D01*
X15091557Y-13036214D01*
X15062986Y-13021929D01*
X15048700Y-13007643D01*
X15034414Y-12979071D01*
X15020128Y-12921929D01*
X15020128Y-12850500D01*
X15034414Y-12793357D01*
X15048700Y-12764786D01*
X15062986Y-12750500D01*
X15091557Y-12736214D01*
X15548700Y-13036214D02*
X15548700Y-12736214D01*
X15677271Y-13036214D02*
X15677271Y-12879071D01*
X15662986Y-12850500D01*
X15634414Y-12836214D01*
X15591557Y-12836214D01*
X15562986Y-12850500D01*
X15548700Y-12864786D01*
X15862986Y-13036214D02*
X15834414Y-13021929D01*
X15820128Y-13007643D01*
X15805843Y-12979071D01*
X15805843Y-12893357D01*
X15820128Y-12864786D01*
X15834414Y-12850500D01*
X15862986Y-12836214D01*
X15905843Y-12836214D01*
X15934414Y-12850500D01*
X15948700Y-12864786D01*
X15962986Y-12893357D01*
X15962986Y-12979071D01*
X15948700Y-13007643D01*
X15934414Y-13021929D01*
X15905843Y-13036214D01*
X15862986Y-13036214D01*
X16134414Y-13036214D02*
X16105843Y-13021929D01*
X16091557Y-12993357D01*
X16091557Y-12736214D01*
X16362986Y-13021929D02*
X16334414Y-13036214D01*
X16277271Y-13036214D01*
X16248700Y-13021929D01*
X16234414Y-12993357D01*
X16234414Y-12879071D01*
X16248700Y-12850500D01*
X16277271Y-12836214D01*
X16334414Y-12836214D01*
X16362986Y-12850500D01*
X16377271Y-12879071D01*
X16377271Y-12907643D01*
X16234414Y-12936214D01*
X16491557Y-13021929D02*
X16520128Y-13036214D01*
X16577271Y-13036214D01*
X16605843Y-13021929D01*
X16620128Y-12993357D01*
X16620128Y-12979071D01*
X16605843Y-12950500D01*
X16577271Y-12936214D01*
X16534414Y-12936214D01*
X16505843Y-12921929D01*
X16491557Y-12893357D01*
X16491557Y-12879071D01*
X16505843Y-12850500D01*
X16534414Y-12836214D01*
X16577271Y-12836214D01*
X16605843Y-12850500D01*
X16977271Y-12921929D02*
X17205843Y-12921929D01*
X17091557Y-13036214D02*
X17091557Y-12807643D01*
X17562986Y-12764786D02*
X17577271Y-12750500D01*
X17605843Y-12736214D01*
X17677271Y-12736214D01*
X17705843Y-12750500D01*
X17720128Y-12764786D01*
X17734414Y-12793357D01*
X17734414Y-12821929D01*
X17720128Y-12864786D01*
X17548700Y-13036214D01*
X17734414Y-13036214D01*
X18077271Y-13021929D02*
X18105843Y-13036214D01*
X18162986Y-13036214D01*
X18191557Y-13021929D01*
X18205843Y-12993357D01*
X18205843Y-12979071D01*
X18191557Y-12950500D01*
X18162986Y-12936214D01*
X18120128Y-12936214D01*
X18091557Y-12921929D01*
X18077271Y-12893357D01*
X18077271Y-12879071D01*
X18091557Y-12850500D01*
X18120128Y-12836214D01*
X18162986Y-12836214D01*
X18191557Y-12850500D01*
X18377271Y-13036214D02*
X18348700Y-13021929D01*
X18334414Y-12993357D01*
X18334414Y-12736214D01*
X18534414Y-13036214D02*
X18505843Y-13021929D01*
X18491557Y-13007643D01*
X18477271Y-12979071D01*
X18477271Y-12893357D01*
X18491557Y-12864786D01*
X18505843Y-12850500D01*
X18534414Y-12836214D01*
X18577271Y-12836214D01*
X18605843Y-12850500D01*
X18620128Y-12864786D01*
X18634414Y-12893357D01*
X18634414Y-12979071D01*
X18620128Y-13007643D01*
X18605843Y-13021929D01*
X18577271Y-13036214D01*
X18534414Y-13036214D01*
X18720128Y-12836214D02*
X18834414Y-12836214D01*
X18762986Y-12736214D02*
X18762986Y-12993357D01*
X18777271Y-13021929D01*
X18805843Y-13036214D01*
X18834414Y-13036214D01*
X18920128Y-13021929D02*
X18948700Y-13036214D01*
X19005843Y-13036214D01*
X19034414Y-13021929D01*
X19048700Y-12993357D01*
X19048700Y-12979071D01*
X19034414Y-12950500D01*
X19005843Y-12936214D01*
X18962986Y-12936214D01*
X18934414Y-12921929D01*
X18920128Y-12893357D01*
X18920128Y-12879071D01*
X18934414Y-12850500D01*
X18962986Y-12836214D01*
X19005843Y-12836214D01*
X19034414Y-12850500D01*
X19148700Y-13150500D02*
X19162986Y-13136214D01*
X19191557Y-13093357D01*
X19205843Y-13064786D01*
X19220128Y-13021929D01*
X19234414Y-12950500D01*
X19234414Y-12893357D01*
X19220128Y-12821929D01*
X19205843Y-12779071D01*
X19191557Y-12750500D01*
X19162986Y-12707643D01*
X19148700Y-12693357D01*
X10233700Y-13296500D02*
G75*
G03X10233700Y-13296500I-20000J0D01*
G01*
X10577271Y-13132214D02*
X10605843Y-13132214D01*
X10634414Y-13146500D01*
X10648700Y-13160786D01*
X10662986Y-13189357D01*
X10677271Y-13246500D01*
X10677271Y-13317929D01*
X10662986Y-13375071D01*
X10648700Y-13403643D01*
X10634414Y-13417929D01*
X10605843Y-13432214D01*
X10577271Y-13432214D01*
X10548700Y-13417929D01*
X10534414Y-13403643D01*
X10520128Y-13375071D01*
X10505843Y-13317929D01*
X10505843Y-13246500D01*
X10520128Y-13189357D01*
X10534414Y-13160786D01*
X10548700Y-13146500D01*
X10577271Y-13132214D01*
X10805843Y-13403643D02*
X10820128Y-13417929D01*
X10805843Y-13432214D01*
X10791557Y-13417929D01*
X10805843Y-13403643D01*
X10805843Y-13432214D01*
X11077271Y-13232214D02*
X11077271Y-13432214D01*
X11005843Y-13117929D02*
X10934414Y-13332214D01*
X11120128Y-13332214D01*
X11291557Y-13132214D02*
X11320128Y-13132214D01*
X11348700Y-13146500D01*
X11362986Y-13160786D01*
X11377271Y-13189357D01*
X11391557Y-13246500D01*
X11391557Y-13317929D01*
X11377271Y-13375071D01*
X11362986Y-13403643D01*
X11348700Y-13417929D01*
X11320128Y-13432214D01*
X11291557Y-13432214D01*
X11262986Y-13417929D01*
X11248700Y-13403643D01*
X11234414Y-13375071D01*
X11220128Y-13317929D01*
X11220128Y-13246500D01*
X11234414Y-13189357D01*
X11248700Y-13160786D01*
X11262986Y-13146500D01*
X11291557Y-13132214D01*
X11520128Y-13432214D02*
X11520128Y-13232214D01*
X11520128Y-13260786D02*
X11534414Y-13246500D01*
X11562986Y-13232214D01*
X11605843Y-13232214D01*
X11634414Y-13246500D01*
X11648700Y-13275071D01*
X11648700Y-13432214D01*
X11648700Y-13275071D02*
X11662986Y-13246500D01*
X11691557Y-13232214D01*
X11734414Y-13232214D01*
X11762986Y-13246500D01*
X11777271Y-13275071D01*
X11777271Y-13432214D01*
X11920128Y-13432214D02*
X11920128Y-13232214D01*
X11920128Y-13260786D02*
X11934414Y-13246500D01*
X11962986Y-13232214D01*
X12005843Y-13232214D01*
X12034414Y-13246500D01*
X12048700Y-13275071D01*
X12048700Y-13432214D01*
X12048700Y-13275071D02*
X12062986Y-13246500D01*
X12091557Y-13232214D01*
X12134414Y-13232214D01*
X12162986Y-13246500D01*
X12177271Y-13275071D01*
X12177271Y-13432214D01*
X12762986Y-13117929D02*
X12505843Y-13503643D01*
X13148700Y-13132214D02*
X13177271Y-13132214D01*
X13205843Y-13146500D01*
X13220128Y-13160786D01*
X13234414Y-13189357D01*
X13248700Y-13246500D01*
X13248700Y-13317929D01*
X13234414Y-13375071D01*
X13220128Y-13403643D01*
X13205843Y-13417929D01*
X13177271Y-13432214D01*
X13148700Y-13432214D01*
X13120128Y-13417929D01*
X13105843Y-13403643D01*
X13091557Y-13375071D01*
X13077271Y-13317929D01*
X13077271Y-13246500D01*
X13091557Y-13189357D01*
X13105843Y-13160786D01*
X13120128Y-13146500D01*
X13148700Y-13132214D01*
X13377271Y-13403643D02*
X13391557Y-13417929D01*
X13377271Y-13432214D01*
X13362986Y-13417929D01*
X13377271Y-13403643D01*
X13377271Y-13432214D01*
X13577271Y-13132214D02*
X13605843Y-13132214D01*
X13634414Y-13146500D01*
X13648700Y-13160786D01*
X13662986Y-13189357D01*
X13677271Y-13246500D01*
X13677271Y-13317929D01*
X13662986Y-13375071D01*
X13648700Y-13403643D01*
X13634414Y-13417929D01*
X13605843Y-13432214D01*
X13577271Y-13432214D01*
X13548700Y-13417929D01*
X13534414Y-13403643D01*
X13520128Y-13375071D01*
X13505843Y-13317929D01*
X13505843Y-13246500D01*
X13520128Y-13189357D01*
X13534414Y-13160786D01*
X13548700Y-13146500D01*
X13577271Y-13132214D01*
X13962986Y-13432214D02*
X13791557Y-13432214D01*
X13877271Y-13432214D02*
X13877271Y-13132214D01*
X13848700Y-13175071D01*
X13820128Y-13203643D01*
X13791557Y-13217929D01*
X14220128Y-13132214D02*
X14162986Y-13132214D01*
X14134414Y-13146500D01*
X14120128Y-13160786D01*
X14091557Y-13203643D01*
X14077271Y-13260786D01*
X14077271Y-13375071D01*
X14091557Y-13403643D01*
X14105843Y-13417929D01*
X14134414Y-13432214D01*
X14191557Y-13432214D01*
X14220128Y-13417929D01*
X14234414Y-13403643D01*
X14248700Y-13375071D01*
X14248700Y-13303643D01*
X14234414Y-13275071D01*
X14220128Y-13260786D01*
X14191557Y-13246500D01*
X14134414Y-13246500D01*
X14105843Y-13260786D01*
X14091557Y-13275071D01*
X14077271Y-13303643D01*
X14362986Y-13132214D02*
X14362986Y-13189357D01*
X14477271Y-13132214D02*
X14477271Y-13189357D01*
X14920128Y-13546500D02*
X14905843Y-13532214D01*
X14877271Y-13489357D01*
X14862986Y-13460786D01*
X14848700Y-13417929D01*
X14834414Y-13346500D01*
X14834414Y-13289357D01*
X14848700Y-13217929D01*
X14862986Y-13175071D01*
X14877271Y-13146500D01*
X14905843Y-13103643D01*
X14920128Y-13089357D01*
X15048700Y-13432214D02*
X15105843Y-13432214D01*
X15134414Y-13417929D01*
X15148700Y-13403643D01*
X15177271Y-13360786D01*
X15191557Y-13303643D01*
X15191557Y-13189357D01*
X15177271Y-13160786D01*
X15162986Y-13146500D01*
X15134414Y-13132214D01*
X15077271Y-13132214D01*
X15048700Y-13146500D01*
X15034414Y-13160786D01*
X15020128Y-13189357D01*
X15020128Y-13260786D01*
X15034414Y-13289357D01*
X15048700Y-13303643D01*
X15077271Y-13317929D01*
X15134414Y-13317929D01*
X15162986Y-13303643D01*
X15177271Y-13289357D01*
X15191557Y-13260786D01*
X15548700Y-13432214D02*
X15548700Y-13132214D01*
X15677271Y-13432214D02*
X15677271Y-13275071D01*
X15662986Y-13246500D01*
X15634414Y-13232214D01*
X15591557Y-13232214D01*
X15562986Y-13246500D01*
X15548700Y-13260786D01*
X15862986Y-13432214D02*
X15834414Y-13417929D01*
X15820128Y-13403643D01*
X15805843Y-13375071D01*
X15805843Y-13289357D01*
X15820128Y-13260786D01*
X15834414Y-13246500D01*
X15862986Y-13232214D01*
X15905843Y-13232214D01*
X15934414Y-13246500D01*
X15948700Y-13260786D01*
X15962986Y-13289357D01*
X15962986Y-13375071D01*
X15948700Y-13403643D01*
X15934414Y-13417929D01*
X15905843Y-13432214D01*
X15862986Y-13432214D01*
X16134414Y-13432214D02*
X16105843Y-13417929D01*
X16091557Y-13389357D01*
X16091557Y-13132214D01*
X16362986Y-13417929D02*
X16334414Y-13432214D01*
X16277271Y-13432214D01*
X16248700Y-13417929D01*
X16234414Y-13389357D01*
X16234414Y-13275071D01*
X16248700Y-13246500D01*
X16277271Y-13232214D01*
X16334414Y-13232214D01*
X16362986Y-13246500D01*
X16377271Y-13275071D01*
X16377271Y-13303643D01*
X16234414Y-13332214D01*
X16491557Y-13417929D02*
X16520128Y-13432214D01*
X16577271Y-13432214D01*
X16605843Y-13417929D01*
X16620128Y-13389357D01*
X16620128Y-13375071D01*
X16605843Y-13346500D01*
X16577271Y-13332214D01*
X16534414Y-13332214D01*
X16505843Y-13317929D01*
X16491557Y-13289357D01*
X16491557Y-13275071D01*
X16505843Y-13246500D01*
X16534414Y-13232214D01*
X16577271Y-13232214D01*
X16605843Y-13246500D01*
X16720128Y-13546500D02*
X16734414Y-13532214D01*
X16762986Y-13489357D01*
X16777271Y-13460786D01*
X16791557Y-13417929D01*
X16805843Y-13346500D01*
X16805843Y-13289357D01*
X16791557Y-13217929D01*
X16777271Y-13175071D01*
X16762986Y-13146500D01*
X16734414Y-13103643D01*
X16720128Y-13089357D01*
X10211700Y-13670500D02*
X10211700Y-13714500D01*
X10189700Y-13692500D02*
X10233700Y-13692500D01*
X10577271Y-13528214D02*
X10605843Y-13528214D01*
X10634414Y-13542500D01*
X10648700Y-13556786D01*
X10662986Y-13585357D01*
X10677271Y-13642500D01*
X10677271Y-13713929D01*
X10662986Y-13771071D01*
X10648700Y-13799643D01*
X10634414Y-13813929D01*
X10605843Y-13828214D01*
X10577271Y-13828214D01*
X10548700Y-13813929D01*
X10534414Y-13799643D01*
X10520128Y-13771071D01*
X10505843Y-13713929D01*
X10505843Y-13642500D01*
X10520128Y-13585357D01*
X10534414Y-13556786D01*
X10548700Y-13542500D01*
X10577271Y-13528214D01*
X10805843Y-13799643D02*
X10820128Y-13813929D01*
X10805843Y-13828214D01*
X10791557Y-13813929D01*
X10805843Y-13799643D01*
X10805843Y-13828214D01*
X11077271Y-13628214D02*
X11077271Y-13828214D01*
X11005843Y-13513929D02*
X10934414Y-13728214D01*
X11120128Y-13728214D01*
X11362986Y-13628214D02*
X11362986Y-13828214D01*
X11291557Y-13513929D02*
X11220128Y-13728214D01*
X11405843Y-13728214D01*
X11520128Y-13828214D02*
X11520128Y-13628214D01*
X11520128Y-13656786D02*
X11534414Y-13642500D01*
X11562986Y-13628214D01*
X11605843Y-13628214D01*
X11634414Y-13642500D01*
X11648700Y-13671071D01*
X11648700Y-13828214D01*
X11648700Y-13671071D02*
X11662986Y-13642500D01*
X11691557Y-13628214D01*
X11734414Y-13628214D01*
X11762986Y-13642500D01*
X11777271Y-13671071D01*
X11777271Y-13828214D01*
X11920128Y-13828214D02*
X11920128Y-13628214D01*
X11920128Y-13656786D02*
X11934414Y-13642500D01*
X11962986Y-13628214D01*
X12005843Y-13628214D01*
X12034414Y-13642500D01*
X12048700Y-13671071D01*
X12048700Y-13828214D01*
X12048700Y-13671071D02*
X12062986Y-13642500D01*
X12091557Y-13628214D01*
X12134414Y-13628214D01*
X12162986Y-13642500D01*
X12177271Y-13671071D01*
X12177271Y-13828214D01*
X12762986Y-13513929D02*
X12505843Y-13899643D01*
X13148700Y-13528214D02*
X13177271Y-13528214D01*
X13205843Y-13542500D01*
X13220128Y-13556786D01*
X13234414Y-13585357D01*
X13248700Y-13642500D01*
X13248700Y-13713929D01*
X13234414Y-13771071D01*
X13220128Y-13799643D01*
X13205843Y-13813929D01*
X13177271Y-13828214D01*
X13148700Y-13828214D01*
X13120128Y-13813929D01*
X13105843Y-13799643D01*
X13091557Y-13771071D01*
X13077271Y-13713929D01*
X13077271Y-13642500D01*
X13091557Y-13585357D01*
X13105843Y-13556786D01*
X13120128Y-13542500D01*
X13148700Y-13528214D01*
X13377271Y-13799643D02*
X13391557Y-13813929D01*
X13377271Y-13828214D01*
X13362986Y-13813929D01*
X13377271Y-13799643D01*
X13377271Y-13828214D01*
X13577271Y-13528214D02*
X13605843Y-13528214D01*
X13634414Y-13542500D01*
X13648700Y-13556786D01*
X13662986Y-13585357D01*
X13677271Y-13642500D01*
X13677271Y-13713929D01*
X13662986Y-13771071D01*
X13648700Y-13799643D01*
X13634414Y-13813929D01*
X13605843Y-13828214D01*
X13577271Y-13828214D01*
X13548700Y-13813929D01*
X13534414Y-13799643D01*
X13520128Y-13771071D01*
X13505843Y-13713929D01*
X13505843Y-13642500D01*
X13520128Y-13585357D01*
X13534414Y-13556786D01*
X13548700Y-13542500D01*
X13577271Y-13528214D01*
X13962986Y-13828214D02*
X13791557Y-13828214D01*
X13877271Y-13828214D02*
X13877271Y-13528214D01*
X13848700Y-13571071D01*
X13820128Y-13599643D01*
X13791557Y-13613929D01*
X14062986Y-13528214D02*
X14262986Y-13528214D01*
X14134414Y-13828214D01*
X14362986Y-13528214D02*
X14362986Y-13585357D01*
X14477271Y-13528214D02*
X14477271Y-13585357D01*
X14920128Y-13942500D02*
X14905843Y-13928214D01*
X14877271Y-13885357D01*
X14862986Y-13856786D01*
X14848700Y-13813929D01*
X14834414Y-13742500D01*
X14834414Y-13685357D01*
X14848700Y-13613929D01*
X14862986Y-13571071D01*
X14877271Y-13542500D01*
X14905843Y-13499643D01*
X14920128Y-13485357D01*
X15177271Y-13528214D02*
X15034414Y-13528214D01*
X15020128Y-13671071D01*
X15034414Y-13656786D01*
X15062986Y-13642500D01*
X15134414Y-13642500D01*
X15162986Y-13656786D01*
X15177271Y-13671071D01*
X15191557Y-13699643D01*
X15191557Y-13771071D01*
X15177271Y-13799643D01*
X15162986Y-13813929D01*
X15134414Y-13828214D01*
X15062986Y-13828214D01*
X15034414Y-13813929D01*
X15020128Y-13799643D01*
X15548700Y-13828214D02*
X15548700Y-13528214D01*
X15677271Y-13828214D02*
X15677271Y-13671071D01*
X15662986Y-13642500D01*
X15634414Y-13628214D01*
X15591557Y-13628214D01*
X15562986Y-13642500D01*
X15548700Y-13656786D01*
X15862986Y-13828214D02*
X15834414Y-13813929D01*
X15820128Y-13799643D01*
X15805843Y-13771071D01*
X15805843Y-13685357D01*
X15820128Y-13656786D01*
X15834414Y-13642500D01*
X15862986Y-13628214D01*
X15905843Y-13628214D01*
X15934414Y-13642500D01*
X15948700Y-13656786D01*
X15962986Y-13685357D01*
X15962986Y-13771071D01*
X15948700Y-13799643D01*
X15934414Y-13813929D01*
X15905843Y-13828214D01*
X15862986Y-13828214D01*
X16134414Y-13828214D02*
X16105843Y-13813929D01*
X16091557Y-13785357D01*
X16091557Y-13528214D01*
X16362986Y-13813929D02*
X16334414Y-13828214D01*
X16277271Y-13828214D01*
X16248700Y-13813929D01*
X16234414Y-13785357D01*
X16234414Y-13671071D01*
X16248700Y-13642500D01*
X16277271Y-13628214D01*
X16334414Y-13628214D01*
X16362986Y-13642500D01*
X16377271Y-13671071D01*
X16377271Y-13699643D01*
X16234414Y-13728214D01*
X16491557Y-13813929D02*
X16520128Y-13828214D01*
X16577271Y-13828214D01*
X16605843Y-13813929D01*
X16620128Y-13785357D01*
X16620128Y-13771071D01*
X16605843Y-13742500D01*
X16577271Y-13728214D01*
X16534414Y-13728214D01*
X16505843Y-13713929D01*
X16491557Y-13685357D01*
X16491557Y-13671071D01*
X16505843Y-13642500D01*
X16534414Y-13628214D01*
X16577271Y-13628214D01*
X16605843Y-13642500D01*
X16720128Y-13942500D02*
X16734414Y-13928214D01*
X16762986Y-13885357D01*
X16777271Y-13856786D01*
X16791557Y-13813929D01*
X16805843Y-13742500D01*
X16805843Y-13685357D01*
X16791557Y-13613929D01*
X16777271Y-13571071D01*
X16762986Y-13542500D01*
X16734414Y-13499643D01*
X16720128Y-13485357D01*
X10223449Y-14113249D02*
X10223449Y-14063751D01*
X10173951Y-14063751D01*
X10173951Y-14113249D01*
X10223449Y-14113249D01*
X10577271Y-13924214D02*
X10605843Y-13924214D01*
X10634414Y-13938500D01*
X10648700Y-13952786D01*
X10662986Y-13981357D01*
X10677271Y-14038500D01*
X10677271Y-14109929D01*
X10662986Y-14167071D01*
X10648700Y-14195643D01*
X10634414Y-14209929D01*
X10605843Y-14224214D01*
X10577271Y-14224214D01*
X10548700Y-14209929D01*
X10534414Y-14195643D01*
X10520128Y-14167071D01*
X10505843Y-14109929D01*
X10505843Y-14038500D01*
X10520128Y-13981357D01*
X10534414Y-13952786D01*
X10548700Y-13938500D01*
X10577271Y-13924214D01*
X10805843Y-14195643D02*
X10820128Y-14209929D01*
X10805843Y-14224214D01*
X10791557Y-14209929D01*
X10805843Y-14195643D01*
X10805843Y-14224214D01*
X10920128Y-13924214D02*
X11120128Y-13924214D01*
X10991557Y-14224214D01*
X11291557Y-13924214D02*
X11320128Y-13924214D01*
X11348700Y-13938500D01*
X11362986Y-13952786D01*
X11377271Y-13981357D01*
X11391557Y-14038500D01*
X11391557Y-14109929D01*
X11377271Y-14167071D01*
X11362986Y-14195643D01*
X11348700Y-14209929D01*
X11320128Y-14224214D01*
X11291557Y-14224214D01*
X11262986Y-14209929D01*
X11248700Y-14195643D01*
X11234414Y-14167071D01*
X11220128Y-14109929D01*
X11220128Y-14038500D01*
X11234414Y-13981357D01*
X11248700Y-13952786D01*
X11262986Y-13938500D01*
X11291557Y-13924214D01*
X11520128Y-14224214D02*
X11520128Y-14024214D01*
X11520128Y-14052786D02*
X11534414Y-14038500D01*
X11562986Y-14024214D01*
X11605843Y-14024214D01*
X11634414Y-14038500D01*
X11648700Y-14067071D01*
X11648700Y-14224214D01*
X11648700Y-14067071D02*
X11662986Y-14038500D01*
X11691557Y-14024214D01*
X11734414Y-14024214D01*
X11762986Y-14038500D01*
X11777271Y-14067071D01*
X11777271Y-14224214D01*
X11920128Y-14224214D02*
X11920128Y-14024214D01*
X11920128Y-14052786D02*
X11934414Y-14038500D01*
X11962986Y-14024214D01*
X12005843Y-14024214D01*
X12034414Y-14038500D01*
X12048700Y-14067071D01*
X12048700Y-14224214D01*
X12048700Y-14067071D02*
X12062986Y-14038500D01*
X12091557Y-14024214D01*
X12134414Y-14024214D01*
X12162986Y-14038500D01*
X12177271Y-14067071D01*
X12177271Y-14224214D01*
X12762986Y-13909929D02*
X12505843Y-14295643D01*
X13148700Y-13924214D02*
X13177271Y-13924214D01*
X13205843Y-13938500D01*
X13220128Y-13952786D01*
X13234414Y-13981357D01*
X13248700Y-14038500D01*
X13248700Y-14109929D01*
X13234414Y-14167071D01*
X13220128Y-14195643D01*
X13205843Y-14209929D01*
X13177271Y-14224214D01*
X13148700Y-14224214D01*
X13120128Y-14209929D01*
X13105843Y-14195643D01*
X13091557Y-14167071D01*
X13077271Y-14109929D01*
X13077271Y-14038500D01*
X13091557Y-13981357D01*
X13105843Y-13952786D01*
X13120128Y-13938500D01*
X13148700Y-13924214D01*
X13377271Y-14195643D02*
X13391557Y-14209929D01*
X13377271Y-14224214D01*
X13362986Y-14209929D01*
X13377271Y-14195643D01*
X13377271Y-14224214D01*
X13577271Y-13924214D02*
X13605843Y-13924214D01*
X13634414Y-13938500D01*
X13648700Y-13952786D01*
X13662986Y-13981357D01*
X13677271Y-14038500D01*
X13677271Y-14109929D01*
X13662986Y-14167071D01*
X13648700Y-14195643D01*
X13634414Y-14209929D01*
X13605843Y-14224214D01*
X13577271Y-14224214D01*
X13548700Y-14209929D01*
X13534414Y-14195643D01*
X13520128Y-14167071D01*
X13505843Y-14109929D01*
X13505843Y-14038500D01*
X13520128Y-13981357D01*
X13534414Y-13952786D01*
X13548700Y-13938500D01*
X13577271Y-13924214D01*
X13791557Y-13952786D02*
X13805843Y-13938500D01*
X13834414Y-13924214D01*
X13905843Y-13924214D01*
X13934414Y-13938500D01*
X13948700Y-13952786D01*
X13962986Y-13981357D01*
X13962986Y-14009929D01*
X13948700Y-14052786D01*
X13777271Y-14224214D01*
X13962986Y-14224214D01*
X14134414Y-14052786D02*
X14105843Y-14038500D01*
X14091557Y-14024214D01*
X14077271Y-13995643D01*
X14077271Y-13981357D01*
X14091557Y-13952786D01*
X14105843Y-13938500D01*
X14134414Y-13924214D01*
X14191557Y-13924214D01*
X14220128Y-13938500D01*
X14234414Y-13952786D01*
X14248700Y-13981357D01*
X14248700Y-13995643D01*
X14234414Y-14024214D01*
X14220128Y-14038500D01*
X14191557Y-14052786D01*
X14134414Y-14052786D01*
X14105843Y-14067071D01*
X14091557Y-14081357D01*
X14077271Y-14109929D01*
X14077271Y-14167071D01*
X14091557Y-14195643D01*
X14105843Y-14209929D01*
X14134414Y-14224214D01*
X14191557Y-14224214D01*
X14220128Y-14209929D01*
X14234414Y-14195643D01*
X14248700Y-14167071D01*
X14248700Y-14109929D01*
X14234414Y-14081357D01*
X14220128Y-14067071D01*
X14191557Y-14052786D01*
X14362986Y-13924214D02*
X14362986Y-13981357D01*
X14477271Y-13924214D02*
X14477271Y-13981357D01*
X14920128Y-14338500D02*
X14905843Y-14324214D01*
X14877271Y-14281357D01*
X14862986Y-14252786D01*
X14848700Y-14209929D01*
X14834414Y-14138500D01*
X14834414Y-14081357D01*
X14848700Y-14009929D01*
X14862986Y-13967071D01*
X14877271Y-13938500D01*
X14905843Y-13895643D01*
X14920128Y-13881357D01*
X15162986Y-14024214D02*
X15162986Y-14224214D01*
X15091557Y-13909929D02*
X15020128Y-14124214D01*
X15205843Y-14124214D01*
X15548700Y-14224214D02*
X15548700Y-13924214D01*
X15677271Y-14224214D02*
X15677271Y-14067071D01*
X15662986Y-14038500D01*
X15634414Y-14024214D01*
X15591557Y-14024214D01*
X15562986Y-14038500D01*
X15548700Y-14052786D01*
X15862986Y-14224214D02*
X15834414Y-14209929D01*
X15820128Y-14195643D01*
X15805843Y-14167071D01*
X15805843Y-14081357D01*
X15820128Y-14052786D01*
X15834414Y-14038500D01*
X15862986Y-14024214D01*
X15905843Y-14024214D01*
X15934414Y-14038500D01*
X15948700Y-14052786D01*
X15962986Y-14081357D01*
X15962986Y-14167071D01*
X15948700Y-14195643D01*
X15934414Y-14209929D01*
X15905843Y-14224214D01*
X15862986Y-14224214D01*
X16134414Y-14224214D02*
X16105843Y-14209929D01*
X16091557Y-14181357D01*
X16091557Y-13924214D01*
X16362986Y-14209929D02*
X16334414Y-14224214D01*
X16277271Y-14224214D01*
X16248700Y-14209929D01*
X16234414Y-14181357D01*
X16234414Y-14067071D01*
X16248700Y-14038500D01*
X16277271Y-14024214D01*
X16334414Y-14024214D01*
X16362986Y-14038500D01*
X16377271Y-14067071D01*
X16377271Y-14095643D01*
X16234414Y-14124214D01*
X16491557Y-14209929D02*
X16520128Y-14224214D01*
X16577271Y-14224214D01*
X16605843Y-14209929D01*
X16620128Y-14181357D01*
X16620128Y-14167071D01*
X16605843Y-14138500D01*
X16577271Y-14124214D01*
X16534414Y-14124214D01*
X16505843Y-14109929D01*
X16491557Y-14081357D01*
X16491557Y-14067071D01*
X16505843Y-14038500D01*
X16534414Y-14024214D01*
X16577271Y-14024214D01*
X16605843Y-14038500D01*
X16720128Y-14338500D02*
X16734414Y-14324214D01*
X16762986Y-14281357D01*
X16777271Y-14252786D01*
X16791557Y-14209929D01*
X16805843Y-14138500D01*
X16805843Y-14081357D01*
X16791557Y-14009929D01*
X16777271Y-13967071D01*
X16762986Y-13938500D01*
X16734414Y-13895643D01*
X16720128Y-13881357D01*
X10193700Y-14524500D02*
X10233700Y-14484500D01*
X10193700Y-14444500D01*
X10153700Y-14484500D01*
X10193700Y-14524500D01*
X10577271Y-14320214D02*
X10605843Y-14320214D01*
X10634414Y-14334500D01*
X10648700Y-14348786D01*
X10662986Y-14377357D01*
X10677271Y-14434500D01*
X10677271Y-14505929D01*
X10662986Y-14563071D01*
X10648700Y-14591643D01*
X10634414Y-14605929D01*
X10605843Y-14620214D01*
X10577271Y-14620214D01*
X10548700Y-14605929D01*
X10534414Y-14591643D01*
X10520128Y-14563071D01*
X10505843Y-14505929D01*
X10505843Y-14434500D01*
X10520128Y-14377357D01*
X10534414Y-14348786D01*
X10548700Y-14334500D01*
X10577271Y-14320214D01*
X10805843Y-14591643D02*
X10820128Y-14605929D01*
X10805843Y-14620214D01*
X10791557Y-14605929D01*
X10805843Y-14591643D01*
X10805843Y-14620214D01*
X10991557Y-14448786D02*
X10962986Y-14434500D01*
X10948700Y-14420214D01*
X10934414Y-14391643D01*
X10934414Y-14377357D01*
X10948700Y-14348786D01*
X10962986Y-14334500D01*
X10991557Y-14320214D01*
X11048700Y-14320214D01*
X11077271Y-14334500D01*
X11091557Y-14348786D01*
X11105843Y-14377357D01*
X11105843Y-14391643D01*
X11091557Y-14420214D01*
X11077271Y-14434500D01*
X11048700Y-14448786D01*
X10991557Y-14448786D01*
X10962986Y-14463071D01*
X10948700Y-14477357D01*
X10934414Y-14505929D01*
X10934414Y-14563071D01*
X10948700Y-14591643D01*
X10962986Y-14605929D01*
X10991557Y-14620214D01*
X11048700Y-14620214D01*
X11077271Y-14605929D01*
X11091557Y-14591643D01*
X11105843Y-14563071D01*
X11105843Y-14505929D01*
X11091557Y-14477357D01*
X11077271Y-14463071D01*
X11048700Y-14448786D01*
X11291557Y-14320214D02*
X11320128Y-14320214D01*
X11348700Y-14334500D01*
X11362986Y-14348786D01*
X11377271Y-14377357D01*
X11391557Y-14434500D01*
X11391557Y-14505929D01*
X11377271Y-14563071D01*
X11362986Y-14591643D01*
X11348700Y-14605929D01*
X11320128Y-14620214D01*
X11291557Y-14620214D01*
X11262986Y-14605929D01*
X11248700Y-14591643D01*
X11234414Y-14563071D01*
X11220128Y-14505929D01*
X11220128Y-14434500D01*
X11234414Y-14377357D01*
X11248700Y-14348786D01*
X11262986Y-14334500D01*
X11291557Y-14320214D01*
X11520128Y-14620214D02*
X11520128Y-14420214D01*
X11520128Y-14448786D02*
X11534414Y-14434500D01*
X11562986Y-14420214D01*
X11605843Y-14420214D01*
X11634414Y-14434500D01*
X11648700Y-14463071D01*
X11648700Y-14620214D01*
X11648700Y-14463071D02*
X11662986Y-14434500D01*
X11691557Y-14420214D01*
X11734414Y-14420214D01*
X11762986Y-14434500D01*
X11777271Y-14463071D01*
X11777271Y-14620214D01*
X11920128Y-14620214D02*
X11920128Y-14420214D01*
X11920128Y-14448786D02*
X11934414Y-14434500D01*
X11962986Y-14420214D01*
X12005843Y-14420214D01*
X12034414Y-14434500D01*
X12048700Y-14463071D01*
X12048700Y-14620214D01*
X12048700Y-14463071D02*
X12062986Y-14434500D01*
X12091557Y-14420214D01*
X12134414Y-14420214D01*
X12162986Y-14434500D01*
X12177271Y-14463071D01*
X12177271Y-14620214D01*
X12762986Y-14305929D02*
X12505843Y-14691643D01*
X13148700Y-14320214D02*
X13177271Y-14320214D01*
X13205843Y-14334500D01*
X13220128Y-14348786D01*
X13234414Y-14377357D01*
X13248700Y-14434500D01*
X13248700Y-14505929D01*
X13234414Y-14563071D01*
X13220128Y-14591643D01*
X13205843Y-14605929D01*
X13177271Y-14620214D01*
X13148700Y-14620214D01*
X13120128Y-14605929D01*
X13105843Y-14591643D01*
X13091557Y-14563071D01*
X13077271Y-14505929D01*
X13077271Y-14434500D01*
X13091557Y-14377357D01*
X13105843Y-14348786D01*
X13120128Y-14334500D01*
X13148700Y-14320214D01*
X13377271Y-14591643D02*
X13391557Y-14605929D01*
X13377271Y-14620214D01*
X13362986Y-14605929D01*
X13377271Y-14591643D01*
X13377271Y-14620214D01*
X13577271Y-14320214D02*
X13605843Y-14320214D01*
X13634414Y-14334500D01*
X13648700Y-14348786D01*
X13662986Y-14377357D01*
X13677271Y-14434500D01*
X13677271Y-14505929D01*
X13662986Y-14563071D01*
X13648700Y-14591643D01*
X13634414Y-14605929D01*
X13605843Y-14620214D01*
X13577271Y-14620214D01*
X13548700Y-14605929D01*
X13534414Y-14591643D01*
X13520128Y-14563071D01*
X13505843Y-14505929D01*
X13505843Y-14434500D01*
X13520128Y-14377357D01*
X13534414Y-14348786D01*
X13548700Y-14334500D01*
X13577271Y-14320214D01*
X13777271Y-14320214D02*
X13962986Y-14320214D01*
X13862986Y-14434500D01*
X13905843Y-14434500D01*
X13934414Y-14448786D01*
X13948700Y-14463071D01*
X13962986Y-14491643D01*
X13962986Y-14563071D01*
X13948700Y-14591643D01*
X13934414Y-14605929D01*
X13905843Y-14620214D01*
X13820128Y-14620214D01*
X13791557Y-14605929D01*
X13777271Y-14591643D01*
X14248700Y-14620214D02*
X14077271Y-14620214D01*
X14162986Y-14620214D02*
X14162986Y-14320214D01*
X14134414Y-14363071D01*
X14105843Y-14391643D01*
X14077271Y-14405929D01*
X14362986Y-14320214D02*
X14362986Y-14377357D01*
X14477271Y-14320214D02*
X14477271Y-14377357D01*
X14920128Y-14734500D02*
X14905843Y-14720214D01*
X14877271Y-14677357D01*
X14862986Y-14648786D01*
X14848700Y-14605929D01*
X14834414Y-14534500D01*
X14834414Y-14477357D01*
X14848700Y-14405929D01*
X14862986Y-14363071D01*
X14877271Y-14334500D01*
X14905843Y-14291643D01*
X14920128Y-14277357D01*
X15020128Y-14348786D02*
X15034414Y-14334500D01*
X15062986Y-14320214D01*
X15134414Y-14320214D01*
X15162986Y-14334500D01*
X15177271Y-14348786D01*
X15191557Y-14377357D01*
X15191557Y-14405929D01*
X15177271Y-14448786D01*
X15005843Y-14620214D01*
X15191557Y-14620214D01*
X15362986Y-14448786D02*
X15334414Y-14434500D01*
X15320128Y-14420214D01*
X15305843Y-14391643D01*
X15305843Y-14377357D01*
X15320128Y-14348786D01*
X15334414Y-14334500D01*
X15362986Y-14320214D01*
X15420128Y-14320214D01*
X15448700Y-14334500D01*
X15462986Y-14348786D01*
X15477271Y-14377357D01*
X15477271Y-14391643D01*
X15462986Y-14420214D01*
X15448700Y-14434500D01*
X15420128Y-14448786D01*
X15362986Y-14448786D01*
X15334414Y-14463071D01*
X15320128Y-14477357D01*
X15305843Y-14505929D01*
X15305843Y-14563071D01*
X15320128Y-14591643D01*
X15334414Y-14605929D01*
X15362986Y-14620214D01*
X15420128Y-14620214D01*
X15448700Y-14605929D01*
X15462986Y-14591643D01*
X15477271Y-14563071D01*
X15477271Y-14505929D01*
X15462986Y-14477357D01*
X15448700Y-14463071D01*
X15420128Y-14448786D01*
X15834414Y-14620214D02*
X15834414Y-14320214D01*
X15962986Y-14620214D02*
X15962986Y-14463071D01*
X15948700Y-14434500D01*
X15920128Y-14420214D01*
X15877271Y-14420214D01*
X15848700Y-14434500D01*
X15834414Y-14448786D01*
X16148700Y-14620214D02*
X16120128Y-14605929D01*
X16105843Y-14591643D01*
X16091557Y-14563071D01*
X16091557Y-14477357D01*
X16105843Y-14448786D01*
X16120128Y-14434500D01*
X16148700Y-14420214D01*
X16191557Y-14420214D01*
X16220128Y-14434500D01*
X16234414Y-14448786D01*
X16248700Y-14477357D01*
X16248700Y-14563071D01*
X16234414Y-14591643D01*
X16220128Y-14605929D01*
X16191557Y-14620214D01*
X16148700Y-14620214D01*
X16420128Y-14620214D02*
X16391557Y-14605929D01*
X16377271Y-14577357D01*
X16377271Y-14320214D01*
X16648700Y-14605929D02*
X16620128Y-14620214D01*
X16562986Y-14620214D01*
X16534414Y-14605929D01*
X16520128Y-14577357D01*
X16520128Y-14463071D01*
X16534414Y-14434500D01*
X16562986Y-14420214D01*
X16620128Y-14420214D01*
X16648700Y-14434500D01*
X16662986Y-14463071D01*
X16662986Y-14491643D01*
X16520128Y-14520214D01*
X16777271Y-14605929D02*
X16805843Y-14620214D01*
X16862986Y-14620214D01*
X16891557Y-14605929D01*
X16905843Y-14577357D01*
X16905843Y-14563071D01*
X16891557Y-14534500D01*
X16862986Y-14520214D01*
X16820128Y-14520214D01*
X16791557Y-14505929D01*
X16777271Y-14477357D01*
X16777271Y-14463071D01*
X16791557Y-14434500D01*
X16820128Y-14420214D01*
X16862986Y-14420214D01*
X16891557Y-14434500D01*
X17005843Y-14734500D02*
X17020128Y-14720214D01*
X17048700Y-14677357D01*
X17062986Y-14648786D01*
X17077271Y-14605929D01*
X17091557Y-14534500D01*
X17091557Y-14477357D01*
X17077271Y-14405929D01*
X17062986Y-14363071D01*
X17048700Y-14334500D01*
X17020128Y-14291643D01*
X17005843Y-14277357D01*
X10152420Y-14839860D02*
X10233700Y-14921140D01*
X10233700Y-14839860D02*
X10152420Y-14921140D01*
X10233700Y-14880500D02*
G75*
G03X10233700Y-14880500I-40640J0D01*
G01*
X10577271Y-14716214D02*
X10605843Y-14716214D01*
X10634414Y-14730500D01*
X10648700Y-14744786D01*
X10662986Y-14773357D01*
X10677271Y-14830500D01*
X10677271Y-14901929D01*
X10662986Y-14959071D01*
X10648700Y-14987643D01*
X10634414Y-15001929D01*
X10605843Y-15016214D01*
X10577271Y-15016214D01*
X10548700Y-15001929D01*
X10534414Y-14987643D01*
X10520128Y-14959071D01*
X10505843Y-14901929D01*
X10505843Y-14830500D01*
X10520128Y-14773357D01*
X10534414Y-14744786D01*
X10548700Y-14730500D01*
X10577271Y-14716214D01*
X10805843Y-14987643D02*
X10820128Y-15001929D01*
X10805843Y-15016214D01*
X10791557Y-15001929D01*
X10805843Y-14987643D01*
X10805843Y-15016214D01*
X10991557Y-14844786D02*
X10962986Y-14830500D01*
X10948700Y-14816214D01*
X10934414Y-14787643D01*
X10934414Y-14773357D01*
X10948700Y-14744786D01*
X10962986Y-14730500D01*
X10991557Y-14716214D01*
X11048700Y-14716214D01*
X11077271Y-14730500D01*
X11091557Y-14744786D01*
X11105843Y-14773357D01*
X11105843Y-14787643D01*
X11091557Y-14816214D01*
X11077271Y-14830500D01*
X11048700Y-14844786D01*
X10991557Y-14844786D01*
X10962986Y-14859071D01*
X10948700Y-14873357D01*
X10934414Y-14901929D01*
X10934414Y-14959071D01*
X10948700Y-14987643D01*
X10962986Y-15001929D01*
X10991557Y-15016214D01*
X11048700Y-15016214D01*
X11077271Y-15001929D01*
X11091557Y-14987643D01*
X11105843Y-14959071D01*
X11105843Y-14901929D01*
X11091557Y-14873357D01*
X11077271Y-14859071D01*
X11048700Y-14844786D01*
X11391557Y-15016214D02*
X11220128Y-15016214D01*
X11305843Y-15016214D02*
X11305843Y-14716214D01*
X11277271Y-14759071D01*
X11248700Y-14787643D01*
X11220128Y-14801929D01*
X11520128Y-15016214D02*
X11520128Y-14816214D01*
X11520128Y-14844786D02*
X11534414Y-14830500D01*
X11562986Y-14816214D01*
X11605843Y-14816214D01*
X11634414Y-14830500D01*
X11648700Y-14859071D01*
X11648700Y-15016214D01*
X11648700Y-14859071D02*
X11662986Y-14830500D01*
X11691557Y-14816214D01*
X11734414Y-14816214D01*
X11762986Y-14830500D01*
X11777271Y-14859071D01*
X11777271Y-15016214D01*
X11920128Y-15016214D02*
X11920128Y-14816214D01*
X11920128Y-14844786D02*
X11934414Y-14830500D01*
X11962986Y-14816214D01*
X12005843Y-14816214D01*
X12034414Y-14830500D01*
X12048700Y-14859071D01*
X12048700Y-15016214D01*
X12048700Y-14859071D02*
X12062986Y-14830500D01*
X12091557Y-14816214D01*
X12134414Y-14816214D01*
X12162986Y-14830500D01*
X12177271Y-14859071D01*
X12177271Y-15016214D01*
X12762986Y-14701929D02*
X12505843Y-15087643D01*
X13148700Y-14716214D02*
X13177271Y-14716214D01*
X13205843Y-14730500D01*
X13220128Y-14744786D01*
X13234414Y-14773357D01*
X13248700Y-14830500D01*
X13248700Y-14901929D01*
X13234414Y-14959071D01*
X13220128Y-14987643D01*
X13205843Y-15001929D01*
X13177271Y-15016214D01*
X13148700Y-15016214D01*
X13120128Y-15001929D01*
X13105843Y-14987643D01*
X13091557Y-14959071D01*
X13077271Y-14901929D01*
X13077271Y-14830500D01*
X13091557Y-14773357D01*
X13105843Y-14744786D01*
X13120128Y-14730500D01*
X13148700Y-14716214D01*
X13377271Y-14987643D02*
X13391557Y-15001929D01*
X13377271Y-15016214D01*
X13362986Y-15001929D01*
X13377271Y-14987643D01*
X13377271Y-15016214D01*
X13577271Y-14716214D02*
X13605843Y-14716214D01*
X13634414Y-14730500D01*
X13648700Y-14744786D01*
X13662986Y-14773357D01*
X13677271Y-14830500D01*
X13677271Y-14901929D01*
X13662986Y-14959071D01*
X13648700Y-14987643D01*
X13634414Y-15001929D01*
X13605843Y-15016214D01*
X13577271Y-15016214D01*
X13548700Y-15001929D01*
X13534414Y-14987643D01*
X13520128Y-14959071D01*
X13505843Y-14901929D01*
X13505843Y-14830500D01*
X13520128Y-14773357D01*
X13534414Y-14744786D01*
X13548700Y-14730500D01*
X13577271Y-14716214D01*
X13777271Y-14716214D02*
X13962986Y-14716214D01*
X13862986Y-14830500D01*
X13905843Y-14830500D01*
X13934414Y-14844786D01*
X13948700Y-14859071D01*
X13962986Y-14887643D01*
X13962986Y-14959071D01*
X13948700Y-14987643D01*
X13934414Y-15001929D01*
X13905843Y-15016214D01*
X13820128Y-15016214D01*
X13791557Y-15001929D01*
X13777271Y-14987643D01*
X14077271Y-14744786D02*
X14091557Y-14730500D01*
X14120128Y-14716214D01*
X14191557Y-14716214D01*
X14220128Y-14730500D01*
X14234414Y-14744786D01*
X14248700Y-14773357D01*
X14248700Y-14801929D01*
X14234414Y-14844786D01*
X14062986Y-15016214D01*
X14248700Y-15016214D01*
X14362986Y-14716214D02*
X14362986Y-14773357D01*
X14477271Y-14716214D02*
X14477271Y-14773357D01*
X14920128Y-15130500D02*
X14905843Y-15116214D01*
X14877271Y-15073357D01*
X14862986Y-15044786D01*
X14848700Y-15001929D01*
X14834414Y-14930500D01*
X14834414Y-14873357D01*
X14848700Y-14801929D01*
X14862986Y-14759071D01*
X14877271Y-14730500D01*
X14905843Y-14687643D01*
X14920128Y-14673357D01*
X15091557Y-14716214D02*
X15120128Y-14716214D01*
X15148700Y-14730500D01*
X15162986Y-14744786D01*
X15177271Y-14773357D01*
X15191557Y-14830500D01*
X15191557Y-14901929D01*
X15177271Y-14959071D01*
X15162986Y-14987643D01*
X15148700Y-15001929D01*
X15120128Y-15016214D01*
X15091557Y-15016214D01*
X15062986Y-15001929D01*
X15048700Y-14987643D01*
X15034414Y-14959071D01*
X15020128Y-14901929D01*
X15020128Y-14830500D01*
X15034414Y-14773357D01*
X15048700Y-14744786D01*
X15062986Y-14730500D01*
X15091557Y-14716214D01*
X15548700Y-15016214D02*
X15548700Y-14716214D01*
X15677271Y-15016214D02*
X15677271Y-14859071D01*
X15662986Y-14830500D01*
X15634414Y-14816214D01*
X15591557Y-14816214D01*
X15562986Y-14830500D01*
X15548700Y-14844786D01*
X15862986Y-15016214D02*
X15834414Y-15001929D01*
X15820128Y-14987643D01*
X15805843Y-14959071D01*
X15805843Y-14873357D01*
X15820128Y-14844786D01*
X15834414Y-14830500D01*
X15862986Y-14816214D01*
X15905843Y-14816214D01*
X15934414Y-14830500D01*
X15948700Y-14844786D01*
X15962986Y-14873357D01*
X15962986Y-14959071D01*
X15948700Y-14987643D01*
X15934414Y-15001929D01*
X15905843Y-15016214D01*
X15862986Y-15016214D01*
X16134414Y-15016214D02*
X16105843Y-15001929D01*
X16091557Y-14973357D01*
X16091557Y-14716214D01*
X16362986Y-15001929D02*
X16334414Y-15016214D01*
X16277271Y-15016214D01*
X16248700Y-15001929D01*
X16234414Y-14973357D01*
X16234414Y-14859071D01*
X16248700Y-14830500D01*
X16277271Y-14816214D01*
X16334414Y-14816214D01*
X16362986Y-14830500D01*
X16377271Y-14859071D01*
X16377271Y-14887643D01*
X16234414Y-14916214D01*
X16491557Y-15001929D02*
X16520128Y-15016214D01*
X16577271Y-15016214D01*
X16605843Y-15001929D01*
X16620128Y-14973357D01*
X16620128Y-14959071D01*
X16605843Y-14930500D01*
X16577271Y-14916214D01*
X16534414Y-14916214D01*
X16505843Y-14901929D01*
X16491557Y-14873357D01*
X16491557Y-14859071D01*
X16505843Y-14830500D01*
X16534414Y-14816214D01*
X16577271Y-14816214D01*
X16605843Y-14830500D01*
X16977271Y-14901929D02*
X17205843Y-14901929D01*
X17091557Y-15016214D02*
X17091557Y-14787643D01*
X17620128Y-14844786D02*
X17591557Y-14830500D01*
X17577271Y-14816214D01*
X17562986Y-14787643D01*
X17562986Y-14773357D01*
X17577271Y-14744786D01*
X17591557Y-14730500D01*
X17620128Y-14716214D01*
X17677271Y-14716214D01*
X17705843Y-14730500D01*
X17720128Y-14744786D01*
X17734414Y-14773357D01*
X17734414Y-14787643D01*
X17720128Y-14816214D01*
X17705843Y-14830500D01*
X17677271Y-14844786D01*
X17620128Y-14844786D01*
X17591557Y-14859071D01*
X17577271Y-14873357D01*
X17562986Y-14901929D01*
X17562986Y-14959071D01*
X17577271Y-14987643D01*
X17591557Y-15001929D01*
X17620128Y-15016214D01*
X17677271Y-15016214D01*
X17705843Y-15001929D01*
X17720128Y-14987643D01*
X17734414Y-14959071D01*
X17734414Y-14901929D01*
X17720128Y-14873357D01*
X17705843Y-14859071D01*
X17677271Y-14844786D01*
X18077271Y-15001929D02*
X18105843Y-15016214D01*
X18162986Y-15016214D01*
X18191557Y-15001929D01*
X18205843Y-14973357D01*
X18205843Y-14959071D01*
X18191557Y-14930500D01*
X18162986Y-14916214D01*
X18120128Y-14916214D01*
X18091557Y-14901929D01*
X18077271Y-14873357D01*
X18077271Y-14859071D01*
X18091557Y-14830500D01*
X18120128Y-14816214D01*
X18162986Y-14816214D01*
X18191557Y-14830500D01*
X18377271Y-15016214D02*
X18348700Y-15001929D01*
X18334414Y-14973357D01*
X18334414Y-14716214D01*
X18534414Y-15016214D02*
X18505843Y-15001929D01*
X18491557Y-14987643D01*
X18477271Y-14959071D01*
X18477271Y-14873357D01*
X18491557Y-14844786D01*
X18505843Y-14830500D01*
X18534414Y-14816214D01*
X18577271Y-14816214D01*
X18605843Y-14830500D01*
X18620128Y-14844786D01*
X18634414Y-14873357D01*
X18634414Y-14959071D01*
X18620128Y-14987643D01*
X18605843Y-15001929D01*
X18577271Y-15016214D01*
X18534414Y-15016214D01*
X18720128Y-14816214D02*
X18834414Y-14816214D01*
X18762986Y-14716214D02*
X18762986Y-14973357D01*
X18777271Y-15001929D01*
X18805843Y-15016214D01*
X18834414Y-15016214D01*
X18920128Y-15001929D02*
X18948700Y-15016214D01*
X19005843Y-15016214D01*
X19034414Y-15001929D01*
X19048700Y-14973357D01*
X19048700Y-14959071D01*
X19034414Y-14930500D01*
X19005843Y-14916214D01*
X18962986Y-14916214D01*
X18934414Y-14901929D01*
X18920128Y-14873357D01*
X18920128Y-14859071D01*
X18934414Y-14830500D01*
X18962986Y-14816214D01*
X19005843Y-14816214D01*
X19034414Y-14830500D01*
X19148700Y-15130500D02*
X19162986Y-15116214D01*
X19191557Y-15073357D01*
X19205843Y-15044786D01*
X19220128Y-15001929D01*
X19234414Y-14930500D01*
X19234414Y-14873357D01*
X19220128Y-14801929D01*
X19205843Y-14759071D01*
X19191557Y-14730500D01*
X19162986Y-14687643D01*
X19148700Y-14673357D01*
X10143700Y-15231500D02*
X10233700Y-15321500D01*
X10233700Y-15231500D02*
X10143700Y-15321500D01*
X10188700Y-15231500D02*
X10188700Y-15321500D01*
X10143700Y-15276500D02*
X10233700Y-15276500D01*
X10577271Y-15112214D02*
X10605843Y-15112214D01*
X10634414Y-15126500D01*
X10648700Y-15140786D01*
X10662986Y-15169357D01*
X10677271Y-15226500D01*
X10677271Y-15297929D01*
X10662986Y-15355071D01*
X10648700Y-15383643D01*
X10634414Y-15397929D01*
X10605843Y-15412214D01*
X10577271Y-15412214D01*
X10548700Y-15397929D01*
X10534414Y-15383643D01*
X10520128Y-15355071D01*
X10505843Y-15297929D01*
X10505843Y-15226500D01*
X10520128Y-15169357D01*
X10534414Y-15140786D01*
X10548700Y-15126500D01*
X10577271Y-15112214D01*
X10805843Y-15383643D02*
X10820128Y-15397929D01*
X10805843Y-15412214D01*
X10791557Y-15397929D01*
X10805843Y-15383643D01*
X10805843Y-15412214D01*
X10962986Y-15412214D02*
X11020128Y-15412214D01*
X11048700Y-15397929D01*
X11062986Y-15383643D01*
X11091557Y-15340786D01*
X11105843Y-15283643D01*
X11105843Y-15169357D01*
X11091557Y-15140786D01*
X11077271Y-15126500D01*
X11048700Y-15112214D01*
X10991557Y-15112214D01*
X10962986Y-15126500D01*
X10948700Y-15140786D01*
X10934414Y-15169357D01*
X10934414Y-15240786D01*
X10948700Y-15269357D01*
X10962986Y-15283643D01*
X10991557Y-15297929D01*
X11048700Y-15297929D01*
X11077271Y-15283643D01*
X11091557Y-15269357D01*
X11105843Y-15240786D01*
X11291557Y-15112214D02*
X11320128Y-15112214D01*
X11348700Y-15126500D01*
X11362986Y-15140786D01*
X11377271Y-15169357D01*
X11391557Y-15226500D01*
X11391557Y-15297929D01*
X11377271Y-15355071D01*
X11362986Y-15383643D01*
X11348700Y-15397929D01*
X11320128Y-15412214D01*
X11291557Y-15412214D01*
X11262986Y-15397929D01*
X11248700Y-15383643D01*
X11234414Y-15355071D01*
X11220128Y-15297929D01*
X11220128Y-15226500D01*
X11234414Y-15169357D01*
X11248700Y-15140786D01*
X11262986Y-15126500D01*
X11291557Y-15112214D01*
X11520128Y-15412214D02*
X11520128Y-15212214D01*
X11520128Y-15240786D02*
X11534414Y-15226500D01*
X11562986Y-15212214D01*
X11605843Y-15212214D01*
X11634414Y-15226500D01*
X11648700Y-15255071D01*
X11648700Y-15412214D01*
X11648700Y-15255071D02*
X11662986Y-15226500D01*
X11691557Y-15212214D01*
X11734414Y-15212214D01*
X11762986Y-15226500D01*
X11777271Y-15255071D01*
X11777271Y-15412214D01*
X11920128Y-15412214D02*
X11920128Y-15212214D01*
X11920128Y-15240786D02*
X11934414Y-15226500D01*
X11962986Y-15212214D01*
X12005843Y-15212214D01*
X12034414Y-15226500D01*
X12048700Y-15255071D01*
X12048700Y-15412214D01*
X12048700Y-15255071D02*
X12062986Y-15226500D01*
X12091557Y-15212214D01*
X12134414Y-15212214D01*
X12162986Y-15226500D01*
X12177271Y-15255071D01*
X12177271Y-15412214D01*
X12762986Y-15097929D02*
X12505843Y-15483643D01*
X13148700Y-15112214D02*
X13177271Y-15112214D01*
X13205843Y-15126500D01*
X13220128Y-15140786D01*
X13234414Y-15169357D01*
X13248700Y-15226500D01*
X13248700Y-15297929D01*
X13234414Y-15355071D01*
X13220128Y-15383643D01*
X13205843Y-15397929D01*
X13177271Y-15412214D01*
X13148700Y-15412214D01*
X13120128Y-15397929D01*
X13105843Y-15383643D01*
X13091557Y-15355071D01*
X13077271Y-15297929D01*
X13077271Y-15226500D01*
X13091557Y-15169357D01*
X13105843Y-15140786D01*
X13120128Y-15126500D01*
X13148700Y-15112214D01*
X13377271Y-15383643D02*
X13391557Y-15397929D01*
X13377271Y-15412214D01*
X13362986Y-15397929D01*
X13377271Y-15383643D01*
X13377271Y-15412214D01*
X13577271Y-15112214D02*
X13605843Y-15112214D01*
X13634414Y-15126500D01*
X13648700Y-15140786D01*
X13662986Y-15169357D01*
X13677271Y-15226500D01*
X13677271Y-15297929D01*
X13662986Y-15355071D01*
X13648700Y-15383643D01*
X13634414Y-15397929D01*
X13605843Y-15412214D01*
X13577271Y-15412214D01*
X13548700Y-15397929D01*
X13534414Y-15383643D01*
X13520128Y-15355071D01*
X13505843Y-15297929D01*
X13505843Y-15226500D01*
X13520128Y-15169357D01*
X13534414Y-15140786D01*
X13548700Y-15126500D01*
X13577271Y-15112214D01*
X13777271Y-15112214D02*
X13962986Y-15112214D01*
X13862986Y-15226500D01*
X13905843Y-15226500D01*
X13934414Y-15240786D01*
X13948700Y-15255071D01*
X13962986Y-15283643D01*
X13962986Y-15355071D01*
X13948700Y-15383643D01*
X13934414Y-15397929D01*
X13905843Y-15412214D01*
X13820128Y-15412214D01*
X13791557Y-15397929D01*
X13777271Y-15383643D01*
X14234414Y-15112214D02*
X14091557Y-15112214D01*
X14077271Y-15255071D01*
X14091557Y-15240786D01*
X14120128Y-15226500D01*
X14191557Y-15226500D01*
X14220128Y-15240786D01*
X14234414Y-15255071D01*
X14248700Y-15283643D01*
X14248700Y-15355071D01*
X14234414Y-15383643D01*
X14220128Y-15397929D01*
X14191557Y-15412214D01*
X14120128Y-15412214D01*
X14091557Y-15397929D01*
X14077271Y-15383643D01*
X14362986Y-15112214D02*
X14362986Y-15169357D01*
X14477271Y-15112214D02*
X14477271Y-15169357D01*
X14920128Y-15526500D02*
X14905843Y-15512214D01*
X14877271Y-15469357D01*
X14862986Y-15440786D01*
X14848700Y-15397929D01*
X14834414Y-15326500D01*
X14834414Y-15269357D01*
X14848700Y-15197929D01*
X14862986Y-15155071D01*
X14877271Y-15126500D01*
X14905843Y-15083643D01*
X14920128Y-15069357D01*
X15191557Y-15412214D02*
X15020128Y-15412214D01*
X15105843Y-15412214D02*
X15105843Y-15112214D01*
X15077271Y-15155071D01*
X15048700Y-15183643D01*
X15020128Y-15197929D01*
X15377271Y-15112214D02*
X15405843Y-15112214D01*
X15434414Y-15126500D01*
X15448700Y-15140786D01*
X15462986Y-15169357D01*
X15477271Y-15226500D01*
X15477271Y-15297929D01*
X15462986Y-15355071D01*
X15448700Y-15383643D01*
X15434414Y-15397929D01*
X15405843Y-15412214D01*
X15377271Y-15412214D01*
X15348700Y-15397929D01*
X15334414Y-15383643D01*
X15320128Y-15355071D01*
X15305843Y-15297929D01*
X15305843Y-15226500D01*
X15320128Y-15169357D01*
X15334414Y-15140786D01*
X15348700Y-15126500D01*
X15377271Y-15112214D01*
X15834414Y-15412214D02*
X15834414Y-15112214D01*
X15962986Y-15412214D02*
X15962986Y-15255071D01*
X15948700Y-15226500D01*
X15920128Y-15212214D01*
X15877271Y-15212214D01*
X15848700Y-15226500D01*
X15834414Y-15240786D01*
X16148700Y-15412214D02*
X16120128Y-15397929D01*
X16105843Y-15383643D01*
X16091557Y-15355071D01*
X16091557Y-15269357D01*
X16105843Y-15240786D01*
X16120128Y-15226500D01*
X16148700Y-15212214D01*
X16191557Y-15212214D01*
X16220128Y-15226500D01*
X16234414Y-15240786D01*
X16248700Y-15269357D01*
X16248700Y-15355071D01*
X16234414Y-15383643D01*
X16220128Y-15397929D01*
X16191557Y-15412214D01*
X16148700Y-15412214D01*
X16420128Y-15412214D02*
X16391557Y-15397929D01*
X16377271Y-15369357D01*
X16377271Y-15112214D01*
X16648700Y-15397929D02*
X16620128Y-15412214D01*
X16562986Y-15412214D01*
X16534414Y-15397929D01*
X16520128Y-15369357D01*
X16520128Y-15255071D01*
X16534414Y-15226500D01*
X16562986Y-15212214D01*
X16620128Y-15212214D01*
X16648700Y-15226500D01*
X16662986Y-15255071D01*
X16662986Y-15283643D01*
X16520128Y-15312214D01*
X16777271Y-15397929D02*
X16805843Y-15412214D01*
X16862986Y-15412214D01*
X16891557Y-15397929D01*
X16905843Y-15369357D01*
X16905843Y-15355071D01*
X16891557Y-15326500D01*
X16862986Y-15312214D01*
X16820128Y-15312214D01*
X16791557Y-15297929D01*
X16777271Y-15269357D01*
X16777271Y-15255071D01*
X16791557Y-15226500D01*
X16820128Y-15212214D01*
X16862986Y-15212214D01*
X16891557Y-15226500D01*
X17005843Y-15526500D02*
X17020128Y-15512214D01*
X17048700Y-15469357D01*
X17062986Y-15440786D01*
X17077271Y-15397929D01*
X17091557Y-15326500D01*
X17091557Y-15269357D01*
X17077271Y-15197929D01*
X17062986Y-15155071D01*
X17048700Y-15126500D01*
X17020128Y-15083643D01*
X17005843Y-15069357D01*
X10133700Y-15622500D02*
X10233700Y-15722500D01*
X10233700Y-15622500D02*
X10133700Y-15722500D01*
X10219056Y-15707856D02*
X10219056Y-15637144D01*
X10148344Y-15637144D01*
X10148344Y-15707856D01*
X10219056Y-15707856D01*
X10677271Y-15808214D02*
X10505843Y-15808214D01*
X10591557Y-15808214D02*
X10591557Y-15508214D01*
X10562986Y-15551071D01*
X10534414Y-15579643D01*
X10505843Y-15593929D01*
X10805843Y-15779643D02*
X10820128Y-15793929D01*
X10805843Y-15808214D01*
X10791557Y-15793929D01*
X10805843Y-15779643D01*
X10805843Y-15808214D01*
X11005843Y-15508214D02*
X11034414Y-15508214D01*
X11062986Y-15522500D01*
X11077271Y-15536786D01*
X11091557Y-15565357D01*
X11105843Y-15622500D01*
X11105843Y-15693929D01*
X11091557Y-15751071D01*
X11077271Y-15779643D01*
X11062986Y-15793929D01*
X11034414Y-15808214D01*
X11005843Y-15808214D01*
X10977271Y-15793929D01*
X10962986Y-15779643D01*
X10948700Y-15751071D01*
X10934414Y-15693929D01*
X10934414Y-15622500D01*
X10948700Y-15565357D01*
X10962986Y-15536786D01*
X10977271Y-15522500D01*
X11005843Y-15508214D01*
X11291557Y-15508214D02*
X11320128Y-15508214D01*
X11348700Y-15522500D01*
X11362986Y-15536786D01*
X11377271Y-15565357D01*
X11391557Y-15622500D01*
X11391557Y-15693929D01*
X11377271Y-15751071D01*
X11362986Y-15779643D01*
X11348700Y-15793929D01*
X11320128Y-15808214D01*
X11291557Y-15808214D01*
X11262986Y-15793929D01*
X11248700Y-15779643D01*
X11234414Y-15751071D01*
X11220128Y-15693929D01*
X11220128Y-15622500D01*
X11234414Y-15565357D01*
X11248700Y-15536786D01*
X11262986Y-15522500D01*
X11291557Y-15508214D01*
X11520128Y-15808214D02*
X11520128Y-15608214D01*
X11520128Y-15636786D02*
X11534414Y-15622500D01*
X11562986Y-15608214D01*
X11605843Y-15608214D01*
X11634414Y-15622500D01*
X11648700Y-15651071D01*
X11648700Y-15808214D01*
X11648700Y-15651071D02*
X11662986Y-15622500D01*
X11691557Y-15608214D01*
X11734414Y-15608214D01*
X11762986Y-15622500D01*
X11777271Y-15651071D01*
X11777271Y-15808214D01*
X11920128Y-15808214D02*
X11920128Y-15608214D01*
X11920128Y-15636786D02*
X11934414Y-15622500D01*
X11962986Y-15608214D01*
X12005843Y-15608214D01*
X12034414Y-15622500D01*
X12048700Y-15651071D01*
X12048700Y-15808214D01*
X12048700Y-15651071D02*
X12062986Y-15622500D01*
X12091557Y-15608214D01*
X12134414Y-15608214D01*
X12162986Y-15622500D01*
X12177271Y-15651071D01*
X12177271Y-15808214D01*
X12762986Y-15493929D02*
X12505843Y-15879643D01*
X13148700Y-15508214D02*
X13177271Y-15508214D01*
X13205843Y-15522500D01*
X13220128Y-15536786D01*
X13234414Y-15565357D01*
X13248700Y-15622500D01*
X13248700Y-15693929D01*
X13234414Y-15751071D01*
X13220128Y-15779643D01*
X13205843Y-15793929D01*
X13177271Y-15808214D01*
X13148700Y-15808214D01*
X13120128Y-15793929D01*
X13105843Y-15779643D01*
X13091557Y-15751071D01*
X13077271Y-15693929D01*
X13077271Y-15622500D01*
X13091557Y-15565357D01*
X13105843Y-15536786D01*
X13120128Y-15522500D01*
X13148700Y-15508214D01*
X13377271Y-15779643D02*
X13391557Y-15793929D01*
X13377271Y-15808214D01*
X13362986Y-15793929D01*
X13377271Y-15779643D01*
X13377271Y-15808214D01*
X13577271Y-15508214D02*
X13605843Y-15508214D01*
X13634414Y-15522500D01*
X13648700Y-15536786D01*
X13662986Y-15565357D01*
X13677271Y-15622500D01*
X13677271Y-15693929D01*
X13662986Y-15751071D01*
X13648700Y-15779643D01*
X13634414Y-15793929D01*
X13605843Y-15808214D01*
X13577271Y-15808214D01*
X13548700Y-15793929D01*
X13534414Y-15779643D01*
X13520128Y-15751071D01*
X13505843Y-15693929D01*
X13505843Y-15622500D01*
X13520128Y-15565357D01*
X13534414Y-15536786D01*
X13548700Y-15522500D01*
X13577271Y-15508214D01*
X13777271Y-15508214D02*
X13962986Y-15508214D01*
X13862986Y-15622500D01*
X13905843Y-15622500D01*
X13934414Y-15636786D01*
X13948700Y-15651071D01*
X13962986Y-15679643D01*
X13962986Y-15751071D01*
X13948700Y-15779643D01*
X13934414Y-15793929D01*
X13905843Y-15808214D01*
X13820128Y-15808214D01*
X13791557Y-15793929D01*
X13777271Y-15779643D01*
X14105843Y-15808214D02*
X14162986Y-15808214D01*
X14191557Y-15793929D01*
X14205843Y-15779643D01*
X14234414Y-15736786D01*
X14248700Y-15679643D01*
X14248700Y-15565357D01*
X14234414Y-15536786D01*
X14220128Y-15522500D01*
X14191557Y-15508214D01*
X14134414Y-15508214D01*
X14105843Y-15522500D01*
X14091557Y-15536786D01*
X14077271Y-15565357D01*
X14077271Y-15636786D01*
X14091557Y-15665357D01*
X14105843Y-15679643D01*
X14134414Y-15693929D01*
X14191557Y-15693929D01*
X14220128Y-15679643D01*
X14234414Y-15665357D01*
X14248700Y-15636786D01*
X14362986Y-15508214D02*
X14362986Y-15565357D01*
X14477271Y-15508214D02*
X14477271Y-15565357D01*
X14920128Y-15922500D02*
X14905843Y-15908214D01*
X14877271Y-15865357D01*
X14862986Y-15836786D01*
X14848700Y-15793929D01*
X14834414Y-15722500D01*
X14834414Y-15665357D01*
X14848700Y-15593929D01*
X14862986Y-15551071D01*
X14877271Y-15522500D01*
X14905843Y-15479643D01*
X14920128Y-15465357D01*
X15048700Y-15808214D02*
X15105843Y-15808214D01*
X15134414Y-15793929D01*
X15148700Y-15779643D01*
X15177271Y-15736786D01*
X15191557Y-15679643D01*
X15191557Y-15565357D01*
X15177271Y-15536786D01*
X15162986Y-15522500D01*
X15134414Y-15508214D01*
X15077271Y-15508214D01*
X15048700Y-15522500D01*
X15034414Y-15536786D01*
X15020128Y-15565357D01*
X15020128Y-15636786D01*
X15034414Y-15665357D01*
X15048700Y-15679643D01*
X15077271Y-15693929D01*
X15134414Y-15693929D01*
X15162986Y-15679643D01*
X15177271Y-15665357D01*
X15191557Y-15636786D01*
X15448700Y-15508214D02*
X15391557Y-15508214D01*
X15362986Y-15522500D01*
X15348700Y-15536786D01*
X15320128Y-15579643D01*
X15305843Y-15636786D01*
X15305843Y-15751071D01*
X15320128Y-15779643D01*
X15334414Y-15793929D01*
X15362986Y-15808214D01*
X15420128Y-15808214D01*
X15448700Y-15793929D01*
X15462986Y-15779643D01*
X15477271Y-15751071D01*
X15477271Y-15679643D01*
X15462986Y-15651071D01*
X15448700Y-15636786D01*
X15420128Y-15622500D01*
X15362986Y-15622500D01*
X15334414Y-15636786D01*
X15320128Y-15651071D01*
X15305843Y-15679643D01*
X15834414Y-15808214D02*
X15834414Y-15508214D01*
X15962986Y-15808214D02*
X15962986Y-15651071D01*
X15948700Y-15622500D01*
X15920128Y-15608214D01*
X15877271Y-15608214D01*
X15848700Y-15622500D01*
X15834414Y-15636786D01*
X16148700Y-15808214D02*
X16120128Y-15793929D01*
X16105843Y-15779643D01*
X16091557Y-15751071D01*
X16091557Y-15665357D01*
X16105843Y-15636786D01*
X16120128Y-15622500D01*
X16148700Y-15608214D01*
X16191557Y-15608214D01*
X16220128Y-15622500D01*
X16234414Y-15636786D01*
X16248700Y-15665357D01*
X16248700Y-15751071D01*
X16234414Y-15779643D01*
X16220128Y-15793929D01*
X16191557Y-15808214D01*
X16148700Y-15808214D01*
X16420128Y-15808214D02*
X16391557Y-15793929D01*
X16377271Y-15765357D01*
X16377271Y-15508214D01*
X16648700Y-15793929D02*
X16620128Y-15808214D01*
X16562986Y-15808214D01*
X16534414Y-15793929D01*
X16520128Y-15765357D01*
X16520128Y-15651071D01*
X16534414Y-15622500D01*
X16562986Y-15608214D01*
X16620128Y-15608214D01*
X16648700Y-15622500D01*
X16662986Y-15651071D01*
X16662986Y-15679643D01*
X16520128Y-15708214D01*
X16777271Y-15793929D02*
X16805843Y-15808214D01*
X16862986Y-15808214D01*
X16891557Y-15793929D01*
X16905843Y-15765357D01*
X16905843Y-15751071D01*
X16891557Y-15722500D01*
X16862986Y-15708214D01*
X16820128Y-15708214D01*
X16791557Y-15693929D01*
X16777271Y-15665357D01*
X16777271Y-15651071D01*
X16791557Y-15622500D01*
X16820128Y-15608214D01*
X16862986Y-15608214D01*
X16891557Y-15622500D01*
X17005843Y-15922500D02*
X17020128Y-15908214D01*
X17048700Y-15865357D01*
X17062986Y-15836786D01*
X17077271Y-15793929D01*
X17091557Y-15722500D01*
X17091557Y-15665357D01*
X17077271Y-15593929D01*
X17062986Y-15551071D01*
X17048700Y-15522500D01*
X17020128Y-15479643D01*
X17005843Y-15465357D01*
M02*
