%FSLAX45Y45*%
G04 Gerber Fmt 4.5, Leading zero omitted, Abs format (unit mm)*
G04 Created by KiCad (PCBNEW (5.1.2)-1) date 2024-09-19 10:14:31*
%MOMM*%
%LPD*%
G04 APERTURE LIST*
%ADD10C,0.050000*%
%ADD11C,0.200000*%
%ADD12C,0.300000*%
G04 APERTURE END LIST*
D10*
X10236200Y-6604000D02*
X10261600Y-6604000D01*
X10236200Y-11938000D02*
X10236200Y-6604000D01*
X16687800Y-11938000D02*
X10236200Y-11938000D01*
X16687800Y-6604000D02*
X16687800Y-11938000D01*
X10261600Y-6604000D02*
X16687800Y-6604000D01*
D11*
X16029400Y-6910800D02*
X16279400Y-7160800D01*
X16279400Y-6910800D02*
X16029400Y-7160800D01*
X13768800Y-11355800D02*
X14018800Y-11605800D01*
X14018800Y-11355800D02*
X13768800Y-11605800D01*
D12*
X10520128Y-12406214D02*
X10520128Y-12106214D01*
X10591557Y-12106214D01*
X10634414Y-12120500D01*
X10662986Y-12149071D01*
X10677271Y-12177643D01*
X10691557Y-12234786D01*
X10691557Y-12277643D01*
X10677271Y-12334786D01*
X10662986Y-12363357D01*
X10634414Y-12391929D01*
X10591557Y-12406214D01*
X10520128Y-12406214D01*
X10820128Y-12406214D02*
X10820128Y-12206214D01*
X10820128Y-12263357D02*
X10834414Y-12234786D01*
X10848700Y-12220500D01*
X10877271Y-12206214D01*
X10905843Y-12206214D01*
X11005843Y-12406214D02*
X11005843Y-12206214D01*
X11005843Y-12106214D02*
X10991557Y-12120500D01*
X11005843Y-12134786D01*
X11020128Y-12120500D01*
X11005843Y-12106214D01*
X11005843Y-12134786D01*
X11191557Y-12406214D02*
X11162986Y-12391929D01*
X11148700Y-12363357D01*
X11148700Y-12106214D01*
X11348700Y-12406214D02*
X11320128Y-12391929D01*
X11305843Y-12363357D01*
X11305843Y-12106214D01*
X11691557Y-12406214D02*
X11691557Y-12106214D01*
X11791557Y-12320500D01*
X11891557Y-12106214D01*
X11891557Y-12406214D01*
X12162986Y-12406214D02*
X12162986Y-12249071D01*
X12148700Y-12220500D01*
X12120128Y-12206214D01*
X12062986Y-12206214D01*
X12034414Y-12220500D01*
X12162986Y-12391929D02*
X12134414Y-12406214D01*
X12062986Y-12406214D01*
X12034414Y-12391929D01*
X12020128Y-12363357D01*
X12020128Y-12334786D01*
X12034414Y-12306214D01*
X12062986Y-12291929D01*
X12134414Y-12291929D01*
X12162986Y-12277643D01*
X12305843Y-12206214D02*
X12305843Y-12506214D01*
X12305843Y-12220500D02*
X12334414Y-12206214D01*
X12391557Y-12206214D01*
X12420128Y-12220500D01*
X12434414Y-12234786D01*
X12448700Y-12263357D01*
X12448700Y-12349071D01*
X12434414Y-12377643D01*
X12420128Y-12391929D01*
X12391557Y-12406214D01*
X12334414Y-12406214D01*
X12305843Y-12391929D01*
X12577271Y-12377643D02*
X12591557Y-12391929D01*
X12577271Y-12406214D01*
X12562986Y-12391929D01*
X12577271Y-12377643D01*
X12577271Y-12406214D01*
X12577271Y-12220500D02*
X12591557Y-12234786D01*
X12577271Y-12249071D01*
X12562986Y-12234786D01*
X12577271Y-12220500D01*
X12577271Y-12249071D01*
X9983700Y-12775500D02*
X10233700Y-13025500D01*
X10233700Y-12775500D02*
X9983700Y-13025500D01*
X10505843Y-12764786D02*
X10520128Y-12750500D01*
X10548700Y-12736214D01*
X10620128Y-12736214D01*
X10648700Y-12750500D01*
X10662986Y-12764786D01*
X10677271Y-12793357D01*
X10677271Y-12821929D01*
X10662986Y-12864786D01*
X10491557Y-13036214D01*
X10677271Y-13036214D01*
X10805843Y-13007643D02*
X10820128Y-13021929D01*
X10805843Y-13036214D01*
X10791557Y-13021929D01*
X10805843Y-13007643D01*
X10805843Y-13036214D01*
X11091557Y-12736214D02*
X10948700Y-12736214D01*
X10934414Y-12879071D01*
X10948700Y-12864786D01*
X10977271Y-12850500D01*
X11048700Y-12850500D01*
X11077271Y-12864786D01*
X11091557Y-12879071D01*
X11105843Y-12907643D01*
X11105843Y-12979071D01*
X11091557Y-13007643D01*
X11077271Y-13021929D01*
X11048700Y-13036214D01*
X10977271Y-13036214D01*
X10948700Y-13021929D01*
X10934414Y-13007643D01*
X11291557Y-12736214D02*
X11320128Y-12736214D01*
X11348700Y-12750500D01*
X11362986Y-12764786D01*
X11377271Y-12793357D01*
X11391557Y-12850500D01*
X11391557Y-12921929D01*
X11377271Y-12979071D01*
X11362986Y-13007643D01*
X11348700Y-13021929D01*
X11320128Y-13036214D01*
X11291557Y-13036214D01*
X11262986Y-13021929D01*
X11248700Y-13007643D01*
X11234414Y-12979071D01*
X11220128Y-12921929D01*
X11220128Y-12850500D01*
X11234414Y-12793357D01*
X11248700Y-12764786D01*
X11262986Y-12750500D01*
X11291557Y-12736214D01*
X11520128Y-13036214D02*
X11520128Y-12836214D01*
X11520128Y-12864786D02*
X11534414Y-12850500D01*
X11562986Y-12836214D01*
X11605843Y-12836214D01*
X11634414Y-12850500D01*
X11648700Y-12879071D01*
X11648700Y-13036214D01*
X11648700Y-12879071D02*
X11662986Y-12850500D01*
X11691557Y-12836214D01*
X11734414Y-12836214D01*
X11762986Y-12850500D01*
X11777271Y-12879071D01*
X11777271Y-13036214D01*
X11920128Y-13036214D02*
X11920128Y-12836214D01*
X11920128Y-12864786D02*
X11934414Y-12850500D01*
X11962986Y-12836214D01*
X12005843Y-12836214D01*
X12034414Y-12850500D01*
X12048700Y-12879071D01*
X12048700Y-13036214D01*
X12048700Y-12879071D02*
X12062986Y-12850500D01*
X12091557Y-12836214D01*
X12134414Y-12836214D01*
X12162986Y-12850500D01*
X12177271Y-12879071D01*
X12177271Y-13036214D01*
X12762986Y-12721929D02*
X12505843Y-13107643D01*
X13148700Y-12736214D02*
X13177271Y-12736214D01*
X13205843Y-12750500D01*
X13220128Y-12764786D01*
X13234414Y-12793357D01*
X13248700Y-12850500D01*
X13248700Y-12921929D01*
X13234414Y-12979071D01*
X13220128Y-13007643D01*
X13205843Y-13021929D01*
X13177271Y-13036214D01*
X13148700Y-13036214D01*
X13120128Y-13021929D01*
X13105843Y-13007643D01*
X13091557Y-12979071D01*
X13077271Y-12921929D01*
X13077271Y-12850500D01*
X13091557Y-12793357D01*
X13105843Y-12764786D01*
X13120128Y-12750500D01*
X13148700Y-12736214D01*
X13377271Y-13007643D02*
X13391557Y-13021929D01*
X13377271Y-13036214D01*
X13362986Y-13021929D01*
X13377271Y-13007643D01*
X13377271Y-13036214D01*
X13577271Y-12736214D02*
X13605843Y-12736214D01*
X13634414Y-12750500D01*
X13648700Y-12764786D01*
X13662986Y-12793357D01*
X13677271Y-12850500D01*
X13677271Y-12921929D01*
X13662986Y-12979071D01*
X13648700Y-13007643D01*
X13634414Y-13021929D01*
X13605843Y-13036214D01*
X13577271Y-13036214D01*
X13548700Y-13021929D01*
X13534414Y-13007643D01*
X13520128Y-12979071D01*
X13505843Y-12921929D01*
X13505843Y-12850500D01*
X13520128Y-12793357D01*
X13534414Y-12764786D01*
X13548700Y-12750500D01*
X13577271Y-12736214D01*
X13820128Y-13036214D02*
X13877271Y-13036214D01*
X13905843Y-13021929D01*
X13920128Y-13007643D01*
X13948700Y-12964786D01*
X13962986Y-12907643D01*
X13962986Y-12793357D01*
X13948700Y-12764786D01*
X13934414Y-12750500D01*
X13905843Y-12736214D01*
X13848700Y-12736214D01*
X13820128Y-12750500D01*
X13805843Y-12764786D01*
X13791557Y-12793357D01*
X13791557Y-12864786D01*
X13805843Y-12893357D01*
X13820128Y-12907643D01*
X13848700Y-12921929D01*
X13905843Y-12921929D01*
X13934414Y-12907643D01*
X13948700Y-12893357D01*
X13962986Y-12864786D01*
X14134414Y-12864786D02*
X14105843Y-12850500D01*
X14091557Y-12836214D01*
X14077271Y-12807643D01*
X14077271Y-12793357D01*
X14091557Y-12764786D01*
X14105843Y-12750500D01*
X14134414Y-12736214D01*
X14191557Y-12736214D01*
X14220128Y-12750500D01*
X14234414Y-12764786D01*
X14248700Y-12793357D01*
X14248700Y-12807643D01*
X14234414Y-12836214D01*
X14220128Y-12850500D01*
X14191557Y-12864786D01*
X14134414Y-12864786D01*
X14105843Y-12879071D01*
X14091557Y-12893357D01*
X14077271Y-12921929D01*
X14077271Y-12979071D01*
X14091557Y-13007643D01*
X14105843Y-13021929D01*
X14134414Y-13036214D01*
X14191557Y-13036214D01*
X14220128Y-13021929D01*
X14234414Y-13007643D01*
X14248700Y-12979071D01*
X14248700Y-12921929D01*
X14234414Y-12893357D01*
X14220128Y-12879071D01*
X14191557Y-12864786D01*
X14362986Y-12736214D02*
X14362986Y-12793357D01*
X14477271Y-12736214D02*
X14477271Y-12793357D01*
X14920128Y-13150500D02*
X14905843Y-13136214D01*
X14877271Y-13093357D01*
X14862986Y-13064786D01*
X14848700Y-13021929D01*
X14834414Y-12950500D01*
X14834414Y-12893357D01*
X14848700Y-12821929D01*
X14862986Y-12779071D01*
X14877271Y-12750500D01*
X14905843Y-12707643D01*
X14920128Y-12693357D01*
X15020128Y-12764786D02*
X15034414Y-12750500D01*
X15062986Y-12736214D01*
X15134414Y-12736214D01*
X15162986Y-12750500D01*
X15177271Y-12764786D01*
X15191557Y-12793357D01*
X15191557Y-12821929D01*
X15177271Y-12864786D01*
X15005843Y-13036214D01*
X15191557Y-13036214D01*
X15548700Y-13036214D02*
X15548700Y-12736214D01*
X15677271Y-13036214D02*
X15677271Y-12879071D01*
X15662986Y-12850500D01*
X15634414Y-12836214D01*
X15591557Y-12836214D01*
X15562986Y-12850500D01*
X15548700Y-12864786D01*
X15862986Y-13036214D02*
X15834414Y-13021929D01*
X15820128Y-13007643D01*
X15805843Y-12979071D01*
X15805843Y-12893357D01*
X15820128Y-12864786D01*
X15834414Y-12850500D01*
X15862986Y-12836214D01*
X15905843Y-12836214D01*
X15934414Y-12850500D01*
X15948700Y-12864786D01*
X15962986Y-12893357D01*
X15962986Y-12979071D01*
X15948700Y-13007643D01*
X15934414Y-13021929D01*
X15905843Y-13036214D01*
X15862986Y-13036214D01*
X16134414Y-13036214D02*
X16105843Y-13021929D01*
X16091557Y-12993357D01*
X16091557Y-12736214D01*
X16362986Y-13021929D02*
X16334414Y-13036214D01*
X16277271Y-13036214D01*
X16248700Y-13021929D01*
X16234414Y-12993357D01*
X16234414Y-12879071D01*
X16248700Y-12850500D01*
X16277271Y-12836214D01*
X16334414Y-12836214D01*
X16362986Y-12850500D01*
X16377271Y-12879071D01*
X16377271Y-12907643D01*
X16234414Y-12936214D01*
X16491557Y-13021929D02*
X16520128Y-13036214D01*
X16577271Y-13036214D01*
X16605843Y-13021929D01*
X16620128Y-12993357D01*
X16620128Y-12979071D01*
X16605843Y-12950500D01*
X16577271Y-12936214D01*
X16534414Y-12936214D01*
X16505843Y-12921929D01*
X16491557Y-12893357D01*
X16491557Y-12879071D01*
X16505843Y-12850500D01*
X16534414Y-12836214D01*
X16577271Y-12836214D01*
X16605843Y-12850500D01*
X16720128Y-13150500D02*
X16734414Y-13136214D01*
X16762986Y-13093357D01*
X16777271Y-13064786D01*
X16791557Y-13021929D01*
X16805843Y-12950500D01*
X16805843Y-12893357D01*
X16791557Y-12821929D01*
X16777271Y-12779071D01*
X16762986Y-12750500D01*
X16734414Y-12707643D01*
X16720128Y-12693357D01*
X17262986Y-13150500D02*
X17248700Y-13136214D01*
X17220128Y-13093357D01*
X17205843Y-13064786D01*
X17191557Y-13021929D01*
X17177271Y-12950500D01*
X17177271Y-12893357D01*
X17191557Y-12821929D01*
X17205843Y-12779071D01*
X17220128Y-12750500D01*
X17248700Y-12707643D01*
X17262986Y-12693357D01*
X17377271Y-12836214D02*
X17377271Y-13036214D01*
X17377271Y-12864786D02*
X17391557Y-12850500D01*
X17420128Y-12836214D01*
X17462986Y-12836214D01*
X17491557Y-12850500D01*
X17505843Y-12879071D01*
X17505843Y-13036214D01*
X17691557Y-13036214D02*
X17662986Y-13021929D01*
X17648700Y-13007643D01*
X17634414Y-12979071D01*
X17634414Y-12893357D01*
X17648700Y-12864786D01*
X17662986Y-12850500D01*
X17691557Y-12836214D01*
X17734414Y-12836214D01*
X17762986Y-12850500D01*
X17777271Y-12864786D01*
X17791557Y-12893357D01*
X17791557Y-12979071D01*
X17777271Y-13007643D01*
X17762986Y-13021929D01*
X17734414Y-13036214D01*
X17691557Y-13036214D01*
X17877271Y-12836214D02*
X17991557Y-12836214D01*
X17920128Y-12736214D02*
X17920128Y-12993357D01*
X17934414Y-13021929D01*
X17962986Y-13036214D01*
X17991557Y-13036214D01*
X18320128Y-12836214D02*
X18320128Y-13136214D01*
X18320128Y-12850500D02*
X18348700Y-12836214D01*
X18405843Y-12836214D01*
X18434414Y-12850500D01*
X18448700Y-12864786D01*
X18462986Y-12893357D01*
X18462986Y-12979071D01*
X18448700Y-13007643D01*
X18434414Y-13021929D01*
X18405843Y-13036214D01*
X18348700Y-13036214D01*
X18320128Y-13021929D01*
X18634414Y-13036214D02*
X18605843Y-13021929D01*
X18591557Y-12993357D01*
X18591557Y-12736214D01*
X18877271Y-13036214D02*
X18877271Y-12879071D01*
X18862986Y-12850500D01*
X18834414Y-12836214D01*
X18777271Y-12836214D01*
X18748700Y-12850500D01*
X18877271Y-13021929D02*
X18848700Y-13036214D01*
X18777271Y-13036214D01*
X18748700Y-13021929D01*
X18734414Y-12993357D01*
X18734414Y-12964786D01*
X18748700Y-12936214D01*
X18777271Y-12921929D01*
X18848700Y-12921929D01*
X18877271Y-12907643D01*
X18977271Y-12836214D02*
X19091557Y-12836214D01*
X19020128Y-12736214D02*
X19020128Y-12993357D01*
X19034414Y-13021929D01*
X19062986Y-13036214D01*
X19091557Y-13036214D01*
X19305843Y-13021929D02*
X19277271Y-13036214D01*
X19220128Y-13036214D01*
X19191557Y-13021929D01*
X19177271Y-12993357D01*
X19177271Y-12879071D01*
X19191557Y-12850500D01*
X19220128Y-12836214D01*
X19277271Y-12836214D01*
X19305843Y-12850500D01*
X19320128Y-12879071D01*
X19320128Y-12907643D01*
X19177271Y-12936214D01*
X19577271Y-13036214D02*
X19577271Y-12736214D01*
X19577271Y-13021929D02*
X19548700Y-13036214D01*
X19491557Y-13036214D01*
X19462986Y-13021929D01*
X19448700Y-13007643D01*
X19434414Y-12979071D01*
X19434414Y-12893357D01*
X19448700Y-12864786D01*
X19462986Y-12850500D01*
X19491557Y-12836214D01*
X19548700Y-12836214D01*
X19577271Y-12850500D01*
X19691557Y-13150500D02*
X19705843Y-13136214D01*
X19734414Y-13093357D01*
X19748700Y-13064786D01*
X19762986Y-13021929D01*
X19777271Y-12950500D01*
X19777271Y-12893357D01*
X19762986Y-12821929D01*
X19748700Y-12779071D01*
X19734414Y-12750500D01*
X19705843Y-12707643D01*
X19691557Y-12693357D01*
M02*
