G04 #@! TF.GenerationSoftware,KiCad,Pcbnew,(5.1.2)-1*
G04 #@! TF.CreationDate,2024-09-19T10:13:49+01:00*
G04 #@! TF.ProjectId,ESP32_PCB03,45535033-325f-4504-9342-30332e6b6963,rev?*
G04 #@! TF.SameCoordinates,Original*
G04 #@! TF.FileFunction,Legend,Top*
G04 #@! TF.FilePolarity,Positive*
%FSLAX46Y46*%
G04 Gerber Fmt 4.6, Leading zero omitted, Abs format (unit mm)*
G04 Created by KiCad (PCBNEW (5.1.2)-1) date 2024-09-19 10:13:49*
%MOMM*%
%LPD*%
G04 APERTURE LIST*
%ADD10C,0.200000*%
%ADD11C,0.190000*%
%ADD12C,0.150000*%
%ADD13C,0.175000*%
%ADD14C,0.120000*%
%ADD15C,0.180000*%
%ADD16O,1.802000X1.802000*%
%ADD17R,1.802000X1.802000*%
%ADD18C,1.702000*%
%ADD19O,1.702000X1.702000*%
%ADD20C,1.502000*%
%ADD21O,1.502000X1.502000*%
%ADD22R,1.902000X1.172000*%
%ADD23O,1.902000X1.172000*%
%ADD24R,1.702000X1.702000*%
%ADD25C,1.902000*%
%ADD26R,1.902000X1.902000*%
%ADD27O,2.102000X1.802000*%
%ADD28C,1.802000*%
%ADD29O,1.829200X3.150000*%
%ADD30R,0.942000X0.942000*%
%ADD31C,0.942000*%
%ADD32O,1.952000X0.952000*%
%ADD33C,2.602000*%
G04 APERTURE END LIST*
D10*
X132178476Y-118167476D02*
X132178476Y-116917476D01*
X132826095Y-116917476D01*
X132988000Y-116977000D01*
X133068952Y-117036523D01*
X133149904Y-117155571D01*
X133149904Y-117334142D01*
X133068952Y-117453190D01*
X132988000Y-117512714D01*
X132826095Y-117572238D01*
X132178476Y-117572238D01*
X134849904Y-118048428D02*
X134768952Y-118107952D01*
X134526095Y-118167476D01*
X134364190Y-118167476D01*
X134121333Y-118107952D01*
X133959428Y-117988904D01*
X133878476Y-117869857D01*
X133797523Y-117631761D01*
X133797523Y-117453190D01*
X133878476Y-117215095D01*
X133959428Y-117096047D01*
X134121333Y-116977000D01*
X134364190Y-116917476D01*
X134526095Y-116917476D01*
X134768952Y-116977000D01*
X134849904Y-117036523D01*
X136145142Y-117512714D02*
X136388000Y-117572238D01*
X136468952Y-117631761D01*
X136549904Y-117750809D01*
X136549904Y-117929380D01*
X136468952Y-118048428D01*
X136388000Y-118107952D01*
X136226095Y-118167476D01*
X135578476Y-118167476D01*
X135578476Y-116917476D01*
X136145142Y-116917476D01*
X136307047Y-116977000D01*
X136388000Y-117036523D01*
X136468952Y-117155571D01*
X136468952Y-117274619D01*
X136388000Y-117393666D01*
X136307047Y-117453190D01*
X136145142Y-117512714D01*
X135578476Y-117512714D01*
X141002285Y-117334142D02*
X141407047Y-118167476D01*
X141811809Y-117334142D01*
X142297523Y-116917476D02*
X143349904Y-116917476D01*
X142783238Y-117393666D01*
X143026095Y-117393666D01*
X143188000Y-117453190D01*
X143268952Y-117512714D01*
X143349904Y-117631761D01*
X143349904Y-117929380D01*
X143268952Y-118048428D01*
X143188000Y-118107952D01*
X143026095Y-118167476D01*
X142540380Y-118167476D01*
X142378476Y-118107952D01*
X142297523Y-118048428D01*
X144078476Y-118048428D02*
X144159428Y-118107952D01*
X144078476Y-118167476D01*
X143997523Y-118107952D01*
X144078476Y-118048428D01*
X144078476Y-118167476D01*
X145211809Y-116917476D02*
X145373714Y-116917476D01*
X145535619Y-116977000D01*
X145616571Y-117036523D01*
X145697523Y-117155571D01*
X145778476Y-117393666D01*
X145778476Y-117691285D01*
X145697523Y-117929380D01*
X145616571Y-118048428D01*
X145535619Y-118107952D01*
X145373714Y-118167476D01*
X145211809Y-118167476D01*
X145049904Y-118107952D01*
X144968952Y-118048428D01*
X144888000Y-117929380D01*
X144807047Y-117691285D01*
X144807047Y-117393666D01*
X144888000Y-117155571D01*
X144968952Y-117036523D01*
X145049904Y-116977000D01*
X145211809Y-116917476D01*
X132088190Y-112919214D02*
X132654857Y-112919214D01*
X132897714Y-113573976D02*
X132088190Y-113573976D01*
X132088190Y-112323976D01*
X132897714Y-112323976D01*
X133545333Y-113514452D02*
X133788190Y-113573976D01*
X134192952Y-113573976D01*
X134354857Y-113514452D01*
X134435809Y-113454928D01*
X134516761Y-113335880D01*
X134516761Y-113216833D01*
X134435809Y-113097785D01*
X134354857Y-113038261D01*
X134192952Y-112978738D01*
X133869142Y-112919214D01*
X133707238Y-112859690D01*
X133626285Y-112800166D01*
X133545333Y-112681119D01*
X133545333Y-112562071D01*
X133626285Y-112443023D01*
X133707238Y-112383500D01*
X133869142Y-112323976D01*
X134273904Y-112323976D01*
X134516761Y-112383500D01*
X135245333Y-113573976D02*
X135245333Y-112323976D01*
X135892952Y-112323976D01*
X136054857Y-112383500D01*
X136135809Y-112443023D01*
X136216761Y-112562071D01*
X136216761Y-112740642D01*
X136135809Y-112859690D01*
X136054857Y-112919214D01*
X135892952Y-112978738D01*
X135245333Y-112978738D01*
X132735809Y-114398976D02*
X133788190Y-114398976D01*
X133221523Y-114875166D01*
X133464380Y-114875166D01*
X133626285Y-114934690D01*
X133707238Y-114994214D01*
X133788190Y-115113261D01*
X133788190Y-115410880D01*
X133707238Y-115529928D01*
X133626285Y-115589452D01*
X133464380Y-115648976D01*
X132978666Y-115648976D01*
X132816761Y-115589452D01*
X132735809Y-115529928D01*
X134435809Y-114518023D02*
X134516761Y-114458500D01*
X134678666Y-114398976D01*
X135083428Y-114398976D01*
X135245333Y-114458500D01*
X135326285Y-114518023D01*
X135407238Y-114637071D01*
X135407238Y-114756119D01*
X135326285Y-114934690D01*
X134354857Y-115648976D01*
X135407238Y-115648976D01*
D11*
X133460285Y-87569428D02*
X133503142Y-87483714D01*
X133503142Y-87312285D01*
X133460285Y-87226571D01*
X133374571Y-87183714D01*
X133331714Y-87183714D01*
X133246000Y-87226571D01*
X133203142Y-87312285D01*
X133203142Y-87440857D01*
X133160285Y-87526571D01*
X133074571Y-87569428D01*
X133031714Y-87569428D01*
X132946000Y-87526571D01*
X132903142Y-87440857D01*
X132903142Y-87312285D01*
X132946000Y-87226571D01*
X133460285Y-86455142D02*
X133503142Y-86540857D01*
X133503142Y-86712285D01*
X133460285Y-86798000D01*
X133374571Y-86840857D01*
X133031714Y-86840857D01*
X132946000Y-86798000D01*
X132903142Y-86712285D01*
X132903142Y-86540857D01*
X132946000Y-86455142D01*
X133031714Y-86412285D01*
X133117428Y-86412285D01*
X133203142Y-86840857D01*
X133503142Y-86026571D02*
X132903142Y-86026571D01*
X133074571Y-86026571D02*
X132988857Y-85983714D01*
X132946000Y-85940857D01*
X132903142Y-85855142D01*
X132903142Y-85769428D01*
X132903142Y-85555142D02*
X133503142Y-85340857D01*
X132903142Y-85126571D01*
X133503142Y-84655142D02*
X133460285Y-84740857D01*
X133417428Y-84783714D01*
X133331714Y-84826571D01*
X133074571Y-84826571D01*
X132988857Y-84783714D01*
X132946000Y-84740857D01*
X132903142Y-84655142D01*
X132903142Y-84526571D01*
X132946000Y-84440857D01*
X132988857Y-84398000D01*
X133074571Y-84355142D01*
X133331714Y-84355142D01*
X133417428Y-84398000D01*
X133460285Y-84440857D01*
X133503142Y-84526571D01*
X133503142Y-84655142D01*
X133460285Y-84012285D02*
X133503142Y-83926571D01*
X133503142Y-83755142D01*
X133460285Y-83669428D01*
X133374571Y-83626571D01*
X133331714Y-83626571D01*
X133246000Y-83669428D01*
X133203142Y-83755142D01*
X133203142Y-83883714D01*
X133160285Y-83969428D01*
X133074571Y-84012285D01*
X133031714Y-84012285D01*
X132946000Y-83969428D01*
X132903142Y-83883714D01*
X132903142Y-83755142D01*
X132946000Y-83669428D01*
X111949714Y-84290000D02*
X111949714Y-83990000D01*
X112421142Y-83861428D02*
X112421142Y-84290000D01*
X111521142Y-84290000D01*
X111521142Y-83861428D01*
X112421142Y-83475714D02*
X111521142Y-83475714D01*
X112421142Y-82961428D01*
X111521142Y-82961428D01*
X111521142Y-81932857D02*
X111521142Y-81375714D01*
X111864000Y-81675714D01*
X111864000Y-81547142D01*
X111906857Y-81461428D01*
X111949714Y-81418571D01*
X112035428Y-81375714D01*
X112249714Y-81375714D01*
X112335428Y-81418571D01*
X112378285Y-81461428D01*
X112421142Y-81547142D01*
X112421142Y-81804285D01*
X112378285Y-81890000D01*
X112335428Y-81932857D01*
X111521142Y-80561428D02*
X111521142Y-80990000D01*
X111949714Y-81032857D01*
X111906857Y-80990000D01*
X111864000Y-80904285D01*
X111864000Y-80690000D01*
X111906857Y-80604285D01*
X111949714Y-80561428D01*
X112035428Y-80518571D01*
X112249714Y-80518571D01*
X112335428Y-80561428D01*
X112378285Y-80604285D01*
X112421142Y-80690000D01*
X112421142Y-80904285D01*
X112378285Y-80990000D01*
X112335428Y-81032857D01*
X111521142Y-78847142D02*
X111521142Y-78290000D01*
X111864000Y-78590000D01*
X111864000Y-78461428D01*
X111906857Y-78375714D01*
X111949714Y-78332857D01*
X112035428Y-78290000D01*
X112249714Y-78290000D01*
X112335428Y-78332857D01*
X112378285Y-78375714D01*
X112421142Y-78461428D01*
X112421142Y-78718571D01*
X112378285Y-78804285D01*
X112335428Y-78847142D01*
X112421142Y-75375714D02*
X112421142Y-75890000D01*
X112421142Y-75632857D02*
X111521142Y-75632857D01*
X111649714Y-75718571D01*
X111735428Y-75804285D01*
X111778285Y-75890000D01*
X111521142Y-73447142D02*
X111521142Y-73361428D01*
X111564000Y-73275714D01*
X111606857Y-73232857D01*
X111692571Y-73190000D01*
X111864000Y-73147142D01*
X112078285Y-73147142D01*
X112249714Y-73190000D01*
X112335428Y-73232857D01*
X112378285Y-73275714D01*
X112421142Y-73361428D01*
X112421142Y-73447142D01*
X112378285Y-73532857D01*
X112335428Y-73575714D01*
X112249714Y-73618571D01*
X112078285Y-73661428D01*
X111864000Y-73661428D01*
X111692571Y-73618571D01*
X111606857Y-73575714D01*
X111564000Y-73532857D01*
X111521142Y-73447142D01*
D10*
X137814285Y-81549142D02*
X137385714Y-81549142D01*
X137342857Y-81977714D01*
X137385714Y-81934857D01*
X137471428Y-81892000D01*
X137685714Y-81892000D01*
X137771428Y-81934857D01*
X137814285Y-81977714D01*
X137857142Y-82063428D01*
X137857142Y-82277714D01*
X137814285Y-82363428D01*
X137771428Y-82406285D01*
X137685714Y-82449142D01*
X137471428Y-82449142D01*
X137385714Y-82406285D01*
X137342857Y-82363428D01*
X138114285Y-81549142D02*
X138414285Y-82449142D01*
X138714285Y-81549142D01*
X140171428Y-81592000D02*
X140085714Y-81549142D01*
X139957142Y-81549142D01*
X139828571Y-81592000D01*
X139742857Y-81677714D01*
X139700000Y-81763428D01*
X139657142Y-81934857D01*
X139657142Y-82063428D01*
X139700000Y-82234857D01*
X139742857Y-82320571D01*
X139828571Y-82406285D01*
X139957142Y-82449142D01*
X140042857Y-82449142D01*
X140171428Y-82406285D01*
X140214285Y-82363428D01*
X140214285Y-82063428D01*
X140042857Y-82063428D01*
X140600000Y-82449142D02*
X140600000Y-81549142D01*
X141114285Y-82449142D01*
X141114285Y-81549142D01*
X141542857Y-82449142D02*
X141542857Y-81549142D01*
X141757142Y-81549142D01*
X141885714Y-81592000D01*
X141971428Y-81677714D01*
X142014285Y-81763428D01*
X142057142Y-81934857D01*
X142057142Y-82063428D01*
X142014285Y-82234857D01*
X141971428Y-82320571D01*
X141885714Y-82406285D01*
X141757142Y-82449142D01*
X141542857Y-82449142D01*
X159639047Y-111577428D02*
X160400952Y-111577428D01*
X160020000Y-111958380D02*
X160020000Y-111196476D01*
X152781047Y-111577428D02*
X153542952Y-111577428D01*
X153162000Y-111958380D02*
X153162000Y-111196476D01*
X145923047Y-111577428D02*
X146684952Y-111577428D01*
X146304000Y-111958380D02*
X146304000Y-111196476D01*
D12*
X126295142Y-100780857D02*
X126409428Y-100818952D01*
X126447523Y-100857047D01*
X126485619Y-100933238D01*
X126485619Y-101047523D01*
X126447523Y-101123714D01*
X126409428Y-101161809D01*
X126333238Y-101199904D01*
X126028476Y-101199904D01*
X126028476Y-100399904D01*
X126295142Y-100399904D01*
X126371333Y-100438000D01*
X126409428Y-100476095D01*
X126447523Y-100552285D01*
X126447523Y-100628476D01*
X126409428Y-100704666D01*
X126371333Y-100742761D01*
X126295142Y-100780857D01*
X126028476Y-100780857D01*
X126447523Y-97390000D02*
X126371333Y-97351904D01*
X126257047Y-97351904D01*
X126142761Y-97390000D01*
X126066571Y-97466190D01*
X126028476Y-97542380D01*
X125990380Y-97694761D01*
X125990380Y-97809047D01*
X126028476Y-97961428D01*
X126066571Y-98037619D01*
X126142761Y-98113809D01*
X126257047Y-98151904D01*
X126333238Y-98151904D01*
X126447523Y-98113809D01*
X126485619Y-98075714D01*
X126485619Y-97809047D01*
X126333238Y-97809047D01*
X126485619Y-93071904D02*
X126218952Y-92690952D01*
X126028476Y-93071904D02*
X126028476Y-92271904D01*
X126333238Y-92271904D01*
X126409428Y-92310000D01*
X126447523Y-92348095D01*
X126485619Y-92424285D01*
X126485619Y-92538571D01*
X126447523Y-92614761D01*
X126409428Y-92652857D01*
X126333238Y-92690952D01*
X126028476Y-92690952D01*
X109642857Y-91723333D02*
X109728571Y-91756666D01*
X109871428Y-91756666D01*
X109928571Y-91723333D01*
X109957142Y-91690000D01*
X109985714Y-91623333D01*
X109985714Y-91556666D01*
X109957142Y-91490000D01*
X109928571Y-91456666D01*
X109871428Y-91423333D01*
X109757142Y-91390000D01*
X109700000Y-91356666D01*
X109671428Y-91323333D01*
X109642857Y-91256666D01*
X109642857Y-91190000D01*
X109671428Y-91123333D01*
X109700000Y-91090000D01*
X109757142Y-91056666D01*
X109900000Y-91056666D01*
X109985714Y-91090000D01*
X110214285Y-91723333D02*
X110300000Y-91756666D01*
X110442857Y-91756666D01*
X110500000Y-91723333D01*
X110528571Y-91690000D01*
X110557142Y-91623333D01*
X110557142Y-91556666D01*
X110528571Y-91490000D01*
X110500000Y-91456666D01*
X110442857Y-91423333D01*
X110328571Y-91390000D01*
X110271428Y-91356666D01*
X110242857Y-91323333D01*
X110214285Y-91256666D01*
X110214285Y-91190000D01*
X110242857Y-91123333D01*
X110271428Y-91090000D01*
X110328571Y-91056666D01*
X110471428Y-91056666D01*
X110557142Y-91090000D01*
X112157142Y-91723333D02*
X112242857Y-91756666D01*
X112385714Y-91756666D01*
X112442857Y-91723333D01*
X112471428Y-91690000D01*
X112500000Y-91623333D01*
X112500000Y-91556666D01*
X112471428Y-91490000D01*
X112442857Y-91456666D01*
X112385714Y-91423333D01*
X112271428Y-91390000D01*
X112214285Y-91356666D01*
X112185714Y-91323333D01*
X112157142Y-91256666D01*
X112157142Y-91190000D01*
X112185714Y-91123333D01*
X112214285Y-91090000D01*
X112271428Y-91056666D01*
X112414285Y-91056666D01*
X112500000Y-91090000D01*
X113100000Y-91690000D02*
X113071428Y-91723333D01*
X112985714Y-91756666D01*
X112928571Y-91756666D01*
X112842857Y-91723333D01*
X112785714Y-91656666D01*
X112757142Y-91590000D01*
X112728571Y-91456666D01*
X112728571Y-91356666D01*
X112757142Y-91223333D01*
X112785714Y-91156666D01*
X112842857Y-91090000D01*
X112928571Y-91056666D01*
X112985714Y-91056666D01*
X113071428Y-91090000D01*
X113100000Y-91123333D01*
X113357142Y-91756666D02*
X113357142Y-91056666D01*
X113700000Y-91756666D02*
X113442857Y-91356666D01*
X113700000Y-91056666D02*
X113357142Y-91456666D01*
X114414285Y-91756666D02*
X114414285Y-91056666D01*
X114614285Y-91556666D01*
X114814285Y-91056666D01*
X114814285Y-91756666D01*
X115100000Y-91756666D02*
X115100000Y-91056666D01*
X115357142Y-91723333D02*
X115442857Y-91756666D01*
X115585714Y-91756666D01*
X115642857Y-91723333D01*
X115671428Y-91690000D01*
X115700000Y-91623333D01*
X115700000Y-91556666D01*
X115671428Y-91490000D01*
X115642857Y-91456666D01*
X115585714Y-91423333D01*
X115471428Y-91390000D01*
X115414285Y-91356666D01*
X115385714Y-91323333D01*
X115357142Y-91256666D01*
X115357142Y-91190000D01*
X115385714Y-91123333D01*
X115414285Y-91090000D01*
X115471428Y-91056666D01*
X115614285Y-91056666D01*
X115700000Y-91090000D01*
X116071428Y-91056666D02*
X116185714Y-91056666D01*
X116242857Y-91090000D01*
X116300000Y-91156666D01*
X116328571Y-91290000D01*
X116328571Y-91523333D01*
X116300000Y-91656666D01*
X116242857Y-91723333D01*
X116185714Y-91756666D01*
X116071428Y-91756666D01*
X116014285Y-91723333D01*
X115957142Y-91656666D01*
X115928571Y-91523333D01*
X115928571Y-91290000D01*
X115957142Y-91156666D01*
X116014285Y-91090000D01*
X116071428Y-91056666D01*
X117042857Y-91756666D02*
X117042857Y-91056666D01*
X117242857Y-91556666D01*
X117442857Y-91056666D01*
X117442857Y-91756666D01*
X117842857Y-91056666D02*
X117957142Y-91056666D01*
X118014285Y-91090000D01*
X118071428Y-91156666D01*
X118100000Y-91290000D01*
X118100000Y-91523333D01*
X118071428Y-91656666D01*
X118014285Y-91723333D01*
X117957142Y-91756666D01*
X117842857Y-91756666D01*
X117785714Y-91723333D01*
X117728571Y-91656666D01*
X117700000Y-91523333D01*
X117700000Y-91290000D01*
X117728571Y-91156666D01*
X117785714Y-91090000D01*
X117842857Y-91056666D01*
X118328571Y-91723333D02*
X118414285Y-91756666D01*
X118557142Y-91756666D01*
X118614285Y-91723333D01*
X118642857Y-91690000D01*
X118671428Y-91623333D01*
X118671428Y-91556666D01*
X118642857Y-91490000D01*
X118614285Y-91456666D01*
X118557142Y-91423333D01*
X118442857Y-91390000D01*
X118385714Y-91356666D01*
X118357142Y-91323333D01*
X118328571Y-91256666D01*
X118328571Y-91190000D01*
X118357142Y-91123333D01*
X118385714Y-91090000D01*
X118442857Y-91056666D01*
X118585714Y-91056666D01*
X118671428Y-91090000D01*
X118928571Y-91756666D02*
X118928571Y-91056666D01*
X108968666Y-86930666D02*
X108968666Y-86230666D01*
X109302000Y-86930666D02*
X109302000Y-86230666D01*
X109702000Y-86930666D01*
X109702000Y-86230666D01*
X110402000Y-86930666D02*
X110002000Y-86930666D01*
X110202000Y-86930666D02*
X110202000Y-86230666D01*
X110135333Y-86330666D01*
X110068666Y-86397333D01*
X110002000Y-86430666D01*
X111768666Y-86930666D02*
X111768666Y-86230666D01*
X112102000Y-86930666D02*
X112102000Y-86230666D01*
X112502000Y-86930666D01*
X112502000Y-86230666D01*
X112802000Y-86297333D02*
X112835333Y-86264000D01*
X112902000Y-86230666D01*
X113068666Y-86230666D01*
X113135333Y-86264000D01*
X113168666Y-86297333D01*
X113202000Y-86364000D01*
X113202000Y-86430666D01*
X113168666Y-86530666D01*
X112768666Y-86930666D01*
X113202000Y-86930666D01*
X114568666Y-86930666D02*
X114568666Y-86230666D01*
X114902000Y-86930666D02*
X114902000Y-86230666D01*
X115302000Y-86930666D01*
X115302000Y-86230666D01*
X115568666Y-86230666D02*
X116002000Y-86230666D01*
X115768666Y-86497333D01*
X115868666Y-86497333D01*
X115935333Y-86530666D01*
X115968666Y-86564000D01*
X116002000Y-86630666D01*
X116002000Y-86797333D01*
X115968666Y-86864000D01*
X115935333Y-86897333D01*
X115868666Y-86930666D01*
X115668666Y-86930666D01*
X115602000Y-86897333D01*
X115568666Y-86864000D01*
X117368666Y-86930666D02*
X117368666Y-86230666D01*
X117702000Y-86930666D02*
X117702000Y-86230666D01*
X118102000Y-86930666D01*
X118102000Y-86230666D01*
X118735333Y-86464000D02*
X118735333Y-86930666D01*
X118568666Y-86197333D02*
X118402000Y-86697333D01*
X118835333Y-86697333D01*
X120002000Y-86264000D02*
X119935333Y-86230666D01*
X119835333Y-86230666D01*
X119735333Y-86264000D01*
X119668666Y-86330666D01*
X119635333Y-86397333D01*
X119602000Y-86530666D01*
X119602000Y-86630666D01*
X119635333Y-86764000D01*
X119668666Y-86830666D01*
X119735333Y-86897333D01*
X119835333Y-86930666D01*
X119902000Y-86930666D01*
X120002000Y-86897333D01*
X120035333Y-86864000D01*
X120035333Y-86630666D01*
X119902000Y-86630666D01*
X120335333Y-86930666D02*
X120335333Y-86230666D01*
X120735333Y-86930666D01*
X120735333Y-86230666D01*
X121068666Y-86930666D02*
X121068666Y-86230666D01*
X121235333Y-86230666D01*
X121335333Y-86264000D01*
X121402000Y-86330666D01*
X121435333Y-86397333D01*
X121468666Y-86530666D01*
X121468666Y-86630666D01*
X121435333Y-86764000D01*
X121402000Y-86830666D01*
X121335333Y-86897333D01*
X121235333Y-86930666D01*
X121068666Y-86930666D01*
X122635333Y-86230666D02*
X122302000Y-86230666D01*
X122268666Y-86564000D01*
X122302000Y-86530666D01*
X122368666Y-86497333D01*
X122535333Y-86497333D01*
X122602000Y-86530666D01*
X122635333Y-86564000D01*
X122668666Y-86630666D01*
X122668666Y-86797333D01*
X122635333Y-86864000D01*
X122602000Y-86897333D01*
X122535333Y-86930666D01*
X122368666Y-86930666D01*
X122302000Y-86897333D01*
X122268666Y-86864000D01*
X122868666Y-86230666D02*
X123102000Y-86930666D01*
X123335333Y-86230666D01*
X124568666Y-86230666D02*
X125002000Y-86230666D01*
X124768666Y-86497333D01*
X124868666Y-86497333D01*
X124935333Y-86530666D01*
X124968666Y-86564000D01*
X125002000Y-86630666D01*
X125002000Y-86797333D01*
X124968666Y-86864000D01*
X124935333Y-86897333D01*
X124868666Y-86930666D01*
X124668666Y-86930666D01*
X124602000Y-86897333D01*
X124568666Y-86864000D01*
X125202000Y-86230666D02*
X125435333Y-86930666D01*
X125668666Y-86230666D01*
X125835333Y-86230666D02*
X126268666Y-86230666D01*
X126035333Y-86497333D01*
X126135333Y-86497333D01*
X126202000Y-86530666D01*
X126235333Y-86564000D01*
X126268666Y-86630666D01*
X126268666Y-86797333D01*
X126235333Y-86864000D01*
X126202000Y-86897333D01*
X126135333Y-86930666D01*
X125935333Y-86930666D01*
X125868666Y-86897333D01*
X125835333Y-86864000D01*
X126136476Y-95104000D02*
X126060285Y-95065904D01*
X125946000Y-95065904D01*
X125831714Y-95104000D01*
X125755523Y-95180190D01*
X125717428Y-95256380D01*
X125679333Y-95408761D01*
X125679333Y-95523047D01*
X125717428Y-95675428D01*
X125755523Y-95751619D01*
X125831714Y-95827809D01*
X125946000Y-95865904D01*
X126022190Y-95865904D01*
X126136476Y-95827809D01*
X126174571Y-95789714D01*
X126174571Y-95523047D01*
X126022190Y-95523047D01*
X126517428Y-95865904D02*
X126517428Y-95065904D01*
X126974571Y-95865904D01*
X126974571Y-95065904D01*
X127355523Y-95865904D02*
X127355523Y-95065904D01*
X127546000Y-95065904D01*
X127660285Y-95104000D01*
X127736476Y-95180190D01*
X127774571Y-95256380D01*
X127812666Y-95408761D01*
X127812666Y-95523047D01*
X127774571Y-95675428D01*
X127736476Y-95751619D01*
X127660285Y-95827809D01*
X127546000Y-95865904D01*
X127355523Y-95865904D01*
D10*
X158202380Y-86550476D02*
X158202380Y-87026666D01*
X158678571Y-87074285D01*
X158630952Y-87026666D01*
X158583333Y-86931428D01*
X158583333Y-86693333D01*
X158630952Y-86598095D01*
X158678571Y-86550476D01*
X158773809Y-86502857D01*
X159011904Y-86502857D01*
X159107142Y-86550476D01*
X159154761Y-86598095D01*
X159202380Y-86693333D01*
X159202380Y-86931428D01*
X159154761Y-87026666D01*
X159107142Y-87074285D01*
X158202380Y-86217142D02*
X159202380Y-85883809D01*
X158202380Y-85550476D01*
X158202380Y-94932476D02*
X158202380Y-95408666D01*
X158678571Y-95456285D01*
X158630952Y-95408666D01*
X158583333Y-95313428D01*
X158583333Y-95075333D01*
X158630952Y-94980095D01*
X158678571Y-94932476D01*
X158773809Y-94884857D01*
X159011904Y-94884857D01*
X159107142Y-94932476D01*
X159154761Y-94980095D01*
X159202380Y-95075333D01*
X159202380Y-95313428D01*
X159154761Y-95408666D01*
X159107142Y-95456285D01*
X158202380Y-94599142D02*
X159202380Y-94265809D01*
X158202380Y-93932476D01*
X158202380Y-103568476D02*
X158202380Y-104044666D01*
X158678571Y-104092285D01*
X158630952Y-104044666D01*
X158583333Y-103949428D01*
X158583333Y-103711333D01*
X158630952Y-103616095D01*
X158678571Y-103568476D01*
X158773809Y-103520857D01*
X159011904Y-103520857D01*
X159107142Y-103568476D01*
X159154761Y-103616095D01*
X159202380Y-103711333D01*
X159202380Y-103949428D01*
X159154761Y-104044666D01*
X159107142Y-104092285D01*
X158202380Y-103235142D02*
X159202380Y-102901809D01*
X158202380Y-102568476D01*
X150622095Y-71636000D02*
X150526857Y-71588380D01*
X150384000Y-71588380D01*
X150241142Y-71636000D01*
X150145904Y-71731238D01*
X150098285Y-71826476D01*
X150050666Y-72016952D01*
X150050666Y-72159809D01*
X150098285Y-72350285D01*
X150145904Y-72445523D01*
X150241142Y-72540761D01*
X150384000Y-72588380D01*
X150479238Y-72588380D01*
X150622095Y-72540761D01*
X150669714Y-72493142D01*
X150669714Y-72159809D01*
X150479238Y-72159809D01*
X151098285Y-72588380D02*
X151098285Y-71588380D01*
X151669714Y-72588380D01*
X151669714Y-71588380D01*
X152145904Y-72588380D02*
X152145904Y-71588380D01*
X152384000Y-71588380D01*
X152526857Y-71636000D01*
X152622095Y-71731238D01*
X152669714Y-71826476D01*
X152717333Y-72016952D01*
X152717333Y-72159809D01*
X152669714Y-72350285D01*
X152622095Y-72445523D01*
X152526857Y-72540761D01*
X152384000Y-72588380D01*
X152145904Y-72588380D01*
X145097523Y-71588380D02*
X144621333Y-71588380D01*
X144573714Y-72064571D01*
X144621333Y-72016952D01*
X144716571Y-71969333D01*
X144954666Y-71969333D01*
X145049904Y-72016952D01*
X145097523Y-72064571D01*
X145145142Y-72159809D01*
X145145142Y-72397904D01*
X145097523Y-72493142D01*
X145049904Y-72540761D01*
X144954666Y-72588380D01*
X144716571Y-72588380D01*
X144621333Y-72540761D01*
X144573714Y-72493142D01*
X145430857Y-71588380D02*
X145764190Y-72588380D01*
X146097523Y-71588380D01*
X133294380Y-72066000D02*
X132294380Y-72066000D01*
X132294380Y-71723142D01*
X132342000Y-71637428D01*
X132389619Y-71594571D01*
X132484857Y-71551714D01*
X132627714Y-71551714D01*
X132722952Y-71594571D01*
X132770571Y-71637428D01*
X132818190Y-71723142D01*
X132818190Y-72066000D01*
X132294380Y-71251714D02*
X133294380Y-71037428D01*
X132580095Y-70866000D01*
X133294380Y-70694571D01*
X132294380Y-70480285D01*
X133294380Y-69623142D02*
X132818190Y-69923142D01*
X133294380Y-70137428D02*
X132294380Y-70137428D01*
X132294380Y-69794571D01*
X132342000Y-69708857D01*
X132389619Y-69666000D01*
X132484857Y-69623142D01*
X132627714Y-69623142D01*
X132722952Y-69666000D01*
X132770571Y-69708857D01*
X132818190Y-69794571D01*
X132818190Y-70137428D01*
X124322000Y-109584285D02*
X124236285Y-109627142D01*
X124064857Y-109627142D01*
X123979142Y-109584285D01*
X123936285Y-109498571D01*
X123936285Y-109155714D01*
X123979142Y-109070000D01*
X124064857Y-109027142D01*
X124236285Y-109027142D01*
X124322000Y-109070000D01*
X124364857Y-109155714D01*
X124364857Y-109241428D01*
X123936285Y-109327142D01*
X124750571Y-109627142D02*
X124750571Y-109027142D01*
X124750571Y-109112857D02*
X124793428Y-109070000D01*
X124879142Y-109027142D01*
X125007714Y-109027142D01*
X125093428Y-109070000D01*
X125136285Y-109155714D01*
X125136285Y-109627142D01*
X125136285Y-109155714D02*
X125179142Y-109070000D01*
X125264857Y-109027142D01*
X125393428Y-109027142D01*
X125479142Y-109070000D01*
X125522000Y-109155714D01*
X125522000Y-109627142D01*
X125950571Y-109627142D02*
X125950571Y-109027142D01*
X125950571Y-108727142D02*
X125907714Y-108770000D01*
X125950571Y-108812857D01*
X125993428Y-108770000D01*
X125950571Y-108727142D01*
X125950571Y-108812857D01*
X126250571Y-109027142D02*
X126593428Y-109027142D01*
X126379142Y-108727142D02*
X126379142Y-109498571D01*
X126422000Y-109584285D01*
X126507714Y-109627142D01*
X126593428Y-109627142D01*
X124539428Y-102766761D02*
X124453714Y-102814380D01*
X124282285Y-102814380D01*
X124196571Y-102766761D01*
X124153714Y-102719142D01*
X124110857Y-102623904D01*
X124110857Y-102338190D01*
X124153714Y-102242952D01*
X124196571Y-102195333D01*
X124282285Y-102147714D01*
X124453714Y-102147714D01*
X124539428Y-102195333D01*
X125053714Y-102814380D02*
X124968000Y-102766761D01*
X124925142Y-102719142D01*
X124882285Y-102623904D01*
X124882285Y-102338190D01*
X124925142Y-102242952D01*
X124968000Y-102195333D01*
X125053714Y-102147714D01*
X125182285Y-102147714D01*
X125268000Y-102195333D01*
X125310857Y-102242952D01*
X125353714Y-102338190D01*
X125353714Y-102623904D01*
X125310857Y-102719142D01*
X125268000Y-102766761D01*
X125182285Y-102814380D01*
X125053714Y-102814380D01*
X125868000Y-102814380D02*
X125782285Y-102766761D01*
X125739428Y-102671523D01*
X125739428Y-101814380D01*
D13*
X114379333Y-66871904D02*
X114812666Y-66871904D01*
X114579333Y-67176666D01*
X114679333Y-67176666D01*
X114746000Y-67214761D01*
X114779333Y-67252857D01*
X114812666Y-67329047D01*
X114812666Y-67519523D01*
X114779333Y-67595714D01*
X114746000Y-67633809D01*
X114679333Y-67671904D01*
X114479333Y-67671904D01*
X114412666Y-67633809D01*
X114379333Y-67595714D01*
X115012666Y-66871904D02*
X115246000Y-67671904D01*
X115479333Y-66871904D01*
X115646000Y-66871904D02*
X116079333Y-66871904D01*
X115846000Y-67176666D01*
X115946000Y-67176666D01*
X116012666Y-67214761D01*
X116046000Y-67252857D01*
X116079333Y-67329047D01*
X116079333Y-67519523D01*
X116046000Y-67595714D01*
X116012666Y-67633809D01*
X115946000Y-67671904D01*
X115746000Y-67671904D01*
X115679333Y-67633809D01*
X115646000Y-67595714D01*
X116879333Y-67633809D02*
X116979333Y-67671904D01*
X117146000Y-67671904D01*
X117212666Y-67633809D01*
X117246000Y-67595714D01*
X117279333Y-67519523D01*
X117279333Y-67443333D01*
X117246000Y-67367142D01*
X117212666Y-67329047D01*
X117146000Y-67290952D01*
X117012666Y-67252857D01*
X116946000Y-67214761D01*
X116912666Y-67176666D01*
X116879333Y-67100476D01*
X116879333Y-67024285D01*
X116912666Y-66948095D01*
X116946000Y-66910000D01*
X117012666Y-66871904D01*
X117179333Y-66871904D01*
X117279333Y-66910000D01*
X117579333Y-67671904D02*
X117579333Y-66871904D01*
X117746000Y-66871904D01*
X117846000Y-66910000D01*
X117912666Y-66986190D01*
X117946000Y-67062380D01*
X117979333Y-67214761D01*
X117979333Y-67329047D01*
X117946000Y-67481428D01*
X117912666Y-67557619D01*
X117846000Y-67633809D01*
X117746000Y-67671904D01*
X117579333Y-67671904D01*
X118246000Y-67443333D02*
X118579333Y-67443333D01*
X118179333Y-67671904D02*
X118412666Y-66871904D01*
X118646000Y-67671904D01*
X119379333Y-67633809D02*
X119479333Y-67671904D01*
X119646000Y-67671904D01*
X119712666Y-67633809D01*
X119746000Y-67595714D01*
X119779333Y-67519523D01*
X119779333Y-67443333D01*
X119746000Y-67367142D01*
X119712666Y-67329047D01*
X119646000Y-67290952D01*
X119512666Y-67252857D01*
X119446000Y-67214761D01*
X119412666Y-67176666D01*
X119379333Y-67100476D01*
X119379333Y-67024285D01*
X119412666Y-66948095D01*
X119446000Y-66910000D01*
X119512666Y-66871904D01*
X119679333Y-66871904D01*
X119779333Y-66910000D01*
X120479333Y-67595714D02*
X120446000Y-67633809D01*
X120346000Y-67671904D01*
X120279333Y-67671904D01*
X120179333Y-67633809D01*
X120112666Y-67557619D01*
X120079333Y-67481428D01*
X120046000Y-67329047D01*
X120046000Y-67214761D01*
X120079333Y-67062380D01*
X120112666Y-66986190D01*
X120179333Y-66910000D01*
X120279333Y-66871904D01*
X120346000Y-66871904D01*
X120446000Y-66910000D01*
X120479333Y-66948095D01*
X121112666Y-67671904D02*
X120779333Y-67671904D01*
X120779333Y-66871904D01*
X124912666Y-66910000D02*
X124846000Y-66871904D01*
X124746000Y-66871904D01*
X124646000Y-66910000D01*
X124579333Y-66986190D01*
X124546000Y-67062380D01*
X124512666Y-67214761D01*
X124512666Y-67329047D01*
X124546000Y-67481428D01*
X124579333Y-67557619D01*
X124646000Y-67633809D01*
X124746000Y-67671904D01*
X124812666Y-67671904D01*
X124912666Y-67633809D01*
X124946000Y-67595714D01*
X124946000Y-67329047D01*
X124812666Y-67329047D01*
X125246000Y-67671904D02*
X125246000Y-66871904D01*
X125646000Y-67671904D01*
X125646000Y-66871904D01*
X125979333Y-67671904D02*
X125979333Y-66871904D01*
X126146000Y-66871904D01*
X126246000Y-66910000D01*
X126312666Y-66986190D01*
X126346000Y-67062380D01*
X126379333Y-67214761D01*
X126379333Y-67329047D01*
X126346000Y-67481428D01*
X126312666Y-67557619D01*
X126246000Y-67633809D01*
X126146000Y-67671904D01*
X125979333Y-67671904D01*
X114933333Y-80333904D02*
X114600000Y-80333904D01*
X114566666Y-80714857D01*
X114600000Y-80676761D01*
X114666666Y-80638666D01*
X114833333Y-80638666D01*
X114900000Y-80676761D01*
X114933333Y-80714857D01*
X114966666Y-80791047D01*
X114966666Y-80981523D01*
X114933333Y-81057714D01*
X114900000Y-81095809D01*
X114833333Y-81133904D01*
X114666666Y-81133904D01*
X114600000Y-81095809D01*
X114566666Y-81057714D01*
X115166666Y-80333904D02*
X115400000Y-81133904D01*
X115633333Y-80333904D01*
X117300000Y-80372000D02*
X117233333Y-80333904D01*
X117133333Y-80333904D01*
X117033333Y-80372000D01*
X116966666Y-80448190D01*
X116933333Y-80524380D01*
X116900000Y-80676761D01*
X116900000Y-80791047D01*
X116933333Y-80943428D01*
X116966666Y-81019619D01*
X117033333Y-81095809D01*
X117133333Y-81133904D01*
X117200000Y-81133904D01*
X117300000Y-81095809D01*
X117333333Y-81057714D01*
X117333333Y-80791047D01*
X117200000Y-80791047D01*
X117633333Y-81133904D02*
X117633333Y-80333904D01*
X118033333Y-81133904D01*
X118033333Y-80333904D01*
X118366666Y-81133904D02*
X118366666Y-80333904D01*
X118533333Y-80333904D01*
X118633333Y-80372000D01*
X118700000Y-80448190D01*
X118733333Y-80524380D01*
X118766666Y-80676761D01*
X118766666Y-80791047D01*
X118733333Y-80943428D01*
X118700000Y-81019619D01*
X118633333Y-81095809D01*
X118533333Y-81133904D01*
X118366666Y-81133904D01*
X119533333Y-80333904D02*
X119966666Y-80333904D01*
X119733333Y-80638666D01*
X119833333Y-80638666D01*
X119900000Y-80676761D01*
X119933333Y-80714857D01*
X119966666Y-80791047D01*
X119966666Y-80981523D01*
X119933333Y-81057714D01*
X119900000Y-81095809D01*
X119833333Y-81133904D01*
X119633333Y-81133904D01*
X119566666Y-81095809D01*
X119533333Y-81057714D01*
X120166666Y-80333904D02*
X120400000Y-81133904D01*
X120633333Y-80333904D01*
X120800000Y-80333904D02*
X121233333Y-80333904D01*
X121000000Y-80638666D01*
X121100000Y-80638666D01*
X121166666Y-80676761D01*
X121200000Y-80714857D01*
X121233333Y-80791047D01*
X121233333Y-80981523D01*
X121200000Y-81057714D01*
X121166666Y-81095809D01*
X121100000Y-81133904D01*
X120900000Y-81133904D01*
X120833333Y-81095809D01*
X120800000Y-81057714D01*
X122566666Y-81095809D02*
X122666666Y-81133904D01*
X122833333Y-81133904D01*
X122900000Y-81095809D01*
X122933333Y-81057714D01*
X122966666Y-80981523D01*
X122966666Y-80905333D01*
X122933333Y-80829142D01*
X122900000Y-80791047D01*
X122833333Y-80752952D01*
X122700000Y-80714857D01*
X122633333Y-80676761D01*
X122600000Y-80638666D01*
X122566666Y-80562476D01*
X122566666Y-80486285D01*
X122600000Y-80410095D01*
X122633333Y-80372000D01*
X122700000Y-80333904D01*
X122866666Y-80333904D01*
X122966666Y-80372000D01*
X123266666Y-81133904D02*
X123266666Y-80333904D01*
X123433333Y-80333904D01*
X123533333Y-80372000D01*
X123600000Y-80448190D01*
X123633333Y-80524380D01*
X123666666Y-80676761D01*
X123666666Y-80791047D01*
X123633333Y-80943428D01*
X123600000Y-81019619D01*
X123533333Y-81095809D01*
X123433333Y-81133904D01*
X123266666Y-81133904D01*
X123933333Y-80905333D02*
X124266666Y-80905333D01*
X123866666Y-81133904D02*
X124100000Y-80333904D01*
X124333333Y-81133904D01*
X125066666Y-81095809D02*
X125166666Y-81133904D01*
X125333333Y-81133904D01*
X125400000Y-81095809D01*
X125433333Y-81057714D01*
X125466666Y-80981523D01*
X125466666Y-80905333D01*
X125433333Y-80829142D01*
X125400000Y-80791047D01*
X125333333Y-80752952D01*
X125200000Y-80714857D01*
X125133333Y-80676761D01*
X125100000Y-80638666D01*
X125066666Y-80562476D01*
X125066666Y-80486285D01*
X125100000Y-80410095D01*
X125133333Y-80372000D01*
X125200000Y-80333904D01*
X125366666Y-80333904D01*
X125466666Y-80372000D01*
X126166666Y-81057714D02*
X126133333Y-81095809D01*
X126033333Y-81133904D01*
X125966666Y-81133904D01*
X125866666Y-81095809D01*
X125800000Y-81019619D01*
X125766666Y-80943428D01*
X125733333Y-80791047D01*
X125733333Y-80676761D01*
X125766666Y-80524380D01*
X125800000Y-80448190D01*
X125866666Y-80372000D01*
X125966666Y-80333904D01*
X126033333Y-80333904D01*
X126133333Y-80372000D01*
X126166666Y-80410095D01*
X126800000Y-81133904D02*
X126466666Y-81133904D01*
X126466666Y-80333904D01*
D10*
X134125142Y-67125904D02*
X134620380Y-67125904D01*
X134353714Y-67430666D01*
X134468000Y-67430666D01*
X134544190Y-67468761D01*
X134582285Y-67506857D01*
X134620380Y-67583047D01*
X134620380Y-67773523D01*
X134582285Y-67849714D01*
X134544190Y-67887809D01*
X134468000Y-67925904D01*
X134239428Y-67925904D01*
X134163238Y-67887809D01*
X134125142Y-67849714D01*
X134848952Y-67125904D02*
X135115619Y-67925904D01*
X135382285Y-67125904D01*
X135572761Y-67125904D02*
X136068000Y-67125904D01*
X135801333Y-67430666D01*
X135915619Y-67430666D01*
X135991809Y-67468761D01*
X136029904Y-67506857D01*
X136068000Y-67583047D01*
X136068000Y-67773523D01*
X136029904Y-67849714D01*
X135991809Y-67887809D01*
X135915619Y-67925904D01*
X135687047Y-67925904D01*
X135610857Y-67887809D01*
X135572761Y-67849714D01*
X137439428Y-67164000D02*
X137363238Y-67125904D01*
X137248952Y-67125904D01*
X137134666Y-67164000D01*
X137058476Y-67240190D01*
X137020380Y-67316380D01*
X136982285Y-67468761D01*
X136982285Y-67583047D01*
X137020380Y-67735428D01*
X137058476Y-67811619D01*
X137134666Y-67887809D01*
X137248952Y-67925904D01*
X137325142Y-67925904D01*
X137439428Y-67887809D01*
X137477523Y-67849714D01*
X137477523Y-67583047D01*
X137325142Y-67583047D01*
X137820380Y-67925904D02*
X137820380Y-67125904D01*
X138277523Y-67925904D01*
X138277523Y-67125904D01*
X138658476Y-67925904D02*
X138658476Y-67125904D01*
X138848952Y-67125904D01*
X138963238Y-67164000D01*
X139039428Y-67240190D01*
X139077523Y-67316380D01*
X139115619Y-67468761D01*
X139115619Y-67583047D01*
X139077523Y-67735428D01*
X139039428Y-67811619D01*
X138963238Y-67887809D01*
X138848952Y-67925904D01*
X138658476Y-67925904D01*
X140448952Y-67125904D02*
X140068000Y-67125904D01*
X140029904Y-67506857D01*
X140068000Y-67468761D01*
X140144190Y-67430666D01*
X140334666Y-67430666D01*
X140410857Y-67468761D01*
X140448952Y-67506857D01*
X140487047Y-67583047D01*
X140487047Y-67773523D01*
X140448952Y-67849714D01*
X140410857Y-67887809D01*
X140334666Y-67925904D01*
X140144190Y-67925904D01*
X140068000Y-67887809D01*
X140029904Y-67849714D01*
X140715619Y-67125904D02*
X140982285Y-67925904D01*
X141248952Y-67125904D01*
D14*
X129648000Y-69790000D02*
X130978000Y-69790000D01*
X130978000Y-69790000D02*
X130978000Y-71120000D01*
X130978000Y-72390000D02*
X130978000Y-118170000D01*
X128318000Y-118170000D02*
X130978000Y-118170000D01*
X128318000Y-72390000D02*
X128318000Y-118170000D01*
X128318000Y-72390000D02*
X130978000Y-72390000D01*
X103318000Y-72390000D02*
X105978000Y-72390000D01*
X103318000Y-72390000D02*
X103318000Y-118170000D01*
X103318000Y-118170000D02*
X105978000Y-118170000D01*
X105978000Y-72390000D02*
X105978000Y-118170000D01*
X105978000Y-69790000D02*
X105978000Y-71120000D01*
X104648000Y-69790000D02*
X105978000Y-69790000D01*
X124174000Y-113130000D02*
X124174000Y-110390000D01*
X124174000Y-110390000D02*
X117634000Y-110390000D01*
X117634000Y-110390000D02*
X117634000Y-113130000D01*
X117634000Y-113130000D02*
X124174000Y-113130000D01*
X124944000Y-111760000D02*
X124174000Y-111760000D01*
X116864000Y-111760000D02*
X117634000Y-111760000D01*
X123064000Y-103798000D02*
X123064000Y-108048000D01*
X123068837Y-108041756D02*
G75*
G03X123064000Y-103798000I1645163J2123756D01*
G01*
X110902000Y-112380000D02*
X110902000Y-116220000D01*
X109062000Y-112380000D02*
X109062000Y-116220000D01*
X125540827Y-99688815D02*
G75*
G03X126004830Y-94341000I-1080827J2787815D01*
G01*
X123379173Y-99688815D02*
G75*
G02X122915170Y-94341000I1080827J2787815D01*
G01*
X125540429Y-99155479D02*
G75*
G03X125540000Y-94646316I-1080429J2254479D01*
G01*
X123379571Y-99155479D02*
G75*
G02X123380000Y-94646316I1080429J2254479D01*
G01*
X126005000Y-94341000D02*
X125540000Y-94341000D01*
X123380000Y-94341000D02*
X122915000Y-94341000D01*
X144478000Y-95250000D02*
G75*
G03X144478000Y-95250000I-6100000J0D01*
G01*
X122213000Y-103688000D02*
X122228000Y-103688000D01*
X120088000Y-103688000D02*
X120103000Y-103688000D01*
X122213000Y-108228000D02*
X122228000Y-108228000D01*
X120088000Y-108228000D02*
X120103000Y-108228000D01*
X122228000Y-108228000D02*
X122228000Y-103688000D01*
X120088000Y-108228000D02*
X120088000Y-103688000D01*
X111960000Y-117626000D02*
X111960000Y-113086000D01*
X114100000Y-117626000D02*
X114100000Y-113086000D01*
X111960000Y-117626000D02*
X111975000Y-117626000D01*
X114085000Y-117626000D02*
X114100000Y-117626000D01*
X111960000Y-113086000D02*
X111975000Y-113086000D01*
X114085000Y-113086000D02*
X114100000Y-113086000D01*
X158516000Y-115083000D02*
X158516000Y-111993000D01*
X158456000Y-113538000D02*
G75*
G03X158456000Y-113538000I-2500000J0D01*
G01*
X152966000Y-113538462D02*
G75*
G02X158516000Y-111993170I2990000J462D01*
G01*
X152966000Y-113537538D02*
G75*
G03X158516000Y-115082830I2990000J-462D01*
G01*
X113986000Y-76200000D02*
X113986000Y-74870000D01*
X113986000Y-74870000D02*
X115316000Y-74870000D01*
X116586000Y-74870000D02*
X126806000Y-74870000D01*
X126806000Y-77530000D02*
X126806000Y-74870000D01*
X116586000Y-77530000D02*
X126806000Y-77530000D01*
X116586000Y-77530000D02*
X116586000Y-74870000D01*
X116586000Y-74990000D02*
X116586000Y-72330000D01*
X116586000Y-74990000D02*
X126806000Y-74990000D01*
X126806000Y-74990000D02*
X126806000Y-72330000D01*
X116586000Y-72330000D02*
X126806000Y-72330000D01*
X113986000Y-72330000D02*
X115316000Y-72330000D01*
X113986000Y-73660000D02*
X113986000Y-72330000D01*
X113986000Y-78740000D02*
X113986000Y-77410000D01*
X113986000Y-77410000D02*
X115316000Y-77410000D01*
X116586000Y-77410000D02*
X126806000Y-77410000D01*
X126806000Y-80070000D02*
X126806000Y-77410000D01*
X116586000Y-80070000D02*
X126806000Y-80070000D01*
X116586000Y-80070000D02*
X116586000Y-77410000D01*
X139192000Y-70806000D02*
X139192000Y-73466000D01*
X139192000Y-70806000D02*
X134052000Y-70806000D01*
X134052000Y-70806000D02*
X134052000Y-73466000D01*
X139192000Y-73466000D02*
X134052000Y-73466000D01*
X141792000Y-73466000D02*
X140462000Y-73466000D01*
X141792000Y-72136000D02*
X141792000Y-73466000D01*
X141792000Y-69596000D02*
X141792000Y-70926000D01*
X141792000Y-70926000D02*
X140462000Y-70926000D01*
X139192000Y-70926000D02*
X134052000Y-70926000D01*
X134052000Y-68266000D02*
X134052000Y-70926000D01*
X139192000Y-68266000D02*
X134052000Y-68266000D01*
X139192000Y-68266000D02*
X139192000Y-70926000D01*
X124206000Y-68266000D02*
X124206000Y-70926000D01*
X124206000Y-68266000D02*
X111446000Y-68266000D01*
X111446000Y-68266000D02*
X111446000Y-70926000D01*
X124206000Y-70926000D02*
X111446000Y-70926000D01*
X126806000Y-70926000D02*
X125476000Y-70926000D01*
X126806000Y-69596000D02*
X126806000Y-70926000D01*
X150114000Y-68266000D02*
X150114000Y-70926000D01*
X150114000Y-68266000D02*
X144974000Y-68266000D01*
X144974000Y-68266000D02*
X144974000Y-70926000D01*
X150114000Y-70926000D02*
X144974000Y-70926000D01*
X152714000Y-70926000D02*
X151384000Y-70926000D01*
X152714000Y-69596000D02*
X152714000Y-70926000D01*
X142046000Y-84328000D02*
X142046000Y-85658000D01*
X142046000Y-85658000D02*
X140716000Y-85658000D01*
X139446000Y-85658000D02*
X134306000Y-85658000D01*
X134306000Y-82998000D02*
X134306000Y-85658000D01*
X139446000Y-82998000D02*
X134306000Y-82998000D01*
X139446000Y-82998000D02*
X139446000Y-85658000D01*
X139446000Y-85538000D02*
X139446000Y-88198000D01*
X139446000Y-85538000D02*
X134306000Y-85538000D01*
X134306000Y-85538000D02*
X134306000Y-88198000D01*
X139446000Y-88198000D02*
X134306000Y-88198000D01*
X142046000Y-88198000D02*
X140716000Y-88198000D01*
X142046000Y-86868000D02*
X142046000Y-88198000D01*
X159556000Y-92258000D02*
X160806000Y-92258000D01*
X159556000Y-91008000D02*
X159556000Y-92258000D01*
X165056000Y-85108000D02*
X165056000Y-88158000D01*
X162106000Y-85108000D02*
X165056000Y-85108000D01*
X162106000Y-84358000D02*
X162106000Y-85108000D01*
X165056000Y-91208000D02*
X165056000Y-88158000D01*
X162106000Y-91208000D02*
X165056000Y-91208000D01*
X162106000Y-91958000D02*
X162106000Y-91208000D01*
X159856000Y-84358000D02*
X159856000Y-86158000D01*
X160606000Y-84358000D02*
X159856000Y-84358000D01*
X160606000Y-86158000D02*
X160606000Y-84358000D01*
X159856000Y-86158000D02*
X160606000Y-86158000D01*
X159856000Y-90158000D02*
X159856000Y-91958000D01*
X160606000Y-90158000D02*
X159856000Y-90158000D01*
X160606000Y-91958000D02*
X160606000Y-90158000D01*
X159856000Y-91958000D02*
X160606000Y-91958000D01*
X159856000Y-87658000D02*
X159856000Y-88658000D01*
X160606000Y-87658000D02*
X159856000Y-87658000D01*
X160606000Y-88658000D02*
X160606000Y-87658000D01*
X159856000Y-88658000D02*
X160606000Y-88658000D01*
X159846000Y-84348000D02*
X159846000Y-91968000D01*
X165816000Y-84348000D02*
X159846000Y-84348000D01*
X165816000Y-91968000D02*
X165816000Y-84348000D01*
X159846000Y-91968000D02*
X165816000Y-91968000D01*
X159846000Y-100604000D02*
X165816000Y-100604000D01*
X165816000Y-100604000D02*
X165816000Y-92984000D01*
X165816000Y-92984000D02*
X159846000Y-92984000D01*
X159846000Y-92984000D02*
X159846000Y-100604000D01*
X159856000Y-97294000D02*
X160606000Y-97294000D01*
X160606000Y-97294000D02*
X160606000Y-96294000D01*
X160606000Y-96294000D02*
X159856000Y-96294000D01*
X159856000Y-96294000D02*
X159856000Y-97294000D01*
X159856000Y-100594000D02*
X160606000Y-100594000D01*
X160606000Y-100594000D02*
X160606000Y-98794000D01*
X160606000Y-98794000D02*
X159856000Y-98794000D01*
X159856000Y-98794000D02*
X159856000Y-100594000D01*
X159856000Y-94794000D02*
X160606000Y-94794000D01*
X160606000Y-94794000D02*
X160606000Y-92994000D01*
X160606000Y-92994000D02*
X159856000Y-92994000D01*
X159856000Y-92994000D02*
X159856000Y-94794000D01*
X162106000Y-100594000D02*
X162106000Y-99844000D01*
X162106000Y-99844000D02*
X165056000Y-99844000D01*
X165056000Y-99844000D02*
X165056000Y-96794000D01*
X162106000Y-92994000D02*
X162106000Y-93744000D01*
X162106000Y-93744000D02*
X165056000Y-93744000D01*
X165056000Y-93744000D02*
X165056000Y-96794000D01*
X159556000Y-99644000D02*
X159556000Y-100894000D01*
X159556000Y-100894000D02*
X160806000Y-100894000D01*
X159556000Y-109530000D02*
X160806000Y-109530000D01*
X159556000Y-108280000D02*
X159556000Y-109530000D01*
X165056000Y-102380000D02*
X165056000Y-105430000D01*
X162106000Y-102380000D02*
X165056000Y-102380000D01*
X162106000Y-101630000D02*
X162106000Y-102380000D01*
X165056000Y-108480000D02*
X165056000Y-105430000D01*
X162106000Y-108480000D02*
X165056000Y-108480000D01*
X162106000Y-109230000D02*
X162106000Y-108480000D01*
X159856000Y-101630000D02*
X159856000Y-103430000D01*
X160606000Y-101630000D02*
X159856000Y-101630000D01*
X160606000Y-103430000D02*
X160606000Y-101630000D01*
X159856000Y-103430000D02*
X160606000Y-103430000D01*
X159856000Y-107430000D02*
X159856000Y-109230000D01*
X160606000Y-107430000D02*
X159856000Y-107430000D01*
X160606000Y-109230000D02*
X160606000Y-107430000D01*
X159856000Y-109230000D02*
X160606000Y-109230000D01*
X159856000Y-104930000D02*
X159856000Y-105930000D01*
X160606000Y-104930000D02*
X159856000Y-104930000D01*
X160606000Y-105930000D02*
X160606000Y-104930000D01*
X159856000Y-105930000D02*
X160606000Y-105930000D01*
X159846000Y-101620000D02*
X159846000Y-109240000D01*
X165816000Y-101620000D02*
X159846000Y-101620000D01*
X165816000Y-109240000D02*
X165816000Y-101620000D01*
X159846000Y-109240000D02*
X165816000Y-109240000D01*
X110014000Y-98706000D02*
X110014000Y-101446000D01*
X110014000Y-101446000D02*
X116554000Y-101446000D01*
X116554000Y-101446000D02*
X116554000Y-98706000D01*
X116554000Y-98706000D02*
X110014000Y-98706000D01*
X109244000Y-100076000D02*
X110014000Y-100076000D01*
X117324000Y-100076000D02*
X116554000Y-100076000D01*
X117324000Y-97028000D02*
X116554000Y-97028000D01*
X109244000Y-97028000D02*
X110014000Y-97028000D01*
X116554000Y-95658000D02*
X110014000Y-95658000D01*
X116554000Y-98398000D02*
X116554000Y-95658000D01*
X110014000Y-98398000D02*
X116554000Y-98398000D01*
X110014000Y-95658000D02*
X110014000Y-98398000D01*
X142724000Y-109982000D02*
X141954000Y-109982000D01*
X134644000Y-109982000D02*
X135414000Y-109982000D01*
X141954000Y-108612000D02*
X135414000Y-108612000D01*
X141954000Y-111352000D02*
X141954000Y-108612000D01*
X135414000Y-111352000D02*
X141954000Y-111352000D01*
X135414000Y-108612000D02*
X135414000Y-111352000D01*
X135414000Y-105310000D02*
X135414000Y-108050000D01*
X135414000Y-108050000D02*
X141954000Y-108050000D01*
X141954000Y-108050000D02*
X141954000Y-105310000D01*
X141954000Y-105310000D02*
X135414000Y-105310000D01*
X134644000Y-106680000D02*
X135414000Y-106680000D01*
X142724000Y-106680000D02*
X141954000Y-106680000D01*
X110014000Y-102262000D02*
X110014000Y-105002000D01*
X110014000Y-105002000D02*
X116554000Y-105002000D01*
X116554000Y-105002000D02*
X116554000Y-102262000D01*
X116554000Y-102262000D02*
X110014000Y-102262000D01*
X109244000Y-103632000D02*
X110014000Y-103632000D01*
X117324000Y-103632000D02*
X116554000Y-103632000D01*
X110014000Y-107088000D02*
X110014000Y-109828000D01*
X110014000Y-109828000D02*
X116554000Y-109828000D01*
X116554000Y-109828000D02*
X116554000Y-107088000D01*
X116554000Y-107088000D02*
X110014000Y-107088000D01*
X109244000Y-108458000D02*
X110014000Y-108458000D01*
X117324000Y-108458000D02*
X116554000Y-108458000D01*
X116864000Y-117348000D02*
X117634000Y-117348000D01*
X124944000Y-117348000D02*
X124174000Y-117348000D01*
X117634000Y-118718000D02*
X124174000Y-118718000D01*
X117634000Y-115978000D02*
X117634000Y-118718000D01*
X124174000Y-115978000D02*
X117634000Y-115978000D01*
X124174000Y-118718000D02*
X124174000Y-115978000D01*
X146108000Y-113537538D02*
G75*
G03X151658000Y-115082830I2990000J-462D01*
G01*
X146108000Y-113538462D02*
G75*
G02X151658000Y-111993170I2990000J462D01*
G01*
X151598000Y-113538000D02*
G75*
G03X151598000Y-113538000I-2500000J0D01*
G01*
X151658000Y-115083000D02*
X151658000Y-111993000D01*
X157828000Y-87838000D02*
X155108000Y-87838000D01*
X148248000Y-87838000D02*
X145528000Y-87838000D01*
X150108000Y-75538000D02*
X153248000Y-75538000D01*
X145528000Y-75538000D02*
X148248000Y-75538000D01*
X156217050Y-81788000D02*
G75*
G03X156217050Y-81788000I-4579050J0D01*
G01*
X155108000Y-75538000D02*
X157828000Y-75538000D01*
X145528000Y-87838000D02*
X145528000Y-75538000D01*
X153248000Y-87838000D02*
X150108000Y-87838000D01*
X157828000Y-75538000D02*
X157828000Y-87838000D01*
X157828000Y-91794000D02*
X157828000Y-104094000D01*
X153248000Y-104094000D02*
X150108000Y-104094000D01*
X145528000Y-104094000D02*
X145528000Y-91794000D01*
X155108000Y-91794000D02*
X157828000Y-91794000D01*
X156217050Y-98044000D02*
G75*
G03X156217050Y-98044000I-4579050J0D01*
G01*
X145528000Y-91794000D02*
X148248000Y-91794000D01*
X150108000Y-91794000D02*
X153248000Y-91794000D01*
X148248000Y-104094000D02*
X145528000Y-104094000D01*
X157828000Y-104094000D02*
X155108000Y-104094000D01*
X110014000Y-92610000D02*
X110014000Y-95350000D01*
X110014000Y-95350000D02*
X116554000Y-95350000D01*
X116554000Y-95350000D02*
X116554000Y-92610000D01*
X116554000Y-92610000D02*
X110014000Y-92610000D01*
X109244000Y-93980000D02*
X110014000Y-93980000D01*
X117324000Y-93980000D02*
X116554000Y-93980000D01*
X142724000Y-103378000D02*
X141954000Y-103378000D01*
X134644000Y-103378000D02*
X135414000Y-103378000D01*
X141954000Y-102008000D02*
X135414000Y-102008000D01*
X141954000Y-104748000D02*
X141954000Y-102008000D01*
X135414000Y-104748000D02*
X141954000Y-104748000D01*
X135414000Y-102008000D02*
X135414000Y-104748000D01*
X159824000Y-113537538D02*
G75*
G03X165374000Y-115082830I2990000J-462D01*
G01*
X159824000Y-113538462D02*
G75*
G02X165374000Y-111993170I2990000J462D01*
G01*
X165314000Y-113538000D02*
G75*
G03X165314000Y-113538000I-2500000J0D01*
G01*
X165374000Y-115083000D02*
X165374000Y-111993000D01*
D12*
X161401000Y-82860000D02*
X160926000Y-82860000D01*
X160926000Y-82860000D02*
X160926000Y-74560000D01*
X160926000Y-74560000D02*
X161401000Y-74560000D01*
X163651000Y-82860000D02*
X164126000Y-82860000D01*
X164126000Y-82860000D02*
X164126000Y-74560000D01*
X164126000Y-74560000D02*
X163651000Y-74560000D01*
X160626000Y-81010000D02*
X160626000Y-79010000D01*
D14*
X111506000Y-90484000D02*
X111506000Y-87824000D01*
X111506000Y-90484000D02*
X126806000Y-90484000D01*
X126806000Y-90484000D02*
X126806000Y-87824000D01*
X111506000Y-87824000D02*
X126806000Y-87824000D01*
X108906000Y-87824000D02*
X110236000Y-87824000D01*
X108906000Y-89154000D02*
X108906000Y-87824000D01*
X154626000Y-70866000D02*
X157286000Y-70866000D01*
X154626000Y-70866000D02*
X154626000Y-73466000D01*
X154626000Y-73466000D02*
X157286000Y-73466000D01*
X157286000Y-70866000D02*
X157286000Y-73466000D01*
X157286000Y-68266000D02*
X157286000Y-69596000D01*
X155956000Y-68266000D02*
X157286000Y-68266000D01*
X134652000Y-74576000D02*
X134652000Y-77316000D01*
X134652000Y-77316000D02*
X141192000Y-77316000D01*
X141192000Y-77316000D02*
X141192000Y-74576000D01*
X141192000Y-74576000D02*
X134652000Y-74576000D01*
X133882000Y-75946000D02*
X134652000Y-75946000D01*
X141962000Y-75946000D02*
X141192000Y-75946000D01*
X141962000Y-79756000D02*
X141192000Y-79756000D01*
X133882000Y-79756000D02*
X134652000Y-79756000D01*
X141192000Y-78386000D02*
X134652000Y-78386000D01*
X141192000Y-81126000D02*
X141192000Y-78386000D01*
X134652000Y-81126000D02*
X141192000Y-81126000D01*
X134652000Y-78386000D02*
X134652000Y-81126000D01*
X110804000Y-82296000D02*
X108144000Y-82296000D01*
X110804000Y-82296000D02*
X110804000Y-72076000D01*
X110804000Y-72076000D02*
X108144000Y-72076000D01*
X108144000Y-82296000D02*
X108144000Y-72076000D01*
X108144000Y-84896000D02*
X108144000Y-83566000D01*
X109474000Y-84896000D02*
X108144000Y-84896000D01*
D12*
X119304000Y-112121904D02*
X119037333Y-111740952D01*
X118846857Y-112121904D02*
X118846857Y-111321904D01*
X119151619Y-111321904D01*
X119227809Y-111360000D01*
X119265904Y-111398095D01*
X119304000Y-111474285D01*
X119304000Y-111588571D01*
X119265904Y-111664761D01*
X119227809Y-111702857D01*
X119151619Y-111740952D01*
X118846857Y-111740952D01*
X120065904Y-112121904D02*
X119608761Y-112121904D01*
X119837333Y-112121904D02*
X119837333Y-111321904D01*
X119761142Y-111436190D01*
X119684952Y-111512380D01*
X119608761Y-111550476D01*
X120561142Y-111321904D02*
X120637333Y-111321904D01*
X120713523Y-111360000D01*
X120751619Y-111398095D01*
X120789714Y-111474285D01*
X120827809Y-111626666D01*
X120827809Y-111817142D01*
X120789714Y-111969523D01*
X120751619Y-112045714D01*
X120713523Y-112083809D01*
X120637333Y-112121904D01*
X120561142Y-112121904D01*
X120484952Y-112083809D01*
X120446857Y-112045714D01*
X120408761Y-111969523D01*
X120370666Y-111817142D01*
X120370666Y-111626666D01*
X120408761Y-111474285D01*
X120446857Y-111398095D01*
X120484952Y-111360000D01*
X120561142Y-111321904D01*
X122199238Y-112121904D02*
X121742095Y-112121904D01*
X121970666Y-112121904D02*
X121970666Y-111321904D01*
X121894476Y-111436190D01*
X121818285Y-111512380D01*
X121742095Y-111550476D01*
X122542095Y-112121904D02*
X122542095Y-111321904D01*
X122999238Y-112121904D02*
X122656380Y-111664761D01*
X122999238Y-111321904D02*
X122542095Y-111779047D01*
X108612238Y-105703714D02*
X108612238Y-106703714D01*
X108612238Y-105751333D02*
X108702714Y-105703714D01*
X108883666Y-105703714D01*
X108974142Y-105751333D01*
X109019380Y-105798952D01*
X109064619Y-105894190D01*
X109064619Y-106179904D01*
X109019380Y-106275142D01*
X108974142Y-106322761D01*
X108883666Y-106370380D01*
X108702714Y-106370380D01*
X108612238Y-106322761D01*
X109471761Y-106370380D02*
X109471761Y-105370380D01*
X109878904Y-106370380D02*
X109878904Y-105846571D01*
X109833666Y-105751333D01*
X109743190Y-105703714D01*
X109607476Y-105703714D01*
X109517000Y-105751333D01*
X109471761Y-105798952D01*
X110467000Y-106370380D02*
X110376523Y-106322761D01*
X110331285Y-106275142D01*
X110286047Y-106179904D01*
X110286047Y-105894190D01*
X110331285Y-105798952D01*
X110376523Y-105751333D01*
X110467000Y-105703714D01*
X110602714Y-105703714D01*
X110693190Y-105751333D01*
X110738428Y-105798952D01*
X110783666Y-105894190D01*
X110783666Y-106179904D01*
X110738428Y-106275142D01*
X110693190Y-106322761D01*
X110602714Y-106370380D01*
X110467000Y-106370380D01*
X111055095Y-105703714D02*
X111417000Y-105703714D01*
X111190809Y-105370380D02*
X111190809Y-106227523D01*
X111236047Y-106322761D01*
X111326523Y-106370380D01*
X111417000Y-106370380D01*
X111869380Y-106370380D02*
X111778904Y-106322761D01*
X111733666Y-106275142D01*
X111688428Y-106179904D01*
X111688428Y-105894190D01*
X111733666Y-105798952D01*
X111778904Y-105751333D01*
X111869380Y-105703714D01*
X112005095Y-105703714D01*
X112095571Y-105751333D01*
X112140809Y-105798952D01*
X112186047Y-105894190D01*
X112186047Y-106179904D01*
X112140809Y-106275142D01*
X112095571Y-106322761D01*
X112005095Y-106370380D01*
X111869380Y-106370380D01*
X112457476Y-105703714D02*
X112819380Y-105703714D01*
X112593190Y-105370380D02*
X112593190Y-106227523D01*
X112638428Y-106322761D01*
X112728904Y-106370380D01*
X112819380Y-106370380D01*
X113136047Y-106370380D02*
X113136047Y-105703714D01*
X113136047Y-105894190D02*
X113181285Y-105798952D01*
X113226523Y-105751333D01*
X113317000Y-105703714D01*
X113407476Y-105703714D01*
X114131285Y-106370380D02*
X114131285Y-105846571D01*
X114086047Y-105751333D01*
X113995571Y-105703714D01*
X113814619Y-105703714D01*
X113724142Y-105751333D01*
X114131285Y-106322761D02*
X114040809Y-106370380D01*
X113814619Y-106370380D01*
X113724142Y-106322761D01*
X113678904Y-106227523D01*
X113678904Y-106132285D01*
X113724142Y-106037047D01*
X113814619Y-105989428D01*
X114040809Y-105989428D01*
X114131285Y-105941809D01*
X114583666Y-105703714D02*
X114583666Y-106370380D01*
X114583666Y-105798952D02*
X114628904Y-105751333D01*
X114719380Y-105703714D01*
X114855095Y-105703714D01*
X114945571Y-105751333D01*
X114990809Y-105846571D01*
X114990809Y-106370380D01*
X115397952Y-106322761D02*
X115488428Y-106370380D01*
X115669380Y-106370380D01*
X115759857Y-106322761D01*
X115805095Y-106227523D01*
X115805095Y-106179904D01*
X115759857Y-106084666D01*
X115669380Y-106037047D01*
X115533666Y-106037047D01*
X115443190Y-105989428D01*
X115397952Y-105894190D01*
X115397952Y-105846571D01*
X115443190Y-105751333D01*
X115533666Y-105703714D01*
X115669380Y-105703714D01*
X115759857Y-105751333D01*
X116212238Y-106370380D02*
X116212238Y-105703714D01*
X116212238Y-105370380D02*
X116167000Y-105418000D01*
X116212238Y-105465619D01*
X116257476Y-105418000D01*
X116212238Y-105370380D01*
X116212238Y-105465619D01*
X116619380Y-106322761D02*
X116709857Y-106370380D01*
X116890809Y-106370380D01*
X116981285Y-106322761D01*
X117026523Y-106227523D01*
X117026523Y-106179904D01*
X116981285Y-106084666D01*
X116890809Y-106037047D01*
X116755095Y-106037047D01*
X116664619Y-105989428D01*
X116619380Y-105894190D01*
X116619380Y-105846571D01*
X116664619Y-105751333D01*
X116755095Y-105703714D01*
X116890809Y-105703714D01*
X116981285Y-105751333D01*
X117297952Y-105703714D02*
X117659857Y-105703714D01*
X117433666Y-105370380D02*
X117433666Y-106227523D01*
X117478904Y-106322761D01*
X117569380Y-106370380D01*
X117659857Y-106370380D01*
X118112238Y-106370380D02*
X118021761Y-106322761D01*
X117976523Y-106275142D01*
X117931285Y-106179904D01*
X117931285Y-105894190D01*
X117976523Y-105798952D01*
X118021761Y-105751333D01*
X118112238Y-105703714D01*
X118247952Y-105703714D01*
X118338428Y-105751333D01*
X118383666Y-105798952D01*
X118428904Y-105894190D01*
X118428904Y-106179904D01*
X118383666Y-106275142D01*
X118338428Y-106322761D01*
X118247952Y-106370380D01*
X118112238Y-106370380D01*
X118836047Y-106370380D02*
X118836047Y-105703714D01*
X118836047Y-105894190D02*
X118881285Y-105798952D01*
X118926523Y-105751333D01*
X119017000Y-105703714D01*
X119107476Y-105703714D01*
X115387904Y-114339714D02*
X115768857Y-114339714D01*
X115530761Y-114006380D02*
X115530761Y-114863523D01*
X115578380Y-114958761D01*
X115673619Y-115006380D01*
X115768857Y-115006380D01*
X116102190Y-115006380D02*
X116102190Y-114006380D01*
X116530761Y-115006380D02*
X116530761Y-114482571D01*
X116483142Y-114387333D01*
X116387904Y-114339714D01*
X116245047Y-114339714D01*
X116149809Y-114387333D01*
X116102190Y-114434952D01*
X117387904Y-114958761D02*
X117292666Y-115006380D01*
X117102190Y-115006380D01*
X117006952Y-114958761D01*
X116959333Y-114863523D01*
X116959333Y-114482571D01*
X117006952Y-114387333D01*
X117102190Y-114339714D01*
X117292666Y-114339714D01*
X117387904Y-114387333D01*
X117435523Y-114482571D01*
X117435523Y-114577809D01*
X116959333Y-114673047D01*
X117864095Y-115006380D02*
X117864095Y-114339714D01*
X117864095Y-114530190D02*
X117911714Y-114434952D01*
X117959333Y-114387333D01*
X118054571Y-114339714D01*
X118149809Y-114339714D01*
X118483142Y-115006380D02*
X118483142Y-114339714D01*
X118483142Y-114434952D02*
X118530761Y-114387333D01*
X118626000Y-114339714D01*
X118768857Y-114339714D01*
X118864095Y-114387333D01*
X118911714Y-114482571D01*
X118911714Y-115006380D01*
X118911714Y-114482571D02*
X118959333Y-114387333D01*
X119054571Y-114339714D01*
X119197428Y-114339714D01*
X119292666Y-114387333D01*
X119340285Y-114482571D01*
X119340285Y-115006380D01*
X119816476Y-115006380D02*
X119816476Y-114339714D01*
X119816476Y-114006380D02*
X119768857Y-114054000D01*
X119816476Y-114101619D01*
X119864095Y-114054000D01*
X119816476Y-114006380D01*
X119816476Y-114101619D01*
X120245047Y-114958761D02*
X120340285Y-115006380D01*
X120530761Y-115006380D01*
X120626000Y-114958761D01*
X120673619Y-114863523D01*
X120673619Y-114815904D01*
X120626000Y-114720666D01*
X120530761Y-114673047D01*
X120387904Y-114673047D01*
X120292666Y-114625428D01*
X120245047Y-114530190D01*
X120245047Y-114482571D01*
X120292666Y-114387333D01*
X120387904Y-114339714D01*
X120530761Y-114339714D01*
X120626000Y-114387333D01*
X120959333Y-114339714D02*
X121340285Y-114339714D01*
X121102190Y-114006380D02*
X121102190Y-114863523D01*
X121149809Y-114958761D01*
X121245047Y-115006380D01*
X121340285Y-115006380D01*
X121816476Y-115006380D02*
X121721238Y-114958761D01*
X121673619Y-114911142D01*
X121626000Y-114815904D01*
X121626000Y-114530190D01*
X121673619Y-114434952D01*
X121721238Y-114387333D01*
X121816476Y-114339714D01*
X121959333Y-114339714D01*
X122054571Y-114387333D01*
X122102190Y-114434952D01*
X122149809Y-114530190D01*
X122149809Y-114815904D01*
X122102190Y-114911142D01*
X122054571Y-114958761D01*
X121959333Y-115006380D01*
X121816476Y-115006380D01*
X122578380Y-115006380D02*
X122578380Y-114339714D01*
X122578380Y-114530190D02*
X122626000Y-114434952D01*
X122673619Y-114387333D01*
X122768857Y-114339714D01*
X122864095Y-114339714D01*
X121102380Y-99456571D02*
X120626190Y-99789904D01*
X121102380Y-100028000D02*
X120102380Y-100028000D01*
X120102380Y-99647047D01*
X120150000Y-99551809D01*
X120197619Y-99504190D01*
X120292857Y-99456571D01*
X120435714Y-99456571D01*
X120530952Y-99504190D01*
X120578571Y-99551809D01*
X120626190Y-99647047D01*
X120626190Y-100028000D01*
X120150000Y-98504190D02*
X120102380Y-98599428D01*
X120102380Y-98742285D01*
X120150000Y-98885142D01*
X120245238Y-98980380D01*
X120340476Y-99028000D01*
X120530952Y-99075619D01*
X120673809Y-99075619D01*
X120864285Y-99028000D01*
X120959523Y-98980380D01*
X121054761Y-98885142D01*
X121102380Y-98742285D01*
X121102380Y-98647047D01*
X121054761Y-98504190D01*
X121007142Y-98456571D01*
X120673809Y-98456571D01*
X120673809Y-98647047D01*
X120578571Y-97694666D02*
X120626190Y-97551809D01*
X120673809Y-97504190D01*
X120769047Y-97456571D01*
X120911904Y-97456571D01*
X121007142Y-97504190D01*
X121054761Y-97551809D01*
X121102380Y-97647047D01*
X121102380Y-98028000D01*
X120102380Y-98028000D01*
X120102380Y-97694666D01*
X120150000Y-97599428D01*
X120197619Y-97551809D01*
X120292857Y-97504190D01*
X120388095Y-97504190D01*
X120483333Y-97551809D01*
X120530952Y-97599428D01*
X120578571Y-97694666D01*
X120578571Y-98028000D01*
X121102380Y-95789904D02*
X121102380Y-96266095D01*
X120102380Y-96266095D01*
X120578571Y-95456571D02*
X120578571Y-95123238D01*
X121102380Y-94980380D02*
X121102380Y-95456571D01*
X120102380Y-95456571D01*
X120102380Y-94980380D01*
X121102380Y-94551809D02*
X120102380Y-94551809D01*
X120102380Y-94313714D01*
X120150000Y-94170857D01*
X120245238Y-94075619D01*
X120340476Y-94028000D01*
X120530952Y-93980380D01*
X120673809Y-93980380D01*
X120864285Y-94028000D01*
X120959523Y-94075619D01*
X121054761Y-94170857D01*
X121102380Y-94313714D01*
X121102380Y-94551809D01*
X136215714Y-98242380D02*
X136215714Y-97242380D01*
X136215714Y-97623333D02*
X136310952Y-97575714D01*
X136501428Y-97575714D01*
X136596666Y-97623333D01*
X136644285Y-97670952D01*
X136691904Y-97766190D01*
X136691904Y-98051904D01*
X136644285Y-98147142D01*
X136596666Y-98194761D01*
X136501428Y-98242380D01*
X136310952Y-98242380D01*
X136215714Y-98194761D01*
X137549047Y-97575714D02*
X137549047Y-98242380D01*
X137120476Y-97575714D02*
X137120476Y-98099523D01*
X137168095Y-98194761D01*
X137263333Y-98242380D01*
X137406190Y-98242380D01*
X137501428Y-98194761D01*
X137549047Y-98147142D01*
X137930000Y-97575714D02*
X138453809Y-97575714D01*
X137930000Y-98242380D01*
X138453809Y-98242380D01*
X138739523Y-97575714D02*
X139263333Y-97575714D01*
X138739523Y-98242380D01*
X139263333Y-98242380D01*
X140025238Y-98194761D02*
X139930000Y-98242380D01*
X139739523Y-98242380D01*
X139644285Y-98194761D01*
X139596666Y-98099523D01*
X139596666Y-97718571D01*
X139644285Y-97623333D01*
X139739523Y-97575714D01*
X139930000Y-97575714D01*
X140025238Y-97623333D01*
X140072857Y-97718571D01*
X140072857Y-97813809D01*
X139596666Y-97909047D01*
X140501428Y-98242380D02*
X140501428Y-97575714D01*
X140501428Y-97766190D02*
X140549047Y-97670952D01*
X140596666Y-97623333D01*
X140691904Y-97575714D01*
X140787142Y-97575714D01*
X135509047Y-93543428D02*
X136270952Y-93543428D01*
X135890000Y-93924380D02*
X135890000Y-93162476D01*
X120266666Y-107434666D02*
X120266666Y-107001333D01*
X120533333Y-107234666D01*
X120533333Y-107134666D01*
X120566666Y-107068000D01*
X120600000Y-107034666D01*
X120666666Y-107001333D01*
X120833333Y-107001333D01*
X120900000Y-107034666D01*
X120933333Y-107068000D01*
X120966666Y-107134666D01*
X120966666Y-107334666D01*
X120933333Y-107401333D01*
X120900000Y-107434666D01*
X120266666Y-106768000D02*
X120266666Y-106334666D01*
X120533333Y-106568000D01*
X120533333Y-106468000D01*
X120566666Y-106401333D01*
X120600000Y-106368000D01*
X120666666Y-106334666D01*
X120833333Y-106334666D01*
X120900000Y-106368000D01*
X120933333Y-106401333D01*
X120966666Y-106468000D01*
X120966666Y-106668000D01*
X120933333Y-106734666D01*
X120900000Y-106768000D01*
X120266666Y-105901333D02*
X120266666Y-105834666D01*
X120300000Y-105768000D01*
X120333333Y-105734666D01*
X120400000Y-105701333D01*
X120533333Y-105668000D01*
X120700000Y-105668000D01*
X120833333Y-105701333D01*
X120900000Y-105734666D01*
X120933333Y-105768000D01*
X120966666Y-105834666D01*
X120966666Y-105901333D01*
X120933333Y-105968000D01*
X120900000Y-106001333D01*
X120833333Y-106034666D01*
X120700000Y-106068000D01*
X120533333Y-106068000D01*
X120400000Y-106034666D01*
X120333333Y-106001333D01*
X120300000Y-105968000D01*
X120266666Y-105901333D01*
X120500000Y-105368000D02*
X120966666Y-105368000D01*
X120566666Y-105368000D02*
X120533333Y-105334666D01*
X120500000Y-105268000D01*
X120500000Y-105168000D01*
X120533333Y-105101333D01*
X120600000Y-105068000D01*
X120966666Y-105068000D01*
X120600000Y-104501333D02*
X120600000Y-104734666D01*
X120966666Y-104734666D02*
X120266666Y-104734666D01*
X120266666Y-104401333D01*
X112138666Y-116832666D02*
X112138666Y-116399333D01*
X112405333Y-116632666D01*
X112405333Y-116532666D01*
X112438666Y-116466000D01*
X112472000Y-116432666D01*
X112538666Y-116399333D01*
X112705333Y-116399333D01*
X112772000Y-116432666D01*
X112805333Y-116466000D01*
X112838666Y-116532666D01*
X112838666Y-116732666D01*
X112805333Y-116799333D01*
X112772000Y-116832666D01*
X112138666Y-116166000D02*
X112138666Y-115732666D01*
X112405333Y-115966000D01*
X112405333Y-115866000D01*
X112438666Y-115799333D01*
X112472000Y-115766000D01*
X112538666Y-115732666D01*
X112705333Y-115732666D01*
X112772000Y-115766000D01*
X112805333Y-115799333D01*
X112838666Y-115866000D01*
X112838666Y-116066000D01*
X112805333Y-116132666D01*
X112772000Y-116166000D01*
X112138666Y-115299333D02*
X112138666Y-115232666D01*
X112172000Y-115166000D01*
X112205333Y-115132666D01*
X112272000Y-115099333D01*
X112405333Y-115066000D01*
X112572000Y-115066000D01*
X112705333Y-115099333D01*
X112772000Y-115132666D01*
X112805333Y-115166000D01*
X112838666Y-115232666D01*
X112838666Y-115299333D01*
X112805333Y-115366000D01*
X112772000Y-115399333D01*
X112705333Y-115432666D01*
X112572000Y-115466000D01*
X112405333Y-115466000D01*
X112272000Y-115432666D01*
X112205333Y-115399333D01*
X112172000Y-115366000D01*
X112138666Y-115299333D01*
X112372000Y-114766000D02*
X112838666Y-114766000D01*
X112438666Y-114766000D02*
X112405333Y-114732666D01*
X112372000Y-114666000D01*
X112372000Y-114566000D01*
X112405333Y-114499333D01*
X112472000Y-114466000D01*
X112838666Y-114466000D01*
X112472000Y-113899333D02*
X112472000Y-114132666D01*
X112838666Y-114132666D02*
X112138666Y-114132666D01*
X112138666Y-113799333D01*
X153251238Y-118217904D02*
X153251238Y-117798857D01*
X153213142Y-117722666D01*
X153136952Y-117684571D01*
X152984571Y-117684571D01*
X152908380Y-117722666D01*
X153251238Y-118179809D02*
X153175047Y-118217904D01*
X152984571Y-118217904D01*
X152908380Y-118179809D01*
X152870285Y-118103619D01*
X152870285Y-118027428D01*
X152908380Y-117951238D01*
X152984571Y-117913142D01*
X153175047Y-117913142D01*
X153251238Y-117875047D01*
X153632190Y-118217904D02*
X153632190Y-117684571D01*
X153632190Y-117760761D02*
X153670285Y-117722666D01*
X153746476Y-117684571D01*
X153860761Y-117684571D01*
X153936952Y-117722666D01*
X153975047Y-117798857D01*
X153975047Y-118217904D01*
X153975047Y-117798857D02*
X154013142Y-117722666D01*
X154089333Y-117684571D01*
X154203619Y-117684571D01*
X154279809Y-117722666D01*
X154317904Y-117798857D01*
X154317904Y-118217904D01*
X154698857Y-118217904D02*
X154698857Y-117417904D01*
X154698857Y-117722666D02*
X154775047Y-117684571D01*
X154927428Y-117684571D01*
X155003619Y-117722666D01*
X155041714Y-117760761D01*
X155079809Y-117836952D01*
X155079809Y-118065523D01*
X155041714Y-118141714D01*
X155003619Y-118179809D01*
X154927428Y-118217904D01*
X154775047Y-118217904D01*
X154698857Y-118179809D01*
X155727428Y-118179809D02*
X155651238Y-118217904D01*
X155498857Y-118217904D01*
X155422666Y-118179809D01*
X155384571Y-118103619D01*
X155384571Y-117798857D01*
X155422666Y-117722666D01*
X155498857Y-117684571D01*
X155651238Y-117684571D01*
X155727428Y-117722666D01*
X155765523Y-117798857D01*
X155765523Y-117875047D01*
X155384571Y-117951238D01*
X156108380Y-118217904D02*
X156108380Y-117684571D01*
X156108380Y-117836952D02*
X156146476Y-117760761D01*
X156184571Y-117722666D01*
X156260761Y-117684571D01*
X156336952Y-117684571D01*
X157594095Y-118217904D02*
X157213142Y-118217904D01*
X157213142Y-117417904D01*
X157860761Y-117798857D02*
X158127428Y-117798857D01*
X158241714Y-118217904D02*
X157860761Y-118217904D01*
X157860761Y-117417904D01*
X158241714Y-117417904D01*
X158584571Y-118217904D02*
X158584571Y-117417904D01*
X158775047Y-117417904D01*
X158889333Y-117456000D01*
X158965523Y-117532190D01*
X159003619Y-117608380D01*
X159041714Y-117760761D01*
X159041714Y-117875047D01*
X159003619Y-118027428D01*
X158965523Y-118103619D01*
X158889333Y-118179809D01*
X158775047Y-118217904D01*
X158584571Y-118217904D01*
D10*
X142509904Y-73064666D02*
X142986095Y-73064666D01*
X142414666Y-73350380D02*
X142748000Y-72350380D01*
X143081333Y-73350380D01*
X142819428Y-69524571D02*
X142962285Y-69572190D01*
X143009904Y-69619809D01*
X143057523Y-69715047D01*
X143057523Y-69857904D01*
X143009904Y-69953142D01*
X142962285Y-70000761D01*
X142867047Y-70048380D01*
X142486095Y-70048380D01*
X142486095Y-69048380D01*
X142819428Y-69048380D01*
X142914666Y-69096000D01*
X142962285Y-69143619D01*
X143009904Y-69238857D01*
X143009904Y-69334095D01*
X142962285Y-69429333D01*
X142914666Y-69476952D01*
X142819428Y-69524571D01*
X142486095Y-69524571D01*
D12*
X107251809Y-67463142D02*
X107251809Y-66563142D01*
X107556571Y-66563142D01*
X107632761Y-66606000D01*
X107670857Y-66648857D01*
X107708952Y-66734571D01*
X107708952Y-66863142D01*
X107670857Y-66948857D01*
X107632761Y-66991714D01*
X107556571Y-67034571D01*
X107251809Y-67034571D01*
X108508952Y-67377428D02*
X108470857Y-67420285D01*
X108356571Y-67463142D01*
X108280380Y-67463142D01*
X108166095Y-67420285D01*
X108089904Y-67334571D01*
X108051809Y-67248857D01*
X108013714Y-67077428D01*
X108013714Y-66948857D01*
X108051809Y-66777428D01*
X108089904Y-66691714D01*
X108166095Y-66606000D01*
X108280380Y-66563142D01*
X108356571Y-66563142D01*
X108470857Y-66606000D01*
X108508952Y-66648857D01*
X108813714Y-67206000D02*
X109194666Y-67206000D01*
X108737523Y-67463142D02*
X109004190Y-66563142D01*
X109270857Y-67463142D01*
X109575619Y-67463142D02*
X109728000Y-67463142D01*
X109804190Y-67420285D01*
X109842285Y-67377428D01*
X109918476Y-67248857D01*
X109956571Y-67077428D01*
X109956571Y-66734571D01*
X109918476Y-66648857D01*
X109880380Y-66606000D01*
X109804190Y-66563142D01*
X109651809Y-66563142D01*
X109575619Y-66606000D01*
X109537523Y-66648857D01*
X109499428Y-66734571D01*
X109499428Y-66948857D01*
X109537523Y-67034571D01*
X109575619Y-67077428D01*
X109651809Y-67120285D01*
X109804190Y-67120285D01*
X109880380Y-67077428D01*
X109918476Y-67034571D01*
X109956571Y-66948857D01*
X110642285Y-66563142D02*
X110489904Y-66563142D01*
X110413714Y-66606000D01*
X110375619Y-66648857D01*
X110299428Y-66777428D01*
X110261333Y-66948857D01*
X110261333Y-67291714D01*
X110299428Y-67377428D01*
X110337523Y-67420285D01*
X110413714Y-67463142D01*
X110566095Y-67463142D01*
X110642285Y-67420285D01*
X110680380Y-67377428D01*
X110718476Y-67291714D01*
X110718476Y-67077428D01*
X110680380Y-66991714D01*
X110642285Y-66948857D01*
X110566095Y-66906000D01*
X110413714Y-66906000D01*
X110337523Y-66948857D01*
X110299428Y-66991714D01*
X110261333Y-67077428D01*
X111175619Y-66948857D02*
X111099428Y-66906000D01*
X111061333Y-66863142D01*
X111023238Y-66777428D01*
X111023238Y-66734571D01*
X111061333Y-66648857D01*
X111099428Y-66606000D01*
X111175619Y-66563142D01*
X111328000Y-66563142D01*
X111404190Y-66606000D01*
X111442285Y-66648857D01*
X111480380Y-66734571D01*
X111480380Y-66777428D01*
X111442285Y-66863142D01*
X111404190Y-66906000D01*
X111328000Y-66948857D01*
X111175619Y-66948857D01*
X111099428Y-66991714D01*
X111061333Y-67034571D01*
X111023238Y-67120285D01*
X111023238Y-67291714D01*
X111061333Y-67377428D01*
X111099428Y-67420285D01*
X111175619Y-67463142D01*
X111328000Y-67463142D01*
X111404190Y-67420285D01*
X111442285Y-67377428D01*
X111480380Y-67291714D01*
X111480380Y-67120285D01*
X111442285Y-67034571D01*
X111404190Y-66991714D01*
X111328000Y-66948857D01*
X112204190Y-66563142D02*
X111823238Y-66563142D01*
X111785142Y-66991714D01*
X111823238Y-66948857D01*
X111899428Y-66906000D01*
X112089904Y-66906000D01*
X112166095Y-66948857D01*
X112204190Y-66991714D01*
X112242285Y-67077428D01*
X112242285Y-67291714D01*
X112204190Y-67377428D01*
X112166095Y-67420285D01*
X112089904Y-67463142D01*
X111899428Y-67463142D01*
X111823238Y-67420285D01*
X111785142Y-67377428D01*
D15*
X145161428Y-67463142D02*
X145161428Y-66563142D01*
X145504285Y-66563142D01*
X145590000Y-66606000D01*
X145632857Y-66648857D01*
X145675714Y-66734571D01*
X145675714Y-66863142D01*
X145632857Y-66948857D01*
X145590000Y-66991714D01*
X145504285Y-67034571D01*
X145161428Y-67034571D01*
X146061428Y-67463142D02*
X146061428Y-66563142D01*
X147004285Y-67463142D02*
X146704285Y-67034571D01*
X146490000Y-67463142D02*
X146490000Y-66563142D01*
X146832857Y-66563142D01*
X146918571Y-66606000D01*
X146961428Y-66648857D01*
X147004285Y-66734571D01*
X147004285Y-66863142D01*
X146961428Y-66948857D01*
X146918571Y-66991714D01*
X146832857Y-67034571D01*
X146490000Y-67034571D01*
X148032857Y-66520285D02*
X147261428Y-67677428D01*
X148718571Y-66863142D02*
X148718571Y-67463142D01*
X148332857Y-66863142D02*
X148332857Y-67334571D01*
X148375714Y-67420285D01*
X148461428Y-67463142D01*
X148590000Y-67463142D01*
X148675714Y-67420285D01*
X148718571Y-67377428D01*
X149061428Y-66563142D02*
X149275714Y-67463142D01*
X149447142Y-66820285D01*
X149618571Y-67463142D01*
X149832857Y-66563142D01*
X150561428Y-67463142D02*
X150561428Y-66991714D01*
X150518571Y-66906000D01*
X150432857Y-66863142D01*
X150261428Y-66863142D01*
X150175714Y-66906000D01*
X150561428Y-67420285D02*
X150475714Y-67463142D01*
X150261428Y-67463142D01*
X150175714Y-67420285D01*
X150132857Y-67334571D01*
X150132857Y-67248857D01*
X150175714Y-67163142D01*
X150261428Y-67120285D01*
X150475714Y-67120285D01*
X150561428Y-67077428D01*
X150904285Y-66863142D02*
X151118571Y-67463142D01*
X151332857Y-66863142D01*
X152018571Y-67420285D02*
X151932857Y-67463142D01*
X151761428Y-67463142D01*
X151675714Y-67420285D01*
X151632857Y-67334571D01*
X151632857Y-66991714D01*
X151675714Y-66906000D01*
X151761428Y-66863142D01*
X151932857Y-66863142D01*
X152018571Y-66906000D01*
X152061428Y-66991714D01*
X152061428Y-67077428D01*
X151632857Y-67163142D01*
D10*
X133426285Y-82406285D02*
X133554857Y-82449142D01*
X133769142Y-82449142D01*
X133854857Y-82406285D01*
X133897714Y-82363428D01*
X133940571Y-82277714D01*
X133940571Y-82192000D01*
X133897714Y-82106285D01*
X133854857Y-82063428D01*
X133769142Y-82020571D01*
X133597714Y-81977714D01*
X133512000Y-81934857D01*
X133469142Y-81892000D01*
X133426285Y-81806285D01*
X133426285Y-81720571D01*
X133469142Y-81634857D01*
X133512000Y-81592000D01*
X133597714Y-81549142D01*
X133812000Y-81549142D01*
X133940571Y-81592000D01*
X134797714Y-82449142D02*
X134283428Y-82449142D01*
X134540571Y-82449142D02*
X134540571Y-81549142D01*
X134454857Y-81677714D01*
X134369142Y-81763428D01*
X134283428Y-81806285D01*
X133426285Y-89518285D02*
X133554857Y-89561142D01*
X133769142Y-89561142D01*
X133854857Y-89518285D01*
X133897714Y-89475428D01*
X133940571Y-89389714D01*
X133940571Y-89304000D01*
X133897714Y-89218285D01*
X133854857Y-89175428D01*
X133769142Y-89132571D01*
X133597714Y-89089714D01*
X133512000Y-89046857D01*
X133469142Y-89004000D01*
X133426285Y-88918285D01*
X133426285Y-88832571D01*
X133469142Y-88746857D01*
X133512000Y-88704000D01*
X133597714Y-88661142D01*
X133812000Y-88661142D01*
X133940571Y-88704000D01*
X134283428Y-88746857D02*
X134326285Y-88704000D01*
X134412000Y-88661142D01*
X134626285Y-88661142D01*
X134712000Y-88704000D01*
X134754857Y-88746857D01*
X134797714Y-88832571D01*
X134797714Y-88918285D01*
X134754857Y-89046857D01*
X134240571Y-89561142D01*
X134797714Y-89561142D01*
D12*
X158311904Y-91827142D02*
X158883333Y-91827142D01*
X158997619Y-91865238D01*
X159073809Y-91941428D01*
X159111904Y-92055714D01*
X159111904Y-92131904D01*
X159073809Y-91484285D02*
X159111904Y-91370000D01*
X159111904Y-91179523D01*
X159073809Y-91103333D01*
X159035714Y-91065238D01*
X158959523Y-91027142D01*
X158883333Y-91027142D01*
X158807142Y-91065238D01*
X158769047Y-91103333D01*
X158730952Y-91179523D01*
X158692857Y-91331904D01*
X158654761Y-91408095D01*
X158616666Y-91446190D01*
X158540476Y-91484285D01*
X158464285Y-91484285D01*
X158388095Y-91446190D01*
X158350000Y-91408095D01*
X158311904Y-91331904D01*
X158311904Y-91141428D01*
X158350000Y-91027142D01*
X158311904Y-90798571D02*
X158311904Y-90341428D01*
X159111904Y-90570000D02*
X158311904Y-90570000D01*
X158692857Y-89198571D02*
X158730952Y-89084285D01*
X158769047Y-89046190D01*
X158845238Y-89008095D01*
X158959523Y-89008095D01*
X159035714Y-89046190D01*
X159073809Y-89084285D01*
X159111904Y-89160476D01*
X159111904Y-89465238D01*
X158311904Y-89465238D01*
X158311904Y-89198571D01*
X158350000Y-89122380D01*
X158388095Y-89084285D01*
X158464285Y-89046190D01*
X158540476Y-89046190D01*
X158616666Y-89084285D01*
X158654761Y-89122380D01*
X158692857Y-89198571D01*
X158692857Y-89465238D01*
X159111904Y-88246190D02*
X159111904Y-88703333D01*
X159111904Y-88474761D02*
X158311904Y-88474761D01*
X158426190Y-88550952D01*
X158502380Y-88627142D01*
X158540476Y-88703333D01*
X158311904Y-100463142D02*
X158883333Y-100463142D01*
X158997619Y-100501238D01*
X159073809Y-100577428D01*
X159111904Y-100691714D01*
X159111904Y-100767904D01*
X159073809Y-100120285D02*
X159111904Y-100006000D01*
X159111904Y-99815523D01*
X159073809Y-99739333D01*
X159035714Y-99701238D01*
X158959523Y-99663142D01*
X158883333Y-99663142D01*
X158807142Y-99701238D01*
X158769047Y-99739333D01*
X158730952Y-99815523D01*
X158692857Y-99967904D01*
X158654761Y-100044095D01*
X158616666Y-100082190D01*
X158540476Y-100120285D01*
X158464285Y-100120285D01*
X158388095Y-100082190D01*
X158350000Y-100044095D01*
X158311904Y-99967904D01*
X158311904Y-99777428D01*
X158350000Y-99663142D01*
X158311904Y-99434571D02*
X158311904Y-98977428D01*
X159111904Y-99206000D02*
X158311904Y-99206000D01*
X158692857Y-97834571D02*
X158730952Y-97720285D01*
X158769047Y-97682190D01*
X158845238Y-97644095D01*
X158959523Y-97644095D01*
X159035714Y-97682190D01*
X159073809Y-97720285D01*
X159111904Y-97796476D01*
X159111904Y-98101238D01*
X158311904Y-98101238D01*
X158311904Y-97834571D01*
X158350000Y-97758380D01*
X158388095Y-97720285D01*
X158464285Y-97682190D01*
X158540476Y-97682190D01*
X158616666Y-97720285D01*
X158654761Y-97758380D01*
X158692857Y-97834571D01*
X158692857Y-98101238D01*
X158388095Y-97339333D02*
X158350000Y-97301238D01*
X158311904Y-97225047D01*
X158311904Y-97034571D01*
X158350000Y-96958380D01*
X158388095Y-96920285D01*
X158464285Y-96882190D01*
X158540476Y-96882190D01*
X158654761Y-96920285D01*
X159111904Y-97377428D01*
X159111904Y-96882190D01*
X158311904Y-109353142D02*
X158883333Y-109353142D01*
X158997619Y-109391238D01*
X159073809Y-109467428D01*
X159111904Y-109581714D01*
X159111904Y-109657904D01*
X159073809Y-109010285D02*
X159111904Y-108896000D01*
X159111904Y-108705523D01*
X159073809Y-108629333D01*
X159035714Y-108591238D01*
X158959523Y-108553142D01*
X158883333Y-108553142D01*
X158807142Y-108591238D01*
X158769047Y-108629333D01*
X158730952Y-108705523D01*
X158692857Y-108857904D01*
X158654761Y-108934095D01*
X158616666Y-108972190D01*
X158540476Y-109010285D01*
X158464285Y-109010285D01*
X158388095Y-108972190D01*
X158350000Y-108934095D01*
X158311904Y-108857904D01*
X158311904Y-108667428D01*
X158350000Y-108553142D01*
X158311904Y-108324571D02*
X158311904Y-107867428D01*
X159111904Y-108096000D02*
X158311904Y-108096000D01*
X158692857Y-106724571D02*
X158730952Y-106610285D01*
X158769047Y-106572190D01*
X158845238Y-106534095D01*
X158959523Y-106534095D01*
X159035714Y-106572190D01*
X159073809Y-106610285D01*
X159111904Y-106686476D01*
X159111904Y-106991238D01*
X158311904Y-106991238D01*
X158311904Y-106724571D01*
X158350000Y-106648380D01*
X158388095Y-106610285D01*
X158464285Y-106572190D01*
X158540476Y-106572190D01*
X158616666Y-106610285D01*
X158654761Y-106648380D01*
X158692857Y-106724571D01*
X158692857Y-106991238D01*
X158311904Y-106267428D02*
X158311904Y-105772190D01*
X158616666Y-106038857D01*
X158616666Y-105924571D01*
X158654761Y-105848380D01*
X158692857Y-105810285D01*
X158769047Y-105772190D01*
X158959523Y-105772190D01*
X159035714Y-105810285D01*
X159073809Y-105848380D01*
X159111904Y-105924571D01*
X159111904Y-106153142D01*
X159073809Y-106229333D01*
X159035714Y-106267428D01*
X111303047Y-100483142D02*
X111036380Y-100054571D01*
X110845904Y-100483142D02*
X110845904Y-99583142D01*
X111150666Y-99583142D01*
X111226857Y-99626000D01*
X111264952Y-99668857D01*
X111303047Y-99754571D01*
X111303047Y-99883142D01*
X111264952Y-99968857D01*
X111226857Y-100011714D01*
X111150666Y-100054571D01*
X110845904Y-100054571D01*
X112064952Y-100483142D02*
X111607809Y-100483142D01*
X111836380Y-100483142D02*
X111836380Y-99583142D01*
X111760190Y-99711714D01*
X111684000Y-99797428D01*
X111607809Y-99840285D01*
X113360190Y-99883142D02*
X113360190Y-100483142D01*
X113169714Y-99540285D02*
X112979238Y-100183142D01*
X113474476Y-100183142D01*
X113703047Y-99583142D02*
X114236380Y-99583142D01*
X113893523Y-100483142D01*
X114693523Y-99583142D02*
X114769714Y-99583142D01*
X114845904Y-99626000D01*
X114884000Y-99668857D01*
X114922095Y-99754571D01*
X114960190Y-99926000D01*
X114960190Y-100140285D01*
X114922095Y-100311714D01*
X114884000Y-100397428D01*
X114845904Y-100440285D01*
X114769714Y-100483142D01*
X114693523Y-100483142D01*
X114617333Y-100440285D01*
X114579238Y-100397428D01*
X114541142Y-100311714D01*
X114503047Y-100140285D01*
X114503047Y-99926000D01*
X114541142Y-99754571D01*
X114579238Y-99668857D01*
X114617333Y-99626000D01*
X114693523Y-99583142D01*
X115760190Y-100483142D02*
X115493523Y-100054571D01*
X115303047Y-100483142D02*
X115303047Y-99583142D01*
X115607809Y-99583142D01*
X115684000Y-99626000D01*
X115722095Y-99668857D01*
X115760190Y-99754571D01*
X115760190Y-99883142D01*
X115722095Y-99968857D01*
X115684000Y-100011714D01*
X115607809Y-100054571D01*
X115303047Y-100054571D01*
X111303047Y-97389904D02*
X111036380Y-97008952D01*
X110845904Y-97389904D02*
X110845904Y-96589904D01*
X111150666Y-96589904D01*
X111226857Y-96628000D01*
X111264952Y-96666095D01*
X111303047Y-96742285D01*
X111303047Y-96856571D01*
X111264952Y-96932761D01*
X111226857Y-96970857D01*
X111150666Y-97008952D01*
X110845904Y-97008952D01*
X111607809Y-96666095D02*
X111645904Y-96628000D01*
X111722095Y-96589904D01*
X111912571Y-96589904D01*
X111988761Y-96628000D01*
X112026857Y-96666095D01*
X112064952Y-96742285D01*
X112064952Y-96818476D01*
X112026857Y-96932761D01*
X111569714Y-97389904D01*
X112064952Y-97389904D01*
X113360190Y-96856571D02*
X113360190Y-97389904D01*
X113169714Y-96551809D02*
X112979238Y-97123238D01*
X113474476Y-97123238D01*
X113703047Y-96589904D02*
X114236380Y-96589904D01*
X113893523Y-97389904D01*
X114693523Y-96589904D02*
X114769714Y-96589904D01*
X114845904Y-96628000D01*
X114884000Y-96666095D01*
X114922095Y-96742285D01*
X114960190Y-96894666D01*
X114960190Y-97085142D01*
X114922095Y-97237523D01*
X114884000Y-97313714D01*
X114845904Y-97351809D01*
X114769714Y-97389904D01*
X114693523Y-97389904D01*
X114617333Y-97351809D01*
X114579238Y-97313714D01*
X114541142Y-97237523D01*
X114503047Y-97085142D01*
X114503047Y-96894666D01*
X114541142Y-96742285D01*
X114579238Y-96666095D01*
X114617333Y-96628000D01*
X114693523Y-96589904D01*
X115760190Y-97389904D02*
X115493523Y-97008952D01*
X115303047Y-97389904D02*
X115303047Y-96589904D01*
X115607809Y-96589904D01*
X115684000Y-96628000D01*
X115722095Y-96666095D01*
X115760190Y-96742285D01*
X115760190Y-96856571D01*
X115722095Y-96932761D01*
X115684000Y-96970857D01*
X115607809Y-97008952D01*
X115303047Y-97008952D01*
X136703047Y-110343904D02*
X136436380Y-109962952D01*
X136245904Y-110343904D02*
X136245904Y-109543904D01*
X136550666Y-109543904D01*
X136626857Y-109582000D01*
X136664952Y-109620095D01*
X136703047Y-109696285D01*
X136703047Y-109810571D01*
X136664952Y-109886761D01*
X136626857Y-109924857D01*
X136550666Y-109962952D01*
X136245904Y-109962952D01*
X137388761Y-109810571D02*
X137388761Y-110343904D01*
X137198285Y-109505809D02*
X137007809Y-110077238D01*
X137503047Y-110077238D01*
X138760190Y-109810571D02*
X138760190Y-110343904D01*
X138569714Y-109505809D02*
X138379238Y-110077238D01*
X138874476Y-110077238D01*
X139103047Y-109543904D02*
X139636380Y-109543904D01*
X139293523Y-110343904D01*
X140093523Y-109543904D02*
X140169714Y-109543904D01*
X140245904Y-109582000D01*
X140284000Y-109620095D01*
X140322095Y-109696285D01*
X140360190Y-109848666D01*
X140360190Y-110039142D01*
X140322095Y-110191523D01*
X140284000Y-110267714D01*
X140245904Y-110305809D01*
X140169714Y-110343904D01*
X140093523Y-110343904D01*
X140017333Y-110305809D01*
X139979238Y-110267714D01*
X139941142Y-110191523D01*
X139903047Y-110039142D01*
X139903047Y-109848666D01*
X139941142Y-109696285D01*
X139979238Y-109620095D01*
X140017333Y-109582000D01*
X140093523Y-109543904D01*
X141160190Y-110343904D02*
X140893523Y-109962952D01*
X140703047Y-110343904D02*
X140703047Y-109543904D01*
X141007809Y-109543904D01*
X141084000Y-109582000D01*
X141122095Y-109620095D01*
X141160190Y-109696285D01*
X141160190Y-109810571D01*
X141122095Y-109886761D01*
X141084000Y-109924857D01*
X141007809Y-109962952D01*
X140703047Y-109962952D01*
X136703047Y-107041904D02*
X136436380Y-106660952D01*
X136245904Y-107041904D02*
X136245904Y-106241904D01*
X136550666Y-106241904D01*
X136626857Y-106280000D01*
X136664952Y-106318095D01*
X136703047Y-106394285D01*
X136703047Y-106508571D01*
X136664952Y-106584761D01*
X136626857Y-106622857D01*
X136550666Y-106660952D01*
X136245904Y-106660952D01*
X137426857Y-106241904D02*
X137045904Y-106241904D01*
X137007809Y-106622857D01*
X137045904Y-106584761D01*
X137122095Y-106546666D01*
X137312571Y-106546666D01*
X137388761Y-106584761D01*
X137426857Y-106622857D01*
X137464952Y-106699047D01*
X137464952Y-106889523D01*
X137426857Y-106965714D01*
X137388761Y-107003809D01*
X137312571Y-107041904D01*
X137122095Y-107041904D01*
X137045904Y-107003809D01*
X137007809Y-106965714D01*
X138760190Y-106508571D02*
X138760190Y-107041904D01*
X138569714Y-106203809D02*
X138379238Y-106775238D01*
X138874476Y-106775238D01*
X139103047Y-106241904D02*
X139636380Y-106241904D01*
X139293523Y-107041904D01*
X140093523Y-106241904D02*
X140169714Y-106241904D01*
X140245904Y-106280000D01*
X140284000Y-106318095D01*
X140322095Y-106394285D01*
X140360190Y-106546666D01*
X140360190Y-106737142D01*
X140322095Y-106889523D01*
X140284000Y-106965714D01*
X140245904Y-107003809D01*
X140169714Y-107041904D01*
X140093523Y-107041904D01*
X140017333Y-107003809D01*
X139979238Y-106965714D01*
X139941142Y-106889523D01*
X139903047Y-106737142D01*
X139903047Y-106546666D01*
X139941142Y-106394285D01*
X139979238Y-106318095D01*
X140017333Y-106280000D01*
X140093523Y-106241904D01*
X141160190Y-107041904D02*
X140893523Y-106660952D01*
X140703047Y-107041904D02*
X140703047Y-106241904D01*
X141007809Y-106241904D01*
X141084000Y-106280000D01*
X141122095Y-106318095D01*
X141160190Y-106394285D01*
X141160190Y-106508571D01*
X141122095Y-106584761D01*
X141084000Y-106622857D01*
X141007809Y-106660952D01*
X140703047Y-106660952D01*
X112064952Y-103993904D02*
X111798285Y-103612952D01*
X111607809Y-103993904D02*
X111607809Y-103193904D01*
X111912571Y-103193904D01*
X111988761Y-103232000D01*
X112026857Y-103270095D01*
X112064952Y-103346285D01*
X112064952Y-103460571D01*
X112026857Y-103536761D01*
X111988761Y-103574857D01*
X111912571Y-103612952D01*
X111607809Y-103612952D01*
X112522095Y-103536761D02*
X112445904Y-103498666D01*
X112407809Y-103460571D01*
X112369714Y-103384380D01*
X112369714Y-103346285D01*
X112407809Y-103270095D01*
X112445904Y-103232000D01*
X112522095Y-103193904D01*
X112674476Y-103193904D01*
X112750666Y-103232000D01*
X112788761Y-103270095D01*
X112826857Y-103346285D01*
X112826857Y-103384380D01*
X112788761Y-103460571D01*
X112750666Y-103498666D01*
X112674476Y-103536761D01*
X112522095Y-103536761D01*
X112445904Y-103574857D01*
X112407809Y-103612952D01*
X112369714Y-103689142D01*
X112369714Y-103841523D01*
X112407809Y-103917714D01*
X112445904Y-103955809D01*
X112522095Y-103993904D01*
X112674476Y-103993904D01*
X112750666Y-103955809D01*
X112788761Y-103917714D01*
X112826857Y-103841523D01*
X112826857Y-103689142D01*
X112788761Y-103612952D01*
X112750666Y-103574857D01*
X112674476Y-103536761D01*
X114198285Y-103993904D02*
X113741142Y-103993904D01*
X113969714Y-103993904D02*
X113969714Y-103193904D01*
X113893523Y-103308190D01*
X113817333Y-103384380D01*
X113741142Y-103422476D01*
X114541142Y-103993904D02*
X114541142Y-103193904D01*
X114998285Y-103993904D02*
X114655428Y-103536761D01*
X114998285Y-103193904D02*
X114541142Y-103651047D01*
X112064952Y-108819904D02*
X111798285Y-108438952D01*
X111607809Y-108819904D02*
X111607809Y-108019904D01*
X111912571Y-108019904D01*
X111988761Y-108058000D01*
X112026857Y-108096095D01*
X112064952Y-108172285D01*
X112064952Y-108286571D01*
X112026857Y-108362761D01*
X111988761Y-108400857D01*
X111912571Y-108438952D01*
X111607809Y-108438952D01*
X112331619Y-108019904D02*
X112864952Y-108019904D01*
X112522095Y-108819904D01*
X114198285Y-108819904D02*
X113741142Y-108819904D01*
X113969714Y-108819904D02*
X113969714Y-108019904D01*
X113893523Y-108134190D01*
X113817333Y-108210380D01*
X113741142Y-108248476D01*
X114541142Y-108819904D02*
X114541142Y-108019904D01*
X114998285Y-108819904D02*
X114655428Y-108362761D01*
X114998285Y-108019904D02*
X114541142Y-108477047D01*
X119684952Y-117709904D02*
X119418285Y-117328952D01*
X119227809Y-117709904D02*
X119227809Y-116909904D01*
X119532571Y-116909904D01*
X119608761Y-116948000D01*
X119646857Y-116986095D01*
X119684952Y-117062285D01*
X119684952Y-117176571D01*
X119646857Y-117252761D01*
X119608761Y-117290857D01*
X119532571Y-117328952D01*
X119227809Y-117328952D01*
X120065904Y-117709904D02*
X120218285Y-117709904D01*
X120294476Y-117671809D01*
X120332571Y-117633714D01*
X120408761Y-117519428D01*
X120446857Y-117367047D01*
X120446857Y-117062285D01*
X120408761Y-116986095D01*
X120370666Y-116948000D01*
X120294476Y-116909904D01*
X120142095Y-116909904D01*
X120065904Y-116948000D01*
X120027809Y-116986095D01*
X119989714Y-117062285D01*
X119989714Y-117252761D01*
X120027809Y-117328952D01*
X120065904Y-117367047D01*
X120142095Y-117405142D01*
X120294476Y-117405142D01*
X120370666Y-117367047D01*
X120408761Y-117328952D01*
X120446857Y-117252761D01*
X121818285Y-117709904D02*
X121361142Y-117709904D01*
X121589714Y-117709904D02*
X121589714Y-116909904D01*
X121513523Y-117024190D01*
X121437333Y-117100380D01*
X121361142Y-117138476D01*
X122161142Y-117709904D02*
X122161142Y-116909904D01*
X122618285Y-117709904D02*
X122275428Y-117252761D01*
X122618285Y-116909904D02*
X122161142Y-117367047D01*
X146945619Y-118217904D02*
X146945619Y-117684571D01*
X146945619Y-117836952D02*
X146983714Y-117760761D01*
X147021809Y-117722666D01*
X147098000Y-117684571D01*
X147174190Y-117684571D01*
X147745619Y-118179809D02*
X147669428Y-118217904D01*
X147517047Y-118217904D01*
X147440857Y-118179809D01*
X147402761Y-118103619D01*
X147402761Y-117798857D01*
X147440857Y-117722666D01*
X147517047Y-117684571D01*
X147669428Y-117684571D01*
X147745619Y-117722666D01*
X147783714Y-117798857D01*
X147783714Y-117875047D01*
X147402761Y-117951238D01*
X148469428Y-118217904D02*
X148469428Y-117417904D01*
X148469428Y-118179809D02*
X148393238Y-118217904D01*
X148240857Y-118217904D01*
X148164666Y-118179809D01*
X148126571Y-118141714D01*
X148088476Y-118065523D01*
X148088476Y-117836952D01*
X148126571Y-117760761D01*
X148164666Y-117722666D01*
X148240857Y-117684571D01*
X148393238Y-117684571D01*
X148469428Y-117722666D01*
X149840857Y-118217904D02*
X149459904Y-118217904D01*
X149459904Y-117417904D01*
X150107523Y-117798857D02*
X150374190Y-117798857D01*
X150488476Y-118217904D02*
X150107523Y-118217904D01*
X150107523Y-117417904D01*
X150488476Y-117417904D01*
X150831333Y-118217904D02*
X150831333Y-117417904D01*
X151021809Y-117417904D01*
X151136095Y-117456000D01*
X151212285Y-117532190D01*
X151250380Y-117608380D01*
X151288476Y-117760761D01*
X151288476Y-117875047D01*
X151250380Y-118027428D01*
X151212285Y-118103619D01*
X151136095Y-118179809D01*
X151021809Y-118217904D01*
X150831333Y-118217904D01*
X145232380Y-87328000D02*
X144232380Y-87328000D01*
X144613333Y-87328000D02*
X144565714Y-87232761D01*
X144565714Y-87042285D01*
X144613333Y-86947047D01*
X144660952Y-86899428D01*
X144756190Y-86851809D01*
X145041904Y-86851809D01*
X145137142Y-86899428D01*
X145184761Y-86947047D01*
X145232380Y-87042285D01*
X145232380Y-87232761D01*
X145184761Y-87328000D01*
X144565714Y-85994666D02*
X145232380Y-85994666D01*
X144565714Y-86423238D02*
X145089523Y-86423238D01*
X145184761Y-86375619D01*
X145232380Y-86280380D01*
X145232380Y-86137523D01*
X145184761Y-86042285D01*
X145137142Y-85994666D01*
X144565714Y-85661333D02*
X144565714Y-85280380D01*
X144232380Y-85518476D02*
X145089523Y-85518476D01*
X145184761Y-85470857D01*
X145232380Y-85375619D01*
X145232380Y-85280380D01*
X144565714Y-85089904D02*
X144565714Y-84708952D01*
X144232380Y-84947047D02*
X145089523Y-84947047D01*
X145184761Y-84899428D01*
X145232380Y-84804190D01*
X145232380Y-84708952D01*
X145232380Y-84232761D02*
X145184761Y-84328000D01*
X145137142Y-84375619D01*
X145041904Y-84423238D01*
X144756190Y-84423238D01*
X144660952Y-84375619D01*
X144613333Y-84328000D01*
X144565714Y-84232761D01*
X144565714Y-84089904D01*
X144613333Y-83994666D01*
X144660952Y-83947047D01*
X144756190Y-83899428D01*
X145041904Y-83899428D01*
X145137142Y-83947047D01*
X145184761Y-83994666D01*
X145232380Y-84089904D01*
X145232380Y-84232761D01*
X144565714Y-83470857D02*
X145232380Y-83470857D01*
X144660952Y-83470857D02*
X144613333Y-83423238D01*
X144565714Y-83328000D01*
X144565714Y-83185142D01*
X144613333Y-83089904D01*
X144708571Y-83042285D01*
X145232380Y-83042285D01*
X145232380Y-81280380D02*
X145232380Y-81851809D01*
X145232380Y-81566095D02*
X144232380Y-81566095D01*
X144375238Y-81661333D01*
X144470476Y-81756571D01*
X144518095Y-81851809D01*
X148130000Y-107640380D02*
X148130000Y-106640380D01*
X148130000Y-107021333D02*
X148225238Y-106973714D01*
X148415714Y-106973714D01*
X148510952Y-107021333D01*
X148558571Y-107068952D01*
X148606190Y-107164190D01*
X148606190Y-107449904D01*
X148558571Y-107545142D01*
X148510952Y-107592761D01*
X148415714Y-107640380D01*
X148225238Y-107640380D01*
X148130000Y-107592761D01*
X149463333Y-106973714D02*
X149463333Y-107640380D01*
X149034761Y-106973714D02*
X149034761Y-107497523D01*
X149082380Y-107592761D01*
X149177619Y-107640380D01*
X149320476Y-107640380D01*
X149415714Y-107592761D01*
X149463333Y-107545142D01*
X149796666Y-106973714D02*
X150177619Y-106973714D01*
X149939523Y-106640380D02*
X149939523Y-107497523D01*
X149987142Y-107592761D01*
X150082380Y-107640380D01*
X150177619Y-107640380D01*
X150368095Y-106973714D02*
X150749047Y-106973714D01*
X150510952Y-106640380D02*
X150510952Y-107497523D01*
X150558571Y-107592761D01*
X150653809Y-107640380D01*
X150749047Y-107640380D01*
X151225238Y-107640380D02*
X151130000Y-107592761D01*
X151082380Y-107545142D01*
X151034761Y-107449904D01*
X151034761Y-107164190D01*
X151082380Y-107068952D01*
X151130000Y-107021333D01*
X151225238Y-106973714D01*
X151368095Y-106973714D01*
X151463333Y-107021333D01*
X151510952Y-107068952D01*
X151558571Y-107164190D01*
X151558571Y-107449904D01*
X151510952Y-107545142D01*
X151463333Y-107592761D01*
X151368095Y-107640380D01*
X151225238Y-107640380D01*
X151987142Y-106973714D02*
X151987142Y-107640380D01*
X151987142Y-107068952D02*
X152034761Y-107021333D01*
X152130000Y-106973714D01*
X152272857Y-106973714D01*
X152368095Y-107021333D01*
X152415714Y-107116571D01*
X152415714Y-107640380D01*
X153606190Y-106735619D02*
X153653809Y-106688000D01*
X153749047Y-106640380D01*
X153987142Y-106640380D01*
X154082380Y-106688000D01*
X154130000Y-106735619D01*
X154177619Y-106830857D01*
X154177619Y-106926095D01*
X154130000Y-107068952D01*
X153558571Y-107640380D01*
X154177619Y-107640380D01*
X111303047Y-94341904D02*
X111036380Y-93960952D01*
X110845904Y-94341904D02*
X110845904Y-93541904D01*
X111150666Y-93541904D01*
X111226857Y-93580000D01*
X111264952Y-93618095D01*
X111303047Y-93694285D01*
X111303047Y-93808571D01*
X111264952Y-93884761D01*
X111226857Y-93922857D01*
X111150666Y-93960952D01*
X110845904Y-93960952D01*
X111569714Y-93541904D02*
X112064952Y-93541904D01*
X111798285Y-93846666D01*
X111912571Y-93846666D01*
X111988761Y-93884761D01*
X112026857Y-93922857D01*
X112064952Y-93999047D01*
X112064952Y-94189523D01*
X112026857Y-94265714D01*
X111988761Y-94303809D01*
X111912571Y-94341904D01*
X111684000Y-94341904D01*
X111607809Y-94303809D01*
X111569714Y-94265714D01*
X113360190Y-93808571D02*
X113360190Y-94341904D01*
X113169714Y-93503809D02*
X112979238Y-94075238D01*
X113474476Y-94075238D01*
X113703047Y-93541904D02*
X114236380Y-93541904D01*
X113893523Y-94341904D01*
X114693523Y-93541904D02*
X114769714Y-93541904D01*
X114845904Y-93580000D01*
X114884000Y-93618095D01*
X114922095Y-93694285D01*
X114960190Y-93846666D01*
X114960190Y-94037142D01*
X114922095Y-94189523D01*
X114884000Y-94265714D01*
X114845904Y-94303809D01*
X114769714Y-94341904D01*
X114693523Y-94341904D01*
X114617333Y-94303809D01*
X114579238Y-94265714D01*
X114541142Y-94189523D01*
X114503047Y-94037142D01*
X114503047Y-93846666D01*
X114541142Y-93694285D01*
X114579238Y-93618095D01*
X114617333Y-93580000D01*
X114693523Y-93541904D01*
X115760190Y-94341904D02*
X115493523Y-93960952D01*
X115303047Y-94341904D02*
X115303047Y-93541904D01*
X115607809Y-93541904D01*
X115684000Y-93580000D01*
X115722095Y-93618095D01*
X115760190Y-93694285D01*
X115760190Y-93808571D01*
X115722095Y-93884761D01*
X115684000Y-93922857D01*
X115607809Y-93960952D01*
X115303047Y-93960952D01*
X136703047Y-103739904D02*
X136436380Y-103358952D01*
X136245904Y-103739904D02*
X136245904Y-102939904D01*
X136550666Y-102939904D01*
X136626857Y-102978000D01*
X136664952Y-103016095D01*
X136703047Y-103092285D01*
X136703047Y-103206571D01*
X136664952Y-103282761D01*
X136626857Y-103320857D01*
X136550666Y-103358952D01*
X136245904Y-103358952D01*
X137388761Y-102939904D02*
X137236380Y-102939904D01*
X137160190Y-102978000D01*
X137122095Y-103016095D01*
X137045904Y-103130380D01*
X137007809Y-103282761D01*
X137007809Y-103587523D01*
X137045904Y-103663714D01*
X137084000Y-103701809D01*
X137160190Y-103739904D01*
X137312571Y-103739904D01*
X137388761Y-103701809D01*
X137426857Y-103663714D01*
X137464952Y-103587523D01*
X137464952Y-103397047D01*
X137426857Y-103320857D01*
X137388761Y-103282761D01*
X137312571Y-103244666D01*
X137160190Y-103244666D01*
X137084000Y-103282761D01*
X137045904Y-103320857D01*
X137007809Y-103397047D01*
X138760190Y-103206571D02*
X138760190Y-103739904D01*
X138569714Y-102901809D02*
X138379238Y-103473238D01*
X138874476Y-103473238D01*
X139103047Y-102939904D02*
X139636380Y-102939904D01*
X139293523Y-103739904D01*
X140093523Y-102939904D02*
X140169714Y-102939904D01*
X140245904Y-102978000D01*
X140284000Y-103016095D01*
X140322095Y-103092285D01*
X140360190Y-103244666D01*
X140360190Y-103435142D01*
X140322095Y-103587523D01*
X140284000Y-103663714D01*
X140245904Y-103701809D01*
X140169714Y-103739904D01*
X140093523Y-103739904D01*
X140017333Y-103701809D01*
X139979238Y-103663714D01*
X139941142Y-103587523D01*
X139903047Y-103435142D01*
X139903047Y-103244666D01*
X139941142Y-103092285D01*
X139979238Y-103016095D01*
X140017333Y-102978000D01*
X140093523Y-102939904D01*
X141160190Y-103739904D02*
X140893523Y-103358952D01*
X140703047Y-103739904D02*
X140703047Y-102939904D01*
X141007809Y-102939904D01*
X141084000Y-102978000D01*
X141122095Y-103016095D01*
X141160190Y-103092285D01*
X141160190Y-103206571D01*
X141122095Y-103282761D01*
X141084000Y-103320857D01*
X141007809Y-103358952D01*
X140703047Y-103358952D01*
X160299714Y-117684571D02*
X160299714Y-118332190D01*
X160261619Y-118408380D01*
X160223523Y-118446476D01*
X160147333Y-118484571D01*
X160033047Y-118484571D01*
X159956857Y-118446476D01*
X160299714Y-118179809D02*
X160223523Y-118217904D01*
X160071142Y-118217904D01*
X159994952Y-118179809D01*
X159956857Y-118141714D01*
X159918761Y-118065523D01*
X159918761Y-117836952D01*
X159956857Y-117760761D01*
X159994952Y-117722666D01*
X160071142Y-117684571D01*
X160223523Y-117684571D01*
X160299714Y-117722666D01*
X160680666Y-118217904D02*
X160680666Y-117684571D01*
X160680666Y-117836952D02*
X160718761Y-117760761D01*
X160756857Y-117722666D01*
X160833047Y-117684571D01*
X160909238Y-117684571D01*
X161480666Y-118179809D02*
X161404476Y-118217904D01*
X161252095Y-118217904D01*
X161175904Y-118179809D01*
X161137809Y-118103619D01*
X161137809Y-117798857D01*
X161175904Y-117722666D01*
X161252095Y-117684571D01*
X161404476Y-117684571D01*
X161480666Y-117722666D01*
X161518761Y-117798857D01*
X161518761Y-117875047D01*
X161137809Y-117951238D01*
X162166380Y-118179809D02*
X162090190Y-118217904D01*
X161937809Y-118217904D01*
X161861619Y-118179809D01*
X161823523Y-118103619D01*
X161823523Y-117798857D01*
X161861619Y-117722666D01*
X161937809Y-117684571D01*
X162090190Y-117684571D01*
X162166380Y-117722666D01*
X162204476Y-117798857D01*
X162204476Y-117875047D01*
X161823523Y-117951238D01*
X162547333Y-117684571D02*
X162547333Y-118217904D01*
X162547333Y-117760761D02*
X162585428Y-117722666D01*
X162661619Y-117684571D01*
X162775904Y-117684571D01*
X162852095Y-117722666D01*
X162890190Y-117798857D01*
X162890190Y-118217904D01*
X164261619Y-118217904D02*
X163880666Y-118217904D01*
X163880666Y-117417904D01*
X164528285Y-117798857D02*
X164794952Y-117798857D01*
X164909238Y-118217904D02*
X164528285Y-118217904D01*
X164528285Y-117417904D01*
X164909238Y-117417904D01*
X165252095Y-118217904D02*
X165252095Y-117417904D01*
X165442571Y-117417904D01*
X165556857Y-117456000D01*
X165633047Y-117532190D01*
X165671142Y-117608380D01*
X165709238Y-117760761D01*
X165709238Y-117875047D01*
X165671142Y-118027428D01*
X165633047Y-118103619D01*
X165556857Y-118179809D01*
X165442571Y-118217904D01*
X165252095Y-118217904D01*
X159873904Y-81730476D02*
X159340571Y-81730476D01*
X159416761Y-81730476D02*
X159378666Y-81692380D01*
X159340571Y-81616190D01*
X159340571Y-81501904D01*
X159378666Y-81425714D01*
X159454857Y-81387619D01*
X159873904Y-81387619D01*
X159454857Y-81387619D02*
X159378666Y-81349523D01*
X159340571Y-81273333D01*
X159340571Y-81159047D01*
X159378666Y-81082857D01*
X159454857Y-81044761D01*
X159873904Y-81044761D01*
X159873904Y-80663809D02*
X159340571Y-80663809D01*
X159073904Y-80663809D02*
X159112000Y-80701904D01*
X159150095Y-80663809D01*
X159112000Y-80625714D01*
X159073904Y-80663809D01*
X159150095Y-80663809D01*
X159835809Y-79940000D02*
X159873904Y-80016190D01*
X159873904Y-80168571D01*
X159835809Y-80244761D01*
X159797714Y-80282857D01*
X159721523Y-80320952D01*
X159492952Y-80320952D01*
X159416761Y-80282857D01*
X159378666Y-80244761D01*
X159340571Y-80168571D01*
X159340571Y-80016190D01*
X159378666Y-79940000D01*
X159873904Y-79597142D02*
X159340571Y-79597142D01*
X159492952Y-79597142D02*
X159416761Y-79559047D01*
X159378666Y-79520952D01*
X159340571Y-79444761D01*
X159340571Y-79368571D01*
X159873904Y-78987619D02*
X159835809Y-79063809D01*
X159797714Y-79101904D01*
X159721523Y-79140000D01*
X159492952Y-79140000D01*
X159416761Y-79101904D01*
X159378666Y-79063809D01*
X159340571Y-78987619D01*
X159340571Y-78873333D01*
X159378666Y-78797142D01*
X159416761Y-78759047D01*
X159492952Y-78720952D01*
X159721523Y-78720952D01*
X159797714Y-78759047D01*
X159835809Y-78797142D01*
X159873904Y-78873333D01*
X159873904Y-78987619D01*
X159073904Y-77768571D02*
X159721523Y-77768571D01*
X159797714Y-77730476D01*
X159835809Y-77692380D01*
X159873904Y-77616190D01*
X159873904Y-77463809D01*
X159835809Y-77387619D01*
X159797714Y-77349523D01*
X159721523Y-77311428D01*
X159073904Y-77311428D01*
X159835809Y-76968571D02*
X159873904Y-76854285D01*
X159873904Y-76663809D01*
X159835809Y-76587619D01*
X159797714Y-76549523D01*
X159721523Y-76511428D01*
X159645333Y-76511428D01*
X159569142Y-76549523D01*
X159531047Y-76587619D01*
X159492952Y-76663809D01*
X159454857Y-76816190D01*
X159416761Y-76892380D01*
X159378666Y-76930476D01*
X159302476Y-76968571D01*
X159226285Y-76968571D01*
X159150095Y-76930476D01*
X159112000Y-76892380D01*
X159073904Y-76816190D01*
X159073904Y-76625714D01*
X159112000Y-76511428D01*
X159454857Y-75901904D02*
X159492952Y-75787619D01*
X159531047Y-75749523D01*
X159607238Y-75711428D01*
X159721523Y-75711428D01*
X159797714Y-75749523D01*
X159835809Y-75787619D01*
X159873904Y-75863809D01*
X159873904Y-76168571D01*
X159073904Y-76168571D01*
X159073904Y-75901904D01*
X159112000Y-75825714D01*
X159150095Y-75787619D01*
X159226285Y-75749523D01*
X159302476Y-75749523D01*
X159378666Y-75787619D01*
X159416761Y-75825714D01*
X159454857Y-75901904D01*
X159454857Y-76168571D01*
X113538761Y-85413809D02*
X113614952Y-85451904D01*
X113767333Y-85451904D01*
X113843523Y-85413809D01*
X113881619Y-85337619D01*
X113881619Y-85299523D01*
X113843523Y-85223333D01*
X113767333Y-85185238D01*
X113653047Y-85185238D01*
X113576857Y-85147142D01*
X113538761Y-85070952D01*
X113538761Y-85032857D01*
X113576857Y-84956666D01*
X113653047Y-84918571D01*
X113767333Y-84918571D01*
X113843523Y-84956666D01*
X114110190Y-84918571D02*
X114414952Y-84918571D01*
X114224476Y-84651904D02*
X114224476Y-85337619D01*
X114262571Y-85413809D01*
X114338761Y-85451904D01*
X114414952Y-85451904D01*
X114986380Y-85413809D02*
X114910190Y-85451904D01*
X114757809Y-85451904D01*
X114681619Y-85413809D01*
X114643523Y-85337619D01*
X114643523Y-85032857D01*
X114681619Y-84956666D01*
X114757809Y-84918571D01*
X114910190Y-84918571D01*
X114986380Y-84956666D01*
X115024476Y-85032857D01*
X115024476Y-85109047D01*
X114643523Y-85185238D01*
X115367333Y-84918571D02*
X115367333Y-85718571D01*
X115367333Y-84956666D02*
X115443523Y-84918571D01*
X115595904Y-84918571D01*
X115672095Y-84956666D01*
X115710190Y-84994761D01*
X115748285Y-85070952D01*
X115748285Y-85299523D01*
X115710190Y-85375714D01*
X115672095Y-85413809D01*
X115595904Y-85451904D01*
X115443523Y-85451904D01*
X115367333Y-85413809D01*
X116091142Y-84918571D02*
X116091142Y-85718571D01*
X116091142Y-84956666D02*
X116167333Y-84918571D01*
X116319714Y-84918571D01*
X116395904Y-84956666D01*
X116434000Y-84994761D01*
X116472095Y-85070952D01*
X116472095Y-85299523D01*
X116434000Y-85375714D01*
X116395904Y-85413809D01*
X116319714Y-85451904D01*
X116167333Y-85451904D01*
X116091142Y-85413809D01*
X117119714Y-85413809D02*
X117043523Y-85451904D01*
X116891142Y-85451904D01*
X116814952Y-85413809D01*
X116776857Y-85337619D01*
X116776857Y-85032857D01*
X116814952Y-84956666D01*
X116891142Y-84918571D01*
X117043523Y-84918571D01*
X117119714Y-84956666D01*
X117157809Y-85032857D01*
X117157809Y-85109047D01*
X116776857Y-85185238D01*
X117500666Y-85451904D02*
X117500666Y-84918571D01*
X117500666Y-85070952D02*
X117538761Y-84994761D01*
X117576857Y-84956666D01*
X117653047Y-84918571D01*
X117729238Y-84918571D01*
X118605428Y-85451904D02*
X118605428Y-84918571D01*
X118605428Y-84994761D02*
X118643523Y-84956666D01*
X118719714Y-84918571D01*
X118834000Y-84918571D01*
X118910190Y-84956666D01*
X118948285Y-85032857D01*
X118948285Y-85451904D01*
X118948285Y-85032857D02*
X118986380Y-84956666D01*
X119062571Y-84918571D01*
X119176857Y-84918571D01*
X119253047Y-84956666D01*
X119291142Y-85032857D01*
X119291142Y-85451904D01*
X119786380Y-85451904D02*
X119710190Y-85413809D01*
X119672095Y-85375714D01*
X119634000Y-85299523D01*
X119634000Y-85070952D01*
X119672095Y-84994761D01*
X119710190Y-84956666D01*
X119786380Y-84918571D01*
X119900666Y-84918571D01*
X119976857Y-84956666D01*
X120014952Y-84994761D01*
X120053047Y-85070952D01*
X120053047Y-85299523D01*
X120014952Y-85375714D01*
X119976857Y-85413809D01*
X119900666Y-85451904D01*
X119786380Y-85451904D01*
X120281619Y-84918571D02*
X120586380Y-84918571D01*
X120395904Y-84651904D02*
X120395904Y-85337619D01*
X120434000Y-85413809D01*
X120510190Y-85451904D01*
X120586380Y-85451904D01*
X120967333Y-85451904D02*
X120891142Y-85413809D01*
X120853047Y-85375714D01*
X120814952Y-85299523D01*
X120814952Y-85070952D01*
X120853047Y-84994761D01*
X120891142Y-84956666D01*
X120967333Y-84918571D01*
X121081619Y-84918571D01*
X121157809Y-84956666D01*
X121195904Y-84994761D01*
X121234000Y-85070952D01*
X121234000Y-85299523D01*
X121195904Y-85375714D01*
X121157809Y-85413809D01*
X121081619Y-85451904D01*
X120967333Y-85451904D01*
X121576857Y-85451904D02*
X121576857Y-84918571D01*
X121576857Y-85070952D02*
X121614952Y-84994761D01*
X121653047Y-84956666D01*
X121729238Y-84918571D01*
X121805428Y-84918571D01*
X123253047Y-84613809D02*
X122567333Y-85642380D01*
X124091142Y-85413809D02*
X124205428Y-85451904D01*
X124395904Y-85451904D01*
X124472095Y-85413809D01*
X124510190Y-85375714D01*
X124548285Y-85299523D01*
X124548285Y-85223333D01*
X124510190Y-85147142D01*
X124472095Y-85109047D01*
X124395904Y-85070952D01*
X124243523Y-85032857D01*
X124167333Y-84994761D01*
X124129238Y-84956666D01*
X124091142Y-84880476D01*
X124091142Y-84804285D01*
X124129238Y-84728095D01*
X124167333Y-84690000D01*
X124243523Y-84651904D01*
X124434000Y-84651904D01*
X124548285Y-84690000D01*
X124891142Y-85451904D02*
X124891142Y-84651904D01*
X125195904Y-84651904D01*
X125272095Y-84690000D01*
X125310190Y-84728095D01*
X125348285Y-84804285D01*
X125348285Y-84918571D01*
X125310190Y-84994761D01*
X125272095Y-85032857D01*
X125195904Y-85070952D01*
X124891142Y-85070952D01*
X125691142Y-85451904D02*
X125691142Y-84651904D01*
X154152285Y-67463142D02*
X154152285Y-66563142D01*
X154495142Y-66563142D01*
X154580857Y-66606000D01*
X154623714Y-66648857D01*
X154666571Y-66734571D01*
X154666571Y-66863142D01*
X154623714Y-66948857D01*
X154580857Y-66991714D01*
X154495142Y-67034571D01*
X154152285Y-67034571D01*
X154966571Y-66563142D02*
X155180857Y-67463142D01*
X155352285Y-66820285D01*
X155523714Y-67463142D01*
X155738000Y-66563142D01*
X156595142Y-67463142D02*
X156295142Y-67034571D01*
X156080857Y-67463142D02*
X156080857Y-66563142D01*
X156423714Y-66563142D01*
X156509428Y-66606000D01*
X156552285Y-66648857D01*
X156595142Y-66734571D01*
X156595142Y-66863142D01*
X156552285Y-66948857D01*
X156509428Y-66991714D01*
X156423714Y-67034571D01*
X156080857Y-67034571D01*
X157666571Y-66863142D02*
X157666571Y-67634571D01*
X157623714Y-67720285D01*
X157538000Y-67763142D01*
X157495142Y-67763142D01*
X157666571Y-66563142D02*
X157623714Y-66606000D01*
X157666571Y-66648857D01*
X157709428Y-66606000D01*
X157666571Y-66563142D01*
X157666571Y-66648857D01*
X158480857Y-66863142D02*
X158480857Y-67463142D01*
X158095142Y-66863142D02*
X158095142Y-67334571D01*
X158138000Y-67420285D01*
X158223714Y-67463142D01*
X158352285Y-67463142D01*
X158438000Y-67420285D01*
X158480857Y-67377428D01*
X158909428Y-67463142D02*
X158909428Y-66863142D01*
X158909428Y-66948857D02*
X158952285Y-66906000D01*
X159038000Y-66863142D01*
X159166571Y-66863142D01*
X159252285Y-66906000D01*
X159295142Y-66991714D01*
X159295142Y-67463142D01*
X159295142Y-66991714D02*
X159338000Y-66906000D01*
X159423714Y-66863142D01*
X159552285Y-66863142D01*
X159638000Y-66906000D01*
X159680857Y-66991714D01*
X159680857Y-67463142D01*
X160109428Y-66863142D02*
X160109428Y-67763142D01*
X160109428Y-66906000D02*
X160195142Y-66863142D01*
X160366571Y-66863142D01*
X160452285Y-66906000D01*
X160495142Y-66948857D01*
X160538000Y-67034571D01*
X160538000Y-67291714D01*
X160495142Y-67377428D01*
X160452285Y-67420285D01*
X160366571Y-67463142D01*
X160195142Y-67463142D01*
X160109428Y-67420285D01*
X161266571Y-67420285D02*
X161180857Y-67463142D01*
X161009428Y-67463142D01*
X160923714Y-67420285D01*
X160880857Y-67334571D01*
X160880857Y-66991714D01*
X160923714Y-66906000D01*
X161009428Y-66863142D01*
X161180857Y-66863142D01*
X161266571Y-66906000D01*
X161309428Y-66991714D01*
X161309428Y-67077428D01*
X160880857Y-67163142D01*
X161695142Y-67463142D02*
X161695142Y-66863142D01*
X161695142Y-67034571D02*
X161738000Y-66948857D01*
X161780857Y-66906000D01*
X161866571Y-66863142D01*
X161952285Y-66863142D01*
X135541047Y-76307904D02*
X135274380Y-75926952D01*
X135083904Y-76307904D02*
X135083904Y-75507904D01*
X135388666Y-75507904D01*
X135464857Y-75546000D01*
X135502952Y-75584095D01*
X135541047Y-75660285D01*
X135541047Y-75774571D01*
X135502952Y-75850761D01*
X135464857Y-75888857D01*
X135388666Y-75926952D01*
X135083904Y-75926952D01*
X136302952Y-76307904D02*
X135845809Y-76307904D01*
X136074380Y-76307904D02*
X136074380Y-75507904D01*
X135998190Y-75622190D01*
X135922000Y-75698380D01*
X135845809Y-75736476D01*
X136607714Y-75584095D02*
X136645809Y-75546000D01*
X136722000Y-75507904D01*
X136912476Y-75507904D01*
X136988666Y-75546000D01*
X137026761Y-75584095D01*
X137064857Y-75660285D01*
X137064857Y-75736476D01*
X137026761Y-75850761D01*
X136569619Y-76307904D01*
X137064857Y-76307904D01*
X137407714Y-75774571D02*
X137407714Y-76574571D01*
X137407714Y-75812666D02*
X137483904Y-75774571D01*
X137636285Y-75774571D01*
X137712476Y-75812666D01*
X137750571Y-75850761D01*
X137788666Y-75926952D01*
X137788666Y-76155523D01*
X137750571Y-76231714D01*
X137712476Y-76269809D01*
X137636285Y-76307904D01*
X137483904Y-76307904D01*
X137407714Y-76269809D01*
X138474380Y-75774571D02*
X138474380Y-76307904D01*
X138131523Y-75774571D02*
X138131523Y-76193619D01*
X138169619Y-76269809D01*
X138245809Y-76307904D01*
X138360095Y-76307904D01*
X138436285Y-76269809D01*
X138474380Y-76231714D01*
X138969619Y-76307904D02*
X138893428Y-76269809D01*
X138855333Y-76193619D01*
X138855333Y-75507904D01*
X139388666Y-76307904D02*
X139312476Y-76269809D01*
X139274380Y-76193619D01*
X139274380Y-75507904D01*
X140036285Y-75774571D02*
X140036285Y-76307904D01*
X139693428Y-75774571D02*
X139693428Y-76193619D01*
X139731523Y-76269809D01*
X139807714Y-76307904D01*
X139922000Y-76307904D01*
X139998190Y-76269809D01*
X140036285Y-76231714D01*
X140417238Y-75774571D02*
X140417238Y-76574571D01*
X140417238Y-75812666D02*
X140493428Y-75774571D01*
X140645809Y-75774571D01*
X140722000Y-75812666D01*
X140760095Y-75850761D01*
X140798190Y-75926952D01*
X140798190Y-76155523D01*
X140760095Y-76231714D01*
X140722000Y-76269809D01*
X140645809Y-76307904D01*
X140493428Y-76307904D01*
X140417238Y-76269809D01*
X135541047Y-80117904D02*
X135274380Y-79736952D01*
X135083904Y-80117904D02*
X135083904Y-79317904D01*
X135388666Y-79317904D01*
X135464857Y-79356000D01*
X135502952Y-79394095D01*
X135541047Y-79470285D01*
X135541047Y-79584571D01*
X135502952Y-79660761D01*
X135464857Y-79698857D01*
X135388666Y-79736952D01*
X135083904Y-79736952D01*
X136302952Y-80117904D02*
X135845809Y-80117904D01*
X136074380Y-80117904D02*
X136074380Y-79317904D01*
X135998190Y-79432190D01*
X135922000Y-79508380D01*
X135845809Y-79546476D01*
X137064857Y-80117904D02*
X136607714Y-80117904D01*
X136836285Y-80117904D02*
X136836285Y-79317904D01*
X136760095Y-79432190D01*
X136683904Y-79508380D01*
X136607714Y-79546476D01*
X137407714Y-79584571D02*
X137407714Y-80384571D01*
X137407714Y-79622666D02*
X137483904Y-79584571D01*
X137636285Y-79584571D01*
X137712476Y-79622666D01*
X137750571Y-79660761D01*
X137788666Y-79736952D01*
X137788666Y-79965523D01*
X137750571Y-80041714D01*
X137712476Y-80079809D01*
X137636285Y-80117904D01*
X137483904Y-80117904D01*
X137407714Y-80079809D01*
X138474380Y-79584571D02*
X138474380Y-80117904D01*
X138131523Y-79584571D02*
X138131523Y-80003619D01*
X138169619Y-80079809D01*
X138245809Y-80117904D01*
X138360095Y-80117904D01*
X138436285Y-80079809D01*
X138474380Y-80041714D01*
X138969619Y-80117904D02*
X138893428Y-80079809D01*
X138855333Y-80003619D01*
X138855333Y-79317904D01*
X139388666Y-80117904D02*
X139312476Y-80079809D01*
X139274380Y-80003619D01*
X139274380Y-79317904D01*
X140036285Y-79584571D02*
X140036285Y-80117904D01*
X139693428Y-79584571D02*
X139693428Y-80003619D01*
X139731523Y-80079809D01*
X139807714Y-80117904D01*
X139922000Y-80117904D01*
X139998190Y-80079809D01*
X140036285Y-80041714D01*
X140417238Y-79584571D02*
X140417238Y-80384571D01*
X140417238Y-79622666D02*
X140493428Y-79584571D01*
X140645809Y-79584571D01*
X140722000Y-79622666D01*
X140760095Y-79660761D01*
X140798190Y-79736952D01*
X140798190Y-79965523D01*
X140760095Y-80041714D01*
X140722000Y-80079809D01*
X140645809Y-80117904D01*
X140493428Y-80117904D01*
X140417238Y-80079809D01*
X107386380Y-83533619D02*
X106719714Y-83533619D01*
X106910190Y-83533619D02*
X106814952Y-83486000D01*
X106767333Y-83438380D01*
X106719714Y-83343142D01*
X106719714Y-83247904D01*
X107338761Y-82533619D02*
X107386380Y-82628857D01*
X107386380Y-82819333D01*
X107338761Y-82914571D01*
X107243523Y-82962190D01*
X106862571Y-82962190D01*
X106767333Y-82914571D01*
X106719714Y-82819333D01*
X106719714Y-82628857D01*
X106767333Y-82533619D01*
X106862571Y-82486000D01*
X106957809Y-82486000D01*
X107053047Y-82962190D01*
X107338761Y-82105047D02*
X107386380Y-82009809D01*
X107386380Y-81819333D01*
X107338761Y-81724095D01*
X107243523Y-81676476D01*
X107195904Y-81676476D01*
X107100666Y-81724095D01*
X107053047Y-81819333D01*
X107053047Y-81962190D01*
X107005428Y-82057428D01*
X106910190Y-82105047D01*
X106862571Y-82105047D01*
X106767333Y-82057428D01*
X106719714Y-81962190D01*
X106719714Y-81819333D01*
X106767333Y-81724095D01*
X107338761Y-80866952D02*
X107386380Y-80962190D01*
X107386380Y-81152666D01*
X107338761Y-81247904D01*
X107243523Y-81295523D01*
X106862571Y-81295523D01*
X106767333Y-81247904D01*
X106719714Y-81152666D01*
X106719714Y-80962190D01*
X106767333Y-80866952D01*
X106862571Y-80819333D01*
X106957809Y-80819333D01*
X107053047Y-81295523D01*
X106719714Y-80533619D02*
X106719714Y-80152666D01*
X106386380Y-80390761D02*
X107243523Y-80390761D01*
X107338761Y-80343142D01*
X107386380Y-80247904D01*
X107386380Y-80152666D01*
X107005428Y-79057428D02*
X107005428Y-78295523D01*
X107338761Y-77105047D02*
X107386380Y-77009809D01*
X107386380Y-76819333D01*
X107338761Y-76724095D01*
X107243523Y-76676476D01*
X107195904Y-76676476D01*
X107100666Y-76724095D01*
X107053047Y-76819333D01*
X107053047Y-76962190D01*
X107005428Y-77057428D01*
X106910190Y-77105047D01*
X106862571Y-77105047D01*
X106767333Y-77057428D01*
X106719714Y-76962190D01*
X106719714Y-76819333D01*
X106767333Y-76724095D01*
X106719714Y-76247904D02*
X107719714Y-76247904D01*
X106767333Y-76247904D02*
X106719714Y-76152666D01*
X106719714Y-75962190D01*
X106767333Y-75866952D01*
X106814952Y-75819333D01*
X106910190Y-75771714D01*
X107195904Y-75771714D01*
X107291142Y-75819333D01*
X107338761Y-75866952D01*
X107386380Y-75962190D01*
X107386380Y-76152666D01*
X107338761Y-76247904D01*
X107386380Y-74914571D02*
X106862571Y-74914571D01*
X106767333Y-74962190D01*
X106719714Y-75057428D01*
X106719714Y-75247904D01*
X106767333Y-75343142D01*
X107338761Y-74914571D02*
X107386380Y-75009809D01*
X107386380Y-75247904D01*
X107338761Y-75343142D01*
X107243523Y-75390761D01*
X107148285Y-75390761D01*
X107053047Y-75343142D01*
X107005428Y-75247904D01*
X107005428Y-75009809D01*
X106957809Y-74914571D01*
X107386380Y-74438380D02*
X106719714Y-74438380D01*
X106910190Y-74438380D02*
X106814952Y-74390761D01*
X106767333Y-74343142D01*
X106719714Y-74247904D01*
X106719714Y-74152666D01*
X107338761Y-73438380D02*
X107386380Y-73533619D01*
X107386380Y-73724095D01*
X107338761Y-73819333D01*
X107243523Y-73866952D01*
X106862571Y-73866952D01*
X106767333Y-73819333D01*
X106719714Y-73724095D01*
X106719714Y-73533619D01*
X106767333Y-73438380D01*
X106862571Y-73390761D01*
X106957809Y-73390761D01*
X107053047Y-73866952D01*
%LPC*%
D16*
X129648000Y-116840000D03*
X129648000Y-114300000D03*
X129648000Y-111760000D03*
X129648000Y-109220000D03*
X129648000Y-106680000D03*
X129648000Y-104140000D03*
X129648000Y-101600000D03*
X129648000Y-99060000D03*
X129648000Y-96520000D03*
X129648000Y-93980000D03*
X129648000Y-91440000D03*
X129648000Y-88900000D03*
X129648000Y-86360000D03*
X129648000Y-83820000D03*
X129648000Y-81280000D03*
X129648000Y-78740000D03*
X129648000Y-76200000D03*
X129648000Y-73660000D03*
D17*
X129648000Y-71120000D03*
X104648000Y-71120000D03*
D16*
X104648000Y-73660000D03*
X104648000Y-76200000D03*
X104648000Y-78740000D03*
X104648000Y-81280000D03*
X104648000Y-83820000D03*
X104648000Y-86360000D03*
X104648000Y-88900000D03*
X104648000Y-91440000D03*
X104648000Y-93980000D03*
X104648000Y-96520000D03*
X104648000Y-99060000D03*
X104648000Y-101600000D03*
X104648000Y-104140000D03*
X104648000Y-106680000D03*
X104648000Y-109220000D03*
X104648000Y-111760000D03*
X104648000Y-114300000D03*
X104648000Y-116840000D03*
D18*
X125984000Y-111760000D03*
D19*
X115824000Y-111760000D03*
D20*
X124714000Y-107208000D03*
D12*
G36*
X125223849Y-103898287D02*
G01*
X125249803Y-103902137D01*
X125275253Y-103908512D01*
X125299957Y-103917351D01*
X125323675Y-103928569D01*
X125346179Y-103942058D01*
X125367253Y-103957687D01*
X125386693Y-103975307D01*
X125404313Y-103994747D01*
X125419942Y-104015821D01*
X125433431Y-104038325D01*
X125444649Y-104062043D01*
X125453488Y-104086747D01*
X125459863Y-104112197D01*
X125463713Y-104138151D01*
X125465000Y-104164356D01*
X125465000Y-105131644D01*
X125463713Y-105157849D01*
X125459863Y-105183803D01*
X125453488Y-105209253D01*
X125444649Y-105233957D01*
X125433431Y-105257675D01*
X125419942Y-105280179D01*
X125404313Y-105301253D01*
X125386693Y-105320693D01*
X125367253Y-105338313D01*
X125346179Y-105353942D01*
X125323675Y-105367431D01*
X125299957Y-105378649D01*
X125275253Y-105387488D01*
X125249803Y-105393863D01*
X125223849Y-105397713D01*
X125197644Y-105399000D01*
X124230356Y-105399000D01*
X124204151Y-105397713D01*
X124178197Y-105393863D01*
X124152747Y-105387488D01*
X124128043Y-105378649D01*
X124104325Y-105367431D01*
X124081821Y-105353942D01*
X124060747Y-105338313D01*
X124041307Y-105320693D01*
X124023687Y-105301253D01*
X124008058Y-105280179D01*
X123994569Y-105257675D01*
X123983351Y-105233957D01*
X123974512Y-105209253D01*
X123968137Y-105183803D01*
X123964287Y-105157849D01*
X123963000Y-105131644D01*
X123963000Y-104164356D01*
X123964287Y-104138151D01*
X123968137Y-104112197D01*
X123974512Y-104086747D01*
X123983351Y-104062043D01*
X123994569Y-104038325D01*
X124008058Y-104015821D01*
X124023687Y-103994747D01*
X124041307Y-103975307D01*
X124060747Y-103957687D01*
X124081821Y-103942058D01*
X124104325Y-103928569D01*
X124128043Y-103917351D01*
X124152747Y-103908512D01*
X124178197Y-103902137D01*
X124204151Y-103898287D01*
X124230356Y-103897000D01*
X125197644Y-103897000D01*
X125223849Y-103898287D01*
X125223849Y-103898287D01*
G37*
D20*
X124714000Y-104648000D03*
X109982000Y-111760000D03*
D21*
X109982000Y-116840000D03*
D22*
X124460000Y-93091000D03*
D23*
X124460000Y-95631000D03*
X124460000Y-98171000D03*
X124460000Y-100711000D03*
D24*
X135128000Y-95250000D03*
D18*
X141628000Y-95250000D03*
X121158000Y-103458000D03*
X121158000Y-108458000D03*
X113030000Y-117856000D03*
X113030000Y-112856000D03*
D25*
X154686000Y-113538000D03*
D26*
X157226000Y-113538000D03*
D16*
X125476000Y-76200000D03*
X122936000Y-76200000D03*
X120396000Y-76200000D03*
X117856000Y-76200000D03*
D17*
X115316000Y-76200000D03*
X115316000Y-73660000D03*
D16*
X117856000Y-73660000D03*
X120396000Y-73660000D03*
X122936000Y-73660000D03*
X125476000Y-73660000D03*
X125476000Y-78740000D03*
X122936000Y-78740000D03*
X120396000Y-78740000D03*
X117856000Y-78740000D03*
D17*
X115316000Y-78740000D03*
X140462000Y-72136000D03*
D16*
X137922000Y-72136000D03*
X135382000Y-72136000D03*
X135382000Y-69596000D03*
X137922000Y-69596000D03*
D17*
X140462000Y-69596000D03*
X125476000Y-69596000D03*
D16*
X122936000Y-69596000D03*
X120396000Y-69596000D03*
X117856000Y-69596000D03*
X115316000Y-69596000D03*
X112776000Y-69596000D03*
D17*
X151384000Y-69596000D03*
D16*
X148844000Y-69596000D03*
X146304000Y-69596000D03*
X135636000Y-84328000D03*
X138176000Y-84328000D03*
D17*
X140716000Y-84328000D03*
X140716000Y-86868000D03*
D16*
X138176000Y-86868000D03*
X135636000Y-86868000D03*
D27*
X162306000Y-86908000D03*
D12*
G36*
X163117975Y-88508276D02*
G01*
X163143699Y-88512092D01*
X163168925Y-88518411D01*
X163193411Y-88527172D01*
X163216920Y-88538291D01*
X163239226Y-88551661D01*
X163260114Y-88567152D01*
X163279383Y-88584617D01*
X163296848Y-88603886D01*
X163312339Y-88624774D01*
X163325709Y-88647080D01*
X163336828Y-88670589D01*
X163345589Y-88695075D01*
X163351908Y-88720301D01*
X163355724Y-88746025D01*
X163357000Y-88772000D01*
X163357000Y-90044000D01*
X163355724Y-90069975D01*
X163351908Y-90095699D01*
X163345589Y-90120925D01*
X163336828Y-90145411D01*
X163325709Y-90168920D01*
X163312339Y-90191226D01*
X163296848Y-90212114D01*
X163279383Y-90231383D01*
X163260114Y-90248848D01*
X163239226Y-90264339D01*
X163216920Y-90277709D01*
X163193411Y-90288828D01*
X163168925Y-90297589D01*
X163143699Y-90303908D01*
X163117975Y-90307724D01*
X163092000Y-90309000D01*
X161520000Y-90309000D01*
X161494025Y-90307724D01*
X161468301Y-90303908D01*
X161443075Y-90297589D01*
X161418589Y-90288828D01*
X161395080Y-90277709D01*
X161372774Y-90264339D01*
X161351886Y-90248848D01*
X161332617Y-90231383D01*
X161315152Y-90212114D01*
X161299661Y-90191226D01*
X161286291Y-90168920D01*
X161275172Y-90145411D01*
X161266411Y-90120925D01*
X161260092Y-90095699D01*
X161256276Y-90069975D01*
X161255000Y-90044000D01*
X161255000Y-88772000D01*
X161256276Y-88746025D01*
X161260092Y-88720301D01*
X161266411Y-88695075D01*
X161275172Y-88670589D01*
X161286291Y-88647080D01*
X161299661Y-88624774D01*
X161315152Y-88603886D01*
X161332617Y-88584617D01*
X161351886Y-88567152D01*
X161372774Y-88551661D01*
X161395080Y-88538291D01*
X161418589Y-88527172D01*
X161443075Y-88518411D01*
X161468301Y-88512092D01*
X161494025Y-88508276D01*
X161520000Y-88507000D01*
X163092000Y-88507000D01*
X163117975Y-88508276D01*
X163117975Y-88508276D01*
G37*
D28*
X162306000Y-89408000D03*
D12*
G36*
X163117975Y-97144276D02*
G01*
X163143699Y-97148092D01*
X163168925Y-97154411D01*
X163193411Y-97163172D01*
X163216920Y-97174291D01*
X163239226Y-97187661D01*
X163260114Y-97203152D01*
X163279383Y-97220617D01*
X163296848Y-97239886D01*
X163312339Y-97260774D01*
X163325709Y-97283080D01*
X163336828Y-97306589D01*
X163345589Y-97331075D01*
X163351908Y-97356301D01*
X163355724Y-97382025D01*
X163357000Y-97408000D01*
X163357000Y-98680000D01*
X163355724Y-98705975D01*
X163351908Y-98731699D01*
X163345589Y-98756925D01*
X163336828Y-98781411D01*
X163325709Y-98804920D01*
X163312339Y-98827226D01*
X163296848Y-98848114D01*
X163279383Y-98867383D01*
X163260114Y-98884848D01*
X163239226Y-98900339D01*
X163216920Y-98913709D01*
X163193411Y-98924828D01*
X163168925Y-98933589D01*
X163143699Y-98939908D01*
X163117975Y-98943724D01*
X163092000Y-98945000D01*
X161520000Y-98945000D01*
X161494025Y-98943724D01*
X161468301Y-98939908D01*
X161443075Y-98933589D01*
X161418589Y-98924828D01*
X161395080Y-98913709D01*
X161372774Y-98900339D01*
X161351886Y-98884848D01*
X161332617Y-98867383D01*
X161315152Y-98848114D01*
X161299661Y-98827226D01*
X161286291Y-98804920D01*
X161275172Y-98781411D01*
X161266411Y-98756925D01*
X161260092Y-98731699D01*
X161256276Y-98705975D01*
X161255000Y-98680000D01*
X161255000Y-97408000D01*
X161256276Y-97382025D01*
X161260092Y-97356301D01*
X161266411Y-97331075D01*
X161275172Y-97306589D01*
X161286291Y-97283080D01*
X161299661Y-97260774D01*
X161315152Y-97239886D01*
X161332617Y-97220617D01*
X161351886Y-97203152D01*
X161372774Y-97187661D01*
X161395080Y-97174291D01*
X161418589Y-97163172D01*
X161443075Y-97154411D01*
X161468301Y-97148092D01*
X161494025Y-97144276D01*
X161520000Y-97143000D01*
X163092000Y-97143000D01*
X163117975Y-97144276D01*
X163117975Y-97144276D01*
G37*
D28*
X162306000Y-98044000D03*
D27*
X162306000Y-95544000D03*
X162306000Y-104180000D03*
D12*
G36*
X163117975Y-105780276D02*
G01*
X163143699Y-105784092D01*
X163168925Y-105790411D01*
X163193411Y-105799172D01*
X163216920Y-105810291D01*
X163239226Y-105823661D01*
X163260114Y-105839152D01*
X163279383Y-105856617D01*
X163296848Y-105875886D01*
X163312339Y-105896774D01*
X163325709Y-105919080D01*
X163336828Y-105942589D01*
X163345589Y-105967075D01*
X163351908Y-105992301D01*
X163355724Y-106018025D01*
X163357000Y-106044000D01*
X163357000Y-107316000D01*
X163355724Y-107341975D01*
X163351908Y-107367699D01*
X163345589Y-107392925D01*
X163336828Y-107417411D01*
X163325709Y-107440920D01*
X163312339Y-107463226D01*
X163296848Y-107484114D01*
X163279383Y-107503383D01*
X163260114Y-107520848D01*
X163239226Y-107536339D01*
X163216920Y-107549709D01*
X163193411Y-107560828D01*
X163168925Y-107569589D01*
X163143699Y-107575908D01*
X163117975Y-107579724D01*
X163092000Y-107581000D01*
X161520000Y-107581000D01*
X161494025Y-107579724D01*
X161468301Y-107575908D01*
X161443075Y-107569589D01*
X161418589Y-107560828D01*
X161395080Y-107549709D01*
X161372774Y-107536339D01*
X161351886Y-107520848D01*
X161332617Y-107503383D01*
X161315152Y-107484114D01*
X161299661Y-107463226D01*
X161286291Y-107440920D01*
X161275172Y-107417411D01*
X161266411Y-107392925D01*
X161260092Y-107367699D01*
X161256276Y-107341975D01*
X161255000Y-107316000D01*
X161255000Y-106044000D01*
X161256276Y-106018025D01*
X161260092Y-105992301D01*
X161266411Y-105967075D01*
X161275172Y-105942589D01*
X161286291Y-105919080D01*
X161299661Y-105896774D01*
X161315152Y-105875886D01*
X161332617Y-105856617D01*
X161351886Y-105839152D01*
X161372774Y-105823661D01*
X161395080Y-105810291D01*
X161418589Y-105799172D01*
X161443075Y-105790411D01*
X161468301Y-105784092D01*
X161494025Y-105780276D01*
X161520000Y-105779000D01*
X163092000Y-105779000D01*
X163117975Y-105780276D01*
X163117975Y-105780276D01*
G37*
D28*
X162306000Y-106680000D03*
D18*
X108204000Y-100076000D03*
D19*
X118364000Y-100076000D03*
X118364000Y-97028000D03*
D18*
X108204000Y-97028000D03*
D19*
X143764000Y-109982000D03*
D18*
X133604000Y-109982000D03*
X133604000Y-106680000D03*
D19*
X143764000Y-106680000D03*
D18*
X108204000Y-103632000D03*
D19*
X118364000Y-103632000D03*
D18*
X108204000Y-108458000D03*
D19*
X118364000Y-108458000D03*
X115824000Y-117348000D03*
D18*
X125984000Y-117348000D03*
D26*
X150368000Y-113538000D03*
D25*
X147828000Y-113538000D03*
D29*
X149178000Y-75438000D03*
X154178000Y-75438000D03*
X149178000Y-87938000D03*
X154178000Y-87938000D03*
X154178000Y-104194000D03*
X149178000Y-104194000D03*
X154178000Y-91694000D03*
X149178000Y-91694000D03*
D18*
X108204000Y-93980000D03*
D19*
X118364000Y-93980000D03*
X143764000Y-103378000D03*
D18*
X133604000Y-103378000D03*
D26*
X164084000Y-113538000D03*
D25*
X161544000Y-113538000D03*
D30*
X162306000Y-80010000D03*
D31*
X163306000Y-79360000D03*
X162306000Y-78710000D03*
X163306000Y-78060000D03*
X162306000Y-77410000D03*
D32*
X162526000Y-82285000D03*
X162526000Y-75135000D03*
D17*
X110236000Y-89154000D03*
D16*
X112776000Y-89154000D03*
X115316000Y-89154000D03*
X117856000Y-89154000D03*
X120396000Y-89154000D03*
X122936000Y-89154000D03*
X125476000Y-89154000D03*
D33*
X161544000Y-70358000D03*
X138938000Y-114808000D03*
D17*
X155956000Y-69596000D03*
D16*
X155956000Y-72136000D03*
D18*
X132842000Y-75946000D03*
D19*
X143002000Y-75946000D03*
X143002000Y-79756000D03*
D18*
X132842000Y-79756000D03*
D17*
X109474000Y-83566000D03*
D16*
X109474000Y-81026000D03*
X109474000Y-78486000D03*
X109474000Y-75946000D03*
X109474000Y-73406000D03*
M02*
