G04 #@! TF.GenerationSoftware,KiCad,Pcbnew,(5.1.2)-1*
G04 #@! TF.CreationDate,2024-09-19T10:13:49+01:00*
G04 #@! TF.ProjectId,ESP32_PCB03,45535033-325f-4504-9342-30332e6b6963,rev?*
G04 #@! TF.SameCoordinates,Original*
G04 #@! TF.FileFunction,Copper,L1,Top*
G04 #@! TF.FilePolarity,Positive*
%FSLAX46Y46*%
G04 Gerber Fmt 4.6, Leading zero omitted, Abs format (unit mm)*
G04 Created by KiCad (PCBNEW (5.1.2)-1) date 2024-09-19 10:13:49*
%MOMM*%
%LPD*%
G04 APERTURE LIST*
%ADD10O,1.700000X1.700000*%
%ADD11R,1.700000X1.700000*%
%ADD12C,1.600000*%
%ADD13O,1.600000X1.600000*%
%ADD14C,1.400000*%
%ADD15C,0.150000*%
%ADD16O,1.400000X1.400000*%
%ADD17R,1.800000X1.070000*%
%ADD18O,1.800000X1.070000*%
%ADD19R,1.600000X1.600000*%
%ADD20C,1.800000*%
%ADD21R,1.800000X1.800000*%
%ADD22O,2.000000X1.700000*%
%ADD23C,1.700000*%
%ADD24O,1.727200X3.048000*%
%ADD25R,0.840000X0.840000*%
%ADD26C,0.840000*%
%ADD27O,1.850000X0.850000*%
%ADD28C,0.800000*%
%ADD29C,0.250000*%
%ADD30C,0.750000*%
G04 APERTURE END LIST*
D10*
X129648000Y-116840000D03*
X129648000Y-114300000D03*
X129648000Y-111760000D03*
X129648000Y-109220000D03*
X129648000Y-106680000D03*
X129648000Y-104140000D03*
X129648000Y-101600000D03*
X129648000Y-99060000D03*
X129648000Y-96520000D03*
X129648000Y-93980000D03*
X129648000Y-91440000D03*
X129648000Y-88900000D03*
X129648000Y-86360000D03*
X129648000Y-83820000D03*
X129648000Y-81280000D03*
X129648000Y-78740000D03*
X129648000Y-76200000D03*
X129648000Y-73660000D03*
D11*
X129648000Y-71120000D03*
X104648000Y-71120000D03*
D10*
X104648000Y-73660000D03*
X104648000Y-76200000D03*
X104648000Y-78740000D03*
X104648000Y-81280000D03*
X104648000Y-83820000D03*
X104648000Y-86360000D03*
X104648000Y-88900000D03*
X104648000Y-91440000D03*
X104648000Y-93980000D03*
X104648000Y-96520000D03*
X104648000Y-99060000D03*
X104648000Y-101600000D03*
X104648000Y-104140000D03*
X104648000Y-106680000D03*
X104648000Y-109220000D03*
X104648000Y-111760000D03*
X104648000Y-114300000D03*
X104648000Y-116840000D03*
D12*
X125984000Y-111760000D03*
D13*
X115824000Y-111760000D03*
D14*
X124714000Y-107208000D03*
D15*
G36*
X125189226Y-103949200D02*
G01*
X125213417Y-103952788D01*
X125237139Y-103958730D01*
X125260165Y-103966969D01*
X125282272Y-103977425D01*
X125303248Y-103989998D01*
X125322891Y-104004566D01*
X125341011Y-104020989D01*
X125357434Y-104039109D01*
X125372002Y-104058752D01*
X125384575Y-104079728D01*
X125395031Y-104101835D01*
X125403270Y-104124861D01*
X125409212Y-104148583D01*
X125412800Y-104172774D01*
X125414000Y-104197200D01*
X125414000Y-105098800D01*
X125412800Y-105123226D01*
X125409212Y-105147417D01*
X125403270Y-105171139D01*
X125395031Y-105194165D01*
X125384575Y-105216272D01*
X125372002Y-105237248D01*
X125357434Y-105256891D01*
X125341011Y-105275011D01*
X125322891Y-105291434D01*
X125303248Y-105306002D01*
X125282272Y-105318575D01*
X125260165Y-105329031D01*
X125237139Y-105337270D01*
X125213417Y-105343212D01*
X125189226Y-105346800D01*
X125164800Y-105348000D01*
X124263200Y-105348000D01*
X124238774Y-105346800D01*
X124214583Y-105343212D01*
X124190861Y-105337270D01*
X124167835Y-105329031D01*
X124145728Y-105318575D01*
X124124752Y-105306002D01*
X124105109Y-105291434D01*
X124086989Y-105275011D01*
X124070566Y-105256891D01*
X124055998Y-105237248D01*
X124043425Y-105216272D01*
X124032969Y-105194165D01*
X124024730Y-105171139D01*
X124018788Y-105147417D01*
X124015200Y-105123226D01*
X124014000Y-105098800D01*
X124014000Y-104197200D01*
X124015200Y-104172774D01*
X124018788Y-104148583D01*
X124024730Y-104124861D01*
X124032969Y-104101835D01*
X124043425Y-104079728D01*
X124055998Y-104058752D01*
X124070566Y-104039109D01*
X124086989Y-104020989D01*
X124105109Y-104004566D01*
X124124752Y-103989998D01*
X124145728Y-103977425D01*
X124167835Y-103966969D01*
X124190861Y-103958730D01*
X124214583Y-103952788D01*
X124238774Y-103949200D01*
X124263200Y-103948000D01*
X125164800Y-103948000D01*
X125189226Y-103949200D01*
X125189226Y-103949200D01*
G37*
D14*
X124714000Y-104648000D03*
X109982000Y-111760000D03*
D16*
X109982000Y-116840000D03*
D17*
X124460000Y-93091000D03*
D18*
X124460000Y-95631000D03*
X124460000Y-98171000D03*
X124460000Y-100711000D03*
D19*
X135128000Y-95250000D03*
D12*
X141628000Y-95250000D03*
X121158000Y-103458000D03*
X121158000Y-108458000D03*
X113030000Y-117856000D03*
X113030000Y-112856000D03*
D20*
X154686000Y-113538000D03*
D21*
X157226000Y-113538000D03*
D10*
X125476000Y-76200000D03*
X122936000Y-76200000D03*
X120396000Y-76200000D03*
X117856000Y-76200000D03*
D11*
X115316000Y-76200000D03*
X115316000Y-73660000D03*
D10*
X117856000Y-73660000D03*
X120396000Y-73660000D03*
X122936000Y-73660000D03*
X125476000Y-73660000D03*
X125476000Y-78740000D03*
X122936000Y-78740000D03*
X120396000Y-78740000D03*
X117856000Y-78740000D03*
D11*
X115316000Y-78740000D03*
X140462000Y-72136000D03*
D10*
X137922000Y-72136000D03*
X135382000Y-72136000D03*
X135382000Y-69596000D03*
X137922000Y-69596000D03*
D11*
X140462000Y-69596000D03*
X125476000Y-69596000D03*
D10*
X122936000Y-69596000D03*
X120396000Y-69596000D03*
X117856000Y-69596000D03*
X115316000Y-69596000D03*
X112776000Y-69596000D03*
D11*
X151384000Y-69596000D03*
D10*
X148844000Y-69596000D03*
X146304000Y-69596000D03*
X135636000Y-84328000D03*
X138176000Y-84328000D03*
D11*
X140716000Y-84328000D03*
X140716000Y-86868000D03*
D10*
X138176000Y-86868000D03*
X135636000Y-86868000D03*
D22*
X162306000Y-86908000D03*
D15*
G36*
X163080504Y-88559204D02*
G01*
X163104773Y-88562804D01*
X163128571Y-88568765D01*
X163151671Y-88577030D01*
X163173849Y-88587520D01*
X163194893Y-88600133D01*
X163214598Y-88614747D01*
X163232777Y-88631223D01*
X163249253Y-88649402D01*
X163263867Y-88669107D01*
X163276480Y-88690151D01*
X163286970Y-88712329D01*
X163295235Y-88735429D01*
X163301196Y-88759227D01*
X163304796Y-88783496D01*
X163306000Y-88808000D01*
X163306000Y-90008000D01*
X163304796Y-90032504D01*
X163301196Y-90056773D01*
X163295235Y-90080571D01*
X163286970Y-90103671D01*
X163276480Y-90125849D01*
X163263867Y-90146893D01*
X163249253Y-90166598D01*
X163232777Y-90184777D01*
X163214598Y-90201253D01*
X163194893Y-90215867D01*
X163173849Y-90228480D01*
X163151671Y-90238970D01*
X163128571Y-90247235D01*
X163104773Y-90253196D01*
X163080504Y-90256796D01*
X163056000Y-90258000D01*
X161556000Y-90258000D01*
X161531496Y-90256796D01*
X161507227Y-90253196D01*
X161483429Y-90247235D01*
X161460329Y-90238970D01*
X161438151Y-90228480D01*
X161417107Y-90215867D01*
X161397402Y-90201253D01*
X161379223Y-90184777D01*
X161362747Y-90166598D01*
X161348133Y-90146893D01*
X161335520Y-90125849D01*
X161325030Y-90103671D01*
X161316765Y-90080571D01*
X161310804Y-90056773D01*
X161307204Y-90032504D01*
X161306000Y-90008000D01*
X161306000Y-88808000D01*
X161307204Y-88783496D01*
X161310804Y-88759227D01*
X161316765Y-88735429D01*
X161325030Y-88712329D01*
X161335520Y-88690151D01*
X161348133Y-88669107D01*
X161362747Y-88649402D01*
X161379223Y-88631223D01*
X161397402Y-88614747D01*
X161417107Y-88600133D01*
X161438151Y-88587520D01*
X161460329Y-88577030D01*
X161483429Y-88568765D01*
X161507227Y-88562804D01*
X161531496Y-88559204D01*
X161556000Y-88558000D01*
X163056000Y-88558000D01*
X163080504Y-88559204D01*
X163080504Y-88559204D01*
G37*
D23*
X162306000Y-89408000D03*
D15*
G36*
X163080504Y-97195204D02*
G01*
X163104773Y-97198804D01*
X163128571Y-97204765D01*
X163151671Y-97213030D01*
X163173849Y-97223520D01*
X163194893Y-97236133D01*
X163214598Y-97250747D01*
X163232777Y-97267223D01*
X163249253Y-97285402D01*
X163263867Y-97305107D01*
X163276480Y-97326151D01*
X163286970Y-97348329D01*
X163295235Y-97371429D01*
X163301196Y-97395227D01*
X163304796Y-97419496D01*
X163306000Y-97444000D01*
X163306000Y-98644000D01*
X163304796Y-98668504D01*
X163301196Y-98692773D01*
X163295235Y-98716571D01*
X163286970Y-98739671D01*
X163276480Y-98761849D01*
X163263867Y-98782893D01*
X163249253Y-98802598D01*
X163232777Y-98820777D01*
X163214598Y-98837253D01*
X163194893Y-98851867D01*
X163173849Y-98864480D01*
X163151671Y-98874970D01*
X163128571Y-98883235D01*
X163104773Y-98889196D01*
X163080504Y-98892796D01*
X163056000Y-98894000D01*
X161556000Y-98894000D01*
X161531496Y-98892796D01*
X161507227Y-98889196D01*
X161483429Y-98883235D01*
X161460329Y-98874970D01*
X161438151Y-98864480D01*
X161417107Y-98851867D01*
X161397402Y-98837253D01*
X161379223Y-98820777D01*
X161362747Y-98802598D01*
X161348133Y-98782893D01*
X161335520Y-98761849D01*
X161325030Y-98739671D01*
X161316765Y-98716571D01*
X161310804Y-98692773D01*
X161307204Y-98668504D01*
X161306000Y-98644000D01*
X161306000Y-97444000D01*
X161307204Y-97419496D01*
X161310804Y-97395227D01*
X161316765Y-97371429D01*
X161325030Y-97348329D01*
X161335520Y-97326151D01*
X161348133Y-97305107D01*
X161362747Y-97285402D01*
X161379223Y-97267223D01*
X161397402Y-97250747D01*
X161417107Y-97236133D01*
X161438151Y-97223520D01*
X161460329Y-97213030D01*
X161483429Y-97204765D01*
X161507227Y-97198804D01*
X161531496Y-97195204D01*
X161556000Y-97194000D01*
X163056000Y-97194000D01*
X163080504Y-97195204D01*
X163080504Y-97195204D01*
G37*
D23*
X162306000Y-98044000D03*
D22*
X162306000Y-95544000D03*
X162306000Y-104180000D03*
D15*
G36*
X163080504Y-105831204D02*
G01*
X163104773Y-105834804D01*
X163128571Y-105840765D01*
X163151671Y-105849030D01*
X163173849Y-105859520D01*
X163194893Y-105872133D01*
X163214598Y-105886747D01*
X163232777Y-105903223D01*
X163249253Y-105921402D01*
X163263867Y-105941107D01*
X163276480Y-105962151D01*
X163286970Y-105984329D01*
X163295235Y-106007429D01*
X163301196Y-106031227D01*
X163304796Y-106055496D01*
X163306000Y-106080000D01*
X163306000Y-107280000D01*
X163304796Y-107304504D01*
X163301196Y-107328773D01*
X163295235Y-107352571D01*
X163286970Y-107375671D01*
X163276480Y-107397849D01*
X163263867Y-107418893D01*
X163249253Y-107438598D01*
X163232777Y-107456777D01*
X163214598Y-107473253D01*
X163194893Y-107487867D01*
X163173849Y-107500480D01*
X163151671Y-107510970D01*
X163128571Y-107519235D01*
X163104773Y-107525196D01*
X163080504Y-107528796D01*
X163056000Y-107530000D01*
X161556000Y-107530000D01*
X161531496Y-107528796D01*
X161507227Y-107525196D01*
X161483429Y-107519235D01*
X161460329Y-107510970D01*
X161438151Y-107500480D01*
X161417107Y-107487867D01*
X161397402Y-107473253D01*
X161379223Y-107456777D01*
X161362747Y-107438598D01*
X161348133Y-107418893D01*
X161335520Y-107397849D01*
X161325030Y-107375671D01*
X161316765Y-107352571D01*
X161310804Y-107328773D01*
X161307204Y-107304504D01*
X161306000Y-107280000D01*
X161306000Y-106080000D01*
X161307204Y-106055496D01*
X161310804Y-106031227D01*
X161316765Y-106007429D01*
X161325030Y-105984329D01*
X161335520Y-105962151D01*
X161348133Y-105941107D01*
X161362747Y-105921402D01*
X161379223Y-105903223D01*
X161397402Y-105886747D01*
X161417107Y-105872133D01*
X161438151Y-105859520D01*
X161460329Y-105849030D01*
X161483429Y-105840765D01*
X161507227Y-105834804D01*
X161531496Y-105831204D01*
X161556000Y-105830000D01*
X163056000Y-105830000D01*
X163080504Y-105831204D01*
X163080504Y-105831204D01*
G37*
D23*
X162306000Y-106680000D03*
D12*
X108204000Y-100076000D03*
D13*
X118364000Y-100076000D03*
X118364000Y-97028000D03*
D12*
X108204000Y-97028000D03*
D13*
X143764000Y-109982000D03*
D12*
X133604000Y-109982000D03*
X133604000Y-106680000D03*
D13*
X143764000Y-106680000D03*
D12*
X108204000Y-103632000D03*
D13*
X118364000Y-103632000D03*
D12*
X108204000Y-108458000D03*
D13*
X118364000Y-108458000D03*
X115824000Y-117348000D03*
D12*
X125984000Y-117348000D03*
D21*
X150368000Y-113538000D03*
D20*
X147828000Y-113538000D03*
D24*
X149178000Y-75438000D03*
X154178000Y-75438000D03*
X149178000Y-87938000D03*
X154178000Y-87938000D03*
X154178000Y-104194000D03*
X149178000Y-104194000D03*
X154178000Y-91694000D03*
X149178000Y-91694000D03*
D12*
X108204000Y-93980000D03*
D13*
X118364000Y-93980000D03*
X143764000Y-103378000D03*
D12*
X133604000Y-103378000D03*
D21*
X164084000Y-113538000D03*
D20*
X161544000Y-113538000D03*
D25*
X162306000Y-80010000D03*
D26*
X163306000Y-79360000D03*
X162306000Y-78710000D03*
X163306000Y-78060000D03*
X162306000Y-77410000D03*
D27*
X162526000Y-82285000D03*
X162526000Y-75135000D03*
D11*
X110236000Y-89154000D03*
D10*
X112776000Y-89154000D03*
X115316000Y-89154000D03*
X117856000Y-89154000D03*
X120396000Y-89154000D03*
X122936000Y-89154000D03*
X125476000Y-89154000D03*
D11*
X155956000Y-69596000D03*
D10*
X155956000Y-72136000D03*
D12*
X132842000Y-75946000D03*
D13*
X143002000Y-75946000D03*
X143002000Y-79756000D03*
D12*
X132842000Y-79756000D03*
D11*
X109474000Y-83566000D03*
D10*
X109474000Y-81026000D03*
X109474000Y-78486000D03*
X109474000Y-75946000D03*
X109474000Y-73406000D03*
D28*
X131318000Y-67310000D03*
X113538000Y-67310000D03*
X117348000Y-85598000D03*
X122936000Y-83566000D03*
X143256000Y-71882000D03*
X124714000Y-81026000D03*
X106426000Y-85344000D03*
X106421347Y-77465347D03*
X114046000Y-83820000D03*
D29*
X134908000Y-91440000D02*
X135128000Y-91660000D01*
X129648000Y-91440000D02*
X134908000Y-91440000D01*
X135128000Y-95250000D02*
X135128000Y-92456000D01*
X135128000Y-91660000D02*
X135128000Y-92456000D01*
X135128000Y-92456000D02*
X135128000Y-92710000D01*
D30*
X117856000Y-73660000D02*
X117856000Y-76200000D01*
X117856000Y-76200000D02*
X117856000Y-78740000D01*
X140716000Y-84328000D02*
X140716000Y-86868000D01*
X137922000Y-69596000D02*
X137922000Y-72136000D01*
D29*
X119495370Y-108458000D02*
X121158000Y-108458000D01*
X118364000Y-108458000D02*
X119495370Y-108458000D01*
X123464000Y-108458000D02*
X124714000Y-107208000D01*
X121158000Y-108458000D02*
X123464000Y-108458000D01*
X110998000Y-117856000D02*
X113030000Y-117856000D01*
X109982000Y-116840000D02*
X110998000Y-117856000D01*
X115316000Y-117856000D02*
X115824000Y-117348000D01*
X113030000Y-117856000D02*
X115316000Y-117856000D01*
D30*
X120396000Y-73660000D02*
X120396000Y-76200000D01*
X120396000Y-76200000D02*
X120396000Y-78740000D01*
X135382000Y-69596000D02*
X135382000Y-72136000D01*
X129648000Y-71120000D02*
X132334000Y-71120000D01*
X133350000Y-72136000D02*
X135382000Y-72136000D01*
X132334000Y-71120000D02*
X133350000Y-72136000D01*
X115316000Y-67818000D02*
X115316000Y-69596000D01*
X115824000Y-67310000D02*
X115316000Y-67818000D01*
X128016000Y-67310000D02*
X115824000Y-67310000D01*
X129648000Y-71120000D02*
X129648000Y-68942000D01*
X129648000Y-68942000D02*
X128016000Y-67310000D01*
X120396000Y-73152000D02*
X120396000Y-73660000D01*
X118618000Y-71374000D02*
X120396000Y-73152000D01*
X115316000Y-69596000D02*
X115316000Y-71374000D01*
X115316000Y-71374000D02*
X118618000Y-71374000D01*
X132842000Y-79756000D02*
X132842000Y-75946000D01*
X132842000Y-72644000D02*
X133350000Y-72136000D01*
X132842000Y-75946000D02*
X132842000Y-72644000D01*
X125476000Y-86360000D02*
X125476000Y-89154000D01*
X123952000Y-84836000D02*
X125476000Y-86360000D01*
X121412000Y-84836000D02*
X123952000Y-84836000D01*
X120396000Y-78740000D02*
X120396000Y-83820000D01*
X120396000Y-83820000D02*
X121412000Y-84836000D01*
X115316000Y-73660000D02*
X115316000Y-76200000D01*
X115316000Y-76200000D02*
X115316000Y-78740000D01*
X138176000Y-84328000D02*
X138176000Y-86868000D01*
X140462000Y-69596000D02*
X140462000Y-72136000D01*
X113538000Y-67310000D02*
X110236000Y-67310000D01*
X113716000Y-73660000D02*
X115316000Y-73660000D01*
X112776000Y-72720000D02*
X113716000Y-73660000D01*
X112776000Y-72390000D02*
X112776000Y-72720000D01*
X140462000Y-67310000D02*
X140462000Y-69596000D01*
X131318000Y-67310000D02*
X140462000Y-67310000D01*
X132334000Y-114808000D02*
X134112000Y-113030000D01*
X132334000Y-116078000D02*
X132334000Y-114808000D01*
X131572000Y-116840000D02*
X132334000Y-116078000D01*
X129648000Y-116840000D02*
X131572000Y-116840000D01*
X138430000Y-108712000D02*
X134112000Y-113030000D01*
X134112000Y-113030000D02*
X133604000Y-113538000D01*
X162306000Y-80010000D02*
X161136000Y-80010000D01*
X158750000Y-82396000D02*
X158750000Y-86868000D01*
X158790000Y-86908000D02*
X162306000Y-86908000D01*
X158750000Y-86868000D02*
X158790000Y-86908000D01*
X160556000Y-104180000D02*
X160516000Y-104140000D01*
X162306000Y-104180000D02*
X160556000Y-104180000D01*
X160516000Y-104140000D02*
X160274000Y-104140000D01*
X160274000Y-104140000D02*
X158750000Y-102616000D01*
X160516000Y-95504000D02*
X158750000Y-95504000D01*
X160556000Y-95544000D02*
X160516000Y-95504000D01*
X162306000Y-95544000D02*
X160556000Y-95544000D01*
X158750000Y-95504000D02*
X158750000Y-86868000D01*
X146304000Y-69596000D02*
X146304000Y-67310000D01*
X140462000Y-67310000D02*
X146304000Y-67310000D01*
X161136000Y-80010000D02*
X159562000Y-81584000D01*
X159562000Y-81584000D02*
X158750000Y-82396000D01*
X159444081Y-81466081D02*
X159562000Y-81584000D01*
X159444081Y-72898000D02*
X159444081Y-81466081D01*
X155956000Y-72136000D02*
X158682081Y-72136000D01*
X158682081Y-72136000D02*
X159444081Y-72898000D01*
X155956000Y-67818000D02*
X155956000Y-69596000D01*
X146304000Y-67310000D02*
X155448000Y-67310000D01*
X155448000Y-67310000D02*
X155956000Y-67818000D01*
X138176000Y-76022000D02*
X138176000Y-84328000D01*
X140462000Y-72136000D02*
X140462000Y-73736000D01*
X140462000Y-73736000D02*
X138176000Y-76022000D01*
X138430000Y-108712000D02*
X138430000Y-103632000D01*
X142748000Y-99314000D02*
X158750000Y-99314000D01*
X138430000Y-103632000D02*
X142748000Y-99314000D01*
X158750000Y-102616000D02*
X158750000Y-99314000D01*
X158750000Y-99314000D02*
X158750000Y-95504000D01*
X115316000Y-80340000D02*
X118618000Y-83642000D01*
X115316000Y-78740000D02*
X115316000Y-80340000D01*
X118618000Y-83642000D02*
X118618000Y-85344000D01*
X118618000Y-85344000D02*
X119634000Y-86360000D01*
X119634000Y-86360000D02*
X121412000Y-86360000D01*
X122936000Y-87884000D02*
X122936000Y-89154000D01*
X121412000Y-86360000D02*
X122936000Y-87884000D01*
X112776000Y-72390000D02*
X112522000Y-72390000D01*
X110236000Y-70104000D02*
X110236000Y-67310000D01*
X112522000Y-72390000D02*
X110236000Y-70104000D01*
D29*
X104902000Y-89154000D02*
X104648000Y-88900000D01*
X115316000Y-87122000D02*
X115316000Y-89154000D01*
X114808000Y-86614000D02*
X115316000Y-87122000D01*
X104648000Y-88900000D02*
X106934000Y-86614000D01*
X106934000Y-86614000D02*
X114808000Y-86614000D01*
X109474000Y-89154000D02*
X110236000Y-89154000D01*
X104648000Y-93980000D02*
X109474000Y-89154000D01*
X104648000Y-96520000D02*
X105918000Y-96520000D01*
X105918000Y-96266000D02*
X108204000Y-93980000D01*
X105918000Y-96520000D02*
X105918000Y-96266000D01*
X106172000Y-99060000D02*
X108204000Y-97028000D01*
X104648000Y-99060000D02*
X106172000Y-99060000D01*
X106680000Y-101600000D02*
X108204000Y-100076000D01*
X104648000Y-101600000D02*
X106680000Y-101600000D01*
X105850081Y-106680000D02*
X106680000Y-105850081D01*
X104648000Y-106680000D02*
X105850081Y-106680000D01*
X106680000Y-105156000D02*
X108204000Y-103632000D01*
X106680000Y-105850081D02*
X106680000Y-105156000D01*
X123698000Y-105664000D02*
X124714000Y-104648000D01*
X118364000Y-103632000D02*
X120396000Y-105664000D01*
X120396000Y-105664000D02*
X123698000Y-105664000D01*
X118364000Y-100076000D02*
X120904000Y-100076000D01*
X121539000Y-100711000D02*
X124460000Y-100711000D01*
X120904000Y-100076000D02*
X121539000Y-100711000D01*
X118364000Y-97028000D02*
X121158000Y-97028000D01*
X122301000Y-98171000D02*
X124460000Y-98171000D01*
X121158000Y-97028000D02*
X122301000Y-98171000D01*
X119253000Y-93091000D02*
X124460000Y-93091000D01*
X118364000Y-93980000D02*
X119253000Y-93091000D01*
X125476000Y-73660000D02*
X125476000Y-76200000D01*
X125476000Y-76200000D02*
X125476000Y-78740000D01*
X120396000Y-69596000D02*
X121920000Y-71120000D01*
X121920000Y-71120000D02*
X123444000Y-71120000D01*
X123444000Y-71628000D02*
X125476000Y-73660000D01*
X123444000Y-71120000D02*
X123444000Y-71628000D01*
X122936000Y-73660000D02*
X122936000Y-76200000D01*
X122936000Y-76200000D02*
X122936000Y-78740000D01*
X121920000Y-72644000D02*
X122936000Y-73660000D01*
X121920000Y-71628000D02*
X121920000Y-72644000D01*
X120396000Y-71628000D02*
X121920000Y-71628000D01*
X119380000Y-70612000D02*
X120396000Y-71628000D01*
X117856000Y-69596000D02*
X118872000Y-70612000D01*
X118872000Y-70612000D02*
X119380000Y-70612000D01*
X104648000Y-83820000D02*
X106680000Y-83820000D01*
X106680000Y-83820000D02*
X107188000Y-84328000D01*
X107188000Y-84328000D02*
X107950000Y-85090000D01*
X107950000Y-85090000D02*
X116840000Y-85090000D01*
X116840000Y-85090000D02*
X117348000Y-85598000D01*
X122936000Y-83000315D02*
X122936000Y-78740000D01*
X122936000Y-83566000D02*
X122936000Y-83000315D01*
X145288000Y-113538000D02*
X147828000Y-113538000D01*
X143764000Y-109982000D02*
X143764000Y-112014000D01*
X143764000Y-112014000D02*
X145288000Y-113538000D01*
X154686000Y-110998000D02*
X153162000Y-109474000D01*
X154686000Y-113538000D02*
X154686000Y-110998000D01*
X146558000Y-109474000D02*
X147574000Y-109474000D01*
X143764000Y-106680000D02*
X146558000Y-109474000D01*
X153162000Y-109474000D02*
X147574000Y-109474000D01*
X147574000Y-109474000D02*
X147320000Y-109474000D01*
X158496000Y-110490000D02*
X161544000Y-113538000D01*
X158496000Y-108458000D02*
X158496000Y-110490000D01*
X148336000Y-108458000D02*
X158496000Y-108458000D01*
X143764000Y-103378000D02*
X148336000Y-107950000D01*
X148336000Y-107950000D02*
X148336000Y-108458000D01*
X106680000Y-81280000D02*
X109474000Y-78486000D01*
X104648000Y-81280000D02*
X106680000Y-81280000D01*
X106680000Y-89408000D02*
X104648000Y-91440000D01*
X108966000Y-87122000D02*
X106680000Y-89408000D01*
X112014000Y-87122000D02*
X108966000Y-87122000D01*
X112776000Y-89154000D02*
X112776000Y-87884000D01*
X112776000Y-87884000D02*
X112014000Y-87122000D01*
X143821685Y-71882000D02*
X143256000Y-71882000D01*
X147760081Y-71882000D02*
X143821685Y-71882000D01*
X148844000Y-70798081D02*
X147760081Y-71882000D01*
X148844000Y-69596000D02*
X148844000Y-70798081D01*
X124714000Y-81026000D02*
X127000000Y-81026000D01*
X127000000Y-81172000D02*
X129648000Y-83820000D01*
X127000000Y-81026000D02*
X127000000Y-81172000D01*
X130850081Y-86360000D02*
X129648000Y-86360000D01*
X131826000Y-85384081D02*
X130850081Y-86360000D01*
X131826000Y-85344000D02*
X131826000Y-85384081D01*
X135636000Y-84328000D02*
X132842000Y-84328000D01*
X132842000Y-84328000D02*
X131826000Y-85344000D01*
X133604000Y-88900000D02*
X135636000Y-86868000D01*
X129648000Y-88900000D02*
X133604000Y-88900000D01*
X125984000Y-111760000D02*
X125984000Y-108712000D01*
X125984000Y-108712000D02*
X127000000Y-107696000D01*
X127000000Y-107696000D02*
X127000000Y-102870000D01*
X128270000Y-101600000D02*
X129648000Y-101600000D01*
X127000000Y-102870000D02*
X128270000Y-101600000D01*
X129648000Y-99060000D02*
X131629990Y-101041990D01*
X131629990Y-108007990D02*
X131629990Y-105721990D01*
X133604000Y-109982000D02*
X131629990Y-108007990D01*
X131629990Y-101041990D02*
X131629990Y-105721990D01*
X131629990Y-105721990D02*
X131629990Y-105975990D01*
X130850081Y-96520000D02*
X129648000Y-96520000D01*
X132080000Y-97749919D02*
X130850081Y-96520000D01*
X133604000Y-106680000D02*
X132080000Y-105156000D01*
X132080000Y-105156000D02*
X132080000Y-97749919D01*
X129648000Y-93980000D02*
X131318000Y-93980000D01*
X131318000Y-93980000D02*
X133604000Y-96266000D01*
X133604000Y-103378000D02*
X133604000Y-101092000D01*
X133604000Y-96266000D02*
X133604000Y-101092000D01*
X133604000Y-101092000D02*
X133604000Y-101346000D01*
X149178000Y-104702000D02*
X149178000Y-102928000D01*
X149178000Y-92202000D02*
X149178000Y-91541600D01*
X148064400Y-91694000D02*
X146304000Y-89933600D01*
X149178000Y-91694000D02*
X148064400Y-91694000D01*
X146304000Y-89933600D02*
X146304000Y-80772000D01*
X145288000Y-79756000D02*
X143002000Y-79756000D01*
X146304000Y-80772000D02*
X145288000Y-79756000D01*
X149178000Y-87938000D02*
X149178000Y-75438000D01*
X148670000Y-75946000D02*
X149178000Y-75438000D01*
X143002000Y-75946000D02*
X148670000Y-75946000D01*
X105908694Y-73660000D02*
X104648000Y-73660000D01*
X106421347Y-77465347D02*
X106421347Y-74172653D01*
X106421347Y-74172653D02*
X105908694Y-73660000D01*
X106426000Y-85852000D02*
X106426000Y-85344000D01*
X116078000Y-85852000D02*
X106426000Y-85852000D01*
X117856000Y-89154000D02*
X117856000Y-87630000D01*
X117856000Y-87630000D02*
X116078000Y-85852000D01*
X108204000Y-75946000D02*
X109474000Y-75946000D01*
X107950000Y-76200000D02*
X108204000Y-75946000D01*
X107950000Y-77724000D02*
X107950000Y-76200000D01*
X104648000Y-78740000D02*
X106934000Y-78740000D01*
X106934000Y-78740000D02*
X107950000Y-77724000D01*
X104648000Y-109220000D02*
X106172000Y-109220000D01*
X106934000Y-108458000D02*
X108204000Y-108458000D01*
X106172000Y-109220000D02*
X106934000Y-108458000D01*
X127508000Y-108820000D02*
X129648000Y-106680000D01*
X125984000Y-117348000D02*
X127508000Y-115824000D01*
X127508000Y-115824000D02*
X127508000Y-108820000D01*
X113646001Y-83420001D02*
X113646001Y-83166001D01*
X114046000Y-83820000D02*
X113646001Y-83420001D01*
X113646001Y-83166001D02*
X112268000Y-81788000D01*
X112268000Y-81788000D02*
X112268000Y-74422000D01*
X111252000Y-73406000D02*
X109474000Y-73406000D01*
X112268000Y-74422000D02*
X111252000Y-73406000D01*
X115024001Y-110960001D02*
X115824000Y-111760000D01*
X110781999Y-110960001D02*
X115024001Y-110960001D01*
X109982000Y-111760000D02*
X110781999Y-110960001D01*
M02*
