G04 #@! TF.GenerationSoftware,KiCad,Pcbnew,(5.1.2)-1*
G04 #@! TF.CreationDate,2024-09-19T10:13:49+01:00*
G04 #@! TF.ProjectId,ESP32_PCB03,45535033-325f-4504-9342-30332e6b6963,rev?*
G04 #@! TF.SameCoordinates,Original*
G04 #@! TF.FileFunction,Soldermask,Bot*
G04 #@! TF.FilePolarity,Negative*
%FSLAX46Y46*%
G04 Gerber Fmt 4.6, Leading zero omitted, Abs format (unit mm)*
G04 Created by KiCad (PCBNEW (5.1.2)-1) date 2024-09-19 10:13:49*
%MOMM*%
%LPD*%
G04 APERTURE LIST*
%ADD10C,0.150000*%
G04 APERTURE END LIST*
D10*
G36*
X113278228Y-117037703D02*
G01*
X113433100Y-117101853D01*
X113572481Y-117194985D01*
X113691015Y-117313519D01*
X113784147Y-117452900D01*
X113848297Y-117607772D01*
X113881000Y-117772184D01*
X113881000Y-117939816D01*
X113848297Y-118104228D01*
X113784147Y-118259100D01*
X113691015Y-118398481D01*
X113572481Y-118517015D01*
X113433100Y-118610147D01*
X113278228Y-118674297D01*
X113113816Y-118707000D01*
X112946184Y-118707000D01*
X112781772Y-118674297D01*
X112626900Y-118610147D01*
X112487519Y-118517015D01*
X112368985Y-118398481D01*
X112275853Y-118259100D01*
X112211703Y-118104228D01*
X112179000Y-117939816D01*
X112179000Y-117772184D01*
X112211703Y-117607772D01*
X112275853Y-117452900D01*
X112368985Y-117313519D01*
X112487519Y-117194985D01*
X112626900Y-117101853D01*
X112781772Y-117037703D01*
X112946184Y-117005000D01*
X113113816Y-117005000D01*
X113278228Y-117037703D01*
X113278228Y-117037703D01*
G37*
G36*
X126232228Y-116529703D02*
G01*
X126387100Y-116593853D01*
X126526481Y-116686985D01*
X126645015Y-116805519D01*
X126738147Y-116944900D01*
X126802297Y-117099772D01*
X126835000Y-117264184D01*
X126835000Y-117431816D01*
X126802297Y-117596228D01*
X126738147Y-117751100D01*
X126645015Y-117890481D01*
X126526481Y-118009015D01*
X126387100Y-118102147D01*
X126232228Y-118166297D01*
X126067816Y-118199000D01*
X125900184Y-118199000D01*
X125735772Y-118166297D01*
X125580900Y-118102147D01*
X125441519Y-118009015D01*
X125322985Y-117890481D01*
X125229853Y-117751100D01*
X125165703Y-117596228D01*
X125133000Y-117431816D01*
X125133000Y-117264184D01*
X125165703Y-117099772D01*
X125229853Y-116944900D01*
X125322985Y-116805519D01*
X125441519Y-116686985D01*
X125580900Y-116593853D01*
X125735772Y-116529703D01*
X125900184Y-116497000D01*
X126067816Y-116497000D01*
X126232228Y-116529703D01*
X126232228Y-116529703D01*
G37*
G36*
X115990823Y-116509313D02*
G01*
X116151242Y-116557976D01*
X116218361Y-116593852D01*
X116299078Y-116636996D01*
X116428659Y-116743341D01*
X116535004Y-116872922D01*
X116535005Y-116872924D01*
X116614024Y-117020758D01*
X116662687Y-117181177D01*
X116679117Y-117348000D01*
X116662687Y-117514823D01*
X116614024Y-117675242D01*
X116573477Y-117751100D01*
X116535004Y-117823078D01*
X116428659Y-117952659D01*
X116299078Y-118059004D01*
X116299076Y-118059005D01*
X116151242Y-118138024D01*
X115990823Y-118186687D01*
X115865804Y-118199000D01*
X115782196Y-118199000D01*
X115657177Y-118186687D01*
X115496758Y-118138024D01*
X115348924Y-118059005D01*
X115348922Y-118059004D01*
X115219341Y-117952659D01*
X115112996Y-117823078D01*
X115074523Y-117751100D01*
X115033976Y-117675242D01*
X114985313Y-117514823D01*
X114968883Y-117348000D01*
X114985313Y-117181177D01*
X115033976Y-117020758D01*
X115112995Y-116872924D01*
X115112996Y-116872922D01*
X115219341Y-116743341D01*
X115348922Y-116636996D01*
X115429639Y-116593852D01*
X115496758Y-116557976D01*
X115657177Y-116509313D01*
X115782196Y-116497000D01*
X115865804Y-116497000D01*
X115990823Y-116509313D01*
X115990823Y-116509313D01*
G37*
G36*
X129758442Y-115945518D02*
G01*
X129824627Y-115952037D01*
X129994466Y-116003557D01*
X130150991Y-116087222D01*
X130177527Y-116109000D01*
X130288186Y-116199814D01*
X130371448Y-116301271D01*
X130400778Y-116337009D01*
X130484443Y-116493534D01*
X130535963Y-116663373D01*
X130553359Y-116840000D01*
X130535963Y-117016627D01*
X130510741Y-117099772D01*
X130484442Y-117186468D01*
X130445539Y-117259250D01*
X130400778Y-117342991D01*
X130396667Y-117348000D01*
X130288186Y-117480186D01*
X130218725Y-117537190D01*
X130150991Y-117592778D01*
X129994466Y-117676443D01*
X129824627Y-117727963D01*
X129758442Y-117734482D01*
X129692260Y-117741000D01*
X129603740Y-117741000D01*
X129537558Y-117734482D01*
X129471373Y-117727963D01*
X129301534Y-117676443D01*
X129145009Y-117592778D01*
X129077275Y-117537190D01*
X129007814Y-117480186D01*
X128899333Y-117348000D01*
X128895222Y-117342991D01*
X128850461Y-117259250D01*
X128811558Y-117186468D01*
X128785259Y-117099772D01*
X128760037Y-117016627D01*
X128742641Y-116840000D01*
X128760037Y-116663373D01*
X128811557Y-116493534D01*
X128895222Y-116337009D01*
X128924552Y-116301271D01*
X129007814Y-116199814D01*
X129118473Y-116109000D01*
X129145009Y-116087222D01*
X129301534Y-116003557D01*
X129471373Y-115952037D01*
X129537558Y-115945518D01*
X129603740Y-115939000D01*
X129692260Y-115939000D01*
X129758442Y-115945518D01*
X129758442Y-115945518D01*
G37*
G36*
X104758442Y-115945518D02*
G01*
X104824627Y-115952037D01*
X104994466Y-116003557D01*
X105150991Y-116087222D01*
X105177527Y-116109000D01*
X105288186Y-116199814D01*
X105371448Y-116301271D01*
X105400778Y-116337009D01*
X105484443Y-116493534D01*
X105535963Y-116663373D01*
X105553359Y-116840000D01*
X105535963Y-117016627D01*
X105510741Y-117099772D01*
X105484442Y-117186468D01*
X105445539Y-117259250D01*
X105400778Y-117342991D01*
X105396667Y-117348000D01*
X105288186Y-117480186D01*
X105218725Y-117537190D01*
X105150991Y-117592778D01*
X104994466Y-117676443D01*
X104824627Y-117727963D01*
X104758442Y-117734482D01*
X104692260Y-117741000D01*
X104603740Y-117741000D01*
X104537558Y-117734482D01*
X104471373Y-117727963D01*
X104301534Y-117676443D01*
X104145009Y-117592778D01*
X104077275Y-117537190D01*
X104007814Y-117480186D01*
X103899333Y-117348000D01*
X103895222Y-117342991D01*
X103850461Y-117259250D01*
X103811558Y-117186468D01*
X103785259Y-117099772D01*
X103760037Y-117016627D01*
X103742641Y-116840000D01*
X103760037Y-116663373D01*
X103811557Y-116493534D01*
X103895222Y-116337009D01*
X103924552Y-116301271D01*
X104007814Y-116199814D01*
X104118473Y-116109000D01*
X104145009Y-116087222D01*
X104301534Y-116003557D01*
X104471373Y-115952037D01*
X104537558Y-115945518D01*
X104603740Y-115939000D01*
X104692260Y-115939000D01*
X104758442Y-115945518D01*
X104758442Y-115945518D01*
G37*
G36*
X110055665Y-116092622D02*
G01*
X110129222Y-116099867D01*
X110270786Y-116142810D01*
X110401252Y-116212546D01*
X110431040Y-116236992D01*
X110515607Y-116306393D01*
X110585008Y-116390960D01*
X110609454Y-116420748D01*
X110679190Y-116551214D01*
X110722133Y-116692778D01*
X110736633Y-116840000D01*
X110722133Y-116987222D01*
X110679190Y-117128786D01*
X110609454Y-117259252D01*
X110585008Y-117289040D01*
X110515607Y-117373607D01*
X110444677Y-117431816D01*
X110401252Y-117467454D01*
X110270786Y-117537190D01*
X110129222Y-117580133D01*
X110055665Y-117587378D01*
X110018888Y-117591000D01*
X109945112Y-117591000D01*
X109908335Y-117587378D01*
X109834778Y-117580133D01*
X109693214Y-117537190D01*
X109562748Y-117467454D01*
X109519323Y-117431816D01*
X109448393Y-117373607D01*
X109378992Y-117289040D01*
X109354546Y-117259252D01*
X109284810Y-117128786D01*
X109241867Y-116987222D01*
X109227367Y-116840000D01*
X109241867Y-116692778D01*
X109284810Y-116551214D01*
X109354546Y-116420748D01*
X109378992Y-116390960D01*
X109448393Y-116306393D01*
X109532960Y-116236992D01*
X109562748Y-116212546D01*
X109693214Y-116142810D01*
X109834778Y-116099867D01*
X109908335Y-116092622D01*
X109945112Y-116089000D01*
X110018888Y-116089000D01*
X110055665Y-116092622D01*
X110055665Y-116092622D01*
G37*
G36*
X139317487Y-113556996D02*
G01*
X139497753Y-113631665D01*
X139554255Y-113655069D01*
X139767339Y-113797447D01*
X139948553Y-113978661D01*
X140059181Y-114144227D01*
X140090932Y-114191747D01*
X140189004Y-114428513D01*
X140239000Y-114679861D01*
X140239000Y-114936139D01*
X140189004Y-115187487D01*
X140090932Y-115424253D01*
X140090931Y-115424255D01*
X139948553Y-115637339D01*
X139767339Y-115818553D01*
X139554255Y-115960931D01*
X139554254Y-115960932D01*
X139554253Y-115960932D01*
X139317487Y-116059004D01*
X139066139Y-116109000D01*
X138809861Y-116109000D01*
X138558513Y-116059004D01*
X138321747Y-115960932D01*
X138321746Y-115960932D01*
X138321745Y-115960931D01*
X138108661Y-115818553D01*
X137927447Y-115637339D01*
X137785069Y-115424255D01*
X137785068Y-115424253D01*
X137686996Y-115187487D01*
X137637000Y-114936139D01*
X137637000Y-114679861D01*
X137686996Y-114428513D01*
X137785068Y-114191747D01*
X137816820Y-114144227D01*
X137927447Y-113978661D01*
X138108661Y-113797447D01*
X138321745Y-113655069D01*
X138378247Y-113631665D01*
X138558513Y-113556996D01*
X138809861Y-113507000D01*
X139066139Y-113507000D01*
X139317487Y-113556996D01*
X139317487Y-113556996D01*
G37*
G36*
X129758443Y-113405519D02*
G01*
X129824627Y-113412037D01*
X129994466Y-113463557D01*
X130150991Y-113547222D01*
X130186729Y-113576552D01*
X130288186Y-113659814D01*
X130371448Y-113761271D01*
X130400778Y-113797009D01*
X130484443Y-113953534D01*
X130535963Y-114123373D01*
X130553359Y-114300000D01*
X130535963Y-114476627D01*
X130484443Y-114646466D01*
X130400778Y-114802991D01*
X130371448Y-114838729D01*
X130288186Y-114940186D01*
X130186729Y-115023448D01*
X130150991Y-115052778D01*
X129994466Y-115136443D01*
X129824627Y-115187963D01*
X129758442Y-115194482D01*
X129692260Y-115201000D01*
X129603740Y-115201000D01*
X129537558Y-115194482D01*
X129471373Y-115187963D01*
X129301534Y-115136443D01*
X129145009Y-115052778D01*
X129109271Y-115023448D01*
X129007814Y-114940186D01*
X128924552Y-114838729D01*
X128895222Y-114802991D01*
X128811557Y-114646466D01*
X128760037Y-114476627D01*
X128742641Y-114300000D01*
X128760037Y-114123373D01*
X128811557Y-113953534D01*
X128895222Y-113797009D01*
X128924552Y-113761271D01*
X129007814Y-113659814D01*
X129109271Y-113576552D01*
X129145009Y-113547222D01*
X129301534Y-113463557D01*
X129471373Y-113412037D01*
X129537557Y-113405519D01*
X129603740Y-113399000D01*
X129692260Y-113399000D01*
X129758443Y-113405519D01*
X129758443Y-113405519D01*
G37*
G36*
X104758443Y-113405519D02*
G01*
X104824627Y-113412037D01*
X104994466Y-113463557D01*
X105150991Y-113547222D01*
X105186729Y-113576552D01*
X105288186Y-113659814D01*
X105371448Y-113761271D01*
X105400778Y-113797009D01*
X105484443Y-113953534D01*
X105535963Y-114123373D01*
X105553359Y-114300000D01*
X105535963Y-114476627D01*
X105484443Y-114646466D01*
X105400778Y-114802991D01*
X105371448Y-114838729D01*
X105288186Y-114940186D01*
X105186729Y-115023448D01*
X105150991Y-115052778D01*
X104994466Y-115136443D01*
X104824627Y-115187963D01*
X104758442Y-115194482D01*
X104692260Y-115201000D01*
X104603740Y-115201000D01*
X104537558Y-115194482D01*
X104471373Y-115187963D01*
X104301534Y-115136443D01*
X104145009Y-115052778D01*
X104109271Y-115023448D01*
X104007814Y-114940186D01*
X103924552Y-114838729D01*
X103895222Y-114802991D01*
X103811557Y-114646466D01*
X103760037Y-114476627D01*
X103742641Y-114300000D01*
X103760037Y-114123373D01*
X103811557Y-113953534D01*
X103895222Y-113797009D01*
X103924552Y-113761271D01*
X104007814Y-113659814D01*
X104109271Y-113576552D01*
X104145009Y-113547222D01*
X104301534Y-113463557D01*
X104471373Y-113412037D01*
X104537557Y-113405519D01*
X104603740Y-113399000D01*
X104692260Y-113399000D01*
X104758443Y-113405519D01*
X104758443Y-113405519D01*
G37*
G36*
X148105395Y-112623546D02*
G01*
X148278466Y-112695234D01*
X148278467Y-112695235D01*
X148434227Y-112799310D01*
X148566690Y-112931773D01*
X148566691Y-112931775D01*
X148670766Y-113087534D01*
X148742454Y-113260605D01*
X148779000Y-113444333D01*
X148779000Y-113631667D01*
X148742454Y-113815395D01*
X148670766Y-113988466D01*
X148670765Y-113988467D01*
X148566690Y-114144227D01*
X148434227Y-114276690D01*
X148399341Y-114300000D01*
X148278466Y-114380766D01*
X148105395Y-114452454D01*
X147921667Y-114489000D01*
X147734333Y-114489000D01*
X147550605Y-114452454D01*
X147377534Y-114380766D01*
X147256659Y-114300000D01*
X147221773Y-114276690D01*
X147089310Y-114144227D01*
X146985235Y-113988467D01*
X146985234Y-113988466D01*
X146913546Y-113815395D01*
X146877000Y-113631667D01*
X146877000Y-113444333D01*
X146913546Y-113260605D01*
X146985234Y-113087534D01*
X147089309Y-112931775D01*
X147089310Y-112931773D01*
X147221773Y-112799310D01*
X147377533Y-112695235D01*
X147377534Y-112695234D01*
X147550605Y-112623546D01*
X147734333Y-112587000D01*
X147921667Y-112587000D01*
X148105395Y-112623546D01*
X148105395Y-112623546D01*
G37*
G36*
X165035000Y-114489000D02*
G01*
X163133000Y-114489000D01*
X163133000Y-112587000D01*
X165035000Y-112587000D01*
X165035000Y-114489000D01*
X165035000Y-114489000D01*
G37*
G36*
X151319000Y-114489000D02*
G01*
X149417000Y-114489000D01*
X149417000Y-112587000D01*
X151319000Y-112587000D01*
X151319000Y-114489000D01*
X151319000Y-114489000D01*
G37*
G36*
X158177000Y-114489000D02*
G01*
X156275000Y-114489000D01*
X156275000Y-112587000D01*
X158177000Y-112587000D01*
X158177000Y-114489000D01*
X158177000Y-114489000D01*
G37*
G36*
X154963395Y-112623546D02*
G01*
X155136466Y-112695234D01*
X155136467Y-112695235D01*
X155292227Y-112799310D01*
X155424690Y-112931773D01*
X155424691Y-112931775D01*
X155528766Y-113087534D01*
X155600454Y-113260605D01*
X155637000Y-113444333D01*
X155637000Y-113631667D01*
X155600454Y-113815395D01*
X155528766Y-113988466D01*
X155528765Y-113988467D01*
X155424690Y-114144227D01*
X155292227Y-114276690D01*
X155257341Y-114300000D01*
X155136466Y-114380766D01*
X154963395Y-114452454D01*
X154779667Y-114489000D01*
X154592333Y-114489000D01*
X154408605Y-114452454D01*
X154235534Y-114380766D01*
X154114659Y-114300000D01*
X154079773Y-114276690D01*
X153947310Y-114144227D01*
X153843235Y-113988467D01*
X153843234Y-113988466D01*
X153771546Y-113815395D01*
X153735000Y-113631667D01*
X153735000Y-113444333D01*
X153771546Y-113260605D01*
X153843234Y-113087534D01*
X153947309Y-112931775D01*
X153947310Y-112931773D01*
X154079773Y-112799310D01*
X154235533Y-112695235D01*
X154235534Y-112695234D01*
X154408605Y-112623546D01*
X154592333Y-112587000D01*
X154779667Y-112587000D01*
X154963395Y-112623546D01*
X154963395Y-112623546D01*
G37*
G36*
X161821395Y-112623546D02*
G01*
X161994466Y-112695234D01*
X161994467Y-112695235D01*
X162150227Y-112799310D01*
X162282690Y-112931773D01*
X162282691Y-112931775D01*
X162386766Y-113087534D01*
X162458454Y-113260605D01*
X162495000Y-113444333D01*
X162495000Y-113631667D01*
X162458454Y-113815395D01*
X162386766Y-113988466D01*
X162386765Y-113988467D01*
X162282690Y-114144227D01*
X162150227Y-114276690D01*
X162115341Y-114300000D01*
X161994466Y-114380766D01*
X161821395Y-114452454D01*
X161637667Y-114489000D01*
X161450333Y-114489000D01*
X161266605Y-114452454D01*
X161093534Y-114380766D01*
X160972659Y-114300000D01*
X160937773Y-114276690D01*
X160805310Y-114144227D01*
X160701235Y-113988467D01*
X160701234Y-113988466D01*
X160629546Y-113815395D01*
X160593000Y-113631667D01*
X160593000Y-113444333D01*
X160629546Y-113260605D01*
X160701234Y-113087534D01*
X160805309Y-112931775D01*
X160805310Y-112931773D01*
X160937773Y-112799310D01*
X161093533Y-112695235D01*
X161093534Y-112695234D01*
X161266605Y-112623546D01*
X161450333Y-112587000D01*
X161637667Y-112587000D01*
X161821395Y-112623546D01*
X161821395Y-112623546D01*
G37*
G36*
X113278228Y-112037703D02*
G01*
X113433100Y-112101853D01*
X113572481Y-112194985D01*
X113691015Y-112313519D01*
X113784147Y-112452900D01*
X113848297Y-112607772D01*
X113881000Y-112772184D01*
X113881000Y-112939816D01*
X113848297Y-113104228D01*
X113784147Y-113259100D01*
X113691015Y-113398481D01*
X113572481Y-113517015D01*
X113433100Y-113610147D01*
X113278228Y-113674297D01*
X113113816Y-113707000D01*
X112946184Y-113707000D01*
X112781772Y-113674297D01*
X112626900Y-113610147D01*
X112487519Y-113517015D01*
X112368985Y-113398481D01*
X112275853Y-113259100D01*
X112211703Y-113104228D01*
X112179000Y-112939816D01*
X112179000Y-112772184D01*
X112211703Y-112607772D01*
X112275853Y-112452900D01*
X112368985Y-112313519D01*
X112487519Y-112194985D01*
X112626900Y-112101853D01*
X112781772Y-112037703D01*
X112946184Y-112005000D01*
X113113816Y-112005000D01*
X113278228Y-112037703D01*
X113278228Y-112037703D01*
G37*
G36*
X104758442Y-110865518D02*
G01*
X104824627Y-110872037D01*
X104994466Y-110923557D01*
X105150991Y-111007222D01*
X105153157Y-111009000D01*
X105288186Y-111119814D01*
X105368369Y-111217519D01*
X105400778Y-111257009D01*
X105484443Y-111413534D01*
X105535963Y-111583373D01*
X105553359Y-111760000D01*
X105535963Y-111936627D01*
X105484443Y-112106466D01*
X105400778Y-112262991D01*
X105371448Y-112298729D01*
X105288186Y-112400186D01*
X105188323Y-112482140D01*
X105150991Y-112512778D01*
X105150989Y-112512779D01*
X105012133Y-112587000D01*
X104994466Y-112596443D01*
X104824627Y-112647963D01*
X104758442Y-112654482D01*
X104692260Y-112661000D01*
X104603740Y-112661000D01*
X104537558Y-112654482D01*
X104471373Y-112647963D01*
X104301534Y-112596443D01*
X104283868Y-112587000D01*
X104145011Y-112512779D01*
X104145009Y-112512778D01*
X104107677Y-112482140D01*
X104007814Y-112400186D01*
X103924552Y-112298729D01*
X103895222Y-112262991D01*
X103811557Y-112106466D01*
X103760037Y-111936627D01*
X103742641Y-111760000D01*
X103760037Y-111583373D01*
X103811557Y-111413534D01*
X103895222Y-111257009D01*
X103927631Y-111217519D01*
X104007814Y-111119814D01*
X104142843Y-111009000D01*
X104145009Y-111007222D01*
X104301534Y-110923557D01*
X104471373Y-110872037D01*
X104537558Y-110865518D01*
X104603740Y-110859000D01*
X104692260Y-110859000D01*
X104758442Y-110865518D01*
X104758442Y-110865518D01*
G37*
G36*
X129758442Y-110865518D02*
G01*
X129824627Y-110872037D01*
X129994466Y-110923557D01*
X130150991Y-111007222D01*
X130153157Y-111009000D01*
X130288186Y-111119814D01*
X130368369Y-111217519D01*
X130400778Y-111257009D01*
X130484443Y-111413534D01*
X130535963Y-111583373D01*
X130553359Y-111760000D01*
X130535963Y-111936627D01*
X130484443Y-112106466D01*
X130400778Y-112262991D01*
X130371448Y-112298729D01*
X130288186Y-112400186D01*
X130188323Y-112482140D01*
X130150991Y-112512778D01*
X130150989Y-112512779D01*
X130012133Y-112587000D01*
X129994466Y-112596443D01*
X129824627Y-112647963D01*
X129758442Y-112654482D01*
X129692260Y-112661000D01*
X129603740Y-112661000D01*
X129537558Y-112654482D01*
X129471373Y-112647963D01*
X129301534Y-112596443D01*
X129283868Y-112587000D01*
X129145011Y-112512779D01*
X129145009Y-112512778D01*
X129107677Y-112482140D01*
X129007814Y-112400186D01*
X128924552Y-112298729D01*
X128895222Y-112262991D01*
X128811557Y-112106466D01*
X128760037Y-111936627D01*
X128742641Y-111760000D01*
X128760037Y-111583373D01*
X128811557Y-111413534D01*
X128895222Y-111257009D01*
X128927631Y-111217519D01*
X129007814Y-111119814D01*
X129142843Y-111009000D01*
X129145009Y-111007222D01*
X129301534Y-110923557D01*
X129471373Y-110872037D01*
X129537558Y-110865518D01*
X129603740Y-110859000D01*
X129692260Y-110859000D01*
X129758442Y-110865518D01*
X129758442Y-110865518D01*
G37*
G36*
X115990823Y-110921313D02*
G01*
X116151242Y-110969976D01*
X116278244Y-111037860D01*
X116299078Y-111048996D01*
X116428659Y-111155341D01*
X116535004Y-111284922D01*
X116535005Y-111284924D01*
X116614024Y-111432758D01*
X116662687Y-111593177D01*
X116679117Y-111760000D01*
X116662687Y-111926823D01*
X116614024Y-112087242D01*
X116573477Y-112163100D01*
X116535004Y-112235078D01*
X116428659Y-112364659D01*
X116299078Y-112471004D01*
X116299076Y-112471005D01*
X116151242Y-112550024D01*
X115990823Y-112598687D01*
X115865804Y-112611000D01*
X115782196Y-112611000D01*
X115657177Y-112598687D01*
X115496758Y-112550024D01*
X115348924Y-112471005D01*
X115348922Y-112471004D01*
X115219341Y-112364659D01*
X115112996Y-112235078D01*
X115074523Y-112163100D01*
X115033976Y-112087242D01*
X114985313Y-111926823D01*
X114968883Y-111760000D01*
X114985313Y-111593177D01*
X115033976Y-111432758D01*
X115112995Y-111284924D01*
X115112996Y-111284922D01*
X115219341Y-111155341D01*
X115348922Y-111048996D01*
X115369756Y-111037860D01*
X115496758Y-110969976D01*
X115657177Y-110921313D01*
X115782196Y-110909000D01*
X115865804Y-110909000D01*
X115990823Y-110921313D01*
X115990823Y-110921313D01*
G37*
G36*
X126232228Y-110941703D02*
G01*
X126387100Y-111005853D01*
X126526481Y-111098985D01*
X126645015Y-111217519D01*
X126738147Y-111356900D01*
X126802297Y-111511772D01*
X126835000Y-111676184D01*
X126835000Y-111843816D01*
X126802297Y-112008228D01*
X126738147Y-112163100D01*
X126645015Y-112302481D01*
X126526481Y-112421015D01*
X126387100Y-112514147D01*
X126232228Y-112578297D01*
X126067816Y-112611000D01*
X125900184Y-112611000D01*
X125735772Y-112578297D01*
X125580900Y-112514147D01*
X125441519Y-112421015D01*
X125322985Y-112302481D01*
X125229853Y-112163100D01*
X125165703Y-112008228D01*
X125133000Y-111843816D01*
X125133000Y-111676184D01*
X125165703Y-111511772D01*
X125229853Y-111356900D01*
X125322985Y-111217519D01*
X125441519Y-111098985D01*
X125580900Y-111005853D01*
X125735772Y-110941703D01*
X125900184Y-110909000D01*
X126067816Y-110909000D01*
X126232228Y-110941703D01*
X126232228Y-110941703D01*
G37*
G36*
X110201059Y-111037860D02*
G01*
X110337732Y-111094472D01*
X110460735Y-111176660D01*
X110565340Y-111281265D01*
X110647528Y-111404268D01*
X110647529Y-111404270D01*
X110704140Y-111540941D01*
X110733000Y-111686032D01*
X110733000Y-111833968D01*
X110712580Y-111936627D01*
X110704140Y-111979059D01*
X110647528Y-112115732D01*
X110565340Y-112238735D01*
X110460735Y-112343340D01*
X110337732Y-112425528D01*
X110337731Y-112425529D01*
X110337730Y-112425529D01*
X110201059Y-112482140D01*
X110055968Y-112511000D01*
X109908032Y-112511000D01*
X109762941Y-112482140D01*
X109626270Y-112425529D01*
X109626269Y-112425529D01*
X109626268Y-112425528D01*
X109503265Y-112343340D01*
X109398660Y-112238735D01*
X109316472Y-112115732D01*
X109259860Y-111979059D01*
X109251420Y-111936627D01*
X109231000Y-111833968D01*
X109231000Y-111686032D01*
X109259860Y-111540941D01*
X109316471Y-111404270D01*
X109316472Y-111404268D01*
X109398660Y-111281265D01*
X109503265Y-111176660D01*
X109626268Y-111094472D01*
X109762941Y-111037860D01*
X109908032Y-111009000D01*
X110055968Y-111009000D01*
X110201059Y-111037860D01*
X110201059Y-111037860D01*
G37*
G36*
X133852228Y-109163703D02*
G01*
X134007100Y-109227853D01*
X134146481Y-109320985D01*
X134265015Y-109439519D01*
X134358147Y-109578900D01*
X134422297Y-109733772D01*
X134455000Y-109898184D01*
X134455000Y-110065816D01*
X134422297Y-110230228D01*
X134358147Y-110385100D01*
X134265015Y-110524481D01*
X134146481Y-110643015D01*
X134007100Y-110736147D01*
X133852228Y-110800297D01*
X133687816Y-110833000D01*
X133520184Y-110833000D01*
X133355772Y-110800297D01*
X133200900Y-110736147D01*
X133061519Y-110643015D01*
X132942985Y-110524481D01*
X132849853Y-110385100D01*
X132785703Y-110230228D01*
X132753000Y-110065816D01*
X132753000Y-109898184D01*
X132785703Y-109733772D01*
X132849853Y-109578900D01*
X132942985Y-109439519D01*
X133061519Y-109320985D01*
X133200900Y-109227853D01*
X133355772Y-109163703D01*
X133520184Y-109131000D01*
X133687816Y-109131000D01*
X133852228Y-109163703D01*
X133852228Y-109163703D01*
G37*
G36*
X143930823Y-109143313D02*
G01*
X144091242Y-109191976D01*
X144158361Y-109227852D01*
X144239078Y-109270996D01*
X144368659Y-109377341D01*
X144475004Y-109506922D01*
X144475005Y-109506924D01*
X144554024Y-109654758D01*
X144602687Y-109815177D01*
X144619117Y-109982000D01*
X144602687Y-110148823D01*
X144554024Y-110309242D01*
X144513477Y-110385100D01*
X144475004Y-110457078D01*
X144368659Y-110586659D01*
X144239078Y-110693004D01*
X144239076Y-110693005D01*
X144091242Y-110772024D01*
X143930823Y-110820687D01*
X143805804Y-110833000D01*
X143722196Y-110833000D01*
X143597177Y-110820687D01*
X143436758Y-110772024D01*
X143288924Y-110693005D01*
X143288922Y-110693004D01*
X143159341Y-110586659D01*
X143052996Y-110457078D01*
X143014523Y-110385100D01*
X142973976Y-110309242D01*
X142925313Y-110148823D01*
X142908883Y-109982000D01*
X142925313Y-109815177D01*
X142973976Y-109654758D01*
X143052995Y-109506924D01*
X143052996Y-109506922D01*
X143159341Y-109377341D01*
X143288922Y-109270996D01*
X143369639Y-109227852D01*
X143436758Y-109191976D01*
X143597177Y-109143313D01*
X143722196Y-109131000D01*
X143805804Y-109131000D01*
X143930823Y-109143313D01*
X143930823Y-109143313D01*
G37*
G36*
X129758443Y-108325519D02*
G01*
X129824627Y-108332037D01*
X129994466Y-108383557D01*
X130150991Y-108467222D01*
X130186729Y-108496552D01*
X130288186Y-108579814D01*
X130371448Y-108681271D01*
X130400778Y-108717009D01*
X130484443Y-108873534D01*
X130535963Y-109043373D01*
X130553359Y-109220000D01*
X130535963Y-109396627D01*
X130484443Y-109566466D01*
X130400778Y-109722991D01*
X130391931Y-109733771D01*
X130288186Y-109860186D01*
X130186729Y-109943448D01*
X130150991Y-109972778D01*
X129994466Y-110056443D01*
X129824627Y-110107963D01*
X129758443Y-110114481D01*
X129692260Y-110121000D01*
X129603740Y-110121000D01*
X129537557Y-110114481D01*
X129471373Y-110107963D01*
X129301534Y-110056443D01*
X129145009Y-109972778D01*
X129109271Y-109943448D01*
X129007814Y-109860186D01*
X128904069Y-109733771D01*
X128895222Y-109722991D01*
X128811557Y-109566466D01*
X128760037Y-109396627D01*
X128742641Y-109220000D01*
X128760037Y-109043373D01*
X128811557Y-108873534D01*
X128895222Y-108717009D01*
X128924552Y-108681271D01*
X129007814Y-108579814D01*
X129109271Y-108496552D01*
X129145009Y-108467222D01*
X129301534Y-108383557D01*
X129471373Y-108332037D01*
X129537557Y-108325519D01*
X129603740Y-108319000D01*
X129692260Y-108319000D01*
X129758443Y-108325519D01*
X129758443Y-108325519D01*
G37*
G36*
X104758443Y-108325519D02*
G01*
X104824627Y-108332037D01*
X104994466Y-108383557D01*
X105150991Y-108467222D01*
X105186729Y-108496552D01*
X105288186Y-108579814D01*
X105371448Y-108681271D01*
X105400778Y-108717009D01*
X105484443Y-108873534D01*
X105535963Y-109043373D01*
X105553359Y-109220000D01*
X105535963Y-109396627D01*
X105484443Y-109566466D01*
X105400778Y-109722991D01*
X105391931Y-109733771D01*
X105288186Y-109860186D01*
X105186729Y-109943448D01*
X105150991Y-109972778D01*
X104994466Y-110056443D01*
X104824627Y-110107963D01*
X104758443Y-110114481D01*
X104692260Y-110121000D01*
X104603740Y-110121000D01*
X104537557Y-110114481D01*
X104471373Y-110107963D01*
X104301534Y-110056443D01*
X104145009Y-109972778D01*
X104109271Y-109943448D01*
X104007814Y-109860186D01*
X103904069Y-109733771D01*
X103895222Y-109722991D01*
X103811557Y-109566466D01*
X103760037Y-109396627D01*
X103742641Y-109220000D01*
X103760037Y-109043373D01*
X103811557Y-108873534D01*
X103895222Y-108717009D01*
X103924552Y-108681271D01*
X104007814Y-108579814D01*
X104109271Y-108496552D01*
X104145009Y-108467222D01*
X104301534Y-108383557D01*
X104471373Y-108332037D01*
X104537557Y-108325519D01*
X104603740Y-108319000D01*
X104692260Y-108319000D01*
X104758443Y-108325519D01*
X104758443Y-108325519D01*
G37*
G36*
X121406228Y-107639703D02*
G01*
X121561100Y-107703853D01*
X121700481Y-107796985D01*
X121819015Y-107915519D01*
X121912147Y-108054900D01*
X121976297Y-108209772D01*
X122009000Y-108374184D01*
X122009000Y-108541816D01*
X121976297Y-108706228D01*
X121912147Y-108861100D01*
X121819015Y-109000481D01*
X121700481Y-109119015D01*
X121561100Y-109212147D01*
X121406228Y-109276297D01*
X121241816Y-109309000D01*
X121074184Y-109309000D01*
X120909772Y-109276297D01*
X120754900Y-109212147D01*
X120615519Y-109119015D01*
X120496985Y-109000481D01*
X120403853Y-108861100D01*
X120339703Y-108706228D01*
X120307000Y-108541816D01*
X120307000Y-108374184D01*
X120339703Y-108209772D01*
X120403853Y-108054900D01*
X120496985Y-107915519D01*
X120615519Y-107796985D01*
X120754900Y-107703853D01*
X120909772Y-107639703D01*
X121074184Y-107607000D01*
X121241816Y-107607000D01*
X121406228Y-107639703D01*
X121406228Y-107639703D01*
G37*
G36*
X118530823Y-107619313D02*
G01*
X118691242Y-107667976D01*
X118758361Y-107703852D01*
X118839078Y-107746996D01*
X118968659Y-107853341D01*
X119075004Y-107982922D01*
X119075005Y-107982924D01*
X119154024Y-108130758D01*
X119202687Y-108291177D01*
X119219117Y-108458000D01*
X119202687Y-108624823D01*
X119154024Y-108785242D01*
X119113477Y-108861100D01*
X119075004Y-108933078D01*
X118968659Y-109062659D01*
X118839078Y-109169004D01*
X118839076Y-109169005D01*
X118691242Y-109248024D01*
X118530823Y-109296687D01*
X118405804Y-109309000D01*
X118322196Y-109309000D01*
X118197177Y-109296687D01*
X118036758Y-109248024D01*
X117888924Y-109169005D01*
X117888922Y-109169004D01*
X117759341Y-109062659D01*
X117652996Y-108933078D01*
X117614523Y-108861100D01*
X117573976Y-108785242D01*
X117525313Y-108624823D01*
X117508883Y-108458000D01*
X117525313Y-108291177D01*
X117573976Y-108130758D01*
X117652995Y-107982924D01*
X117652996Y-107982922D01*
X117759341Y-107853341D01*
X117888922Y-107746996D01*
X117969639Y-107703852D01*
X118036758Y-107667976D01*
X118197177Y-107619313D01*
X118322196Y-107607000D01*
X118405804Y-107607000D01*
X118530823Y-107619313D01*
X118530823Y-107619313D01*
G37*
G36*
X108452228Y-107639703D02*
G01*
X108607100Y-107703853D01*
X108746481Y-107796985D01*
X108865015Y-107915519D01*
X108958147Y-108054900D01*
X109022297Y-108209772D01*
X109055000Y-108374184D01*
X109055000Y-108541816D01*
X109022297Y-108706228D01*
X108958147Y-108861100D01*
X108865015Y-109000481D01*
X108746481Y-109119015D01*
X108607100Y-109212147D01*
X108452228Y-109276297D01*
X108287816Y-109309000D01*
X108120184Y-109309000D01*
X107955772Y-109276297D01*
X107800900Y-109212147D01*
X107661519Y-109119015D01*
X107542985Y-109000481D01*
X107449853Y-108861100D01*
X107385703Y-108706228D01*
X107353000Y-108541816D01*
X107353000Y-108374184D01*
X107385703Y-108209772D01*
X107449853Y-108054900D01*
X107542985Y-107915519D01*
X107661519Y-107796985D01*
X107800900Y-107703853D01*
X107955772Y-107639703D01*
X108120184Y-107607000D01*
X108287816Y-107607000D01*
X108452228Y-107639703D01*
X108452228Y-107639703D01*
G37*
G36*
X124933059Y-106485860D02*
G01*
X125069732Y-106542472D01*
X125192735Y-106624660D01*
X125297340Y-106729265D01*
X125375891Y-106846825D01*
X125379529Y-106852270D01*
X125436140Y-106988941D01*
X125465000Y-107134032D01*
X125465000Y-107281968D01*
X125436140Y-107427059D01*
X125404526Y-107503383D01*
X125379528Y-107563732D01*
X125297340Y-107686735D01*
X125192735Y-107791340D01*
X125069732Y-107873528D01*
X125069731Y-107873529D01*
X125069730Y-107873529D01*
X124933059Y-107930140D01*
X124787968Y-107959000D01*
X124640032Y-107959000D01*
X124494941Y-107930140D01*
X124358270Y-107873529D01*
X124358269Y-107873529D01*
X124358268Y-107873528D01*
X124235265Y-107791340D01*
X124130660Y-107686735D01*
X124048472Y-107563732D01*
X124023475Y-107503383D01*
X123991860Y-107427059D01*
X123963000Y-107281968D01*
X123963000Y-107134032D01*
X123991860Y-106988941D01*
X124048471Y-106852270D01*
X124052109Y-106846825D01*
X124130660Y-106729265D01*
X124235265Y-106624660D01*
X124358268Y-106542472D01*
X124494941Y-106485860D01*
X124640032Y-106457000D01*
X124787968Y-106457000D01*
X124933059Y-106485860D01*
X124933059Y-106485860D01*
G37*
G36*
X163214600Y-105782989D02*
G01*
X163247652Y-105793015D01*
X163278103Y-105809292D01*
X163304799Y-105831201D01*
X163326708Y-105857897D01*
X163342985Y-105888348D01*
X163353011Y-105921400D01*
X163357000Y-105961903D01*
X163357000Y-107398097D01*
X163353011Y-107438600D01*
X163342985Y-107471652D01*
X163326708Y-107502103D01*
X163304799Y-107528799D01*
X163278103Y-107550708D01*
X163247652Y-107566985D01*
X163214600Y-107577011D01*
X163174097Y-107581000D01*
X161437903Y-107581000D01*
X161397400Y-107577011D01*
X161364348Y-107566985D01*
X161333897Y-107550708D01*
X161307201Y-107528799D01*
X161285292Y-107502103D01*
X161269015Y-107471652D01*
X161258989Y-107438600D01*
X161255000Y-107398097D01*
X161255000Y-105961903D01*
X161258989Y-105921400D01*
X161269015Y-105888348D01*
X161285292Y-105857897D01*
X161307201Y-105831201D01*
X161333897Y-105809292D01*
X161364348Y-105793015D01*
X161397400Y-105782989D01*
X161437903Y-105779000D01*
X163174097Y-105779000D01*
X163214600Y-105782989D01*
X163214600Y-105782989D01*
G37*
G36*
X129732760Y-105782989D02*
G01*
X129824627Y-105792037D01*
X129994466Y-105843557D01*
X130150991Y-105927222D01*
X130186729Y-105956552D01*
X130288186Y-106039814D01*
X130368369Y-106137519D01*
X130400778Y-106177009D01*
X130484443Y-106333534D01*
X130535963Y-106503373D01*
X130553359Y-106680000D01*
X130535963Y-106856627D01*
X130484443Y-107026466D01*
X130400778Y-107182991D01*
X130371448Y-107218729D01*
X130288186Y-107320186D01*
X130193250Y-107398097D01*
X130150991Y-107432778D01*
X129994466Y-107516443D01*
X129824627Y-107567963D01*
X129758443Y-107574481D01*
X129692260Y-107581000D01*
X129603740Y-107581000D01*
X129537557Y-107574481D01*
X129471373Y-107567963D01*
X129301534Y-107516443D01*
X129145009Y-107432778D01*
X129102750Y-107398097D01*
X129007814Y-107320186D01*
X128924552Y-107218729D01*
X128895222Y-107182991D01*
X128811557Y-107026466D01*
X128760037Y-106856627D01*
X128742641Y-106680000D01*
X128760037Y-106503373D01*
X128811557Y-106333534D01*
X128895222Y-106177009D01*
X128927631Y-106137519D01*
X129007814Y-106039814D01*
X129109271Y-105956552D01*
X129145009Y-105927222D01*
X129301534Y-105843557D01*
X129471373Y-105792037D01*
X129563240Y-105782989D01*
X129603740Y-105779000D01*
X129692260Y-105779000D01*
X129732760Y-105782989D01*
X129732760Y-105782989D01*
G37*
G36*
X104732760Y-105782989D02*
G01*
X104824627Y-105792037D01*
X104994466Y-105843557D01*
X105150991Y-105927222D01*
X105186729Y-105956552D01*
X105288186Y-106039814D01*
X105368369Y-106137519D01*
X105400778Y-106177009D01*
X105484443Y-106333534D01*
X105535963Y-106503373D01*
X105553359Y-106680000D01*
X105535963Y-106856627D01*
X105484443Y-107026466D01*
X105400778Y-107182991D01*
X105371448Y-107218729D01*
X105288186Y-107320186D01*
X105193250Y-107398097D01*
X105150991Y-107432778D01*
X104994466Y-107516443D01*
X104824627Y-107567963D01*
X104758443Y-107574481D01*
X104692260Y-107581000D01*
X104603740Y-107581000D01*
X104537557Y-107574481D01*
X104471373Y-107567963D01*
X104301534Y-107516443D01*
X104145009Y-107432778D01*
X104102750Y-107398097D01*
X104007814Y-107320186D01*
X103924552Y-107218729D01*
X103895222Y-107182991D01*
X103811557Y-107026466D01*
X103760037Y-106856627D01*
X103742641Y-106680000D01*
X103760037Y-106503373D01*
X103811557Y-106333534D01*
X103895222Y-106177009D01*
X103927631Y-106137519D01*
X104007814Y-106039814D01*
X104109271Y-105956552D01*
X104145009Y-105927222D01*
X104301534Y-105843557D01*
X104471373Y-105792037D01*
X104563240Y-105782989D01*
X104603740Y-105779000D01*
X104692260Y-105779000D01*
X104732760Y-105782989D01*
X104732760Y-105782989D01*
G37*
G36*
X143930823Y-105841313D02*
G01*
X144091242Y-105889976D01*
X144158361Y-105925852D01*
X144239078Y-105968996D01*
X144368659Y-106075341D01*
X144475004Y-106204922D01*
X144475005Y-106204924D01*
X144554024Y-106352758D01*
X144602687Y-106513177D01*
X144619117Y-106680000D01*
X144602687Y-106846823D01*
X144554024Y-107007242D01*
X144513477Y-107083100D01*
X144475004Y-107155078D01*
X144368659Y-107284659D01*
X144239078Y-107391004D01*
X144239076Y-107391005D01*
X144091242Y-107470024D01*
X143930823Y-107518687D01*
X143805804Y-107531000D01*
X143722196Y-107531000D01*
X143597177Y-107518687D01*
X143436758Y-107470024D01*
X143288924Y-107391005D01*
X143288922Y-107391004D01*
X143159341Y-107284659D01*
X143052996Y-107155078D01*
X143014523Y-107083100D01*
X142973976Y-107007242D01*
X142925313Y-106846823D01*
X142908883Y-106680000D01*
X142925313Y-106513177D01*
X142973976Y-106352758D01*
X143052995Y-106204924D01*
X143052996Y-106204922D01*
X143159341Y-106075341D01*
X143288922Y-105968996D01*
X143369639Y-105925852D01*
X143436758Y-105889976D01*
X143597177Y-105841313D01*
X143722196Y-105829000D01*
X143805804Y-105829000D01*
X143930823Y-105841313D01*
X143930823Y-105841313D01*
G37*
G36*
X133852228Y-105861703D02*
G01*
X134007100Y-105925853D01*
X134146481Y-106018985D01*
X134265015Y-106137519D01*
X134358147Y-106276900D01*
X134422297Y-106431772D01*
X134455000Y-106596184D01*
X134455000Y-106763816D01*
X134422297Y-106928228D01*
X134358147Y-107083100D01*
X134265015Y-107222481D01*
X134146481Y-107341015D01*
X134007100Y-107434147D01*
X133852228Y-107498297D01*
X133687816Y-107531000D01*
X133520184Y-107531000D01*
X133355772Y-107498297D01*
X133200900Y-107434147D01*
X133061519Y-107341015D01*
X132942985Y-107222481D01*
X132849853Y-107083100D01*
X132785703Y-106928228D01*
X132753000Y-106763816D01*
X132753000Y-106596184D01*
X132785703Y-106431772D01*
X132849853Y-106276900D01*
X132942985Y-106137519D01*
X133061519Y-106018985D01*
X133200900Y-105925853D01*
X133355772Y-105861703D01*
X133520184Y-105829000D01*
X133687816Y-105829000D01*
X133852228Y-105861703D01*
X133852228Y-105861703D01*
G37*
G36*
X149357294Y-102632233D02*
G01*
X149529695Y-102684531D01*
X149688583Y-102769458D01*
X149827849Y-102883751D01*
X149942142Y-103023017D01*
X150027069Y-103181905D01*
X150079367Y-103354306D01*
X150092600Y-103488669D01*
X150092600Y-104899331D01*
X150079367Y-105033694D01*
X150027069Y-105206095D01*
X149942142Y-105364983D01*
X149827849Y-105504249D01*
X149688583Y-105618542D01*
X149529694Y-105703469D01*
X149357293Y-105755767D01*
X149178000Y-105773425D01*
X148998706Y-105755767D01*
X148826305Y-105703469D01*
X148667417Y-105618542D01*
X148528151Y-105504249D01*
X148413858Y-105364983D01*
X148328931Y-105206094D01*
X148276633Y-105033693D01*
X148263400Y-104899330D01*
X148263401Y-103488669D01*
X148276634Y-103354306D01*
X148328932Y-103181905D01*
X148413859Y-103023017D01*
X148528152Y-102883751D01*
X148667418Y-102769458D01*
X148826306Y-102684531D01*
X148998707Y-102632233D01*
X149178000Y-102614575D01*
X149357294Y-102632233D01*
X149357294Y-102632233D01*
G37*
G36*
X154357294Y-102632233D02*
G01*
X154529695Y-102684531D01*
X154688583Y-102769458D01*
X154827849Y-102883751D01*
X154942142Y-103023017D01*
X155027069Y-103181905D01*
X155079367Y-103354306D01*
X155092600Y-103488669D01*
X155092600Y-104899331D01*
X155079367Y-105033694D01*
X155027069Y-105206095D01*
X154942142Y-105364983D01*
X154827849Y-105504249D01*
X154688583Y-105618542D01*
X154529694Y-105703469D01*
X154357293Y-105755767D01*
X154178000Y-105773425D01*
X153998706Y-105755767D01*
X153826305Y-105703469D01*
X153667417Y-105618542D01*
X153528151Y-105504249D01*
X153413858Y-105364983D01*
X153328931Y-105206094D01*
X153276633Y-105033693D01*
X153263400Y-104899330D01*
X153263401Y-103488669D01*
X153276634Y-103354306D01*
X153328932Y-103181905D01*
X153413859Y-103023017D01*
X153528152Y-102883751D01*
X153667418Y-102769458D01*
X153826306Y-102684531D01*
X153998707Y-102632233D01*
X154178000Y-102614575D01*
X154357294Y-102632233D01*
X154357294Y-102632233D01*
G37*
G36*
X125314481Y-103901183D02*
G01*
X125349419Y-103911782D01*
X125381619Y-103928993D01*
X125409844Y-103952156D01*
X125433007Y-103980381D01*
X125450218Y-104012581D01*
X125460817Y-104047519D01*
X125465000Y-104089996D01*
X125465000Y-105206004D01*
X125460817Y-105248481D01*
X125450218Y-105283419D01*
X125433007Y-105315619D01*
X125409844Y-105343844D01*
X125381619Y-105367007D01*
X125349419Y-105384218D01*
X125314481Y-105394817D01*
X125272004Y-105399000D01*
X124155996Y-105399000D01*
X124113519Y-105394817D01*
X124078581Y-105384218D01*
X124046381Y-105367007D01*
X124018156Y-105343844D01*
X123994993Y-105315619D01*
X123977782Y-105283419D01*
X123967183Y-105248481D01*
X123963000Y-105206004D01*
X123963000Y-104089996D01*
X123967183Y-104047519D01*
X123977782Y-104012581D01*
X123994993Y-103980381D01*
X124018156Y-103952156D01*
X124046381Y-103928993D01*
X124078581Y-103911782D01*
X124113519Y-103901183D01*
X124155996Y-103897000D01*
X125272004Y-103897000D01*
X125314481Y-103901183D01*
X125314481Y-103901183D01*
G37*
G36*
X162566443Y-103285519D02*
G01*
X162632627Y-103292037D01*
X162802466Y-103343557D01*
X162958991Y-103427222D01*
X162994729Y-103456552D01*
X163096186Y-103539814D01*
X163167103Y-103626228D01*
X163208778Y-103677009D01*
X163292443Y-103833534D01*
X163343963Y-104003373D01*
X163361359Y-104180000D01*
X163343963Y-104356627D01*
X163292443Y-104526466D01*
X163208778Y-104682991D01*
X163179448Y-104718729D01*
X163096186Y-104820186D01*
X163007731Y-104892778D01*
X162958991Y-104932778D01*
X162802466Y-105016443D01*
X162632627Y-105067963D01*
X162566443Y-105074481D01*
X162500260Y-105081000D01*
X162111740Y-105081000D01*
X162045557Y-105074481D01*
X161979373Y-105067963D01*
X161809534Y-105016443D01*
X161653009Y-104932778D01*
X161604269Y-104892778D01*
X161515814Y-104820186D01*
X161432552Y-104718729D01*
X161403222Y-104682991D01*
X161319557Y-104526466D01*
X161268037Y-104356627D01*
X161250641Y-104180000D01*
X161268037Y-104003373D01*
X161319557Y-103833534D01*
X161403222Y-103677009D01*
X161444897Y-103626228D01*
X161515814Y-103539814D01*
X161617271Y-103456552D01*
X161653009Y-103427222D01*
X161809534Y-103343557D01*
X161979373Y-103292037D01*
X162045557Y-103285519D01*
X162111740Y-103279000D01*
X162500260Y-103279000D01*
X162566443Y-103285519D01*
X162566443Y-103285519D01*
G37*
G36*
X129758443Y-103245519D02*
G01*
X129824627Y-103252037D01*
X129994466Y-103303557D01*
X130150991Y-103387222D01*
X130186729Y-103416552D01*
X130288186Y-103499814D01*
X130327882Y-103548185D01*
X130400778Y-103637009D01*
X130484443Y-103793534D01*
X130535963Y-103963373D01*
X130553359Y-104140000D01*
X130535963Y-104316627D01*
X130484443Y-104486466D01*
X130400778Y-104642991D01*
X130371448Y-104678729D01*
X130288186Y-104780186D01*
X130186729Y-104863448D01*
X130150991Y-104892778D01*
X129994466Y-104976443D01*
X129824627Y-105027963D01*
X129766448Y-105033693D01*
X129692260Y-105041000D01*
X129603740Y-105041000D01*
X129529552Y-105033693D01*
X129471373Y-105027963D01*
X129301534Y-104976443D01*
X129145009Y-104892778D01*
X129109271Y-104863448D01*
X129007814Y-104780186D01*
X128924552Y-104678729D01*
X128895222Y-104642991D01*
X128811557Y-104486466D01*
X128760037Y-104316627D01*
X128742641Y-104140000D01*
X128760037Y-103963373D01*
X128811557Y-103793534D01*
X128895222Y-103637009D01*
X128968118Y-103548185D01*
X129007814Y-103499814D01*
X129109271Y-103416552D01*
X129145009Y-103387222D01*
X129301534Y-103303557D01*
X129471373Y-103252037D01*
X129537558Y-103245518D01*
X129603740Y-103239000D01*
X129692260Y-103239000D01*
X129758443Y-103245519D01*
X129758443Y-103245519D01*
G37*
G36*
X104758443Y-103245519D02*
G01*
X104824627Y-103252037D01*
X104994466Y-103303557D01*
X105150991Y-103387222D01*
X105186729Y-103416552D01*
X105288186Y-103499814D01*
X105327882Y-103548185D01*
X105400778Y-103637009D01*
X105484443Y-103793534D01*
X105535963Y-103963373D01*
X105553359Y-104140000D01*
X105535963Y-104316627D01*
X105484443Y-104486466D01*
X105400778Y-104642991D01*
X105371448Y-104678729D01*
X105288186Y-104780186D01*
X105186729Y-104863448D01*
X105150991Y-104892778D01*
X104994466Y-104976443D01*
X104824627Y-105027963D01*
X104766448Y-105033693D01*
X104692260Y-105041000D01*
X104603740Y-105041000D01*
X104529552Y-105033693D01*
X104471373Y-105027963D01*
X104301534Y-104976443D01*
X104145009Y-104892778D01*
X104109271Y-104863448D01*
X104007814Y-104780186D01*
X103924552Y-104678729D01*
X103895222Y-104642991D01*
X103811557Y-104486466D01*
X103760037Y-104316627D01*
X103742641Y-104140000D01*
X103760037Y-103963373D01*
X103811557Y-103793534D01*
X103895222Y-103637009D01*
X103968118Y-103548185D01*
X104007814Y-103499814D01*
X104109271Y-103416552D01*
X104145009Y-103387222D01*
X104301534Y-103303557D01*
X104471373Y-103252037D01*
X104537558Y-103245518D01*
X104603740Y-103239000D01*
X104692260Y-103239000D01*
X104758443Y-103245519D01*
X104758443Y-103245519D01*
G37*
G36*
X108452228Y-102813703D02*
G01*
X108607100Y-102877853D01*
X108746481Y-102970985D01*
X108865015Y-103089519D01*
X108958147Y-103228900D01*
X109022297Y-103383772D01*
X109055000Y-103548184D01*
X109055000Y-103715816D01*
X109022297Y-103880228D01*
X108958147Y-104035100D01*
X108865015Y-104174481D01*
X108746481Y-104293015D01*
X108607100Y-104386147D01*
X108452228Y-104450297D01*
X108287816Y-104483000D01*
X108120184Y-104483000D01*
X107955772Y-104450297D01*
X107800900Y-104386147D01*
X107661519Y-104293015D01*
X107542985Y-104174481D01*
X107449853Y-104035100D01*
X107385703Y-103880228D01*
X107353000Y-103715816D01*
X107353000Y-103548184D01*
X107385703Y-103383772D01*
X107449853Y-103228900D01*
X107542985Y-103089519D01*
X107661519Y-102970985D01*
X107800900Y-102877853D01*
X107955772Y-102813703D01*
X108120184Y-102781000D01*
X108287816Y-102781000D01*
X108452228Y-102813703D01*
X108452228Y-102813703D01*
G37*
G36*
X118530823Y-102793313D02*
G01*
X118691242Y-102841976D01*
X118823906Y-102912886D01*
X118839078Y-102920996D01*
X118968659Y-103027341D01*
X119075004Y-103156922D01*
X119075005Y-103156924D01*
X119154024Y-103304758D01*
X119202687Y-103465177D01*
X119219117Y-103632000D01*
X119202687Y-103798823D01*
X119154024Y-103959242D01*
X119113477Y-104035100D01*
X119075004Y-104107078D01*
X118968659Y-104236659D01*
X118839078Y-104343004D01*
X118839076Y-104343005D01*
X118691242Y-104422024D01*
X118530823Y-104470687D01*
X118405804Y-104483000D01*
X118322196Y-104483000D01*
X118197177Y-104470687D01*
X118036758Y-104422024D01*
X117888924Y-104343005D01*
X117888922Y-104343004D01*
X117759341Y-104236659D01*
X117652996Y-104107078D01*
X117614523Y-104035100D01*
X117573976Y-103959242D01*
X117525313Y-103798823D01*
X117508883Y-103632000D01*
X117525313Y-103465177D01*
X117573976Y-103304758D01*
X117652995Y-103156924D01*
X117652996Y-103156922D01*
X117759341Y-103027341D01*
X117888922Y-102920996D01*
X117904094Y-102912886D01*
X118036758Y-102841976D01*
X118197177Y-102793313D01*
X118322196Y-102781000D01*
X118405804Y-102781000D01*
X118530823Y-102793313D01*
X118530823Y-102793313D01*
G37*
G36*
X121406228Y-102639703D02*
G01*
X121561100Y-102703853D01*
X121700481Y-102796985D01*
X121819015Y-102915519D01*
X121912147Y-103054900D01*
X121976297Y-103209772D01*
X122009000Y-103374184D01*
X122009000Y-103541816D01*
X121976297Y-103706228D01*
X121912147Y-103861100D01*
X121819015Y-104000481D01*
X121700481Y-104119015D01*
X121561100Y-104212147D01*
X121406228Y-104276297D01*
X121241816Y-104309000D01*
X121074184Y-104309000D01*
X120909772Y-104276297D01*
X120754900Y-104212147D01*
X120615519Y-104119015D01*
X120496985Y-104000481D01*
X120403853Y-103861100D01*
X120339703Y-103706228D01*
X120307000Y-103541816D01*
X120307000Y-103374184D01*
X120339703Y-103209772D01*
X120403853Y-103054900D01*
X120496985Y-102915519D01*
X120615519Y-102796985D01*
X120754900Y-102703853D01*
X120909772Y-102639703D01*
X121074184Y-102607000D01*
X121241816Y-102607000D01*
X121406228Y-102639703D01*
X121406228Y-102639703D01*
G37*
G36*
X143930823Y-102539313D02*
G01*
X144091242Y-102587976D01*
X144188016Y-102639703D01*
X144239078Y-102666996D01*
X144368659Y-102773341D01*
X144475004Y-102902922D01*
X144475005Y-102902924D01*
X144554024Y-103050758D01*
X144554025Y-103050761D01*
X144555281Y-103054903D01*
X144602687Y-103211177D01*
X144619117Y-103378000D01*
X144602687Y-103544823D01*
X144554024Y-103705242D01*
X144513477Y-103781100D01*
X144475004Y-103853078D01*
X144368659Y-103982659D01*
X144239078Y-104089004D01*
X144239076Y-104089005D01*
X144091242Y-104168024D01*
X143930823Y-104216687D01*
X143805804Y-104229000D01*
X143722196Y-104229000D01*
X143597177Y-104216687D01*
X143436758Y-104168024D01*
X143288924Y-104089005D01*
X143288922Y-104089004D01*
X143159341Y-103982659D01*
X143052996Y-103853078D01*
X143014523Y-103781100D01*
X142973976Y-103705242D01*
X142925313Y-103544823D01*
X142908883Y-103378000D01*
X142925313Y-103211177D01*
X142972719Y-103054903D01*
X142973975Y-103050761D01*
X142973976Y-103050758D01*
X143052995Y-102902924D01*
X143052996Y-102902922D01*
X143159341Y-102773341D01*
X143288922Y-102666996D01*
X143339984Y-102639703D01*
X143436758Y-102587976D01*
X143597177Y-102539313D01*
X143722196Y-102527000D01*
X143805804Y-102527000D01*
X143930823Y-102539313D01*
X143930823Y-102539313D01*
G37*
G36*
X133852228Y-102559703D02*
G01*
X134007100Y-102623853D01*
X134146481Y-102716985D01*
X134265015Y-102835519D01*
X134358147Y-102974900D01*
X134422297Y-103129772D01*
X134455000Y-103294184D01*
X134455000Y-103461816D01*
X134422297Y-103626228D01*
X134358147Y-103781100D01*
X134265015Y-103920481D01*
X134146481Y-104039015D01*
X134007100Y-104132147D01*
X133852228Y-104196297D01*
X133687816Y-104229000D01*
X133520184Y-104229000D01*
X133355772Y-104196297D01*
X133200900Y-104132147D01*
X133061519Y-104039015D01*
X132942985Y-103920481D01*
X132849853Y-103781100D01*
X132785703Y-103626228D01*
X132753000Y-103461816D01*
X132753000Y-103294184D01*
X132785703Y-103129772D01*
X132849853Y-102974900D01*
X132942985Y-102835519D01*
X133061519Y-102716985D01*
X133200900Y-102623853D01*
X133355772Y-102559703D01*
X133520184Y-102527000D01*
X133687816Y-102527000D01*
X133852228Y-102559703D01*
X133852228Y-102559703D01*
G37*
G36*
X104758443Y-100705519D02*
G01*
X104824627Y-100712037D01*
X104994466Y-100763557D01*
X105150991Y-100847222D01*
X105173901Y-100866024D01*
X105288186Y-100959814D01*
X105371448Y-101061271D01*
X105400778Y-101097009D01*
X105484443Y-101253534D01*
X105535963Y-101423373D01*
X105553359Y-101600000D01*
X105535963Y-101776627D01*
X105484443Y-101946466D01*
X105400778Y-102102991D01*
X105371448Y-102138729D01*
X105288186Y-102240186D01*
X105186729Y-102323448D01*
X105150991Y-102352778D01*
X104994466Y-102436443D01*
X104824627Y-102487963D01*
X104758442Y-102494482D01*
X104692260Y-102501000D01*
X104603740Y-102501000D01*
X104537558Y-102494482D01*
X104471373Y-102487963D01*
X104301534Y-102436443D01*
X104145009Y-102352778D01*
X104109271Y-102323448D01*
X104007814Y-102240186D01*
X103924552Y-102138729D01*
X103895222Y-102102991D01*
X103811557Y-101946466D01*
X103760037Y-101776627D01*
X103742641Y-101600000D01*
X103760037Y-101423373D01*
X103811557Y-101253534D01*
X103895222Y-101097009D01*
X103924552Y-101061271D01*
X104007814Y-100959814D01*
X104122099Y-100866024D01*
X104145009Y-100847222D01*
X104301534Y-100763557D01*
X104471373Y-100712037D01*
X104537557Y-100705519D01*
X104603740Y-100699000D01*
X104692260Y-100699000D01*
X104758443Y-100705519D01*
X104758443Y-100705519D01*
G37*
G36*
X129758443Y-100705519D02*
G01*
X129824627Y-100712037D01*
X129994466Y-100763557D01*
X130150991Y-100847222D01*
X130173901Y-100866024D01*
X130288186Y-100959814D01*
X130371448Y-101061271D01*
X130400778Y-101097009D01*
X130484443Y-101253534D01*
X130535963Y-101423373D01*
X130553359Y-101600000D01*
X130535963Y-101776627D01*
X130484443Y-101946466D01*
X130400778Y-102102991D01*
X130371448Y-102138729D01*
X130288186Y-102240186D01*
X130186729Y-102323448D01*
X130150991Y-102352778D01*
X129994466Y-102436443D01*
X129824627Y-102487963D01*
X129758442Y-102494482D01*
X129692260Y-102501000D01*
X129603740Y-102501000D01*
X129537558Y-102494482D01*
X129471373Y-102487963D01*
X129301534Y-102436443D01*
X129145009Y-102352778D01*
X129109271Y-102323448D01*
X129007814Y-102240186D01*
X128924552Y-102138729D01*
X128895222Y-102102991D01*
X128811557Y-101946466D01*
X128760037Y-101776627D01*
X128742641Y-101600000D01*
X128760037Y-101423373D01*
X128811557Y-101253534D01*
X128895222Y-101097009D01*
X128924552Y-101061271D01*
X129007814Y-100959814D01*
X129122099Y-100866024D01*
X129145009Y-100847222D01*
X129301534Y-100763557D01*
X129471373Y-100712037D01*
X129537557Y-100705519D01*
X129603740Y-100699000D01*
X129692260Y-100699000D01*
X129758443Y-100705519D01*
X129758443Y-100705519D01*
G37*
G36*
X124882482Y-100127826D02*
G01*
X124939876Y-100133479D01*
X125013517Y-100155818D01*
X125050338Y-100166987D01*
X125152140Y-100221402D01*
X125241370Y-100294630D01*
X125314598Y-100383860D01*
X125369013Y-100485662D01*
X125369013Y-100485663D01*
X125402521Y-100596124D01*
X125413835Y-100711000D01*
X125402521Y-100825876D01*
X125390342Y-100866024D01*
X125369013Y-100936338D01*
X125314598Y-101038140D01*
X125241370Y-101127370D01*
X125152140Y-101200598D01*
X125050338Y-101255013D01*
X125013517Y-101266182D01*
X124939876Y-101288521D01*
X124882482Y-101294174D01*
X124853786Y-101297000D01*
X124066214Y-101297000D01*
X124037518Y-101294174D01*
X123980124Y-101288521D01*
X123906483Y-101266182D01*
X123869662Y-101255013D01*
X123767860Y-101200598D01*
X123678630Y-101127370D01*
X123605402Y-101038140D01*
X123550987Y-100936338D01*
X123529658Y-100866024D01*
X123517479Y-100825876D01*
X123506165Y-100711000D01*
X123517479Y-100596124D01*
X123550987Y-100485663D01*
X123550987Y-100485662D01*
X123605402Y-100383860D01*
X123678630Y-100294630D01*
X123767860Y-100221402D01*
X123869662Y-100166987D01*
X123906483Y-100155818D01*
X123980124Y-100133479D01*
X124037518Y-100127826D01*
X124066214Y-100125000D01*
X124853786Y-100125000D01*
X124882482Y-100127826D01*
X124882482Y-100127826D01*
G37*
G36*
X108452228Y-99257703D02*
G01*
X108607100Y-99321853D01*
X108746481Y-99414985D01*
X108865015Y-99533519D01*
X108958147Y-99672900D01*
X109022297Y-99827772D01*
X109055000Y-99992184D01*
X109055000Y-100159816D01*
X109022297Y-100324228D01*
X108958147Y-100479100D01*
X108865015Y-100618481D01*
X108746481Y-100737015D01*
X108607100Y-100830147D01*
X108452228Y-100894297D01*
X108287816Y-100927000D01*
X108120184Y-100927000D01*
X107955772Y-100894297D01*
X107800900Y-100830147D01*
X107661519Y-100737015D01*
X107542985Y-100618481D01*
X107449853Y-100479100D01*
X107385703Y-100324228D01*
X107353000Y-100159816D01*
X107353000Y-99992184D01*
X107385703Y-99827772D01*
X107449853Y-99672900D01*
X107542985Y-99533519D01*
X107661519Y-99414985D01*
X107800900Y-99321853D01*
X107955772Y-99257703D01*
X108120184Y-99225000D01*
X108287816Y-99225000D01*
X108452228Y-99257703D01*
X108452228Y-99257703D01*
G37*
G36*
X118530823Y-99237313D02*
G01*
X118691242Y-99285976D01*
X118758361Y-99321852D01*
X118839078Y-99364996D01*
X118968659Y-99471341D01*
X119075004Y-99600922D01*
X119075005Y-99600924D01*
X119154024Y-99748758D01*
X119202687Y-99909177D01*
X119219117Y-100076000D01*
X119202687Y-100242823D01*
X119154024Y-100403242D01*
X119109969Y-100485663D01*
X119075004Y-100551078D01*
X118968659Y-100680659D01*
X118839078Y-100787004D01*
X118839076Y-100787005D01*
X118691242Y-100866024D01*
X118530823Y-100914687D01*
X118405804Y-100927000D01*
X118322196Y-100927000D01*
X118197177Y-100914687D01*
X118036758Y-100866024D01*
X117888924Y-100787005D01*
X117888922Y-100787004D01*
X117759341Y-100680659D01*
X117652996Y-100551078D01*
X117618031Y-100485663D01*
X117573976Y-100403242D01*
X117525313Y-100242823D01*
X117508883Y-100076000D01*
X117525313Y-99909177D01*
X117573976Y-99748758D01*
X117652995Y-99600924D01*
X117652996Y-99600922D01*
X117759341Y-99471341D01*
X117888922Y-99364996D01*
X117969639Y-99321852D01*
X118036758Y-99285976D01*
X118197177Y-99237313D01*
X118322196Y-99225000D01*
X118405804Y-99225000D01*
X118530823Y-99237313D01*
X118530823Y-99237313D01*
G37*
G36*
X104758443Y-98165519D02*
G01*
X104824627Y-98172037D01*
X104994466Y-98223557D01*
X105150991Y-98307222D01*
X105186729Y-98336552D01*
X105288186Y-98419814D01*
X105371448Y-98521271D01*
X105400778Y-98557009D01*
X105484443Y-98713534D01*
X105535963Y-98883373D01*
X105553359Y-99060000D01*
X105535963Y-99236627D01*
X105484443Y-99406466D01*
X105484442Y-99406468D01*
X105449766Y-99471341D01*
X105400778Y-99562991D01*
X105371448Y-99598729D01*
X105288186Y-99700186D01*
X105186729Y-99783448D01*
X105150991Y-99812778D01*
X104994466Y-99896443D01*
X104824627Y-99947963D01*
X104758443Y-99954481D01*
X104692260Y-99961000D01*
X104603740Y-99961000D01*
X104537557Y-99954481D01*
X104471373Y-99947963D01*
X104301534Y-99896443D01*
X104145009Y-99812778D01*
X104109271Y-99783448D01*
X104007814Y-99700186D01*
X103924552Y-99598729D01*
X103895222Y-99562991D01*
X103846234Y-99471341D01*
X103811558Y-99406468D01*
X103811557Y-99406466D01*
X103760037Y-99236627D01*
X103742641Y-99060000D01*
X103760037Y-98883373D01*
X103811557Y-98713534D01*
X103895222Y-98557009D01*
X103924552Y-98521271D01*
X104007814Y-98419814D01*
X104109271Y-98336552D01*
X104145009Y-98307222D01*
X104301534Y-98223557D01*
X104471373Y-98172037D01*
X104537557Y-98165519D01*
X104603740Y-98159000D01*
X104692260Y-98159000D01*
X104758443Y-98165519D01*
X104758443Y-98165519D01*
G37*
G36*
X129758443Y-98165519D02*
G01*
X129824627Y-98172037D01*
X129994466Y-98223557D01*
X130150991Y-98307222D01*
X130186729Y-98336552D01*
X130288186Y-98419814D01*
X130371448Y-98521271D01*
X130400778Y-98557009D01*
X130484443Y-98713534D01*
X130535963Y-98883373D01*
X130553359Y-99060000D01*
X130535963Y-99236627D01*
X130484443Y-99406466D01*
X130484442Y-99406468D01*
X130449766Y-99471341D01*
X130400778Y-99562991D01*
X130371448Y-99598729D01*
X130288186Y-99700186D01*
X130186729Y-99783448D01*
X130150991Y-99812778D01*
X129994466Y-99896443D01*
X129824627Y-99947963D01*
X129758443Y-99954481D01*
X129692260Y-99961000D01*
X129603740Y-99961000D01*
X129537557Y-99954481D01*
X129471373Y-99947963D01*
X129301534Y-99896443D01*
X129145009Y-99812778D01*
X129109271Y-99783448D01*
X129007814Y-99700186D01*
X128924552Y-99598729D01*
X128895222Y-99562991D01*
X128846234Y-99471341D01*
X128811558Y-99406468D01*
X128811557Y-99406466D01*
X128760037Y-99236627D01*
X128742641Y-99060000D01*
X128760037Y-98883373D01*
X128811557Y-98713534D01*
X128895222Y-98557009D01*
X128924552Y-98521271D01*
X129007814Y-98419814D01*
X129109271Y-98336552D01*
X129145009Y-98307222D01*
X129301534Y-98223557D01*
X129471373Y-98172037D01*
X129537557Y-98165519D01*
X129603740Y-98159000D01*
X129692260Y-98159000D01*
X129758443Y-98165519D01*
X129758443Y-98165519D01*
G37*
G36*
X163214600Y-97146989D02*
G01*
X163247652Y-97157015D01*
X163278103Y-97173292D01*
X163304799Y-97195201D01*
X163326708Y-97221897D01*
X163342985Y-97252348D01*
X163353011Y-97285400D01*
X163357000Y-97325903D01*
X163357000Y-98762097D01*
X163353011Y-98802600D01*
X163342985Y-98835652D01*
X163326708Y-98866103D01*
X163304799Y-98892799D01*
X163278103Y-98914708D01*
X163247652Y-98930985D01*
X163214600Y-98941011D01*
X163174097Y-98945000D01*
X161437903Y-98945000D01*
X161397400Y-98941011D01*
X161364348Y-98930985D01*
X161333897Y-98914708D01*
X161307201Y-98892799D01*
X161285292Y-98866103D01*
X161269015Y-98835652D01*
X161258989Y-98802600D01*
X161255000Y-98762097D01*
X161255000Y-97325903D01*
X161258989Y-97285400D01*
X161269015Y-97252348D01*
X161285292Y-97221897D01*
X161307201Y-97195201D01*
X161333897Y-97173292D01*
X161364348Y-97157015D01*
X161397400Y-97146989D01*
X161437903Y-97143000D01*
X163174097Y-97143000D01*
X163214600Y-97146989D01*
X163214600Y-97146989D01*
G37*
G36*
X124882482Y-97587826D02*
G01*
X124939876Y-97593479D01*
X125013517Y-97615818D01*
X125050338Y-97626987D01*
X125152140Y-97681402D01*
X125241370Y-97754630D01*
X125314598Y-97843860D01*
X125369013Y-97945662D01*
X125369013Y-97945663D01*
X125402521Y-98056124D01*
X125413835Y-98171000D01*
X125402521Y-98285876D01*
X125380182Y-98359517D01*
X125369013Y-98396338D01*
X125314598Y-98498140D01*
X125241370Y-98587370D01*
X125152140Y-98660598D01*
X125050338Y-98715013D01*
X125013517Y-98726182D01*
X124939876Y-98748521D01*
X124882482Y-98754174D01*
X124853786Y-98757000D01*
X124066214Y-98757000D01*
X124037518Y-98754174D01*
X123980124Y-98748521D01*
X123906483Y-98726182D01*
X123869662Y-98715013D01*
X123767860Y-98660598D01*
X123678630Y-98587370D01*
X123605402Y-98498140D01*
X123550987Y-98396338D01*
X123539818Y-98359517D01*
X123517479Y-98285876D01*
X123506165Y-98171000D01*
X123517479Y-98056124D01*
X123550987Y-97945663D01*
X123550987Y-97945662D01*
X123605402Y-97843860D01*
X123678630Y-97754630D01*
X123767860Y-97681402D01*
X123869662Y-97626987D01*
X123906483Y-97615818D01*
X123980124Y-97593479D01*
X124037518Y-97587826D01*
X124066214Y-97585000D01*
X124853786Y-97585000D01*
X124882482Y-97587826D01*
X124882482Y-97587826D01*
G37*
G36*
X118530823Y-96189313D02*
G01*
X118691242Y-96237976D01*
X118823906Y-96308886D01*
X118839078Y-96316996D01*
X118968659Y-96423341D01*
X119075004Y-96552922D01*
X119075005Y-96552924D01*
X119154024Y-96700758D01*
X119202687Y-96861177D01*
X119219117Y-97028000D01*
X119202687Y-97194823D01*
X119154024Y-97355242D01*
X119113477Y-97431100D01*
X119075004Y-97503078D01*
X118968659Y-97632659D01*
X118839078Y-97739004D01*
X118839076Y-97739005D01*
X118691242Y-97818024D01*
X118530823Y-97866687D01*
X118405804Y-97879000D01*
X118322196Y-97879000D01*
X118197177Y-97866687D01*
X118036758Y-97818024D01*
X117888924Y-97739005D01*
X117888922Y-97739004D01*
X117759341Y-97632659D01*
X117652996Y-97503078D01*
X117614523Y-97431100D01*
X117573976Y-97355242D01*
X117525313Y-97194823D01*
X117508883Y-97028000D01*
X117525313Y-96861177D01*
X117573976Y-96700758D01*
X117652995Y-96552924D01*
X117652996Y-96552922D01*
X117759341Y-96423341D01*
X117888922Y-96316996D01*
X117904094Y-96308886D01*
X118036758Y-96237976D01*
X118197177Y-96189313D01*
X118322196Y-96177000D01*
X118405804Y-96177000D01*
X118530823Y-96189313D01*
X118530823Y-96189313D01*
G37*
G36*
X108452228Y-96209703D02*
G01*
X108607100Y-96273853D01*
X108746481Y-96366985D01*
X108865015Y-96485519D01*
X108958147Y-96624900D01*
X109022297Y-96779772D01*
X109055000Y-96944184D01*
X109055000Y-97111816D01*
X109022297Y-97276228D01*
X108958147Y-97431100D01*
X108865015Y-97570481D01*
X108746481Y-97689015D01*
X108607100Y-97782147D01*
X108452228Y-97846297D01*
X108287816Y-97879000D01*
X108120184Y-97879000D01*
X107955772Y-97846297D01*
X107800900Y-97782147D01*
X107661519Y-97689015D01*
X107542985Y-97570481D01*
X107449853Y-97431100D01*
X107385703Y-97276228D01*
X107353000Y-97111816D01*
X107353000Y-96944184D01*
X107385703Y-96779772D01*
X107449853Y-96624900D01*
X107542985Y-96485519D01*
X107661519Y-96366985D01*
X107800900Y-96273853D01*
X107955772Y-96209703D01*
X108120184Y-96177000D01*
X108287816Y-96177000D01*
X108452228Y-96209703D01*
X108452228Y-96209703D01*
G37*
G36*
X129758442Y-95625518D02*
G01*
X129824627Y-95632037D01*
X129994466Y-95683557D01*
X130150991Y-95767222D01*
X130181768Y-95792480D01*
X130288186Y-95879814D01*
X130371448Y-95981271D01*
X130400778Y-96017009D01*
X130484443Y-96173534D01*
X130535963Y-96343373D01*
X130553359Y-96520000D01*
X130535963Y-96696627D01*
X130484443Y-96866466D01*
X130400778Y-97022991D01*
X130396667Y-97028000D01*
X130288186Y-97160186D01*
X130186729Y-97243448D01*
X130150991Y-97272778D01*
X129994466Y-97356443D01*
X129824627Y-97407963D01*
X129758442Y-97414482D01*
X129692260Y-97421000D01*
X129603740Y-97421000D01*
X129537558Y-97414482D01*
X129471373Y-97407963D01*
X129301534Y-97356443D01*
X129145009Y-97272778D01*
X129109271Y-97243448D01*
X129007814Y-97160186D01*
X128899333Y-97028000D01*
X128895222Y-97022991D01*
X128811557Y-96866466D01*
X128760037Y-96696627D01*
X128742641Y-96520000D01*
X128760037Y-96343373D01*
X128811557Y-96173534D01*
X128895222Y-96017009D01*
X128924552Y-95981271D01*
X129007814Y-95879814D01*
X129114232Y-95792480D01*
X129145009Y-95767222D01*
X129301534Y-95683557D01*
X129471373Y-95632037D01*
X129537558Y-95625518D01*
X129603740Y-95619000D01*
X129692260Y-95619000D01*
X129758442Y-95625518D01*
X129758442Y-95625518D01*
G37*
G36*
X104758442Y-95625518D02*
G01*
X104824627Y-95632037D01*
X104994466Y-95683557D01*
X105150991Y-95767222D01*
X105181768Y-95792480D01*
X105288186Y-95879814D01*
X105371448Y-95981271D01*
X105400778Y-96017009D01*
X105484443Y-96173534D01*
X105535963Y-96343373D01*
X105553359Y-96520000D01*
X105535963Y-96696627D01*
X105484443Y-96866466D01*
X105400778Y-97022991D01*
X105396667Y-97028000D01*
X105288186Y-97160186D01*
X105186729Y-97243448D01*
X105150991Y-97272778D01*
X104994466Y-97356443D01*
X104824627Y-97407963D01*
X104758442Y-97414482D01*
X104692260Y-97421000D01*
X104603740Y-97421000D01*
X104537558Y-97414482D01*
X104471373Y-97407963D01*
X104301534Y-97356443D01*
X104145009Y-97272778D01*
X104109271Y-97243448D01*
X104007814Y-97160186D01*
X103899333Y-97028000D01*
X103895222Y-97022991D01*
X103811557Y-96866466D01*
X103760037Y-96696627D01*
X103742641Y-96520000D01*
X103760037Y-96343373D01*
X103811557Y-96173534D01*
X103895222Y-96017009D01*
X103924552Y-95981271D01*
X104007814Y-95879814D01*
X104114232Y-95792480D01*
X104145009Y-95767222D01*
X104301534Y-95683557D01*
X104471373Y-95632037D01*
X104537558Y-95625518D01*
X104603740Y-95619000D01*
X104692260Y-95619000D01*
X104758442Y-95625518D01*
X104758442Y-95625518D01*
G37*
G36*
X162566442Y-94649518D02*
G01*
X162632627Y-94656037D01*
X162802466Y-94707557D01*
X162958991Y-94791222D01*
X162989721Y-94816442D01*
X163096186Y-94903814D01*
X163176576Y-95001771D01*
X163208778Y-95041009D01*
X163208779Y-95041011D01*
X163275687Y-95166185D01*
X163292443Y-95197534D01*
X163343963Y-95367373D01*
X163361359Y-95544000D01*
X163343963Y-95720627D01*
X163292443Y-95890466D01*
X163208778Y-96046991D01*
X163191294Y-96068295D01*
X163096186Y-96184186D01*
X162994729Y-96267448D01*
X162958991Y-96296778D01*
X162802466Y-96380443D01*
X162632627Y-96431963D01*
X162566443Y-96438481D01*
X162500260Y-96445000D01*
X162111740Y-96445000D01*
X162045557Y-96438481D01*
X161979373Y-96431963D01*
X161809534Y-96380443D01*
X161653009Y-96296778D01*
X161617271Y-96267448D01*
X161515814Y-96184186D01*
X161420706Y-96068295D01*
X161403222Y-96046991D01*
X161319557Y-95890466D01*
X161268037Y-95720627D01*
X161250641Y-95544000D01*
X161268037Y-95367373D01*
X161319557Y-95197534D01*
X161336314Y-95166185D01*
X161403221Y-95041011D01*
X161403222Y-95041009D01*
X161435424Y-95001771D01*
X161515814Y-94903814D01*
X161622279Y-94816442D01*
X161653009Y-94791222D01*
X161809534Y-94707557D01*
X161979373Y-94656037D01*
X162045558Y-94649518D01*
X162111740Y-94643000D01*
X162500260Y-94643000D01*
X162566442Y-94649518D01*
X162566442Y-94649518D01*
G37*
G36*
X124882482Y-95047826D02*
G01*
X124939876Y-95053479D01*
X125013517Y-95075818D01*
X125050338Y-95086987D01*
X125152140Y-95141402D01*
X125241370Y-95214630D01*
X125314598Y-95303860D01*
X125369013Y-95405662D01*
X125369013Y-95405663D01*
X125402521Y-95516124D01*
X125413835Y-95631000D01*
X125402521Y-95745876D01*
X125380182Y-95819517D01*
X125369013Y-95856338D01*
X125314598Y-95958140D01*
X125241370Y-96047370D01*
X125152140Y-96120598D01*
X125050338Y-96175013D01*
X125020101Y-96184185D01*
X124939876Y-96208521D01*
X124882482Y-96214174D01*
X124853786Y-96217000D01*
X124066214Y-96217000D01*
X124037518Y-96214174D01*
X123980124Y-96208521D01*
X123899899Y-96184185D01*
X123869662Y-96175013D01*
X123767860Y-96120598D01*
X123678630Y-96047370D01*
X123605402Y-95958140D01*
X123550987Y-95856338D01*
X123539818Y-95819517D01*
X123517479Y-95745876D01*
X123506165Y-95631000D01*
X123517479Y-95516124D01*
X123550987Y-95405663D01*
X123550987Y-95405662D01*
X123605402Y-95303860D01*
X123678630Y-95214630D01*
X123767860Y-95141402D01*
X123869662Y-95086987D01*
X123906483Y-95075818D01*
X123980124Y-95053479D01*
X124037518Y-95047826D01*
X124066214Y-95045000D01*
X124853786Y-95045000D01*
X124882482Y-95047826D01*
X124882482Y-95047826D01*
G37*
G36*
X141876228Y-94431703D02*
G01*
X142031100Y-94495853D01*
X142170481Y-94588985D01*
X142289015Y-94707519D01*
X142382147Y-94846900D01*
X142446297Y-95001772D01*
X142479000Y-95166184D01*
X142479000Y-95333816D01*
X142446297Y-95498228D01*
X142382147Y-95653100D01*
X142289015Y-95792481D01*
X142170481Y-95911015D01*
X142031100Y-96004147D01*
X141876228Y-96068297D01*
X141711816Y-96101000D01*
X141544184Y-96101000D01*
X141379772Y-96068297D01*
X141224900Y-96004147D01*
X141085519Y-95911015D01*
X140966985Y-95792481D01*
X140873853Y-95653100D01*
X140809703Y-95498228D01*
X140777000Y-95333816D01*
X140777000Y-95166184D01*
X140809703Y-95001772D01*
X140873853Y-94846900D01*
X140966985Y-94707519D01*
X141085519Y-94588985D01*
X141224900Y-94495853D01*
X141379772Y-94431703D01*
X141544184Y-94399000D01*
X141711816Y-94399000D01*
X141876228Y-94431703D01*
X141876228Y-94431703D01*
G37*
G36*
X135979000Y-96101000D02*
G01*
X134277000Y-96101000D01*
X134277000Y-94399000D01*
X135979000Y-94399000D01*
X135979000Y-96101000D01*
X135979000Y-96101000D01*
G37*
G36*
X129758443Y-93085519D02*
G01*
X129824627Y-93092037D01*
X129994466Y-93143557D01*
X130150991Y-93227222D01*
X130185772Y-93255766D01*
X130288186Y-93339814D01*
X130368369Y-93437519D01*
X130400778Y-93477009D01*
X130484443Y-93633534D01*
X130535963Y-93803373D01*
X130553359Y-93980000D01*
X130535963Y-94156627D01*
X130484443Y-94326466D01*
X130400778Y-94482991D01*
X130390223Y-94495852D01*
X130288186Y-94620186D01*
X130186729Y-94703448D01*
X130150991Y-94732778D01*
X129994466Y-94816443D01*
X129824627Y-94867963D01*
X129758443Y-94874481D01*
X129692260Y-94881000D01*
X129603740Y-94881000D01*
X129537557Y-94874481D01*
X129471373Y-94867963D01*
X129301534Y-94816443D01*
X129145009Y-94732778D01*
X129109271Y-94703448D01*
X129007814Y-94620186D01*
X128905777Y-94495852D01*
X128895222Y-94482991D01*
X128811557Y-94326466D01*
X128760037Y-94156627D01*
X128742641Y-93980000D01*
X128760037Y-93803373D01*
X128811557Y-93633534D01*
X128895222Y-93477009D01*
X128927631Y-93437519D01*
X129007814Y-93339814D01*
X129110228Y-93255766D01*
X129145009Y-93227222D01*
X129301534Y-93143557D01*
X129471373Y-93092037D01*
X129537557Y-93085519D01*
X129603740Y-93079000D01*
X129692260Y-93079000D01*
X129758443Y-93085519D01*
X129758443Y-93085519D01*
G37*
G36*
X104758443Y-93085519D02*
G01*
X104824627Y-93092037D01*
X104994466Y-93143557D01*
X105150991Y-93227222D01*
X105185772Y-93255766D01*
X105288186Y-93339814D01*
X105368369Y-93437519D01*
X105400778Y-93477009D01*
X105484443Y-93633534D01*
X105535963Y-93803373D01*
X105553359Y-93980000D01*
X105535963Y-94156627D01*
X105484443Y-94326466D01*
X105400778Y-94482991D01*
X105390223Y-94495852D01*
X105288186Y-94620186D01*
X105186729Y-94703448D01*
X105150991Y-94732778D01*
X104994466Y-94816443D01*
X104824627Y-94867963D01*
X104758443Y-94874481D01*
X104692260Y-94881000D01*
X104603740Y-94881000D01*
X104537557Y-94874481D01*
X104471373Y-94867963D01*
X104301534Y-94816443D01*
X104145009Y-94732778D01*
X104109271Y-94703448D01*
X104007814Y-94620186D01*
X103905777Y-94495852D01*
X103895222Y-94482991D01*
X103811557Y-94326466D01*
X103760037Y-94156627D01*
X103742641Y-93980000D01*
X103760037Y-93803373D01*
X103811557Y-93633534D01*
X103895222Y-93477009D01*
X103927631Y-93437519D01*
X104007814Y-93339814D01*
X104110228Y-93255766D01*
X104145009Y-93227222D01*
X104301534Y-93143557D01*
X104471373Y-93092037D01*
X104537557Y-93085519D01*
X104603740Y-93079000D01*
X104692260Y-93079000D01*
X104758443Y-93085519D01*
X104758443Y-93085519D01*
G37*
G36*
X118530823Y-93141313D02*
G01*
X118691242Y-93189976D01*
X118758361Y-93225852D01*
X118839078Y-93268996D01*
X118968659Y-93375341D01*
X119075004Y-93504922D01*
X119075005Y-93504924D01*
X119154024Y-93652758D01*
X119202687Y-93813177D01*
X119219117Y-93980000D01*
X119202687Y-94146823D01*
X119154024Y-94307242D01*
X119113477Y-94383100D01*
X119075004Y-94455078D01*
X118968659Y-94584659D01*
X118839078Y-94691004D01*
X118839076Y-94691005D01*
X118691242Y-94770024D01*
X118530823Y-94818687D01*
X118405804Y-94831000D01*
X118322196Y-94831000D01*
X118197177Y-94818687D01*
X118036758Y-94770024D01*
X117888924Y-94691005D01*
X117888922Y-94691004D01*
X117759341Y-94584659D01*
X117652996Y-94455078D01*
X117614523Y-94383100D01*
X117573976Y-94307242D01*
X117525313Y-94146823D01*
X117508883Y-93980000D01*
X117525313Y-93813177D01*
X117573976Y-93652758D01*
X117652995Y-93504924D01*
X117652996Y-93504922D01*
X117759341Y-93375341D01*
X117888922Y-93268996D01*
X117969639Y-93225852D01*
X118036758Y-93189976D01*
X118197177Y-93141313D01*
X118322196Y-93129000D01*
X118405804Y-93129000D01*
X118530823Y-93141313D01*
X118530823Y-93141313D01*
G37*
G36*
X108452228Y-93161703D02*
G01*
X108607100Y-93225853D01*
X108746481Y-93318985D01*
X108865015Y-93437519D01*
X108958147Y-93576900D01*
X109022297Y-93731772D01*
X109055000Y-93896184D01*
X109055000Y-94063816D01*
X109022297Y-94228228D01*
X108958147Y-94383100D01*
X108865015Y-94522481D01*
X108746481Y-94641015D01*
X108607100Y-94734147D01*
X108452228Y-94798297D01*
X108287816Y-94831000D01*
X108120184Y-94831000D01*
X107955772Y-94798297D01*
X107800900Y-94734147D01*
X107661519Y-94641015D01*
X107542985Y-94522481D01*
X107449853Y-94383100D01*
X107385703Y-94228228D01*
X107353000Y-94063816D01*
X107353000Y-93896184D01*
X107385703Y-93731772D01*
X107449853Y-93576900D01*
X107542985Y-93437519D01*
X107661519Y-93318985D01*
X107800900Y-93225853D01*
X107955772Y-93161703D01*
X108120184Y-93129000D01*
X108287816Y-93129000D01*
X108452228Y-93161703D01*
X108452228Y-93161703D01*
G37*
G36*
X125411000Y-93677000D02*
G01*
X123509000Y-93677000D01*
X123509000Y-92505000D01*
X125411000Y-92505000D01*
X125411000Y-93677000D01*
X125411000Y-93677000D01*
G37*
G36*
X154357294Y-90132233D02*
G01*
X154529695Y-90184531D01*
X154688583Y-90269458D01*
X154827849Y-90383751D01*
X154942142Y-90523017D01*
X155027069Y-90681905D01*
X155079367Y-90854306D01*
X155092600Y-90988669D01*
X155092600Y-92399331D01*
X155079367Y-92533694D01*
X155027069Y-92706095D01*
X154942142Y-92864983D01*
X154827849Y-93004249D01*
X154688583Y-93118542D01*
X154529694Y-93203469D01*
X154357293Y-93255767D01*
X154178000Y-93273425D01*
X153998706Y-93255767D01*
X153826305Y-93203469D01*
X153667417Y-93118542D01*
X153528151Y-93004249D01*
X153413858Y-92864983D01*
X153328931Y-92706094D01*
X153276633Y-92533693D01*
X153263400Y-92399330D01*
X153263401Y-90988669D01*
X153276634Y-90854306D01*
X153328932Y-90681905D01*
X153413859Y-90523017D01*
X153528152Y-90383751D01*
X153667418Y-90269458D01*
X153826306Y-90184531D01*
X153998707Y-90132233D01*
X154178000Y-90114575D01*
X154357294Y-90132233D01*
X154357294Y-90132233D01*
G37*
G36*
X149357294Y-90132233D02*
G01*
X149529695Y-90184531D01*
X149688583Y-90269458D01*
X149827849Y-90383751D01*
X149942142Y-90523017D01*
X150027069Y-90681905D01*
X150079367Y-90854306D01*
X150092600Y-90988669D01*
X150092600Y-92399331D01*
X150079367Y-92533694D01*
X150027069Y-92706095D01*
X149942142Y-92864983D01*
X149827849Y-93004249D01*
X149688583Y-93118542D01*
X149529694Y-93203469D01*
X149357293Y-93255767D01*
X149178000Y-93273425D01*
X148998706Y-93255767D01*
X148826305Y-93203469D01*
X148667417Y-93118542D01*
X148528151Y-93004249D01*
X148413858Y-92864983D01*
X148328931Y-92706094D01*
X148276633Y-92533693D01*
X148263400Y-92399330D01*
X148263401Y-90988669D01*
X148276634Y-90854306D01*
X148328932Y-90681905D01*
X148413859Y-90523017D01*
X148528152Y-90383751D01*
X148667418Y-90269458D01*
X148826306Y-90184531D01*
X148998707Y-90132233D01*
X149178000Y-90114575D01*
X149357294Y-90132233D01*
X149357294Y-90132233D01*
G37*
G36*
X129758443Y-90545519D02*
G01*
X129824627Y-90552037D01*
X129994466Y-90603557D01*
X130150991Y-90687222D01*
X130186729Y-90716552D01*
X130288186Y-90799814D01*
X130371448Y-90901271D01*
X130400778Y-90937009D01*
X130484443Y-91093534D01*
X130535963Y-91263373D01*
X130553359Y-91440000D01*
X130535963Y-91616627D01*
X130484443Y-91786466D01*
X130400778Y-91942991D01*
X130371448Y-91978729D01*
X130288186Y-92080186D01*
X130186729Y-92163448D01*
X130150991Y-92192778D01*
X129994466Y-92276443D01*
X129824627Y-92327963D01*
X129758443Y-92334481D01*
X129692260Y-92341000D01*
X129603740Y-92341000D01*
X129537557Y-92334481D01*
X129471373Y-92327963D01*
X129301534Y-92276443D01*
X129145009Y-92192778D01*
X129109271Y-92163448D01*
X129007814Y-92080186D01*
X128924552Y-91978729D01*
X128895222Y-91942991D01*
X128811557Y-91786466D01*
X128760037Y-91616627D01*
X128742641Y-91440000D01*
X128760037Y-91263373D01*
X128811557Y-91093534D01*
X128895222Y-90937009D01*
X128924552Y-90901271D01*
X129007814Y-90799814D01*
X129109271Y-90716552D01*
X129145009Y-90687222D01*
X129301534Y-90603557D01*
X129471373Y-90552037D01*
X129537557Y-90545519D01*
X129603740Y-90539000D01*
X129692260Y-90539000D01*
X129758443Y-90545519D01*
X129758443Y-90545519D01*
G37*
G36*
X104758443Y-90545519D02*
G01*
X104824627Y-90552037D01*
X104994466Y-90603557D01*
X105150991Y-90687222D01*
X105186729Y-90716552D01*
X105288186Y-90799814D01*
X105371448Y-90901271D01*
X105400778Y-90937009D01*
X105484443Y-91093534D01*
X105535963Y-91263373D01*
X105553359Y-91440000D01*
X105535963Y-91616627D01*
X105484443Y-91786466D01*
X105400778Y-91942991D01*
X105371448Y-91978729D01*
X105288186Y-92080186D01*
X105186729Y-92163448D01*
X105150991Y-92192778D01*
X104994466Y-92276443D01*
X104824627Y-92327963D01*
X104758443Y-92334481D01*
X104692260Y-92341000D01*
X104603740Y-92341000D01*
X104537557Y-92334481D01*
X104471373Y-92327963D01*
X104301534Y-92276443D01*
X104145009Y-92192778D01*
X104109271Y-92163448D01*
X104007814Y-92080186D01*
X103924552Y-91978729D01*
X103895222Y-91942991D01*
X103811557Y-91786466D01*
X103760037Y-91616627D01*
X103742641Y-91440000D01*
X103760037Y-91263373D01*
X103811557Y-91093534D01*
X103895222Y-90937009D01*
X103924552Y-90901271D01*
X104007814Y-90799814D01*
X104109271Y-90716552D01*
X104145009Y-90687222D01*
X104301534Y-90603557D01*
X104471373Y-90552037D01*
X104537557Y-90545519D01*
X104603740Y-90539000D01*
X104692260Y-90539000D01*
X104758443Y-90545519D01*
X104758443Y-90545519D01*
G37*
G36*
X163214600Y-88510989D02*
G01*
X163247652Y-88521015D01*
X163278103Y-88537292D01*
X163304799Y-88559201D01*
X163326708Y-88585897D01*
X163342985Y-88616348D01*
X163353011Y-88649400D01*
X163357000Y-88689903D01*
X163357000Y-90126097D01*
X163353011Y-90166600D01*
X163342985Y-90199652D01*
X163326708Y-90230103D01*
X163304799Y-90256799D01*
X163278103Y-90278708D01*
X163247652Y-90294985D01*
X163214600Y-90305011D01*
X163174097Y-90309000D01*
X161437903Y-90309000D01*
X161397400Y-90305011D01*
X161364348Y-90294985D01*
X161333897Y-90278708D01*
X161307201Y-90256799D01*
X161285292Y-90230103D01*
X161269015Y-90199652D01*
X161258989Y-90166600D01*
X161255000Y-90126097D01*
X161255000Y-88689903D01*
X161258989Y-88649400D01*
X161269015Y-88616348D01*
X161285292Y-88585897D01*
X161307201Y-88559201D01*
X161333897Y-88537292D01*
X161364348Y-88521015D01*
X161397400Y-88510989D01*
X161437903Y-88507000D01*
X163174097Y-88507000D01*
X163214600Y-88510989D01*
X163214600Y-88510989D01*
G37*
G36*
X123046443Y-88259519D02*
G01*
X123112627Y-88266037D01*
X123282466Y-88317557D01*
X123438991Y-88401222D01*
X123474729Y-88430552D01*
X123576186Y-88513814D01*
X123635342Y-88585897D01*
X123688778Y-88651009D01*
X123772443Y-88807534D01*
X123823963Y-88977373D01*
X123841359Y-89154000D01*
X123823963Y-89330627D01*
X123772443Y-89500466D01*
X123688778Y-89656991D01*
X123659448Y-89692729D01*
X123576186Y-89794186D01*
X123474729Y-89877448D01*
X123438991Y-89906778D01*
X123282466Y-89990443D01*
X123112627Y-90041963D01*
X123046443Y-90048481D01*
X122980260Y-90055000D01*
X122891740Y-90055000D01*
X122825557Y-90048481D01*
X122759373Y-90041963D01*
X122589534Y-89990443D01*
X122433009Y-89906778D01*
X122397271Y-89877448D01*
X122295814Y-89794186D01*
X122212552Y-89692729D01*
X122183222Y-89656991D01*
X122099557Y-89500466D01*
X122048037Y-89330627D01*
X122030641Y-89154000D01*
X122048037Y-88977373D01*
X122099557Y-88807534D01*
X122183222Y-88651009D01*
X122236658Y-88585897D01*
X122295814Y-88513814D01*
X122397271Y-88430552D01*
X122433009Y-88401222D01*
X122589534Y-88317557D01*
X122759373Y-88266037D01*
X122825557Y-88259519D01*
X122891740Y-88253000D01*
X122980260Y-88253000D01*
X123046443Y-88259519D01*
X123046443Y-88259519D01*
G37*
G36*
X117966443Y-88259519D02*
G01*
X118032627Y-88266037D01*
X118202466Y-88317557D01*
X118358991Y-88401222D01*
X118394729Y-88430552D01*
X118496186Y-88513814D01*
X118555342Y-88585897D01*
X118608778Y-88651009D01*
X118692443Y-88807534D01*
X118743963Y-88977373D01*
X118761359Y-89154000D01*
X118743963Y-89330627D01*
X118692443Y-89500466D01*
X118608778Y-89656991D01*
X118579448Y-89692729D01*
X118496186Y-89794186D01*
X118394729Y-89877448D01*
X118358991Y-89906778D01*
X118202466Y-89990443D01*
X118032627Y-90041963D01*
X117966443Y-90048481D01*
X117900260Y-90055000D01*
X117811740Y-90055000D01*
X117745557Y-90048481D01*
X117679373Y-90041963D01*
X117509534Y-89990443D01*
X117353009Y-89906778D01*
X117317271Y-89877448D01*
X117215814Y-89794186D01*
X117132552Y-89692729D01*
X117103222Y-89656991D01*
X117019557Y-89500466D01*
X116968037Y-89330627D01*
X116950641Y-89154000D01*
X116968037Y-88977373D01*
X117019557Y-88807534D01*
X117103222Y-88651009D01*
X117156658Y-88585897D01*
X117215814Y-88513814D01*
X117317271Y-88430552D01*
X117353009Y-88401222D01*
X117509534Y-88317557D01*
X117679373Y-88266037D01*
X117745557Y-88259519D01*
X117811740Y-88253000D01*
X117900260Y-88253000D01*
X117966443Y-88259519D01*
X117966443Y-88259519D01*
G37*
G36*
X125586443Y-88259519D02*
G01*
X125652627Y-88266037D01*
X125822466Y-88317557D01*
X125978991Y-88401222D01*
X126014729Y-88430552D01*
X126116186Y-88513814D01*
X126175342Y-88585897D01*
X126228778Y-88651009D01*
X126312443Y-88807534D01*
X126363963Y-88977373D01*
X126381359Y-89154000D01*
X126363963Y-89330627D01*
X126312443Y-89500466D01*
X126228778Y-89656991D01*
X126199448Y-89692729D01*
X126116186Y-89794186D01*
X126014729Y-89877448D01*
X125978991Y-89906778D01*
X125822466Y-89990443D01*
X125652627Y-90041963D01*
X125586443Y-90048481D01*
X125520260Y-90055000D01*
X125431740Y-90055000D01*
X125365557Y-90048481D01*
X125299373Y-90041963D01*
X125129534Y-89990443D01*
X124973009Y-89906778D01*
X124937271Y-89877448D01*
X124835814Y-89794186D01*
X124752552Y-89692729D01*
X124723222Y-89656991D01*
X124639557Y-89500466D01*
X124588037Y-89330627D01*
X124570641Y-89154000D01*
X124588037Y-88977373D01*
X124639557Y-88807534D01*
X124723222Y-88651009D01*
X124776658Y-88585897D01*
X124835814Y-88513814D01*
X124937271Y-88430552D01*
X124973009Y-88401222D01*
X125129534Y-88317557D01*
X125299373Y-88266037D01*
X125365557Y-88259519D01*
X125431740Y-88253000D01*
X125520260Y-88253000D01*
X125586443Y-88259519D01*
X125586443Y-88259519D01*
G37*
G36*
X112886443Y-88259519D02*
G01*
X112952627Y-88266037D01*
X113122466Y-88317557D01*
X113278991Y-88401222D01*
X113314729Y-88430552D01*
X113416186Y-88513814D01*
X113475342Y-88585897D01*
X113528778Y-88651009D01*
X113612443Y-88807534D01*
X113663963Y-88977373D01*
X113681359Y-89154000D01*
X113663963Y-89330627D01*
X113612443Y-89500466D01*
X113528778Y-89656991D01*
X113499448Y-89692729D01*
X113416186Y-89794186D01*
X113314729Y-89877448D01*
X113278991Y-89906778D01*
X113122466Y-89990443D01*
X112952627Y-90041963D01*
X112886443Y-90048481D01*
X112820260Y-90055000D01*
X112731740Y-90055000D01*
X112665557Y-90048481D01*
X112599373Y-90041963D01*
X112429534Y-89990443D01*
X112273009Y-89906778D01*
X112237271Y-89877448D01*
X112135814Y-89794186D01*
X112052552Y-89692729D01*
X112023222Y-89656991D01*
X111939557Y-89500466D01*
X111888037Y-89330627D01*
X111870641Y-89154000D01*
X111888037Y-88977373D01*
X111939557Y-88807534D01*
X112023222Y-88651009D01*
X112076658Y-88585897D01*
X112135814Y-88513814D01*
X112237271Y-88430552D01*
X112273009Y-88401222D01*
X112429534Y-88317557D01*
X112599373Y-88266037D01*
X112665557Y-88259519D01*
X112731740Y-88253000D01*
X112820260Y-88253000D01*
X112886443Y-88259519D01*
X112886443Y-88259519D01*
G37*
G36*
X115426443Y-88259519D02*
G01*
X115492627Y-88266037D01*
X115662466Y-88317557D01*
X115818991Y-88401222D01*
X115854729Y-88430552D01*
X115956186Y-88513814D01*
X116015342Y-88585897D01*
X116068778Y-88651009D01*
X116152443Y-88807534D01*
X116203963Y-88977373D01*
X116221359Y-89154000D01*
X116203963Y-89330627D01*
X116152443Y-89500466D01*
X116068778Y-89656991D01*
X116039448Y-89692729D01*
X115956186Y-89794186D01*
X115854729Y-89877448D01*
X115818991Y-89906778D01*
X115662466Y-89990443D01*
X115492627Y-90041963D01*
X115426443Y-90048481D01*
X115360260Y-90055000D01*
X115271740Y-90055000D01*
X115205557Y-90048481D01*
X115139373Y-90041963D01*
X114969534Y-89990443D01*
X114813009Y-89906778D01*
X114777271Y-89877448D01*
X114675814Y-89794186D01*
X114592552Y-89692729D01*
X114563222Y-89656991D01*
X114479557Y-89500466D01*
X114428037Y-89330627D01*
X114410641Y-89154000D01*
X114428037Y-88977373D01*
X114479557Y-88807534D01*
X114563222Y-88651009D01*
X114616658Y-88585897D01*
X114675814Y-88513814D01*
X114777271Y-88430552D01*
X114813009Y-88401222D01*
X114969534Y-88317557D01*
X115139373Y-88266037D01*
X115205557Y-88259519D01*
X115271740Y-88253000D01*
X115360260Y-88253000D01*
X115426443Y-88259519D01*
X115426443Y-88259519D01*
G37*
G36*
X120506443Y-88259519D02*
G01*
X120572627Y-88266037D01*
X120742466Y-88317557D01*
X120898991Y-88401222D01*
X120934729Y-88430552D01*
X121036186Y-88513814D01*
X121095342Y-88585897D01*
X121148778Y-88651009D01*
X121232443Y-88807534D01*
X121283963Y-88977373D01*
X121301359Y-89154000D01*
X121283963Y-89330627D01*
X121232443Y-89500466D01*
X121148778Y-89656991D01*
X121119448Y-89692729D01*
X121036186Y-89794186D01*
X120934729Y-89877448D01*
X120898991Y-89906778D01*
X120742466Y-89990443D01*
X120572627Y-90041963D01*
X120506443Y-90048481D01*
X120440260Y-90055000D01*
X120351740Y-90055000D01*
X120285557Y-90048481D01*
X120219373Y-90041963D01*
X120049534Y-89990443D01*
X119893009Y-89906778D01*
X119857271Y-89877448D01*
X119755814Y-89794186D01*
X119672552Y-89692729D01*
X119643222Y-89656991D01*
X119559557Y-89500466D01*
X119508037Y-89330627D01*
X119490641Y-89154000D01*
X119508037Y-88977373D01*
X119559557Y-88807534D01*
X119643222Y-88651009D01*
X119696658Y-88585897D01*
X119755814Y-88513814D01*
X119857271Y-88430552D01*
X119893009Y-88401222D01*
X120049534Y-88317557D01*
X120219373Y-88266037D01*
X120285557Y-88259519D01*
X120351740Y-88253000D01*
X120440260Y-88253000D01*
X120506443Y-88259519D01*
X120506443Y-88259519D01*
G37*
G36*
X111137000Y-90055000D02*
G01*
X109335000Y-90055000D01*
X109335000Y-88253000D01*
X111137000Y-88253000D01*
X111137000Y-90055000D01*
X111137000Y-90055000D01*
G37*
G36*
X104758443Y-88005519D02*
G01*
X104824627Y-88012037D01*
X104994466Y-88063557D01*
X105150991Y-88147222D01*
X105186729Y-88176552D01*
X105288186Y-88259814D01*
X105371448Y-88361271D01*
X105400778Y-88397009D01*
X105484443Y-88553534D01*
X105535963Y-88723373D01*
X105553359Y-88900000D01*
X105535963Y-89076627D01*
X105484443Y-89246466D01*
X105400778Y-89402991D01*
X105371448Y-89438729D01*
X105288186Y-89540186D01*
X105186729Y-89623448D01*
X105150991Y-89652778D01*
X104994466Y-89736443D01*
X104824627Y-89787963D01*
X104761453Y-89794185D01*
X104692260Y-89801000D01*
X104603740Y-89801000D01*
X104534547Y-89794185D01*
X104471373Y-89787963D01*
X104301534Y-89736443D01*
X104145009Y-89652778D01*
X104109271Y-89623448D01*
X104007814Y-89540186D01*
X103924552Y-89438729D01*
X103895222Y-89402991D01*
X103811557Y-89246466D01*
X103760037Y-89076627D01*
X103742641Y-88900000D01*
X103760037Y-88723373D01*
X103811557Y-88553534D01*
X103895222Y-88397009D01*
X103924552Y-88361271D01*
X104007814Y-88259814D01*
X104109271Y-88176552D01*
X104145009Y-88147222D01*
X104301534Y-88063557D01*
X104471373Y-88012037D01*
X104537557Y-88005519D01*
X104603740Y-87999000D01*
X104692260Y-87999000D01*
X104758443Y-88005519D01*
X104758443Y-88005519D01*
G37*
G36*
X129758443Y-88005519D02*
G01*
X129824627Y-88012037D01*
X129994466Y-88063557D01*
X130150991Y-88147222D01*
X130186729Y-88176552D01*
X130288186Y-88259814D01*
X130371448Y-88361271D01*
X130400778Y-88397009D01*
X130484443Y-88553534D01*
X130535963Y-88723373D01*
X130553359Y-88900000D01*
X130535963Y-89076627D01*
X130484443Y-89246466D01*
X130400778Y-89402991D01*
X130371448Y-89438729D01*
X130288186Y-89540186D01*
X130186729Y-89623448D01*
X130150991Y-89652778D01*
X129994466Y-89736443D01*
X129824627Y-89787963D01*
X129761453Y-89794185D01*
X129692260Y-89801000D01*
X129603740Y-89801000D01*
X129534547Y-89794185D01*
X129471373Y-89787963D01*
X129301534Y-89736443D01*
X129145009Y-89652778D01*
X129109271Y-89623448D01*
X129007814Y-89540186D01*
X128924552Y-89438729D01*
X128895222Y-89402991D01*
X128811557Y-89246466D01*
X128760037Y-89076627D01*
X128742641Y-88900000D01*
X128760037Y-88723373D01*
X128811557Y-88553534D01*
X128895222Y-88397009D01*
X128924552Y-88361271D01*
X129007814Y-88259814D01*
X129109271Y-88176552D01*
X129145009Y-88147222D01*
X129301534Y-88063557D01*
X129471373Y-88012037D01*
X129537557Y-88005519D01*
X129603740Y-87999000D01*
X129692260Y-87999000D01*
X129758443Y-88005519D01*
X129758443Y-88005519D01*
G37*
G36*
X154357294Y-86376233D02*
G01*
X154529695Y-86428531D01*
X154688583Y-86513458D01*
X154827849Y-86627751D01*
X154942142Y-86767017D01*
X155027069Y-86925905D01*
X155079367Y-87098306D01*
X155092600Y-87232669D01*
X155092600Y-88643331D01*
X155079367Y-88777694D01*
X155027069Y-88950095D01*
X154942142Y-89108983D01*
X154827849Y-89248249D01*
X154688583Y-89362542D01*
X154529694Y-89447469D01*
X154357293Y-89499767D01*
X154178000Y-89517425D01*
X153998706Y-89499767D01*
X153826305Y-89447469D01*
X153667417Y-89362542D01*
X153528151Y-89248249D01*
X153413858Y-89108983D01*
X153328931Y-88950094D01*
X153276633Y-88777693D01*
X153263400Y-88643330D01*
X153263401Y-87232669D01*
X153276634Y-87098306D01*
X153328932Y-86925905D01*
X153413859Y-86767017D01*
X153528152Y-86627751D01*
X153667418Y-86513458D01*
X153826306Y-86428531D01*
X153998707Y-86376233D01*
X154178000Y-86358575D01*
X154357294Y-86376233D01*
X154357294Y-86376233D01*
G37*
G36*
X149357294Y-86376233D02*
G01*
X149529695Y-86428531D01*
X149688583Y-86513458D01*
X149827849Y-86627751D01*
X149942142Y-86767017D01*
X150027069Y-86925905D01*
X150079367Y-87098306D01*
X150092600Y-87232669D01*
X150092600Y-88643331D01*
X150079367Y-88777694D01*
X150027069Y-88950095D01*
X149942142Y-89108983D01*
X149827849Y-89248249D01*
X149688583Y-89362542D01*
X149529694Y-89447469D01*
X149357293Y-89499767D01*
X149178000Y-89517425D01*
X148998706Y-89499767D01*
X148826305Y-89447469D01*
X148667417Y-89362542D01*
X148528151Y-89248249D01*
X148413858Y-89108983D01*
X148328931Y-88950094D01*
X148276633Y-88777693D01*
X148263400Y-88643330D01*
X148263401Y-87232669D01*
X148276634Y-87098306D01*
X148328932Y-86925905D01*
X148413859Y-86767017D01*
X148528152Y-86627751D01*
X148667418Y-86513458D01*
X148826306Y-86428531D01*
X148998707Y-86376233D01*
X149178000Y-86358575D01*
X149357294Y-86376233D01*
X149357294Y-86376233D01*
G37*
G36*
X162566442Y-86013518D02*
G01*
X162632627Y-86020037D01*
X162802466Y-86071557D01*
X162958991Y-86155222D01*
X162993293Y-86183373D01*
X163096186Y-86267814D01*
X163171840Y-86360000D01*
X163208778Y-86405009D01*
X163292443Y-86561534D01*
X163343963Y-86731373D01*
X163361359Y-86908000D01*
X163343963Y-87084627D01*
X163292443Y-87254466D01*
X163292442Y-87254468D01*
X163250611Y-87332728D01*
X163208778Y-87410991D01*
X163179448Y-87446729D01*
X163096186Y-87548186D01*
X163007731Y-87620778D01*
X162958991Y-87660778D01*
X162802466Y-87744443D01*
X162632627Y-87795963D01*
X162566442Y-87802482D01*
X162500260Y-87809000D01*
X162111740Y-87809000D01*
X162045558Y-87802482D01*
X161979373Y-87795963D01*
X161809534Y-87744443D01*
X161653009Y-87660778D01*
X161604269Y-87620778D01*
X161515814Y-87548186D01*
X161432552Y-87446729D01*
X161403222Y-87410991D01*
X161361390Y-87332729D01*
X161319558Y-87254468D01*
X161319557Y-87254466D01*
X161268037Y-87084627D01*
X161250641Y-86908000D01*
X161268037Y-86731373D01*
X161319557Y-86561534D01*
X161403222Y-86405009D01*
X161440160Y-86360000D01*
X161515814Y-86267814D01*
X161618707Y-86183373D01*
X161653009Y-86155222D01*
X161809534Y-86071557D01*
X161979373Y-86020037D01*
X162045558Y-86013518D01*
X162111740Y-86007000D01*
X162500260Y-86007000D01*
X162566442Y-86013518D01*
X162566442Y-86013518D01*
G37*
G36*
X141617000Y-87769000D02*
G01*
X139815000Y-87769000D01*
X139815000Y-85967000D01*
X141617000Y-85967000D01*
X141617000Y-87769000D01*
X141617000Y-87769000D01*
G37*
G36*
X138286443Y-85973519D02*
G01*
X138352627Y-85980037D01*
X138522466Y-86031557D01*
X138678991Y-86115222D01*
X138714729Y-86144552D01*
X138816186Y-86227814D01*
X138899448Y-86329271D01*
X138928778Y-86365009D01*
X139012443Y-86521534D01*
X139063963Y-86691373D01*
X139081359Y-86868000D01*
X139063963Y-87044627D01*
X139012443Y-87214466D01*
X138928778Y-87370991D01*
X138899448Y-87406729D01*
X138816186Y-87508186D01*
X138714729Y-87591448D01*
X138678991Y-87620778D01*
X138522466Y-87704443D01*
X138352627Y-87755963D01*
X138286442Y-87762482D01*
X138220260Y-87769000D01*
X138131740Y-87769000D01*
X138065558Y-87762482D01*
X137999373Y-87755963D01*
X137829534Y-87704443D01*
X137673009Y-87620778D01*
X137637271Y-87591448D01*
X137535814Y-87508186D01*
X137452552Y-87406729D01*
X137423222Y-87370991D01*
X137339557Y-87214466D01*
X137288037Y-87044627D01*
X137270641Y-86868000D01*
X137288037Y-86691373D01*
X137339557Y-86521534D01*
X137423222Y-86365009D01*
X137452552Y-86329271D01*
X137535814Y-86227814D01*
X137637271Y-86144552D01*
X137673009Y-86115222D01*
X137829534Y-86031557D01*
X137999373Y-85980037D01*
X138065557Y-85973519D01*
X138131740Y-85967000D01*
X138220260Y-85967000D01*
X138286443Y-85973519D01*
X138286443Y-85973519D01*
G37*
G36*
X135746443Y-85973519D02*
G01*
X135812627Y-85980037D01*
X135982466Y-86031557D01*
X136138991Y-86115222D01*
X136174729Y-86144552D01*
X136276186Y-86227814D01*
X136359448Y-86329271D01*
X136388778Y-86365009D01*
X136472443Y-86521534D01*
X136523963Y-86691373D01*
X136541359Y-86868000D01*
X136523963Y-87044627D01*
X136472443Y-87214466D01*
X136388778Y-87370991D01*
X136359448Y-87406729D01*
X136276186Y-87508186D01*
X136174729Y-87591448D01*
X136138991Y-87620778D01*
X135982466Y-87704443D01*
X135812627Y-87755963D01*
X135746442Y-87762482D01*
X135680260Y-87769000D01*
X135591740Y-87769000D01*
X135525558Y-87762482D01*
X135459373Y-87755963D01*
X135289534Y-87704443D01*
X135133009Y-87620778D01*
X135097271Y-87591448D01*
X134995814Y-87508186D01*
X134912552Y-87406729D01*
X134883222Y-87370991D01*
X134799557Y-87214466D01*
X134748037Y-87044627D01*
X134730641Y-86868000D01*
X134748037Y-86691373D01*
X134799557Y-86521534D01*
X134883222Y-86365009D01*
X134912552Y-86329271D01*
X134995814Y-86227814D01*
X135097271Y-86144552D01*
X135133009Y-86115222D01*
X135289534Y-86031557D01*
X135459373Y-85980037D01*
X135525557Y-85973519D01*
X135591740Y-85967000D01*
X135680260Y-85967000D01*
X135746443Y-85973519D01*
X135746443Y-85973519D01*
G37*
G36*
X129758442Y-85465518D02*
G01*
X129824627Y-85472037D01*
X129994466Y-85523557D01*
X130150991Y-85607222D01*
X130186729Y-85636552D01*
X130288186Y-85719814D01*
X130371448Y-85821271D01*
X130400778Y-85857009D01*
X130400779Y-85857011D01*
X130480951Y-86007000D01*
X130484443Y-86013534D01*
X130535963Y-86183373D01*
X130553359Y-86360000D01*
X130535963Y-86536627D01*
X130484443Y-86706466D01*
X130400778Y-86862991D01*
X130396667Y-86868000D01*
X130288186Y-87000186D01*
X130186729Y-87083448D01*
X130150991Y-87112778D01*
X129994466Y-87196443D01*
X129824627Y-87247963D01*
X129758600Y-87254466D01*
X129692260Y-87261000D01*
X129603740Y-87261000D01*
X129537400Y-87254466D01*
X129471373Y-87247963D01*
X129301534Y-87196443D01*
X129145009Y-87112778D01*
X129109271Y-87083448D01*
X129007814Y-87000186D01*
X128899333Y-86868000D01*
X128895222Y-86862991D01*
X128811557Y-86706466D01*
X128760037Y-86536627D01*
X128742641Y-86360000D01*
X128760037Y-86183373D01*
X128811557Y-86013534D01*
X128815050Y-86007000D01*
X128895221Y-85857011D01*
X128895222Y-85857009D01*
X128924552Y-85821271D01*
X129007814Y-85719814D01*
X129109271Y-85636552D01*
X129145009Y-85607222D01*
X129301534Y-85523557D01*
X129471373Y-85472037D01*
X129537558Y-85465518D01*
X129603740Y-85459000D01*
X129692260Y-85459000D01*
X129758442Y-85465518D01*
X129758442Y-85465518D01*
G37*
G36*
X104758442Y-85465518D02*
G01*
X104824627Y-85472037D01*
X104994466Y-85523557D01*
X105150991Y-85607222D01*
X105186729Y-85636552D01*
X105288186Y-85719814D01*
X105371448Y-85821271D01*
X105400778Y-85857009D01*
X105400779Y-85857011D01*
X105480951Y-86007000D01*
X105484443Y-86013534D01*
X105535963Y-86183373D01*
X105553359Y-86360000D01*
X105535963Y-86536627D01*
X105484443Y-86706466D01*
X105400778Y-86862991D01*
X105396667Y-86868000D01*
X105288186Y-87000186D01*
X105186729Y-87083448D01*
X105150991Y-87112778D01*
X104994466Y-87196443D01*
X104824627Y-87247963D01*
X104758600Y-87254466D01*
X104692260Y-87261000D01*
X104603740Y-87261000D01*
X104537400Y-87254466D01*
X104471373Y-87247963D01*
X104301534Y-87196443D01*
X104145009Y-87112778D01*
X104109271Y-87083448D01*
X104007814Y-87000186D01*
X103899333Y-86868000D01*
X103895222Y-86862991D01*
X103811557Y-86706466D01*
X103760037Y-86536627D01*
X103742641Y-86360000D01*
X103760037Y-86183373D01*
X103811557Y-86013534D01*
X103815050Y-86007000D01*
X103895221Y-85857011D01*
X103895222Y-85857009D01*
X103924552Y-85821271D01*
X104007814Y-85719814D01*
X104109271Y-85636552D01*
X104145009Y-85607222D01*
X104301534Y-85523557D01*
X104471373Y-85472037D01*
X104537558Y-85465518D01*
X104603740Y-85459000D01*
X104692260Y-85459000D01*
X104758442Y-85465518D01*
X104758442Y-85465518D01*
G37*
G36*
X138286443Y-83433519D02*
G01*
X138352627Y-83440037D01*
X138522466Y-83491557D01*
X138678991Y-83575222D01*
X138714729Y-83604552D01*
X138816186Y-83687814D01*
X138899448Y-83789271D01*
X138928778Y-83825009D01*
X139012443Y-83981534D01*
X139063963Y-84151373D01*
X139081359Y-84328000D01*
X139063963Y-84504627D01*
X139012443Y-84674466D01*
X138928778Y-84830991D01*
X138899448Y-84866729D01*
X138816186Y-84968186D01*
X138714729Y-85051448D01*
X138678991Y-85080778D01*
X138522466Y-85164443D01*
X138352627Y-85215963D01*
X138286443Y-85222481D01*
X138220260Y-85229000D01*
X138131740Y-85229000D01*
X138065557Y-85222481D01*
X137999373Y-85215963D01*
X137829534Y-85164443D01*
X137673009Y-85080778D01*
X137637271Y-85051448D01*
X137535814Y-84968186D01*
X137452552Y-84866729D01*
X137423222Y-84830991D01*
X137339557Y-84674466D01*
X137288037Y-84504627D01*
X137270641Y-84328000D01*
X137288037Y-84151373D01*
X137339557Y-83981534D01*
X137423222Y-83825009D01*
X137452552Y-83789271D01*
X137535814Y-83687814D01*
X137637271Y-83604552D01*
X137673009Y-83575222D01*
X137829534Y-83491557D01*
X137999373Y-83440037D01*
X138065557Y-83433519D01*
X138131740Y-83427000D01*
X138220260Y-83427000D01*
X138286443Y-83433519D01*
X138286443Y-83433519D01*
G37*
G36*
X135746443Y-83433519D02*
G01*
X135812627Y-83440037D01*
X135982466Y-83491557D01*
X136138991Y-83575222D01*
X136174729Y-83604552D01*
X136276186Y-83687814D01*
X136359448Y-83789271D01*
X136388778Y-83825009D01*
X136472443Y-83981534D01*
X136523963Y-84151373D01*
X136541359Y-84328000D01*
X136523963Y-84504627D01*
X136472443Y-84674466D01*
X136388778Y-84830991D01*
X136359448Y-84866729D01*
X136276186Y-84968186D01*
X136174729Y-85051448D01*
X136138991Y-85080778D01*
X135982466Y-85164443D01*
X135812627Y-85215963D01*
X135746443Y-85222481D01*
X135680260Y-85229000D01*
X135591740Y-85229000D01*
X135525557Y-85222481D01*
X135459373Y-85215963D01*
X135289534Y-85164443D01*
X135133009Y-85080778D01*
X135097271Y-85051448D01*
X134995814Y-84968186D01*
X134912552Y-84866729D01*
X134883222Y-84830991D01*
X134799557Y-84674466D01*
X134748037Y-84504627D01*
X134730641Y-84328000D01*
X134748037Y-84151373D01*
X134799557Y-83981534D01*
X134883222Y-83825009D01*
X134912552Y-83789271D01*
X134995814Y-83687814D01*
X135097271Y-83604552D01*
X135133009Y-83575222D01*
X135289534Y-83491557D01*
X135459373Y-83440037D01*
X135525557Y-83433519D01*
X135591740Y-83427000D01*
X135680260Y-83427000D01*
X135746443Y-83433519D01*
X135746443Y-83433519D01*
G37*
G36*
X141617000Y-85229000D02*
G01*
X139815000Y-85229000D01*
X139815000Y-83427000D01*
X141617000Y-83427000D01*
X141617000Y-85229000D01*
X141617000Y-85229000D01*
G37*
G36*
X104758443Y-82925519D02*
G01*
X104824627Y-82932037D01*
X104994466Y-82983557D01*
X105150991Y-83067222D01*
X105186729Y-83096552D01*
X105288186Y-83179814D01*
X105371448Y-83281271D01*
X105400778Y-83317009D01*
X105484443Y-83473534D01*
X105535963Y-83643373D01*
X105553359Y-83820000D01*
X105535963Y-83996627D01*
X105484443Y-84166466D01*
X105400778Y-84322991D01*
X105396667Y-84328000D01*
X105288186Y-84460186D01*
X105186729Y-84543448D01*
X105150991Y-84572778D01*
X104994466Y-84656443D01*
X104824627Y-84707963D01*
X104758443Y-84714481D01*
X104692260Y-84721000D01*
X104603740Y-84721000D01*
X104537557Y-84714481D01*
X104471373Y-84707963D01*
X104301534Y-84656443D01*
X104145009Y-84572778D01*
X104109271Y-84543448D01*
X104007814Y-84460186D01*
X103899333Y-84328000D01*
X103895222Y-84322991D01*
X103811557Y-84166466D01*
X103760037Y-83996627D01*
X103742641Y-83820000D01*
X103760037Y-83643373D01*
X103811557Y-83473534D01*
X103895222Y-83317009D01*
X103924552Y-83281271D01*
X104007814Y-83179814D01*
X104109271Y-83096552D01*
X104145009Y-83067222D01*
X104301534Y-82983557D01*
X104471373Y-82932037D01*
X104537557Y-82925519D01*
X104603740Y-82919000D01*
X104692260Y-82919000D01*
X104758443Y-82925519D01*
X104758443Y-82925519D01*
G37*
G36*
X129758443Y-82925519D02*
G01*
X129824627Y-82932037D01*
X129994466Y-82983557D01*
X130150991Y-83067222D01*
X130186729Y-83096552D01*
X130288186Y-83179814D01*
X130371448Y-83281271D01*
X130400778Y-83317009D01*
X130484443Y-83473534D01*
X130535963Y-83643373D01*
X130553359Y-83820000D01*
X130535963Y-83996627D01*
X130484443Y-84166466D01*
X130400778Y-84322991D01*
X130396667Y-84328000D01*
X130288186Y-84460186D01*
X130186729Y-84543448D01*
X130150991Y-84572778D01*
X129994466Y-84656443D01*
X129824627Y-84707963D01*
X129758443Y-84714481D01*
X129692260Y-84721000D01*
X129603740Y-84721000D01*
X129537557Y-84714481D01*
X129471373Y-84707963D01*
X129301534Y-84656443D01*
X129145009Y-84572778D01*
X129109271Y-84543448D01*
X129007814Y-84460186D01*
X128899333Y-84328000D01*
X128895222Y-84322991D01*
X128811557Y-84166466D01*
X128760037Y-83996627D01*
X128742641Y-83820000D01*
X128760037Y-83643373D01*
X128811557Y-83473534D01*
X128895222Y-83317009D01*
X128924552Y-83281271D01*
X129007814Y-83179814D01*
X129109271Y-83096552D01*
X129145009Y-83067222D01*
X129301534Y-82983557D01*
X129471373Y-82932037D01*
X129537557Y-82925519D01*
X129603740Y-82919000D01*
X129692260Y-82919000D01*
X129758443Y-82925519D01*
X129758443Y-82925519D01*
G37*
G36*
X110375000Y-84467000D02*
G01*
X108573000Y-84467000D01*
X108573000Y-82665000D01*
X110375000Y-82665000D01*
X110375000Y-84467000D01*
X110375000Y-84467000D01*
G37*
G36*
X163119312Y-81815887D02*
G01*
X163209039Y-81843106D01*
X163291731Y-81887306D01*
X163364211Y-81946789D01*
X163423694Y-82019269D01*
X163467894Y-82101961D01*
X163495113Y-82191688D01*
X163504303Y-82285000D01*
X163495113Y-82378312D01*
X163467894Y-82468039D01*
X163423694Y-82550731D01*
X163364211Y-82623211D01*
X163291731Y-82682694D01*
X163209039Y-82726894D01*
X163119312Y-82754113D01*
X163049384Y-82761000D01*
X162002616Y-82761000D01*
X161932688Y-82754113D01*
X161842961Y-82726894D01*
X161760269Y-82682694D01*
X161687789Y-82623211D01*
X161628306Y-82550731D01*
X161584106Y-82468039D01*
X161556887Y-82378312D01*
X161547697Y-82285000D01*
X161556887Y-82191688D01*
X161584106Y-82101961D01*
X161628306Y-82019269D01*
X161687789Y-81946789D01*
X161760269Y-81887306D01*
X161842961Y-81843106D01*
X161932688Y-81815887D01*
X162002616Y-81809000D01*
X163049384Y-81809000D01*
X163119312Y-81815887D01*
X163119312Y-81815887D01*
G37*
G36*
X129758442Y-80385518D02*
G01*
X129824627Y-80392037D01*
X129994466Y-80443557D01*
X130150991Y-80527222D01*
X130173901Y-80546024D01*
X130288186Y-80639814D01*
X130371448Y-80741271D01*
X130400778Y-80777009D01*
X130484443Y-80933534D01*
X130535963Y-81103373D01*
X130553359Y-81280000D01*
X130535963Y-81456627D01*
X130484443Y-81626466D01*
X130400778Y-81782991D01*
X130379433Y-81809000D01*
X130288186Y-81920186D01*
X130186729Y-82003448D01*
X130150991Y-82032778D01*
X130150989Y-82032779D01*
X130021564Y-82101959D01*
X129994466Y-82116443D01*
X129824627Y-82167963D01*
X129758443Y-82174481D01*
X129692260Y-82181000D01*
X129603740Y-82181000D01*
X129537557Y-82174481D01*
X129471373Y-82167963D01*
X129301534Y-82116443D01*
X129274437Y-82101959D01*
X129145011Y-82032779D01*
X129145009Y-82032778D01*
X129109271Y-82003448D01*
X129007814Y-81920186D01*
X128916567Y-81809000D01*
X128895222Y-81782991D01*
X128811557Y-81626466D01*
X128760037Y-81456627D01*
X128742641Y-81280000D01*
X128760037Y-81103373D01*
X128811557Y-80933534D01*
X128895222Y-80777009D01*
X128924552Y-80741271D01*
X129007814Y-80639814D01*
X129122099Y-80546024D01*
X129145009Y-80527222D01*
X129301534Y-80443557D01*
X129471373Y-80392037D01*
X129537558Y-80385518D01*
X129603740Y-80379000D01*
X129692260Y-80379000D01*
X129758442Y-80385518D01*
X129758442Y-80385518D01*
G37*
G36*
X104758442Y-80385518D02*
G01*
X104824627Y-80392037D01*
X104994466Y-80443557D01*
X105150991Y-80527222D01*
X105173901Y-80546024D01*
X105288186Y-80639814D01*
X105371448Y-80741271D01*
X105400778Y-80777009D01*
X105484443Y-80933534D01*
X105535963Y-81103373D01*
X105553359Y-81280000D01*
X105535963Y-81456627D01*
X105484443Y-81626466D01*
X105400778Y-81782991D01*
X105379433Y-81809000D01*
X105288186Y-81920186D01*
X105186729Y-82003448D01*
X105150991Y-82032778D01*
X105150989Y-82032779D01*
X105021564Y-82101959D01*
X104994466Y-82116443D01*
X104824627Y-82167963D01*
X104758443Y-82174481D01*
X104692260Y-82181000D01*
X104603740Y-82181000D01*
X104537557Y-82174481D01*
X104471373Y-82167963D01*
X104301534Y-82116443D01*
X104274437Y-82101959D01*
X104145011Y-82032779D01*
X104145009Y-82032778D01*
X104109271Y-82003448D01*
X104007814Y-81920186D01*
X103916567Y-81809000D01*
X103895222Y-81782991D01*
X103811557Y-81626466D01*
X103760037Y-81456627D01*
X103742641Y-81280000D01*
X103760037Y-81103373D01*
X103811557Y-80933534D01*
X103895222Y-80777009D01*
X103924552Y-80741271D01*
X104007814Y-80639814D01*
X104122099Y-80546024D01*
X104145009Y-80527222D01*
X104301534Y-80443557D01*
X104471373Y-80392037D01*
X104537558Y-80385518D01*
X104603740Y-80379000D01*
X104692260Y-80379000D01*
X104758442Y-80385518D01*
X104758442Y-80385518D01*
G37*
G36*
X109584443Y-80131519D02*
G01*
X109650627Y-80138037D01*
X109820466Y-80189557D01*
X109976991Y-80273222D01*
X110007768Y-80298480D01*
X110114186Y-80385814D01*
X110192302Y-80481000D01*
X110226778Y-80523009D01*
X110310443Y-80679534D01*
X110361963Y-80849373D01*
X110379359Y-81026000D01*
X110361963Y-81202627D01*
X110310443Y-81372466D01*
X110226778Y-81528991D01*
X110197448Y-81564729D01*
X110114186Y-81666186D01*
X110012729Y-81749448D01*
X109976991Y-81778778D01*
X109820466Y-81862443D01*
X109650627Y-81913963D01*
X109587453Y-81920185D01*
X109518260Y-81927000D01*
X109429740Y-81927000D01*
X109360547Y-81920185D01*
X109297373Y-81913963D01*
X109127534Y-81862443D01*
X108971009Y-81778778D01*
X108935271Y-81749448D01*
X108833814Y-81666186D01*
X108750552Y-81564729D01*
X108721222Y-81528991D01*
X108637557Y-81372466D01*
X108586037Y-81202627D01*
X108568641Y-81026000D01*
X108586037Y-80849373D01*
X108637557Y-80679534D01*
X108721222Y-80523009D01*
X108755698Y-80481000D01*
X108833814Y-80385814D01*
X108940232Y-80298480D01*
X108971009Y-80273222D01*
X109127534Y-80189557D01*
X109297373Y-80138037D01*
X109363557Y-80131519D01*
X109429740Y-80125000D01*
X109518260Y-80125000D01*
X109584443Y-80131519D01*
X109584443Y-80131519D01*
G37*
G36*
X143168823Y-78917313D02*
G01*
X143329242Y-78965976D01*
X143412063Y-79010245D01*
X143477078Y-79044996D01*
X143606659Y-79151341D01*
X143713004Y-79280922D01*
X143713005Y-79280924D01*
X143792024Y-79428758D01*
X143840687Y-79589177D01*
X143857117Y-79756000D01*
X143840687Y-79922823D01*
X143792024Y-80083242D01*
X143751477Y-80159100D01*
X143713004Y-80231078D01*
X143606659Y-80360659D01*
X143477078Y-80467004D01*
X143477076Y-80467005D01*
X143329242Y-80546024D01*
X143168823Y-80594687D01*
X143043804Y-80607000D01*
X142960196Y-80607000D01*
X142835177Y-80594687D01*
X142674758Y-80546024D01*
X142526924Y-80467005D01*
X142526922Y-80467004D01*
X142397341Y-80360659D01*
X142290996Y-80231078D01*
X142252523Y-80159100D01*
X142211976Y-80083242D01*
X142163313Y-79922823D01*
X142146883Y-79756000D01*
X142163313Y-79589177D01*
X142211976Y-79428758D01*
X142290995Y-79280924D01*
X142290996Y-79280922D01*
X142397341Y-79151341D01*
X142526922Y-79044996D01*
X142591937Y-79010245D01*
X142674758Y-78965976D01*
X142835177Y-78917313D01*
X142960196Y-78905000D01*
X143043804Y-78905000D01*
X143168823Y-78917313D01*
X143168823Y-78917313D01*
G37*
G36*
X133090228Y-78937703D02*
G01*
X133245100Y-79001853D01*
X133384481Y-79094985D01*
X133503015Y-79213519D01*
X133596147Y-79352900D01*
X133660297Y-79507772D01*
X133693000Y-79672184D01*
X133693000Y-79839816D01*
X133660297Y-80004228D01*
X133596147Y-80159100D01*
X133503015Y-80298481D01*
X133384481Y-80417015D01*
X133245100Y-80510147D01*
X133090228Y-80574297D01*
X132925816Y-80607000D01*
X132758184Y-80607000D01*
X132593772Y-80574297D01*
X132438900Y-80510147D01*
X132299519Y-80417015D01*
X132180985Y-80298481D01*
X132087853Y-80159100D01*
X132023703Y-80004228D01*
X131991000Y-79839816D01*
X131991000Y-79672184D01*
X132023703Y-79507772D01*
X132087853Y-79352900D01*
X132180985Y-79213519D01*
X132299519Y-79094985D01*
X132438900Y-79001853D01*
X132593772Y-78937703D01*
X132758184Y-78905000D01*
X132925816Y-78905000D01*
X133090228Y-78937703D01*
X133090228Y-78937703D01*
G37*
G36*
X163413054Y-78901067D02*
G01*
X163443386Y-78907100D01*
X163503995Y-78932205D01*
X163517273Y-78937705D01*
X163529102Y-78942605D01*
X163606245Y-78994150D01*
X163671850Y-79059755D01*
X163723395Y-79136898D01*
X163755133Y-79213519D01*
X163758900Y-79222615D01*
X163777000Y-79313609D01*
X163777000Y-79406391D01*
X163765971Y-79461836D01*
X163758900Y-79497386D01*
X163723395Y-79583102D01*
X163671850Y-79660245D01*
X163606245Y-79725850D01*
X163529102Y-79777395D01*
X163443386Y-79812900D01*
X163413054Y-79818933D01*
X163352391Y-79831000D01*
X163259609Y-79831000D01*
X163198946Y-79818933D01*
X163168614Y-79812900D01*
X163082898Y-79777395D01*
X163005755Y-79725850D01*
X162990381Y-79710476D01*
X162971445Y-79694936D01*
X162949834Y-79683385D01*
X162926385Y-79676272D01*
X162901999Y-79673870D01*
X162877613Y-79676272D01*
X162854164Y-79683385D01*
X162832553Y-79694936D01*
X162813611Y-79710481D01*
X162798066Y-79729423D01*
X162786515Y-79751034D01*
X162779402Y-79774483D01*
X162777000Y-79798869D01*
X162777000Y-80481000D01*
X161835000Y-80481000D01*
X161835000Y-79539000D01*
X162710001Y-79539000D01*
X162734387Y-79536598D01*
X162757836Y-79529485D01*
X162779447Y-79517934D01*
X162798389Y-79502389D01*
X162813934Y-79483447D01*
X162825485Y-79461836D01*
X162832598Y-79438387D01*
X162835000Y-79414001D01*
X162835000Y-79313609D01*
X162853100Y-79222615D01*
X162856868Y-79213519D01*
X162888605Y-79136898D01*
X162940150Y-79059755D01*
X163005755Y-78994150D01*
X163082898Y-78942605D01*
X163094728Y-78937705D01*
X163108005Y-78932205D01*
X163168614Y-78907100D01*
X163198946Y-78901067D01*
X163259609Y-78889000D01*
X163352391Y-78889000D01*
X163413054Y-78901067D01*
X163413054Y-78901067D01*
G37*
G36*
X117966443Y-77845519D02*
G01*
X118032627Y-77852037D01*
X118202466Y-77903557D01*
X118358991Y-77987222D01*
X118391143Y-78013609D01*
X118496186Y-78099814D01*
X118576259Y-78197385D01*
X118608778Y-78237009D01*
X118608779Y-78237011D01*
X118666047Y-78344150D01*
X118692443Y-78393534D01*
X118743963Y-78563373D01*
X118761359Y-78740000D01*
X118743963Y-78916627D01*
X118700545Y-79059756D01*
X118692442Y-79086468D01*
X118671213Y-79126185D01*
X118608778Y-79242991D01*
X118579448Y-79278729D01*
X118496186Y-79380186D01*
X118396694Y-79461836D01*
X118358991Y-79492778D01*
X118202466Y-79576443D01*
X118032627Y-79627963D01*
X117966442Y-79634482D01*
X117900260Y-79641000D01*
X117811740Y-79641000D01*
X117745558Y-79634482D01*
X117679373Y-79627963D01*
X117509534Y-79576443D01*
X117353009Y-79492778D01*
X117315306Y-79461836D01*
X117215814Y-79380186D01*
X117132552Y-79278729D01*
X117103222Y-79242991D01*
X117040787Y-79126185D01*
X117019558Y-79086468D01*
X117011455Y-79059756D01*
X116968037Y-78916627D01*
X116950641Y-78740000D01*
X116968037Y-78563373D01*
X117019557Y-78393534D01*
X117045954Y-78344150D01*
X117103221Y-78237011D01*
X117103222Y-78237009D01*
X117135741Y-78197385D01*
X117215814Y-78099814D01*
X117320857Y-78013609D01*
X117353009Y-77987222D01*
X117509534Y-77903557D01*
X117679373Y-77852037D01*
X117745557Y-77845519D01*
X117811740Y-77839000D01*
X117900260Y-77839000D01*
X117966443Y-77845519D01*
X117966443Y-77845519D01*
G37*
G36*
X129758443Y-77845519D02*
G01*
X129824627Y-77852037D01*
X129994466Y-77903557D01*
X130150991Y-77987222D01*
X130183143Y-78013609D01*
X130288186Y-78099814D01*
X130368259Y-78197385D01*
X130400778Y-78237009D01*
X130400779Y-78237011D01*
X130458047Y-78344150D01*
X130484443Y-78393534D01*
X130535963Y-78563373D01*
X130553359Y-78740000D01*
X130535963Y-78916627D01*
X130492545Y-79059756D01*
X130484442Y-79086468D01*
X130463213Y-79126185D01*
X130400778Y-79242991D01*
X130371448Y-79278729D01*
X130288186Y-79380186D01*
X130188694Y-79461836D01*
X130150991Y-79492778D01*
X129994466Y-79576443D01*
X129824627Y-79627963D01*
X129758442Y-79634482D01*
X129692260Y-79641000D01*
X129603740Y-79641000D01*
X129537558Y-79634482D01*
X129471373Y-79627963D01*
X129301534Y-79576443D01*
X129145009Y-79492778D01*
X129107306Y-79461836D01*
X129007814Y-79380186D01*
X128924552Y-79278729D01*
X128895222Y-79242991D01*
X128832787Y-79126185D01*
X128811558Y-79086468D01*
X128803455Y-79059756D01*
X128760037Y-78916627D01*
X128742641Y-78740000D01*
X128760037Y-78563373D01*
X128811557Y-78393534D01*
X128837954Y-78344150D01*
X128895221Y-78237011D01*
X128895222Y-78237009D01*
X128927741Y-78197385D01*
X129007814Y-78099814D01*
X129112857Y-78013609D01*
X129145009Y-77987222D01*
X129301534Y-77903557D01*
X129471373Y-77852037D01*
X129537557Y-77845519D01*
X129603740Y-77839000D01*
X129692260Y-77839000D01*
X129758443Y-77845519D01*
X129758443Y-77845519D01*
G37*
G36*
X104758443Y-77845519D02*
G01*
X104824627Y-77852037D01*
X104994466Y-77903557D01*
X105150991Y-77987222D01*
X105183143Y-78013609D01*
X105288186Y-78099814D01*
X105368259Y-78197385D01*
X105400778Y-78237009D01*
X105400779Y-78237011D01*
X105458047Y-78344150D01*
X105484443Y-78393534D01*
X105535963Y-78563373D01*
X105553359Y-78740000D01*
X105535963Y-78916627D01*
X105492545Y-79059756D01*
X105484442Y-79086468D01*
X105463213Y-79126185D01*
X105400778Y-79242991D01*
X105371448Y-79278729D01*
X105288186Y-79380186D01*
X105188694Y-79461836D01*
X105150991Y-79492778D01*
X104994466Y-79576443D01*
X104824627Y-79627963D01*
X104758442Y-79634482D01*
X104692260Y-79641000D01*
X104603740Y-79641000D01*
X104537558Y-79634482D01*
X104471373Y-79627963D01*
X104301534Y-79576443D01*
X104145009Y-79492778D01*
X104107306Y-79461836D01*
X104007814Y-79380186D01*
X103924552Y-79278729D01*
X103895222Y-79242991D01*
X103832787Y-79126185D01*
X103811558Y-79086468D01*
X103803455Y-79059756D01*
X103760037Y-78916627D01*
X103742641Y-78740000D01*
X103760037Y-78563373D01*
X103811557Y-78393534D01*
X103837954Y-78344150D01*
X103895221Y-78237011D01*
X103895222Y-78237009D01*
X103927741Y-78197385D01*
X104007814Y-78099814D01*
X104112857Y-78013609D01*
X104145009Y-77987222D01*
X104301534Y-77903557D01*
X104471373Y-77852037D01*
X104537557Y-77845519D01*
X104603740Y-77839000D01*
X104692260Y-77839000D01*
X104758443Y-77845519D01*
X104758443Y-77845519D01*
G37*
G36*
X120506443Y-77845519D02*
G01*
X120572627Y-77852037D01*
X120742466Y-77903557D01*
X120898991Y-77987222D01*
X120931143Y-78013609D01*
X121036186Y-78099814D01*
X121116259Y-78197385D01*
X121148778Y-78237009D01*
X121148779Y-78237011D01*
X121206047Y-78344150D01*
X121232443Y-78393534D01*
X121283963Y-78563373D01*
X121301359Y-78740000D01*
X121283963Y-78916627D01*
X121240545Y-79059756D01*
X121232442Y-79086468D01*
X121211213Y-79126185D01*
X121148778Y-79242991D01*
X121119448Y-79278729D01*
X121036186Y-79380186D01*
X120936694Y-79461836D01*
X120898991Y-79492778D01*
X120742466Y-79576443D01*
X120572627Y-79627963D01*
X120506442Y-79634482D01*
X120440260Y-79641000D01*
X120351740Y-79641000D01*
X120285558Y-79634482D01*
X120219373Y-79627963D01*
X120049534Y-79576443D01*
X119893009Y-79492778D01*
X119855306Y-79461836D01*
X119755814Y-79380186D01*
X119672552Y-79278729D01*
X119643222Y-79242991D01*
X119580787Y-79126185D01*
X119559558Y-79086468D01*
X119551455Y-79059756D01*
X119508037Y-78916627D01*
X119490641Y-78740000D01*
X119508037Y-78563373D01*
X119559557Y-78393534D01*
X119585954Y-78344150D01*
X119643221Y-78237011D01*
X119643222Y-78237009D01*
X119675741Y-78197385D01*
X119755814Y-78099814D01*
X119860857Y-78013609D01*
X119893009Y-77987222D01*
X120049534Y-77903557D01*
X120219373Y-77852037D01*
X120285557Y-77845519D01*
X120351740Y-77839000D01*
X120440260Y-77839000D01*
X120506443Y-77845519D01*
X120506443Y-77845519D01*
G37*
G36*
X123046443Y-77845519D02*
G01*
X123112627Y-77852037D01*
X123282466Y-77903557D01*
X123438991Y-77987222D01*
X123471143Y-78013609D01*
X123576186Y-78099814D01*
X123656259Y-78197385D01*
X123688778Y-78237009D01*
X123688779Y-78237011D01*
X123746047Y-78344150D01*
X123772443Y-78393534D01*
X123823963Y-78563373D01*
X123841359Y-78740000D01*
X123823963Y-78916627D01*
X123780545Y-79059756D01*
X123772442Y-79086468D01*
X123751213Y-79126185D01*
X123688778Y-79242991D01*
X123659448Y-79278729D01*
X123576186Y-79380186D01*
X123476694Y-79461836D01*
X123438991Y-79492778D01*
X123282466Y-79576443D01*
X123112627Y-79627963D01*
X123046442Y-79634482D01*
X122980260Y-79641000D01*
X122891740Y-79641000D01*
X122825558Y-79634482D01*
X122759373Y-79627963D01*
X122589534Y-79576443D01*
X122433009Y-79492778D01*
X122395306Y-79461836D01*
X122295814Y-79380186D01*
X122212552Y-79278729D01*
X122183222Y-79242991D01*
X122120787Y-79126185D01*
X122099558Y-79086468D01*
X122091455Y-79059756D01*
X122048037Y-78916627D01*
X122030641Y-78740000D01*
X122048037Y-78563373D01*
X122099557Y-78393534D01*
X122125954Y-78344150D01*
X122183221Y-78237011D01*
X122183222Y-78237009D01*
X122215741Y-78197385D01*
X122295814Y-78099814D01*
X122400857Y-78013609D01*
X122433009Y-77987222D01*
X122589534Y-77903557D01*
X122759373Y-77852037D01*
X122825557Y-77845519D01*
X122891740Y-77839000D01*
X122980260Y-77839000D01*
X123046443Y-77845519D01*
X123046443Y-77845519D01*
G37*
G36*
X125586443Y-77845519D02*
G01*
X125652627Y-77852037D01*
X125822466Y-77903557D01*
X125978991Y-77987222D01*
X126011143Y-78013609D01*
X126116186Y-78099814D01*
X126196259Y-78197385D01*
X126228778Y-78237009D01*
X126228779Y-78237011D01*
X126286047Y-78344150D01*
X126312443Y-78393534D01*
X126363963Y-78563373D01*
X126381359Y-78740000D01*
X126363963Y-78916627D01*
X126320545Y-79059756D01*
X126312442Y-79086468D01*
X126291213Y-79126185D01*
X126228778Y-79242991D01*
X126199448Y-79278729D01*
X126116186Y-79380186D01*
X126016694Y-79461836D01*
X125978991Y-79492778D01*
X125822466Y-79576443D01*
X125652627Y-79627963D01*
X125586442Y-79634482D01*
X125520260Y-79641000D01*
X125431740Y-79641000D01*
X125365558Y-79634482D01*
X125299373Y-79627963D01*
X125129534Y-79576443D01*
X124973009Y-79492778D01*
X124935306Y-79461836D01*
X124835814Y-79380186D01*
X124752552Y-79278729D01*
X124723222Y-79242991D01*
X124660787Y-79126185D01*
X124639558Y-79086468D01*
X124631455Y-79059756D01*
X124588037Y-78916627D01*
X124570641Y-78740000D01*
X124588037Y-78563373D01*
X124639557Y-78393534D01*
X124665954Y-78344150D01*
X124723221Y-78237011D01*
X124723222Y-78237009D01*
X124755741Y-78197385D01*
X124835814Y-78099814D01*
X124940857Y-78013609D01*
X124973009Y-77987222D01*
X125129534Y-77903557D01*
X125299373Y-77852037D01*
X125365557Y-77845519D01*
X125431740Y-77839000D01*
X125520260Y-77839000D01*
X125586443Y-77845519D01*
X125586443Y-77845519D01*
G37*
G36*
X116217000Y-79641000D02*
G01*
X114415000Y-79641000D01*
X114415000Y-77839000D01*
X116217000Y-77839000D01*
X116217000Y-79641000D01*
X116217000Y-79641000D01*
G37*
G36*
X109584442Y-77591518D02*
G01*
X109650627Y-77598037D01*
X109820466Y-77649557D01*
X109976991Y-77733222D01*
X110012729Y-77762552D01*
X110114186Y-77845814D01*
X110177213Y-77922614D01*
X110226778Y-77983009D01*
X110226779Y-77983011D01*
X110292727Y-78106389D01*
X110310443Y-78139534D01*
X110361963Y-78309373D01*
X110379359Y-78486000D01*
X110361963Y-78662627D01*
X110310443Y-78832466D01*
X110226778Y-78988991D01*
X110222544Y-78994150D01*
X110114186Y-79126186D01*
X110012729Y-79209448D01*
X109976991Y-79238778D01*
X109820466Y-79322443D01*
X109650627Y-79373963D01*
X109587453Y-79380185D01*
X109518260Y-79387000D01*
X109429740Y-79387000D01*
X109360547Y-79380185D01*
X109297373Y-79373963D01*
X109127534Y-79322443D01*
X108971009Y-79238778D01*
X108935271Y-79209448D01*
X108833814Y-79126186D01*
X108725456Y-78994150D01*
X108721222Y-78988991D01*
X108637557Y-78832466D01*
X108586037Y-78662627D01*
X108568641Y-78486000D01*
X108586037Y-78309373D01*
X108637557Y-78139534D01*
X108655274Y-78106389D01*
X108721221Y-77983011D01*
X108721222Y-77983009D01*
X108770787Y-77922614D01*
X108833814Y-77845814D01*
X108935271Y-77762552D01*
X108971009Y-77733222D01*
X109127534Y-77649557D01*
X109297373Y-77598037D01*
X109363558Y-77591518D01*
X109429740Y-77585000D01*
X109518260Y-77585000D01*
X109584442Y-77591518D01*
X109584442Y-77591518D01*
G37*
G36*
X162413054Y-78251067D02*
G01*
X162443386Y-78257100D01*
X162529102Y-78292605D01*
X162606245Y-78344150D01*
X162671850Y-78409755D01*
X162682604Y-78425850D01*
X162723396Y-78486900D01*
X162758900Y-78572615D01*
X162776805Y-78662627D01*
X162777000Y-78663611D01*
X162777000Y-78756389D01*
X162758900Y-78847386D01*
X162723395Y-78933102D01*
X162671850Y-79010245D01*
X162606245Y-79075850D01*
X162529102Y-79127395D01*
X162443386Y-79162900D01*
X162413054Y-79168933D01*
X162352391Y-79181000D01*
X162259609Y-79181000D01*
X162198946Y-79168933D01*
X162168614Y-79162900D01*
X162082898Y-79127395D01*
X162005755Y-79075850D01*
X161940150Y-79010245D01*
X161888605Y-78933102D01*
X161853100Y-78847386D01*
X161835000Y-78756389D01*
X161835000Y-78663611D01*
X161835196Y-78662627D01*
X161853100Y-78572615D01*
X161888604Y-78486900D01*
X161929396Y-78425850D01*
X161940150Y-78409755D01*
X162005755Y-78344150D01*
X162082898Y-78292605D01*
X162168614Y-78257100D01*
X162198946Y-78251067D01*
X162259609Y-78239000D01*
X162352391Y-78239000D01*
X162413054Y-78251067D01*
X162413054Y-78251067D01*
G37*
G36*
X163413054Y-77601067D02*
G01*
X163443386Y-77607100D01*
X163529102Y-77642605D01*
X163606245Y-77694150D01*
X163671850Y-77759755D01*
X163723395Y-77836898D01*
X163751007Y-77903558D01*
X163758900Y-77922615D01*
X163770914Y-77983011D01*
X163777000Y-78013611D01*
X163777000Y-78106389D01*
X163758900Y-78197386D01*
X163723395Y-78283102D01*
X163671850Y-78360245D01*
X163606245Y-78425850D01*
X163529102Y-78477395D01*
X163443386Y-78512900D01*
X163413054Y-78518933D01*
X163352391Y-78531000D01*
X163259609Y-78531000D01*
X163198946Y-78518933D01*
X163168614Y-78512900D01*
X163082898Y-78477395D01*
X163005755Y-78425850D01*
X162940150Y-78360245D01*
X162888605Y-78283102D01*
X162853100Y-78197386D01*
X162835000Y-78106389D01*
X162835000Y-78013611D01*
X162841087Y-77983011D01*
X162853100Y-77922615D01*
X162860994Y-77903558D01*
X162888605Y-77836898D01*
X162940150Y-77759755D01*
X163005755Y-77694150D01*
X163082898Y-77642605D01*
X163168614Y-77607100D01*
X163198946Y-77601067D01*
X163259609Y-77589000D01*
X163352391Y-77589000D01*
X163413054Y-77601067D01*
X163413054Y-77601067D01*
G37*
G36*
X162394962Y-76947468D02*
G01*
X162443386Y-76957100D01*
X162529102Y-76992605D01*
X162606245Y-77044150D01*
X162671850Y-77109755D01*
X162723395Y-77186898D01*
X162758900Y-77272614D01*
X162777000Y-77363611D01*
X162777000Y-77456389D01*
X162758900Y-77547386D01*
X162723395Y-77633102D01*
X162671850Y-77710245D01*
X162606245Y-77775850D01*
X162529102Y-77827395D01*
X162443386Y-77862900D01*
X162413054Y-77868933D01*
X162352391Y-77881000D01*
X162259609Y-77881000D01*
X162198946Y-77868933D01*
X162168614Y-77862900D01*
X162082898Y-77827395D01*
X162005755Y-77775850D01*
X161940150Y-77710245D01*
X161888605Y-77633102D01*
X161853100Y-77547386D01*
X161835000Y-77456389D01*
X161835000Y-77363611D01*
X161853100Y-77272614D01*
X161888605Y-77186898D01*
X161940150Y-77109755D01*
X162005755Y-77044150D01*
X162082898Y-76992605D01*
X162168614Y-76957100D01*
X162217038Y-76947468D01*
X162259609Y-76939000D01*
X162352391Y-76939000D01*
X162394962Y-76947468D01*
X162394962Y-76947468D01*
G37*
G36*
X125586442Y-75305518D02*
G01*
X125652627Y-75312037D01*
X125822466Y-75363557D01*
X125978991Y-75447222D01*
X126007869Y-75470922D01*
X126116186Y-75559814D01*
X126199448Y-75661271D01*
X126228778Y-75697009D01*
X126312443Y-75853534D01*
X126363963Y-76023373D01*
X126381359Y-76200000D01*
X126363963Y-76376627D01*
X126312443Y-76546466D01*
X126228778Y-76702991D01*
X126199448Y-76738729D01*
X126116186Y-76840186D01*
X126014729Y-76923448D01*
X125978991Y-76952778D01*
X125822466Y-77036443D01*
X125652627Y-77087963D01*
X125586442Y-77094482D01*
X125520260Y-77101000D01*
X125431740Y-77101000D01*
X125365558Y-77094482D01*
X125299373Y-77087963D01*
X125129534Y-77036443D01*
X124973009Y-76952778D01*
X124937271Y-76923448D01*
X124835814Y-76840186D01*
X124752552Y-76738729D01*
X124723222Y-76702991D01*
X124639557Y-76546466D01*
X124588037Y-76376627D01*
X124570641Y-76200000D01*
X124588037Y-76023373D01*
X124639557Y-75853534D01*
X124723222Y-75697009D01*
X124752552Y-75661271D01*
X124835814Y-75559814D01*
X124944131Y-75470922D01*
X124973009Y-75447222D01*
X125129534Y-75363557D01*
X125299373Y-75312037D01*
X125365558Y-75305518D01*
X125431740Y-75299000D01*
X125520260Y-75299000D01*
X125586442Y-75305518D01*
X125586442Y-75305518D01*
G37*
G36*
X116217000Y-77101000D02*
G01*
X114415000Y-77101000D01*
X114415000Y-75299000D01*
X116217000Y-75299000D01*
X116217000Y-77101000D01*
X116217000Y-77101000D01*
G37*
G36*
X123046442Y-75305518D02*
G01*
X123112627Y-75312037D01*
X123282466Y-75363557D01*
X123438991Y-75447222D01*
X123467869Y-75470922D01*
X123576186Y-75559814D01*
X123659448Y-75661271D01*
X123688778Y-75697009D01*
X123772443Y-75853534D01*
X123823963Y-76023373D01*
X123841359Y-76200000D01*
X123823963Y-76376627D01*
X123772443Y-76546466D01*
X123688778Y-76702991D01*
X123659448Y-76738729D01*
X123576186Y-76840186D01*
X123474729Y-76923448D01*
X123438991Y-76952778D01*
X123282466Y-77036443D01*
X123112627Y-77087963D01*
X123046442Y-77094482D01*
X122980260Y-77101000D01*
X122891740Y-77101000D01*
X122825558Y-77094482D01*
X122759373Y-77087963D01*
X122589534Y-77036443D01*
X122433009Y-76952778D01*
X122397271Y-76923448D01*
X122295814Y-76840186D01*
X122212552Y-76738729D01*
X122183222Y-76702991D01*
X122099557Y-76546466D01*
X122048037Y-76376627D01*
X122030641Y-76200000D01*
X122048037Y-76023373D01*
X122099557Y-75853534D01*
X122183222Y-75697009D01*
X122212552Y-75661271D01*
X122295814Y-75559814D01*
X122404131Y-75470922D01*
X122433009Y-75447222D01*
X122589534Y-75363557D01*
X122759373Y-75312037D01*
X122825558Y-75305518D01*
X122891740Y-75299000D01*
X122980260Y-75299000D01*
X123046442Y-75305518D01*
X123046442Y-75305518D01*
G37*
G36*
X129758442Y-75305518D02*
G01*
X129824627Y-75312037D01*
X129994466Y-75363557D01*
X130150991Y-75447222D01*
X130179869Y-75470922D01*
X130288186Y-75559814D01*
X130371448Y-75661271D01*
X130400778Y-75697009D01*
X130484443Y-75853534D01*
X130535963Y-76023373D01*
X130553359Y-76200000D01*
X130535963Y-76376627D01*
X130484443Y-76546466D01*
X130400778Y-76702991D01*
X130371448Y-76738729D01*
X130288186Y-76840186D01*
X130186729Y-76923448D01*
X130150991Y-76952778D01*
X129994466Y-77036443D01*
X129824627Y-77087963D01*
X129758442Y-77094482D01*
X129692260Y-77101000D01*
X129603740Y-77101000D01*
X129537558Y-77094482D01*
X129471373Y-77087963D01*
X129301534Y-77036443D01*
X129145009Y-76952778D01*
X129109271Y-76923448D01*
X129007814Y-76840186D01*
X128924552Y-76738729D01*
X128895222Y-76702991D01*
X128811557Y-76546466D01*
X128760037Y-76376627D01*
X128742641Y-76200000D01*
X128760037Y-76023373D01*
X128811557Y-75853534D01*
X128895222Y-75697009D01*
X128924552Y-75661271D01*
X129007814Y-75559814D01*
X129116131Y-75470922D01*
X129145009Y-75447222D01*
X129301534Y-75363557D01*
X129471373Y-75312037D01*
X129537558Y-75305518D01*
X129603740Y-75299000D01*
X129692260Y-75299000D01*
X129758442Y-75305518D01*
X129758442Y-75305518D01*
G37*
G36*
X117966442Y-75305518D02*
G01*
X118032627Y-75312037D01*
X118202466Y-75363557D01*
X118358991Y-75447222D01*
X118387869Y-75470922D01*
X118496186Y-75559814D01*
X118579448Y-75661271D01*
X118608778Y-75697009D01*
X118692443Y-75853534D01*
X118743963Y-76023373D01*
X118761359Y-76200000D01*
X118743963Y-76376627D01*
X118692443Y-76546466D01*
X118608778Y-76702991D01*
X118579448Y-76738729D01*
X118496186Y-76840186D01*
X118394729Y-76923448D01*
X118358991Y-76952778D01*
X118202466Y-77036443D01*
X118032627Y-77087963D01*
X117966442Y-77094482D01*
X117900260Y-77101000D01*
X117811740Y-77101000D01*
X117745558Y-77094482D01*
X117679373Y-77087963D01*
X117509534Y-77036443D01*
X117353009Y-76952778D01*
X117317271Y-76923448D01*
X117215814Y-76840186D01*
X117132552Y-76738729D01*
X117103222Y-76702991D01*
X117019557Y-76546466D01*
X116968037Y-76376627D01*
X116950641Y-76200000D01*
X116968037Y-76023373D01*
X117019557Y-75853534D01*
X117103222Y-75697009D01*
X117132552Y-75661271D01*
X117215814Y-75559814D01*
X117324131Y-75470922D01*
X117353009Y-75447222D01*
X117509534Y-75363557D01*
X117679373Y-75312037D01*
X117745558Y-75305518D01*
X117811740Y-75299000D01*
X117900260Y-75299000D01*
X117966442Y-75305518D01*
X117966442Y-75305518D01*
G37*
G36*
X120506442Y-75305518D02*
G01*
X120572627Y-75312037D01*
X120742466Y-75363557D01*
X120898991Y-75447222D01*
X120927869Y-75470922D01*
X121036186Y-75559814D01*
X121119448Y-75661271D01*
X121148778Y-75697009D01*
X121232443Y-75853534D01*
X121283963Y-76023373D01*
X121301359Y-76200000D01*
X121283963Y-76376627D01*
X121232443Y-76546466D01*
X121148778Y-76702991D01*
X121119448Y-76738729D01*
X121036186Y-76840186D01*
X120934729Y-76923448D01*
X120898991Y-76952778D01*
X120742466Y-77036443D01*
X120572627Y-77087963D01*
X120506442Y-77094482D01*
X120440260Y-77101000D01*
X120351740Y-77101000D01*
X120285558Y-77094482D01*
X120219373Y-77087963D01*
X120049534Y-77036443D01*
X119893009Y-76952778D01*
X119857271Y-76923448D01*
X119755814Y-76840186D01*
X119672552Y-76738729D01*
X119643222Y-76702991D01*
X119559557Y-76546466D01*
X119508037Y-76376627D01*
X119490641Y-76200000D01*
X119508037Y-76023373D01*
X119559557Y-75853534D01*
X119643222Y-75697009D01*
X119672552Y-75661271D01*
X119755814Y-75559814D01*
X119864131Y-75470922D01*
X119893009Y-75447222D01*
X120049534Y-75363557D01*
X120219373Y-75312037D01*
X120285558Y-75305518D01*
X120351740Y-75299000D01*
X120440260Y-75299000D01*
X120506442Y-75305518D01*
X120506442Y-75305518D01*
G37*
G36*
X104758442Y-75305518D02*
G01*
X104824627Y-75312037D01*
X104994466Y-75363557D01*
X105150991Y-75447222D01*
X105179869Y-75470922D01*
X105288186Y-75559814D01*
X105371448Y-75661271D01*
X105400778Y-75697009D01*
X105484443Y-75853534D01*
X105535963Y-76023373D01*
X105553359Y-76200000D01*
X105535963Y-76376627D01*
X105484443Y-76546466D01*
X105400778Y-76702991D01*
X105371448Y-76738729D01*
X105288186Y-76840186D01*
X105186729Y-76923448D01*
X105150991Y-76952778D01*
X104994466Y-77036443D01*
X104824627Y-77087963D01*
X104758442Y-77094482D01*
X104692260Y-77101000D01*
X104603740Y-77101000D01*
X104537558Y-77094482D01*
X104471373Y-77087963D01*
X104301534Y-77036443D01*
X104145009Y-76952778D01*
X104109271Y-76923448D01*
X104007814Y-76840186D01*
X103924552Y-76738729D01*
X103895222Y-76702991D01*
X103811557Y-76546466D01*
X103760037Y-76376627D01*
X103742641Y-76200000D01*
X103760037Y-76023373D01*
X103811557Y-75853534D01*
X103895222Y-75697009D01*
X103924552Y-75661271D01*
X104007814Y-75559814D01*
X104116131Y-75470922D01*
X104145009Y-75447222D01*
X104301534Y-75363557D01*
X104471373Y-75312037D01*
X104537558Y-75305518D01*
X104603740Y-75299000D01*
X104692260Y-75299000D01*
X104758442Y-75305518D01*
X104758442Y-75305518D01*
G37*
G36*
X149357294Y-73876233D02*
G01*
X149529695Y-73928531D01*
X149688583Y-74013458D01*
X149827849Y-74127751D01*
X149942142Y-74267017D01*
X150027069Y-74425905D01*
X150079367Y-74598306D01*
X150092600Y-74732669D01*
X150092600Y-76143331D01*
X150079367Y-76277694D01*
X150027069Y-76450095D01*
X149942142Y-76608983D01*
X149827849Y-76748249D01*
X149688583Y-76862542D01*
X149529694Y-76947469D01*
X149357293Y-76999767D01*
X149178000Y-77017425D01*
X148998706Y-76999767D01*
X148826305Y-76947469D01*
X148667417Y-76862542D01*
X148528151Y-76748249D01*
X148413858Y-76608983D01*
X148328931Y-76450094D01*
X148276633Y-76277693D01*
X148263400Y-76143330D01*
X148263401Y-74732669D01*
X148276634Y-74598306D01*
X148328932Y-74425905D01*
X148413859Y-74267017D01*
X148528152Y-74127751D01*
X148667418Y-74013458D01*
X148826306Y-73928531D01*
X148998707Y-73876233D01*
X149178000Y-73858575D01*
X149357294Y-73876233D01*
X149357294Y-73876233D01*
G37*
G36*
X154357294Y-73876233D02*
G01*
X154529695Y-73928531D01*
X154688583Y-74013458D01*
X154827849Y-74127751D01*
X154942142Y-74267017D01*
X155027069Y-74425905D01*
X155079367Y-74598306D01*
X155092600Y-74732669D01*
X155092600Y-76143331D01*
X155079367Y-76277694D01*
X155027069Y-76450095D01*
X154942142Y-76608983D01*
X154827849Y-76748249D01*
X154688583Y-76862542D01*
X154529694Y-76947469D01*
X154357293Y-76999767D01*
X154178000Y-77017425D01*
X153998706Y-76999767D01*
X153826305Y-76947469D01*
X153667417Y-76862542D01*
X153528151Y-76748249D01*
X153413858Y-76608983D01*
X153328931Y-76450094D01*
X153276633Y-76277693D01*
X153263400Y-76143330D01*
X153263401Y-74732669D01*
X153276634Y-74598306D01*
X153328932Y-74425905D01*
X153413859Y-74267017D01*
X153528152Y-74127751D01*
X153667418Y-74013458D01*
X153826306Y-73928531D01*
X153998707Y-73876233D01*
X154178000Y-73858575D01*
X154357294Y-73876233D01*
X154357294Y-73876233D01*
G37*
G36*
X109584442Y-75051518D02*
G01*
X109650627Y-75058037D01*
X109820466Y-75109557D01*
X109976991Y-75193222D01*
X110012729Y-75222552D01*
X110114186Y-75305814D01*
X110192081Y-75400731D01*
X110226778Y-75443009D01*
X110310443Y-75599534D01*
X110361963Y-75769373D01*
X110379359Y-75946000D01*
X110361963Y-76122627D01*
X110310443Y-76292466D01*
X110226778Y-76448991D01*
X110225871Y-76450096D01*
X110114186Y-76586186D01*
X110012729Y-76669448D01*
X109976991Y-76698778D01*
X109820466Y-76782443D01*
X109650627Y-76833963D01*
X109587453Y-76840185D01*
X109518260Y-76847000D01*
X109429740Y-76847000D01*
X109360547Y-76840185D01*
X109297373Y-76833963D01*
X109127534Y-76782443D01*
X108971009Y-76698778D01*
X108935271Y-76669448D01*
X108833814Y-76586186D01*
X108722129Y-76450096D01*
X108721222Y-76448991D01*
X108637557Y-76292466D01*
X108586037Y-76122627D01*
X108568641Y-75946000D01*
X108586037Y-75769373D01*
X108637557Y-75599534D01*
X108721222Y-75443009D01*
X108755919Y-75400731D01*
X108833814Y-75305814D01*
X108935271Y-75222552D01*
X108971009Y-75193222D01*
X109127534Y-75109557D01*
X109297373Y-75058037D01*
X109363558Y-75051518D01*
X109429740Y-75045000D01*
X109518260Y-75045000D01*
X109584442Y-75051518D01*
X109584442Y-75051518D01*
G37*
G36*
X133090228Y-75127703D02*
G01*
X133245100Y-75191853D01*
X133384481Y-75284985D01*
X133503015Y-75403519D01*
X133596147Y-75542900D01*
X133660297Y-75697772D01*
X133693000Y-75862184D01*
X133693000Y-76029816D01*
X133660297Y-76194228D01*
X133596147Y-76349100D01*
X133503015Y-76488481D01*
X133384481Y-76607015D01*
X133245100Y-76700147D01*
X133090228Y-76764297D01*
X132925816Y-76797000D01*
X132758184Y-76797000D01*
X132593772Y-76764297D01*
X132438900Y-76700147D01*
X132299519Y-76607015D01*
X132180985Y-76488481D01*
X132087853Y-76349100D01*
X132023703Y-76194228D01*
X131991000Y-76029816D01*
X131991000Y-75862184D01*
X132023703Y-75697772D01*
X132087853Y-75542900D01*
X132180985Y-75403519D01*
X132299519Y-75284985D01*
X132438900Y-75191853D01*
X132593772Y-75127703D01*
X132758184Y-75095000D01*
X132925816Y-75095000D01*
X133090228Y-75127703D01*
X133090228Y-75127703D01*
G37*
G36*
X143168823Y-75107313D02*
G01*
X143329242Y-75155976D01*
X143396361Y-75191852D01*
X143477078Y-75234996D01*
X143606659Y-75341341D01*
X143713004Y-75470922D01*
X143713005Y-75470924D01*
X143792024Y-75618758D01*
X143840687Y-75779177D01*
X143857117Y-75946000D01*
X143840687Y-76112823D01*
X143792024Y-76273242D01*
X143721114Y-76405906D01*
X143713004Y-76421078D01*
X143606659Y-76550659D01*
X143477078Y-76657004D01*
X143477076Y-76657005D01*
X143329242Y-76736024D01*
X143168823Y-76784687D01*
X143043804Y-76797000D01*
X142960196Y-76797000D01*
X142835177Y-76784687D01*
X142674758Y-76736024D01*
X142526924Y-76657005D01*
X142526922Y-76657004D01*
X142397341Y-76550659D01*
X142290996Y-76421078D01*
X142282886Y-76405906D01*
X142211976Y-76273242D01*
X142163313Y-76112823D01*
X142146883Y-75946000D01*
X142163313Y-75779177D01*
X142211976Y-75618758D01*
X142290995Y-75470924D01*
X142290996Y-75470922D01*
X142397341Y-75341341D01*
X142526922Y-75234996D01*
X142607639Y-75191852D01*
X142674758Y-75155976D01*
X142835177Y-75107313D01*
X142960196Y-75095000D01*
X143043804Y-75095000D01*
X143168823Y-75107313D01*
X143168823Y-75107313D01*
G37*
G36*
X163119312Y-74665887D02*
G01*
X163209039Y-74693106D01*
X163291731Y-74737306D01*
X163364211Y-74796789D01*
X163423694Y-74869269D01*
X163467894Y-74951961D01*
X163495113Y-75041688D01*
X163504303Y-75135000D01*
X163495113Y-75228312D01*
X163467894Y-75318039D01*
X163423694Y-75400731D01*
X163364211Y-75473211D01*
X163291731Y-75532694D01*
X163209039Y-75576894D01*
X163119312Y-75604113D01*
X163049384Y-75611000D01*
X162002616Y-75611000D01*
X161932688Y-75604113D01*
X161842961Y-75576894D01*
X161760269Y-75532694D01*
X161687789Y-75473211D01*
X161628306Y-75400731D01*
X161584106Y-75318039D01*
X161556887Y-75228312D01*
X161547697Y-75135000D01*
X161556887Y-75041688D01*
X161584106Y-74951961D01*
X161628306Y-74869269D01*
X161687789Y-74796789D01*
X161760269Y-74737306D01*
X161842961Y-74693106D01*
X161932688Y-74665887D01*
X162002616Y-74659000D01*
X163049384Y-74659000D01*
X163119312Y-74665887D01*
X163119312Y-74665887D01*
G37*
G36*
X129758442Y-72765518D02*
G01*
X129824627Y-72772037D01*
X129994466Y-72823557D01*
X130150991Y-72907222D01*
X130186729Y-72936552D01*
X130288186Y-73019814D01*
X130371448Y-73121271D01*
X130400778Y-73157009D01*
X130484443Y-73313534D01*
X130535963Y-73483373D01*
X130553359Y-73660000D01*
X130535963Y-73836627D01*
X130484443Y-74006466D01*
X130400778Y-74162991D01*
X130371448Y-74198729D01*
X130288186Y-74300186D01*
X130186729Y-74383448D01*
X130150991Y-74412778D01*
X129994466Y-74496443D01*
X129824627Y-74547963D01*
X129758442Y-74554482D01*
X129692260Y-74561000D01*
X129603740Y-74561000D01*
X129537558Y-74554482D01*
X129471373Y-74547963D01*
X129301534Y-74496443D01*
X129145009Y-74412778D01*
X129109271Y-74383448D01*
X129007814Y-74300186D01*
X128924552Y-74198729D01*
X128895222Y-74162991D01*
X128811557Y-74006466D01*
X128760037Y-73836627D01*
X128742641Y-73660000D01*
X128760037Y-73483373D01*
X128811557Y-73313534D01*
X128895222Y-73157009D01*
X128924552Y-73121271D01*
X129007814Y-73019814D01*
X129109271Y-72936552D01*
X129145009Y-72907222D01*
X129301534Y-72823557D01*
X129471373Y-72772037D01*
X129537558Y-72765518D01*
X129603740Y-72759000D01*
X129692260Y-72759000D01*
X129758442Y-72765518D01*
X129758442Y-72765518D01*
G37*
G36*
X104758442Y-72765518D02*
G01*
X104824627Y-72772037D01*
X104994466Y-72823557D01*
X105150991Y-72907222D01*
X105186729Y-72936552D01*
X105288186Y-73019814D01*
X105371448Y-73121271D01*
X105400778Y-73157009D01*
X105484443Y-73313534D01*
X105535963Y-73483373D01*
X105553359Y-73660000D01*
X105535963Y-73836627D01*
X105484443Y-74006466D01*
X105400778Y-74162991D01*
X105371448Y-74198729D01*
X105288186Y-74300186D01*
X105186729Y-74383448D01*
X105150991Y-74412778D01*
X104994466Y-74496443D01*
X104824627Y-74547963D01*
X104758442Y-74554482D01*
X104692260Y-74561000D01*
X104603740Y-74561000D01*
X104537558Y-74554482D01*
X104471373Y-74547963D01*
X104301534Y-74496443D01*
X104145009Y-74412778D01*
X104109271Y-74383448D01*
X104007814Y-74300186D01*
X103924552Y-74198729D01*
X103895222Y-74162991D01*
X103811557Y-74006466D01*
X103760037Y-73836627D01*
X103742641Y-73660000D01*
X103760037Y-73483373D01*
X103811557Y-73313534D01*
X103895222Y-73157009D01*
X103924552Y-73121271D01*
X104007814Y-73019814D01*
X104109271Y-72936552D01*
X104145009Y-72907222D01*
X104301534Y-72823557D01*
X104471373Y-72772037D01*
X104537558Y-72765518D01*
X104603740Y-72759000D01*
X104692260Y-72759000D01*
X104758442Y-72765518D01*
X104758442Y-72765518D01*
G37*
G36*
X116217000Y-74561000D02*
G01*
X114415000Y-74561000D01*
X114415000Y-72759000D01*
X116217000Y-72759000D01*
X116217000Y-74561000D01*
X116217000Y-74561000D01*
G37*
G36*
X117966442Y-72765518D02*
G01*
X118032627Y-72772037D01*
X118202466Y-72823557D01*
X118358991Y-72907222D01*
X118394729Y-72936552D01*
X118496186Y-73019814D01*
X118579448Y-73121271D01*
X118608778Y-73157009D01*
X118692443Y-73313534D01*
X118743963Y-73483373D01*
X118761359Y-73660000D01*
X118743963Y-73836627D01*
X118692443Y-74006466D01*
X118608778Y-74162991D01*
X118579448Y-74198729D01*
X118496186Y-74300186D01*
X118394729Y-74383448D01*
X118358991Y-74412778D01*
X118202466Y-74496443D01*
X118032627Y-74547963D01*
X117966442Y-74554482D01*
X117900260Y-74561000D01*
X117811740Y-74561000D01*
X117745558Y-74554482D01*
X117679373Y-74547963D01*
X117509534Y-74496443D01*
X117353009Y-74412778D01*
X117317271Y-74383448D01*
X117215814Y-74300186D01*
X117132552Y-74198729D01*
X117103222Y-74162991D01*
X117019557Y-74006466D01*
X116968037Y-73836627D01*
X116950641Y-73660000D01*
X116968037Y-73483373D01*
X117019557Y-73313534D01*
X117103222Y-73157009D01*
X117132552Y-73121271D01*
X117215814Y-73019814D01*
X117317271Y-72936552D01*
X117353009Y-72907222D01*
X117509534Y-72823557D01*
X117679373Y-72772037D01*
X117745558Y-72765518D01*
X117811740Y-72759000D01*
X117900260Y-72759000D01*
X117966442Y-72765518D01*
X117966442Y-72765518D01*
G37*
G36*
X120506442Y-72765518D02*
G01*
X120572627Y-72772037D01*
X120742466Y-72823557D01*
X120898991Y-72907222D01*
X120934729Y-72936552D01*
X121036186Y-73019814D01*
X121119448Y-73121271D01*
X121148778Y-73157009D01*
X121232443Y-73313534D01*
X121283963Y-73483373D01*
X121301359Y-73660000D01*
X121283963Y-73836627D01*
X121232443Y-74006466D01*
X121148778Y-74162991D01*
X121119448Y-74198729D01*
X121036186Y-74300186D01*
X120934729Y-74383448D01*
X120898991Y-74412778D01*
X120742466Y-74496443D01*
X120572627Y-74547963D01*
X120506442Y-74554482D01*
X120440260Y-74561000D01*
X120351740Y-74561000D01*
X120285558Y-74554482D01*
X120219373Y-74547963D01*
X120049534Y-74496443D01*
X119893009Y-74412778D01*
X119857271Y-74383448D01*
X119755814Y-74300186D01*
X119672552Y-74198729D01*
X119643222Y-74162991D01*
X119559557Y-74006466D01*
X119508037Y-73836627D01*
X119490641Y-73660000D01*
X119508037Y-73483373D01*
X119559557Y-73313534D01*
X119643222Y-73157009D01*
X119672552Y-73121271D01*
X119755814Y-73019814D01*
X119857271Y-72936552D01*
X119893009Y-72907222D01*
X120049534Y-72823557D01*
X120219373Y-72772037D01*
X120285558Y-72765518D01*
X120351740Y-72759000D01*
X120440260Y-72759000D01*
X120506442Y-72765518D01*
X120506442Y-72765518D01*
G37*
G36*
X123046442Y-72765518D02*
G01*
X123112627Y-72772037D01*
X123282466Y-72823557D01*
X123438991Y-72907222D01*
X123474729Y-72936552D01*
X123576186Y-73019814D01*
X123659448Y-73121271D01*
X123688778Y-73157009D01*
X123772443Y-73313534D01*
X123823963Y-73483373D01*
X123841359Y-73660000D01*
X123823963Y-73836627D01*
X123772443Y-74006466D01*
X123688778Y-74162991D01*
X123659448Y-74198729D01*
X123576186Y-74300186D01*
X123474729Y-74383448D01*
X123438991Y-74412778D01*
X123282466Y-74496443D01*
X123112627Y-74547963D01*
X123046442Y-74554482D01*
X122980260Y-74561000D01*
X122891740Y-74561000D01*
X122825558Y-74554482D01*
X122759373Y-74547963D01*
X122589534Y-74496443D01*
X122433009Y-74412778D01*
X122397271Y-74383448D01*
X122295814Y-74300186D01*
X122212552Y-74198729D01*
X122183222Y-74162991D01*
X122099557Y-74006466D01*
X122048037Y-73836627D01*
X122030641Y-73660000D01*
X122048037Y-73483373D01*
X122099557Y-73313534D01*
X122183222Y-73157009D01*
X122212552Y-73121271D01*
X122295814Y-73019814D01*
X122397271Y-72936552D01*
X122433009Y-72907222D01*
X122589534Y-72823557D01*
X122759373Y-72772037D01*
X122825558Y-72765518D01*
X122891740Y-72759000D01*
X122980260Y-72759000D01*
X123046442Y-72765518D01*
X123046442Y-72765518D01*
G37*
G36*
X125586442Y-72765518D02*
G01*
X125652627Y-72772037D01*
X125822466Y-72823557D01*
X125978991Y-72907222D01*
X126014729Y-72936552D01*
X126116186Y-73019814D01*
X126199448Y-73121271D01*
X126228778Y-73157009D01*
X126312443Y-73313534D01*
X126363963Y-73483373D01*
X126381359Y-73660000D01*
X126363963Y-73836627D01*
X126312443Y-74006466D01*
X126228778Y-74162991D01*
X126199448Y-74198729D01*
X126116186Y-74300186D01*
X126014729Y-74383448D01*
X125978991Y-74412778D01*
X125822466Y-74496443D01*
X125652627Y-74547963D01*
X125586442Y-74554482D01*
X125520260Y-74561000D01*
X125431740Y-74561000D01*
X125365558Y-74554482D01*
X125299373Y-74547963D01*
X125129534Y-74496443D01*
X124973009Y-74412778D01*
X124937271Y-74383448D01*
X124835814Y-74300186D01*
X124752552Y-74198729D01*
X124723222Y-74162991D01*
X124639557Y-74006466D01*
X124588037Y-73836627D01*
X124570641Y-73660000D01*
X124588037Y-73483373D01*
X124639557Y-73313534D01*
X124723222Y-73157009D01*
X124752552Y-73121271D01*
X124835814Y-73019814D01*
X124937271Y-72936552D01*
X124973009Y-72907222D01*
X125129534Y-72823557D01*
X125299373Y-72772037D01*
X125365558Y-72765518D01*
X125431740Y-72759000D01*
X125520260Y-72759000D01*
X125586442Y-72765518D01*
X125586442Y-72765518D01*
G37*
G36*
X109584442Y-72511518D02*
G01*
X109650627Y-72518037D01*
X109820466Y-72569557D01*
X109976991Y-72653222D01*
X110012729Y-72682552D01*
X110114186Y-72765814D01*
X110197448Y-72867271D01*
X110226778Y-72903009D01*
X110310443Y-73059534D01*
X110361963Y-73229373D01*
X110379359Y-73406000D01*
X110361963Y-73582627D01*
X110310443Y-73752466D01*
X110226778Y-73908991D01*
X110210742Y-73928531D01*
X110114186Y-74046186D01*
X110014797Y-74127751D01*
X109976991Y-74158778D01*
X109820466Y-74242443D01*
X109650627Y-74293963D01*
X109587453Y-74300185D01*
X109518260Y-74307000D01*
X109429740Y-74307000D01*
X109360547Y-74300185D01*
X109297373Y-74293963D01*
X109127534Y-74242443D01*
X108971009Y-74158778D01*
X108933203Y-74127751D01*
X108833814Y-74046186D01*
X108737258Y-73928531D01*
X108721222Y-73908991D01*
X108637557Y-73752466D01*
X108586037Y-73582627D01*
X108568641Y-73406000D01*
X108586037Y-73229373D01*
X108637557Y-73059534D01*
X108721222Y-72903009D01*
X108750552Y-72867271D01*
X108833814Y-72765814D01*
X108935271Y-72682552D01*
X108971009Y-72653222D01*
X109127534Y-72569557D01*
X109297373Y-72518037D01*
X109363558Y-72511518D01*
X109429740Y-72505000D01*
X109518260Y-72505000D01*
X109584442Y-72511518D01*
X109584442Y-72511518D01*
G37*
G36*
X156066443Y-71241519D02*
G01*
X156132627Y-71248037D01*
X156302466Y-71299557D01*
X156458991Y-71383222D01*
X156494729Y-71412552D01*
X156596186Y-71495814D01*
X156679448Y-71597271D01*
X156708778Y-71633009D01*
X156792443Y-71789534D01*
X156843963Y-71959373D01*
X156861359Y-72136000D01*
X156843963Y-72312627D01*
X156792443Y-72482466D01*
X156708778Y-72638991D01*
X156679448Y-72674729D01*
X156596186Y-72776186D01*
X156494729Y-72859448D01*
X156458991Y-72888778D01*
X156302466Y-72972443D01*
X156132627Y-73023963D01*
X156066443Y-73030481D01*
X156000260Y-73037000D01*
X155911740Y-73037000D01*
X155845557Y-73030481D01*
X155779373Y-73023963D01*
X155609534Y-72972443D01*
X155453009Y-72888778D01*
X155417271Y-72859448D01*
X155315814Y-72776186D01*
X155232552Y-72674729D01*
X155203222Y-72638991D01*
X155119557Y-72482466D01*
X155068037Y-72312627D01*
X155050641Y-72136000D01*
X155068037Y-71959373D01*
X155119557Y-71789534D01*
X155203222Y-71633009D01*
X155232552Y-71597271D01*
X155315814Y-71495814D01*
X155417271Y-71412552D01*
X155453009Y-71383222D01*
X155609534Y-71299557D01*
X155779373Y-71248037D01*
X155845557Y-71241519D01*
X155911740Y-71235000D01*
X156000260Y-71235000D01*
X156066443Y-71241519D01*
X156066443Y-71241519D01*
G37*
G36*
X135492443Y-71241519D02*
G01*
X135558627Y-71248037D01*
X135728466Y-71299557D01*
X135884991Y-71383222D01*
X135920729Y-71412552D01*
X136022186Y-71495814D01*
X136105448Y-71597271D01*
X136134778Y-71633009D01*
X136218443Y-71789534D01*
X136269963Y-71959373D01*
X136287359Y-72136000D01*
X136269963Y-72312627D01*
X136218443Y-72482466D01*
X136134778Y-72638991D01*
X136105448Y-72674729D01*
X136022186Y-72776186D01*
X135920729Y-72859448D01*
X135884991Y-72888778D01*
X135728466Y-72972443D01*
X135558627Y-73023963D01*
X135492443Y-73030481D01*
X135426260Y-73037000D01*
X135337740Y-73037000D01*
X135271557Y-73030481D01*
X135205373Y-73023963D01*
X135035534Y-72972443D01*
X134879009Y-72888778D01*
X134843271Y-72859448D01*
X134741814Y-72776186D01*
X134658552Y-72674729D01*
X134629222Y-72638991D01*
X134545557Y-72482466D01*
X134494037Y-72312627D01*
X134476641Y-72136000D01*
X134494037Y-71959373D01*
X134545557Y-71789534D01*
X134629222Y-71633009D01*
X134658552Y-71597271D01*
X134741814Y-71495814D01*
X134843271Y-71412552D01*
X134879009Y-71383222D01*
X135035534Y-71299557D01*
X135205373Y-71248037D01*
X135271557Y-71241519D01*
X135337740Y-71235000D01*
X135426260Y-71235000D01*
X135492443Y-71241519D01*
X135492443Y-71241519D01*
G37*
G36*
X138032443Y-71241519D02*
G01*
X138098627Y-71248037D01*
X138268466Y-71299557D01*
X138424991Y-71383222D01*
X138460729Y-71412552D01*
X138562186Y-71495814D01*
X138645448Y-71597271D01*
X138674778Y-71633009D01*
X138758443Y-71789534D01*
X138809963Y-71959373D01*
X138827359Y-72136000D01*
X138809963Y-72312627D01*
X138758443Y-72482466D01*
X138674778Y-72638991D01*
X138645448Y-72674729D01*
X138562186Y-72776186D01*
X138460729Y-72859448D01*
X138424991Y-72888778D01*
X138268466Y-72972443D01*
X138098627Y-73023963D01*
X138032443Y-73030481D01*
X137966260Y-73037000D01*
X137877740Y-73037000D01*
X137811557Y-73030481D01*
X137745373Y-73023963D01*
X137575534Y-72972443D01*
X137419009Y-72888778D01*
X137383271Y-72859448D01*
X137281814Y-72776186D01*
X137198552Y-72674729D01*
X137169222Y-72638991D01*
X137085557Y-72482466D01*
X137034037Y-72312627D01*
X137016641Y-72136000D01*
X137034037Y-71959373D01*
X137085557Y-71789534D01*
X137169222Y-71633009D01*
X137198552Y-71597271D01*
X137281814Y-71495814D01*
X137383271Y-71412552D01*
X137419009Y-71383222D01*
X137575534Y-71299557D01*
X137745373Y-71248037D01*
X137811557Y-71241519D01*
X137877740Y-71235000D01*
X137966260Y-71235000D01*
X138032443Y-71241519D01*
X138032443Y-71241519D01*
G37*
G36*
X141363000Y-73037000D02*
G01*
X139561000Y-73037000D01*
X139561000Y-71235000D01*
X141363000Y-71235000D01*
X141363000Y-73037000D01*
X141363000Y-73037000D01*
G37*
G36*
X105549000Y-72021000D02*
G01*
X103747000Y-72021000D01*
X103747000Y-70219000D01*
X105549000Y-70219000D01*
X105549000Y-72021000D01*
X105549000Y-72021000D01*
G37*
G36*
X130549000Y-72021000D02*
G01*
X128747000Y-72021000D01*
X128747000Y-70219000D01*
X130549000Y-70219000D01*
X130549000Y-72021000D01*
X130549000Y-72021000D01*
G37*
G36*
X161923487Y-69106996D02*
G01*
X162160253Y-69205068D01*
X162160255Y-69205069D01*
X162373339Y-69347447D01*
X162554553Y-69528661D01*
X162696932Y-69741747D01*
X162795004Y-69978513D01*
X162845000Y-70229861D01*
X162845000Y-70486139D01*
X162795004Y-70737487D01*
X162696932Y-70974253D01*
X162696931Y-70974255D01*
X162554553Y-71187339D01*
X162373339Y-71368553D01*
X162160255Y-71510931D01*
X162160254Y-71510932D01*
X162160253Y-71510932D01*
X161923487Y-71609004D01*
X161672139Y-71659000D01*
X161415861Y-71659000D01*
X161164513Y-71609004D01*
X160927747Y-71510932D01*
X160927746Y-71510932D01*
X160927745Y-71510931D01*
X160714661Y-71368553D01*
X160533447Y-71187339D01*
X160391069Y-70974255D01*
X160391068Y-70974253D01*
X160292996Y-70737487D01*
X160243000Y-70486139D01*
X160243000Y-70229861D01*
X160292996Y-69978513D01*
X160391068Y-69741747D01*
X160533447Y-69528661D01*
X160714661Y-69347447D01*
X160927745Y-69205069D01*
X160927747Y-69205068D01*
X161164513Y-69106996D01*
X161415861Y-69057000D01*
X161672139Y-69057000D01*
X161923487Y-69106996D01*
X161923487Y-69106996D01*
G37*
G36*
X146414443Y-68701519D02*
G01*
X146480627Y-68708037D01*
X146650466Y-68759557D01*
X146806991Y-68843222D01*
X146842729Y-68872552D01*
X146944186Y-68955814D01*
X147027226Y-69057000D01*
X147056778Y-69093009D01*
X147140443Y-69249534D01*
X147191963Y-69419373D01*
X147209359Y-69596000D01*
X147191963Y-69772627D01*
X147140443Y-69942466D01*
X147056778Y-70098991D01*
X147027448Y-70134729D01*
X146944186Y-70236186D01*
X146842729Y-70319448D01*
X146806991Y-70348778D01*
X146650466Y-70432443D01*
X146480627Y-70483963D01*
X146414443Y-70490481D01*
X146348260Y-70497000D01*
X146259740Y-70497000D01*
X146193557Y-70490481D01*
X146127373Y-70483963D01*
X145957534Y-70432443D01*
X145801009Y-70348778D01*
X145765271Y-70319448D01*
X145663814Y-70236186D01*
X145580552Y-70134729D01*
X145551222Y-70098991D01*
X145467557Y-69942466D01*
X145416037Y-69772627D01*
X145398641Y-69596000D01*
X145416037Y-69419373D01*
X145467557Y-69249534D01*
X145551222Y-69093009D01*
X145580774Y-69057000D01*
X145663814Y-68955814D01*
X145765271Y-68872552D01*
X145801009Y-68843222D01*
X145957534Y-68759557D01*
X146127373Y-68708037D01*
X146193557Y-68701519D01*
X146259740Y-68695000D01*
X146348260Y-68695000D01*
X146414443Y-68701519D01*
X146414443Y-68701519D01*
G37*
G36*
X138032443Y-68701519D02*
G01*
X138098627Y-68708037D01*
X138268466Y-68759557D01*
X138424991Y-68843222D01*
X138460729Y-68872552D01*
X138562186Y-68955814D01*
X138645226Y-69057000D01*
X138674778Y-69093009D01*
X138758443Y-69249534D01*
X138809963Y-69419373D01*
X138827359Y-69596000D01*
X138809963Y-69772627D01*
X138758443Y-69942466D01*
X138674778Y-70098991D01*
X138645448Y-70134729D01*
X138562186Y-70236186D01*
X138460729Y-70319448D01*
X138424991Y-70348778D01*
X138268466Y-70432443D01*
X138098627Y-70483963D01*
X138032443Y-70490481D01*
X137966260Y-70497000D01*
X137877740Y-70497000D01*
X137811557Y-70490481D01*
X137745373Y-70483963D01*
X137575534Y-70432443D01*
X137419009Y-70348778D01*
X137383271Y-70319448D01*
X137281814Y-70236186D01*
X137198552Y-70134729D01*
X137169222Y-70098991D01*
X137085557Y-69942466D01*
X137034037Y-69772627D01*
X137016641Y-69596000D01*
X137034037Y-69419373D01*
X137085557Y-69249534D01*
X137169222Y-69093009D01*
X137198774Y-69057000D01*
X137281814Y-68955814D01*
X137383271Y-68872552D01*
X137419009Y-68843222D01*
X137575534Y-68759557D01*
X137745373Y-68708037D01*
X137811557Y-68701519D01*
X137877740Y-68695000D01*
X137966260Y-68695000D01*
X138032443Y-68701519D01*
X138032443Y-68701519D01*
G37*
G36*
X141363000Y-70497000D02*
G01*
X139561000Y-70497000D01*
X139561000Y-68695000D01*
X141363000Y-68695000D01*
X141363000Y-70497000D01*
X141363000Y-70497000D01*
G37*
G36*
X126377000Y-70497000D02*
G01*
X124575000Y-70497000D01*
X124575000Y-68695000D01*
X126377000Y-68695000D01*
X126377000Y-70497000D01*
X126377000Y-70497000D01*
G37*
G36*
X123046443Y-68701519D02*
G01*
X123112627Y-68708037D01*
X123282466Y-68759557D01*
X123438991Y-68843222D01*
X123474729Y-68872552D01*
X123576186Y-68955814D01*
X123659226Y-69057000D01*
X123688778Y-69093009D01*
X123772443Y-69249534D01*
X123823963Y-69419373D01*
X123841359Y-69596000D01*
X123823963Y-69772627D01*
X123772443Y-69942466D01*
X123688778Y-70098991D01*
X123659448Y-70134729D01*
X123576186Y-70236186D01*
X123474729Y-70319448D01*
X123438991Y-70348778D01*
X123282466Y-70432443D01*
X123112627Y-70483963D01*
X123046443Y-70490481D01*
X122980260Y-70497000D01*
X122891740Y-70497000D01*
X122825557Y-70490481D01*
X122759373Y-70483963D01*
X122589534Y-70432443D01*
X122433009Y-70348778D01*
X122397271Y-70319448D01*
X122295814Y-70236186D01*
X122212552Y-70134729D01*
X122183222Y-70098991D01*
X122099557Y-69942466D01*
X122048037Y-69772627D01*
X122030641Y-69596000D01*
X122048037Y-69419373D01*
X122099557Y-69249534D01*
X122183222Y-69093009D01*
X122212774Y-69057000D01*
X122295814Y-68955814D01*
X122397271Y-68872552D01*
X122433009Y-68843222D01*
X122589534Y-68759557D01*
X122759373Y-68708037D01*
X122825557Y-68701519D01*
X122891740Y-68695000D01*
X122980260Y-68695000D01*
X123046443Y-68701519D01*
X123046443Y-68701519D01*
G37*
G36*
X117966443Y-68701519D02*
G01*
X118032627Y-68708037D01*
X118202466Y-68759557D01*
X118358991Y-68843222D01*
X118394729Y-68872552D01*
X118496186Y-68955814D01*
X118579226Y-69057000D01*
X118608778Y-69093009D01*
X118692443Y-69249534D01*
X118743963Y-69419373D01*
X118761359Y-69596000D01*
X118743963Y-69772627D01*
X118692443Y-69942466D01*
X118608778Y-70098991D01*
X118579448Y-70134729D01*
X118496186Y-70236186D01*
X118394729Y-70319448D01*
X118358991Y-70348778D01*
X118202466Y-70432443D01*
X118032627Y-70483963D01*
X117966443Y-70490481D01*
X117900260Y-70497000D01*
X117811740Y-70497000D01*
X117745557Y-70490481D01*
X117679373Y-70483963D01*
X117509534Y-70432443D01*
X117353009Y-70348778D01*
X117317271Y-70319448D01*
X117215814Y-70236186D01*
X117132552Y-70134729D01*
X117103222Y-70098991D01*
X117019557Y-69942466D01*
X116968037Y-69772627D01*
X116950641Y-69596000D01*
X116968037Y-69419373D01*
X117019557Y-69249534D01*
X117103222Y-69093009D01*
X117132774Y-69057000D01*
X117215814Y-68955814D01*
X117317271Y-68872552D01*
X117353009Y-68843222D01*
X117509534Y-68759557D01*
X117679373Y-68708037D01*
X117745557Y-68701519D01*
X117811740Y-68695000D01*
X117900260Y-68695000D01*
X117966443Y-68701519D01*
X117966443Y-68701519D01*
G37*
G36*
X115426443Y-68701519D02*
G01*
X115492627Y-68708037D01*
X115662466Y-68759557D01*
X115818991Y-68843222D01*
X115854729Y-68872552D01*
X115956186Y-68955814D01*
X116039226Y-69057000D01*
X116068778Y-69093009D01*
X116152443Y-69249534D01*
X116203963Y-69419373D01*
X116221359Y-69596000D01*
X116203963Y-69772627D01*
X116152443Y-69942466D01*
X116068778Y-70098991D01*
X116039448Y-70134729D01*
X115956186Y-70236186D01*
X115854729Y-70319448D01*
X115818991Y-70348778D01*
X115662466Y-70432443D01*
X115492627Y-70483963D01*
X115426443Y-70490481D01*
X115360260Y-70497000D01*
X115271740Y-70497000D01*
X115205557Y-70490481D01*
X115139373Y-70483963D01*
X114969534Y-70432443D01*
X114813009Y-70348778D01*
X114777271Y-70319448D01*
X114675814Y-70236186D01*
X114592552Y-70134729D01*
X114563222Y-70098991D01*
X114479557Y-69942466D01*
X114428037Y-69772627D01*
X114410641Y-69596000D01*
X114428037Y-69419373D01*
X114479557Y-69249534D01*
X114563222Y-69093009D01*
X114592774Y-69057000D01*
X114675814Y-68955814D01*
X114777271Y-68872552D01*
X114813009Y-68843222D01*
X114969534Y-68759557D01*
X115139373Y-68708037D01*
X115205557Y-68701519D01*
X115271740Y-68695000D01*
X115360260Y-68695000D01*
X115426443Y-68701519D01*
X115426443Y-68701519D01*
G37*
G36*
X112886443Y-68701519D02*
G01*
X112952627Y-68708037D01*
X113122466Y-68759557D01*
X113278991Y-68843222D01*
X113314729Y-68872552D01*
X113416186Y-68955814D01*
X113499226Y-69057000D01*
X113528778Y-69093009D01*
X113612443Y-69249534D01*
X113663963Y-69419373D01*
X113681359Y-69596000D01*
X113663963Y-69772627D01*
X113612443Y-69942466D01*
X113528778Y-70098991D01*
X113499448Y-70134729D01*
X113416186Y-70236186D01*
X113314729Y-70319448D01*
X113278991Y-70348778D01*
X113122466Y-70432443D01*
X112952627Y-70483963D01*
X112886443Y-70490481D01*
X112820260Y-70497000D01*
X112731740Y-70497000D01*
X112665557Y-70490481D01*
X112599373Y-70483963D01*
X112429534Y-70432443D01*
X112273009Y-70348778D01*
X112237271Y-70319448D01*
X112135814Y-70236186D01*
X112052552Y-70134729D01*
X112023222Y-70098991D01*
X111939557Y-69942466D01*
X111888037Y-69772627D01*
X111870641Y-69596000D01*
X111888037Y-69419373D01*
X111939557Y-69249534D01*
X112023222Y-69093009D01*
X112052774Y-69057000D01*
X112135814Y-68955814D01*
X112237271Y-68872552D01*
X112273009Y-68843222D01*
X112429534Y-68759557D01*
X112599373Y-68708037D01*
X112665557Y-68701519D01*
X112731740Y-68695000D01*
X112820260Y-68695000D01*
X112886443Y-68701519D01*
X112886443Y-68701519D01*
G37*
G36*
X135492443Y-68701519D02*
G01*
X135558627Y-68708037D01*
X135728466Y-68759557D01*
X135884991Y-68843222D01*
X135920729Y-68872552D01*
X136022186Y-68955814D01*
X136105226Y-69057000D01*
X136134778Y-69093009D01*
X136218443Y-69249534D01*
X136269963Y-69419373D01*
X136287359Y-69596000D01*
X136269963Y-69772627D01*
X136218443Y-69942466D01*
X136134778Y-70098991D01*
X136105448Y-70134729D01*
X136022186Y-70236186D01*
X135920729Y-70319448D01*
X135884991Y-70348778D01*
X135728466Y-70432443D01*
X135558627Y-70483963D01*
X135492443Y-70490481D01*
X135426260Y-70497000D01*
X135337740Y-70497000D01*
X135271557Y-70490481D01*
X135205373Y-70483963D01*
X135035534Y-70432443D01*
X134879009Y-70348778D01*
X134843271Y-70319448D01*
X134741814Y-70236186D01*
X134658552Y-70134729D01*
X134629222Y-70098991D01*
X134545557Y-69942466D01*
X134494037Y-69772627D01*
X134476641Y-69596000D01*
X134494037Y-69419373D01*
X134545557Y-69249534D01*
X134629222Y-69093009D01*
X134658774Y-69057000D01*
X134741814Y-68955814D01*
X134843271Y-68872552D01*
X134879009Y-68843222D01*
X135035534Y-68759557D01*
X135205373Y-68708037D01*
X135271557Y-68701519D01*
X135337740Y-68695000D01*
X135426260Y-68695000D01*
X135492443Y-68701519D01*
X135492443Y-68701519D01*
G37*
G36*
X148954443Y-68701519D02*
G01*
X149020627Y-68708037D01*
X149190466Y-68759557D01*
X149346991Y-68843222D01*
X149382729Y-68872552D01*
X149484186Y-68955814D01*
X149567226Y-69057000D01*
X149596778Y-69093009D01*
X149680443Y-69249534D01*
X149731963Y-69419373D01*
X149749359Y-69596000D01*
X149731963Y-69772627D01*
X149680443Y-69942466D01*
X149596778Y-70098991D01*
X149567448Y-70134729D01*
X149484186Y-70236186D01*
X149382729Y-70319448D01*
X149346991Y-70348778D01*
X149190466Y-70432443D01*
X149020627Y-70483963D01*
X148954443Y-70490481D01*
X148888260Y-70497000D01*
X148799740Y-70497000D01*
X148733557Y-70490481D01*
X148667373Y-70483963D01*
X148497534Y-70432443D01*
X148341009Y-70348778D01*
X148305271Y-70319448D01*
X148203814Y-70236186D01*
X148120552Y-70134729D01*
X148091222Y-70098991D01*
X148007557Y-69942466D01*
X147956037Y-69772627D01*
X147938641Y-69596000D01*
X147956037Y-69419373D01*
X148007557Y-69249534D01*
X148091222Y-69093009D01*
X148120774Y-69057000D01*
X148203814Y-68955814D01*
X148305271Y-68872552D01*
X148341009Y-68843222D01*
X148497534Y-68759557D01*
X148667373Y-68708037D01*
X148733557Y-68701519D01*
X148799740Y-68695000D01*
X148888260Y-68695000D01*
X148954443Y-68701519D01*
X148954443Y-68701519D01*
G37*
G36*
X152285000Y-70497000D02*
G01*
X150483000Y-70497000D01*
X150483000Y-68695000D01*
X152285000Y-68695000D01*
X152285000Y-70497000D01*
X152285000Y-70497000D01*
G37*
G36*
X156857000Y-70497000D02*
G01*
X155055000Y-70497000D01*
X155055000Y-68695000D01*
X156857000Y-68695000D01*
X156857000Y-70497000D01*
X156857000Y-70497000D01*
G37*
G36*
X120506443Y-68701519D02*
G01*
X120572627Y-68708037D01*
X120742466Y-68759557D01*
X120898991Y-68843222D01*
X120934729Y-68872552D01*
X121036186Y-68955814D01*
X121119226Y-69057000D01*
X121148778Y-69093009D01*
X121232443Y-69249534D01*
X121283963Y-69419373D01*
X121301359Y-69596000D01*
X121283963Y-69772627D01*
X121232443Y-69942466D01*
X121148778Y-70098991D01*
X121119448Y-70134729D01*
X121036186Y-70236186D01*
X120934729Y-70319448D01*
X120898991Y-70348778D01*
X120742466Y-70432443D01*
X120572627Y-70483963D01*
X120506443Y-70490481D01*
X120440260Y-70497000D01*
X120351740Y-70497000D01*
X120285557Y-70490481D01*
X120219373Y-70483963D01*
X120049534Y-70432443D01*
X119893009Y-70348778D01*
X119857271Y-70319448D01*
X119755814Y-70236186D01*
X119672552Y-70134729D01*
X119643222Y-70098991D01*
X119559557Y-69942466D01*
X119508037Y-69772627D01*
X119490641Y-69596000D01*
X119508037Y-69419373D01*
X119559557Y-69249534D01*
X119643222Y-69093009D01*
X119672774Y-69057000D01*
X119755814Y-68955814D01*
X119857271Y-68872552D01*
X119893009Y-68843222D01*
X120049534Y-68759557D01*
X120219373Y-68708037D01*
X120285557Y-68701519D01*
X120351740Y-68695000D01*
X120440260Y-68695000D01*
X120506443Y-68701519D01*
X120506443Y-68701519D01*
G37*
M02*
