G04 #@! TF.GenerationSoftware,KiCad,Pcbnew,(5.1.2)-1*
G04 #@! TF.CreationDate,2024-09-19T10:13:49+01:00*
G04 #@! TF.ProjectId,ESP32_PCB03,45535033-325f-4504-9342-30332e6b6963,rev?*
G04 #@! TF.SameCoordinates,Original*
G04 #@! TF.FileFunction,Legend,Bot*
G04 #@! TF.FilePolarity,Positive*
%FSLAX46Y46*%
G04 Gerber Fmt 4.6, Leading zero omitted, Abs format (unit mm)*
G04 Created by KiCad (PCBNEW (5.1.2)-1) date 2024-09-19 10:13:49*
%MOMM*%
%LPD*%
G04 APERTURE LIST*
%ADD10C,0.300000*%
%ADD11C,0.150000*%
%ADD12O,1.802000X1.802000*%
%ADD13R,1.802000X1.802000*%
%ADD14C,1.702000*%
%ADD15O,1.702000X1.702000*%
%ADD16C,1.502000*%
%ADD17O,1.502000X1.502000*%
%ADD18R,1.902000X1.172000*%
%ADD19O,1.902000X1.172000*%
%ADD20R,1.702000X1.702000*%
%ADD21C,1.902000*%
%ADD22R,1.902000X1.902000*%
%ADD23O,2.102000X1.802000*%
%ADD24C,1.802000*%
%ADD25O,1.829200X3.150000*%
%ADD26R,0.942000X0.942000*%
%ADD27C,0.942000*%
%ADD28O,1.952000X0.952000*%
%ADD29C,2.602000*%
G04 APERTURE END LIST*
D10*
X121304285Y-114240571D02*
X121304285Y-115454857D01*
X121232857Y-115597714D01*
X121161428Y-115669142D01*
X121018571Y-115740571D01*
X120732857Y-115740571D01*
X120590000Y-115669142D01*
X120518571Y-115597714D01*
X120447142Y-115454857D01*
X120447142Y-114240571D01*
X119804285Y-115669142D02*
X119590000Y-115740571D01*
X119232857Y-115740571D01*
X119090000Y-115669142D01*
X119018571Y-115597714D01*
X118947142Y-115454857D01*
X118947142Y-115312000D01*
X119018571Y-115169142D01*
X119090000Y-115097714D01*
X119232857Y-115026285D01*
X119518571Y-114954857D01*
X119661428Y-114883428D01*
X119732857Y-114812000D01*
X119804285Y-114669142D01*
X119804285Y-114526285D01*
X119732857Y-114383428D01*
X119661428Y-114312000D01*
X119518571Y-114240571D01*
X119161428Y-114240571D01*
X118947142Y-114312000D01*
X117804285Y-114954857D02*
X117590000Y-115026285D01*
X117518571Y-115097714D01*
X117447142Y-115240571D01*
X117447142Y-115454857D01*
X117518571Y-115597714D01*
X117590000Y-115669142D01*
X117732857Y-115740571D01*
X118304285Y-115740571D01*
X118304285Y-114240571D01*
X117804285Y-114240571D01*
X117661428Y-114312000D01*
X117590000Y-114383428D01*
X117518571Y-114526285D01*
X117518571Y-114669142D01*
X117590000Y-114812000D01*
X117661428Y-114883428D01*
X117804285Y-114954857D01*
X118304285Y-114954857D01*
X115090000Y-115669142D02*
X115232857Y-115740571D01*
X115518571Y-115740571D01*
X115661428Y-115669142D01*
X115732857Y-115526285D01*
X115732857Y-114954857D01*
X115661428Y-114812000D01*
X115518571Y-114740571D01*
X115232857Y-114740571D01*
X115090000Y-114812000D01*
X115018571Y-114954857D01*
X115018571Y-115097714D01*
X115732857Y-115240571D01*
X114375714Y-114740571D02*
X114375714Y-115740571D01*
X114375714Y-114883428D02*
X114304285Y-114812000D01*
X114161428Y-114740571D01*
X113947142Y-114740571D01*
X113804285Y-114812000D01*
X113732857Y-114954857D01*
X113732857Y-115740571D01*
X112375714Y-115740571D02*
X112375714Y-114240571D01*
X112375714Y-115669142D02*
X112518571Y-115740571D01*
X112804285Y-115740571D01*
X112947142Y-115669142D01*
X113018571Y-115597714D01*
X113090000Y-115454857D01*
X113090000Y-115026285D01*
X113018571Y-114883428D01*
X112947142Y-114812000D01*
X112804285Y-114740571D01*
X112518571Y-114740571D01*
X112375714Y-114812000D01*
X155622142Y-80032428D02*
X155022142Y-80032428D01*
X154765000Y-80975285D02*
X155622142Y-80975285D01*
X155622142Y-79175285D01*
X154765000Y-79175285D01*
X154079285Y-80889571D02*
X153822142Y-80975285D01*
X153393571Y-80975285D01*
X153222142Y-80889571D01*
X153136428Y-80803857D01*
X153050714Y-80632428D01*
X153050714Y-80461000D01*
X153136428Y-80289571D01*
X153222142Y-80203857D01*
X153393571Y-80118142D01*
X153736428Y-80032428D01*
X153907857Y-79946714D01*
X153993571Y-79861000D01*
X154079285Y-79689571D01*
X154079285Y-79518142D01*
X153993571Y-79346714D01*
X153907857Y-79261000D01*
X153736428Y-79175285D01*
X153307857Y-79175285D01*
X153050714Y-79261000D01*
X152279285Y-80975285D02*
X152279285Y-79175285D01*
X151593571Y-79175285D01*
X151422142Y-79261000D01*
X151336428Y-79346714D01*
X151250714Y-79518142D01*
X151250714Y-79775285D01*
X151336428Y-79946714D01*
X151422142Y-80032428D01*
X151593571Y-80118142D01*
X152279285Y-80118142D01*
X150650714Y-79175285D02*
X149536428Y-79175285D01*
X150136428Y-79861000D01*
X149879285Y-79861000D01*
X149707857Y-79946714D01*
X149622142Y-80032428D01*
X149536428Y-80203857D01*
X149536428Y-80632428D01*
X149622142Y-80803857D01*
X149707857Y-80889571D01*
X149879285Y-80975285D01*
X150393571Y-80975285D01*
X150565000Y-80889571D01*
X150650714Y-80803857D01*
X148850714Y-79346714D02*
X148765000Y-79261000D01*
X148593571Y-79175285D01*
X148165000Y-79175285D01*
X147993571Y-79261000D01*
X147907857Y-79346714D01*
X147822142Y-79518142D01*
X147822142Y-79689571D01*
X147907857Y-79946714D01*
X148936428Y-80975285D01*
X147822142Y-80975285D01*
X157550714Y-83975285D02*
X157550714Y-82175285D01*
X156865000Y-82175285D01*
X156693571Y-82261000D01*
X156607857Y-82346714D01*
X156522142Y-82518142D01*
X156522142Y-82775285D01*
X156607857Y-82946714D01*
X156693571Y-83032428D01*
X156865000Y-83118142D01*
X157550714Y-83118142D01*
X154722142Y-83803857D02*
X154807857Y-83889571D01*
X155065000Y-83975285D01*
X155236428Y-83975285D01*
X155493571Y-83889571D01*
X155665000Y-83718142D01*
X155750714Y-83546714D01*
X155836428Y-83203857D01*
X155836428Y-82946714D01*
X155750714Y-82603857D01*
X155665000Y-82432428D01*
X155493571Y-82261000D01*
X155236428Y-82175285D01*
X155065000Y-82175285D01*
X154807857Y-82261000D01*
X154722142Y-82346714D01*
X153350714Y-83032428D02*
X153093571Y-83118142D01*
X153007857Y-83203857D01*
X152922142Y-83375285D01*
X152922142Y-83632428D01*
X153007857Y-83803857D01*
X153093571Y-83889571D01*
X153265000Y-83975285D01*
X153950714Y-83975285D01*
X153950714Y-82175285D01*
X153350714Y-82175285D01*
X153179285Y-82261000D01*
X153093571Y-82346714D01*
X153007857Y-82518142D01*
X153007857Y-82689571D01*
X153093571Y-82861000D01*
X153179285Y-82946714D01*
X153350714Y-83032428D01*
X153950714Y-83032428D01*
X150950714Y-82775285D02*
X150522142Y-83975285D01*
X150093571Y-82775285D01*
X149579285Y-82175285D02*
X148465000Y-82175285D01*
X149065000Y-82861000D01*
X148807857Y-82861000D01*
X148636428Y-82946714D01*
X148550714Y-83032428D01*
X148465000Y-83203857D01*
X148465000Y-83632428D01*
X148550714Y-83803857D01*
X148636428Y-83889571D01*
X148807857Y-83975285D01*
X149322142Y-83975285D01*
X149493571Y-83889571D01*
X149579285Y-83803857D01*
X147693571Y-83803857D02*
X147607857Y-83889571D01*
X147693571Y-83975285D01*
X147779285Y-83889571D01*
X147693571Y-83803857D01*
X147693571Y-83975285D01*
X146493571Y-82175285D02*
X146322142Y-82175285D01*
X146150714Y-82261000D01*
X146065000Y-82346714D01*
X145979285Y-82518142D01*
X145893571Y-82861000D01*
X145893571Y-83289571D01*
X145979285Y-83632428D01*
X146065000Y-83803857D01*
X146150714Y-83889571D01*
X146322142Y-83975285D01*
X146493571Y-83975285D01*
X146665000Y-83889571D01*
X146750714Y-83803857D01*
X146836428Y-83632428D01*
X146922142Y-83289571D01*
X146922142Y-82861000D01*
X146836428Y-82518142D01*
X146750714Y-82346714D01*
X146665000Y-82261000D01*
X146493571Y-82175285D01*
X154888000Y-100743857D02*
X155030857Y-100822428D01*
X155316571Y-100822428D01*
X155459428Y-100743857D01*
X155530857Y-100665285D01*
X155602285Y-100508142D01*
X155602285Y-100036714D01*
X155530857Y-99879571D01*
X155459428Y-99801000D01*
X155316571Y-99722428D01*
X155030857Y-99722428D01*
X154888000Y-99801000D01*
X154030857Y-100822428D02*
X154173714Y-100743857D01*
X154245142Y-100665285D01*
X154316571Y-100508142D01*
X154316571Y-100036714D01*
X154245142Y-99879571D01*
X154173714Y-99801000D01*
X154030857Y-99722428D01*
X153816571Y-99722428D01*
X153673714Y-99801000D01*
X153602285Y-99879571D01*
X153530857Y-100036714D01*
X153530857Y-100508142D01*
X153602285Y-100665285D01*
X153673714Y-100743857D01*
X153816571Y-100822428D01*
X154030857Y-100822428D01*
X152888000Y-99722428D02*
X152888000Y-101372428D01*
X152888000Y-99801000D02*
X152745142Y-99722428D01*
X152459428Y-99722428D01*
X152316571Y-99801000D01*
X152245142Y-99879571D01*
X152173714Y-100036714D01*
X152173714Y-100508142D01*
X152245142Y-100665285D01*
X152316571Y-100743857D01*
X152459428Y-100822428D01*
X152745142Y-100822428D01*
X152888000Y-100743857D01*
X151673714Y-99722428D02*
X151316571Y-100822428D01*
X150959428Y-99722428D02*
X151316571Y-100822428D01*
X151459428Y-101215285D01*
X151530857Y-101293857D01*
X151673714Y-101372428D01*
X150388000Y-100822428D02*
X150388000Y-99722428D01*
X150388000Y-100036714D02*
X150316571Y-99879571D01*
X150245142Y-99801000D01*
X150102285Y-99722428D01*
X149959428Y-99722428D01*
X149459428Y-100822428D02*
X149459428Y-99722428D01*
X149459428Y-99172428D02*
X149530857Y-99251000D01*
X149459428Y-99329571D01*
X149388000Y-99251000D01*
X149459428Y-99172428D01*
X149459428Y-99329571D01*
X148102285Y-99722428D02*
X148102285Y-101058142D01*
X148173714Y-101215285D01*
X148245142Y-101293857D01*
X148388000Y-101372428D01*
X148602285Y-101372428D01*
X148745142Y-101293857D01*
X148102285Y-100743857D02*
X148245142Y-100822428D01*
X148530857Y-100822428D01*
X148673714Y-100743857D01*
X148745142Y-100665285D01*
X148816571Y-100508142D01*
X148816571Y-100036714D01*
X148745142Y-99879571D01*
X148673714Y-99801000D01*
X148530857Y-99722428D01*
X148245142Y-99722428D01*
X148102285Y-99801000D01*
X147388000Y-100822428D02*
X147388000Y-99172428D01*
X146745142Y-100822428D02*
X146745142Y-99958142D01*
X146816571Y-99801000D01*
X146959428Y-99722428D01*
X147173714Y-99722428D01*
X147316571Y-99801000D01*
X147388000Y-99879571D01*
X146245142Y-99722428D02*
X145673714Y-99722428D01*
X146030857Y-99172428D02*
X146030857Y-100586714D01*
X145959428Y-100743857D01*
X145816571Y-100822428D01*
X145673714Y-100822428D01*
X144102285Y-99329571D02*
X144030857Y-99251000D01*
X143888000Y-99172428D01*
X143530857Y-99172428D01*
X143388000Y-99251000D01*
X143316571Y-99329571D01*
X143245142Y-99486714D01*
X143245142Y-99643857D01*
X143316571Y-99879571D01*
X144173714Y-100822428D01*
X143245142Y-100822428D01*
X142316571Y-99172428D02*
X142173714Y-99172428D01*
X142030857Y-99251000D01*
X141959428Y-99329571D01*
X141888000Y-99486714D01*
X141816571Y-99801000D01*
X141816571Y-100193857D01*
X141888000Y-100508142D01*
X141959428Y-100665285D01*
X142030857Y-100743857D01*
X142173714Y-100822428D01*
X142316571Y-100822428D01*
X142459428Y-100743857D01*
X142530857Y-100665285D01*
X142602285Y-100508142D01*
X142673714Y-100193857D01*
X142673714Y-99801000D01*
X142602285Y-99486714D01*
X142530857Y-99329571D01*
X142459428Y-99251000D01*
X142316571Y-99172428D01*
X141245142Y-99329571D02*
X141173714Y-99251000D01*
X141030857Y-99172428D01*
X140673714Y-99172428D01*
X140530857Y-99251000D01*
X140459428Y-99329571D01*
X140388000Y-99486714D01*
X140388000Y-99643857D01*
X140459428Y-99879571D01*
X141316571Y-100822428D01*
X140388000Y-100822428D01*
X138959428Y-100822428D02*
X139816571Y-100822428D01*
X139388000Y-100822428D02*
X139388000Y-99172428D01*
X139530857Y-99408142D01*
X139673714Y-99565285D01*
X139816571Y-99643857D01*
X138316571Y-100193857D02*
X137173714Y-100193857D01*
X136530857Y-99329571D02*
X136459428Y-99251000D01*
X136316571Y-99172428D01*
X135959428Y-99172428D01*
X135816571Y-99251000D01*
X135745142Y-99329571D01*
X135673714Y-99486714D01*
X135673714Y-99643857D01*
X135745142Y-99879571D01*
X136602285Y-100822428D01*
X135673714Y-100822428D01*
X134388000Y-99722428D02*
X134388000Y-100822428D01*
X134745142Y-99093857D02*
X135102285Y-100272428D01*
X134173714Y-100272428D01*
X153322761Y-96738000D02*
X153484666Y-96649904D01*
X153727523Y-96649904D01*
X153970380Y-96738000D01*
X154132285Y-96914190D01*
X154213238Y-97090380D01*
X154294190Y-97442761D01*
X154294190Y-97707047D01*
X154213238Y-98059428D01*
X154132285Y-98235619D01*
X153970380Y-98411809D01*
X153727523Y-98499904D01*
X153565619Y-98499904D01*
X153322761Y-98411809D01*
X153241809Y-98323714D01*
X153241809Y-97707047D01*
X153565619Y-97707047D01*
X151865619Y-98411809D02*
X152027523Y-98499904D01*
X152351333Y-98499904D01*
X152513238Y-98411809D01*
X152594190Y-98235619D01*
X152594190Y-97530857D01*
X152513238Y-97354666D01*
X152351333Y-97266571D01*
X152027523Y-97266571D01*
X151865619Y-97354666D01*
X151784666Y-97530857D01*
X151784666Y-97707047D01*
X152594190Y-97883238D01*
X150813238Y-98499904D02*
X150975142Y-98411809D01*
X151056095Y-98323714D01*
X151137047Y-98147523D01*
X151137047Y-97618952D01*
X151056095Y-97442761D01*
X150975142Y-97354666D01*
X150813238Y-97266571D01*
X150570380Y-97266571D01*
X150408476Y-97354666D01*
X150327523Y-97442761D01*
X150246571Y-97618952D01*
X150246571Y-98147523D01*
X150327523Y-98323714D01*
X150408476Y-98411809D01*
X150570380Y-98499904D01*
X150813238Y-98499904D01*
X149760857Y-97266571D02*
X149113238Y-97266571D01*
X149518000Y-98499904D02*
X149518000Y-96914190D01*
X149437047Y-96738000D01*
X149275142Y-96649904D01*
X149113238Y-96649904D01*
X148789428Y-97266571D02*
X148141809Y-97266571D01*
X148546571Y-98499904D02*
X148546571Y-96914190D01*
X148465619Y-96738000D01*
X148303714Y-96649904D01*
X148141809Y-96649904D01*
X145713238Y-97530857D02*
X145470380Y-97618952D01*
X145389428Y-97707047D01*
X145308476Y-97883238D01*
X145308476Y-98147523D01*
X145389428Y-98323714D01*
X145470380Y-98411809D01*
X145632285Y-98499904D01*
X146279904Y-98499904D01*
X146279904Y-96649904D01*
X145713238Y-96649904D01*
X145551333Y-96738000D01*
X145470380Y-96826095D01*
X145389428Y-97002285D01*
X145389428Y-97178476D01*
X145470380Y-97354666D01*
X145551333Y-97442761D01*
X145713238Y-97530857D01*
X146279904Y-97530857D01*
X144579904Y-98499904D02*
X144579904Y-97266571D01*
X144579904Y-97618952D02*
X144498952Y-97442761D01*
X144418000Y-97354666D01*
X144256095Y-97266571D01*
X144094190Y-97266571D01*
X143527523Y-98499904D02*
X143527523Y-97266571D01*
X143527523Y-96649904D02*
X143608476Y-96738000D01*
X143527523Y-96826095D01*
X143446571Y-96738000D01*
X143527523Y-96649904D01*
X143527523Y-96826095D01*
X141989428Y-98411809D02*
X142151333Y-98499904D01*
X142475142Y-98499904D01*
X142637047Y-98411809D01*
X142718000Y-98323714D01*
X142798952Y-98147523D01*
X142798952Y-97618952D01*
X142718000Y-97442761D01*
X142637047Y-97354666D01*
X142475142Y-97266571D01*
X142151333Y-97266571D01*
X141989428Y-97354666D01*
X141260857Y-98499904D02*
X141260857Y-96649904D01*
X141098952Y-97795142D02*
X140613238Y-98499904D01*
X140613238Y-97266571D02*
X141260857Y-97971333D01*
X139237047Y-98411809D02*
X139398952Y-98499904D01*
X139722761Y-98499904D01*
X139884666Y-98411809D01*
X139965619Y-98235619D01*
X139965619Y-97530857D01*
X139884666Y-97354666D01*
X139722761Y-97266571D01*
X139398952Y-97266571D01*
X139237047Y-97354666D01*
X139156095Y-97530857D01*
X139156095Y-97707047D01*
X139965619Y-97883238D01*
X138184666Y-98499904D02*
X138346571Y-98411809D01*
X138427523Y-98235619D01*
X138427523Y-96649904D01*
X137294190Y-98499904D02*
X137456095Y-98411809D01*
X137537047Y-98235619D01*
X137537047Y-96649904D01*
D11*
X127579428Y-85192476D02*
X127579428Y-84859142D01*
X127055619Y-84716285D02*
X127055619Y-85192476D01*
X128055619Y-85192476D01*
X128055619Y-84716285D01*
X127103238Y-84335333D02*
X127055619Y-84192476D01*
X127055619Y-83954380D01*
X127103238Y-83859142D01*
X127150857Y-83811523D01*
X127246095Y-83763904D01*
X127341333Y-83763904D01*
X127436571Y-83811523D01*
X127484190Y-83859142D01*
X127531809Y-83954380D01*
X127579428Y-84144857D01*
X127627047Y-84240095D01*
X127674666Y-84287714D01*
X127769904Y-84335333D01*
X127865142Y-84335333D01*
X127960380Y-84287714D01*
X128008000Y-84240095D01*
X128055619Y-84144857D01*
X128055619Y-83906761D01*
X128008000Y-83763904D01*
X127055619Y-83335333D02*
X128055619Y-83335333D01*
X128055619Y-82954380D01*
X128008000Y-82859142D01*
X127960380Y-82811523D01*
X127865142Y-82763904D01*
X127722285Y-82763904D01*
X127627047Y-82811523D01*
X127579428Y-82859142D01*
X127531809Y-82954380D01*
X127531809Y-83335333D01*
X128055619Y-82430571D02*
X128055619Y-81811523D01*
X127674666Y-82144857D01*
X127674666Y-82002000D01*
X127627047Y-81906761D01*
X127579428Y-81859142D01*
X127484190Y-81811523D01*
X127246095Y-81811523D01*
X127150857Y-81859142D01*
X127103238Y-81906761D01*
X127055619Y-82002000D01*
X127055619Y-82287714D01*
X127103238Y-82382952D01*
X127150857Y-82430571D01*
X127960380Y-81430571D02*
X128008000Y-81382952D01*
X128055619Y-81287714D01*
X128055619Y-81049619D01*
X128008000Y-80954380D01*
X127960380Y-80906761D01*
X127865142Y-80859142D01*
X127769904Y-80859142D01*
X127627047Y-80906761D01*
X127055619Y-81478190D01*
X127055619Y-80859142D01*
X127055619Y-79525809D02*
X127103238Y-79621047D01*
X127198476Y-79668666D01*
X128055619Y-79668666D01*
X127103238Y-78763904D02*
X127055619Y-78859142D01*
X127055619Y-79049619D01*
X127103238Y-79144857D01*
X127198476Y-79192476D01*
X127579428Y-79192476D01*
X127674666Y-79144857D01*
X127722285Y-79049619D01*
X127722285Y-78859142D01*
X127674666Y-78763904D01*
X127579428Y-78716285D01*
X127484190Y-78716285D01*
X127388952Y-79192476D01*
X127722285Y-78430571D02*
X127722285Y-78049619D01*
X127055619Y-78287714D02*
X127912761Y-78287714D01*
X128008000Y-78240095D01*
X128055619Y-78144857D01*
X128055619Y-78049619D01*
X127722285Y-77859142D02*
X127722285Y-77478190D01*
X128055619Y-77716285D02*
X127198476Y-77716285D01*
X127103238Y-77668666D01*
X127055619Y-77573428D01*
X127055619Y-77478190D01*
X127103238Y-76430571D02*
X127055619Y-76335333D01*
X127055619Y-76144857D01*
X127103238Y-76049619D01*
X127198476Y-76002000D01*
X127246095Y-76002000D01*
X127341333Y-76049619D01*
X127388952Y-76144857D01*
X127388952Y-76287714D01*
X127436571Y-76382952D01*
X127531809Y-76430571D01*
X127579428Y-76430571D01*
X127674666Y-76382952D01*
X127722285Y-76287714D01*
X127722285Y-76144857D01*
X127674666Y-76049619D01*
X127055619Y-75573428D02*
X127722285Y-75573428D01*
X128055619Y-75573428D02*
X128008000Y-75621047D01*
X127960380Y-75573428D01*
X128008000Y-75525809D01*
X128055619Y-75573428D01*
X127960380Y-75573428D01*
X127055619Y-74668666D02*
X128055619Y-74668666D01*
X127103238Y-74668666D02*
X127055619Y-74763904D01*
X127055619Y-74954380D01*
X127103238Y-75049619D01*
X127150857Y-75097238D01*
X127246095Y-75144857D01*
X127531809Y-75144857D01*
X127627047Y-75097238D01*
X127674666Y-75049619D01*
X127722285Y-74954380D01*
X127722285Y-74763904D01*
X127674666Y-74668666D01*
X127103238Y-73811523D02*
X127055619Y-73906761D01*
X127055619Y-74097238D01*
X127103238Y-74192476D01*
X127198476Y-74240095D01*
X127579428Y-74240095D01*
X127674666Y-74192476D01*
X127722285Y-74097238D01*
X127722285Y-73906761D01*
X127674666Y-73811523D01*
X127579428Y-73763904D01*
X127484190Y-73763904D01*
X127388952Y-74240095D01*
X107005428Y-85668666D02*
X107005428Y-85335333D01*
X106481619Y-85192476D02*
X106481619Y-85668666D01*
X107481619Y-85668666D01*
X107481619Y-85192476D01*
X106529238Y-84811523D02*
X106481619Y-84668666D01*
X106481619Y-84430571D01*
X106529238Y-84335333D01*
X106576857Y-84287714D01*
X106672095Y-84240095D01*
X106767333Y-84240095D01*
X106862571Y-84287714D01*
X106910190Y-84335333D01*
X106957809Y-84430571D01*
X107005428Y-84621047D01*
X107053047Y-84716285D01*
X107100666Y-84763904D01*
X107195904Y-84811523D01*
X107291142Y-84811523D01*
X107386380Y-84763904D01*
X107434000Y-84716285D01*
X107481619Y-84621047D01*
X107481619Y-84382952D01*
X107434000Y-84240095D01*
X106481619Y-83811523D02*
X107481619Y-83811523D01*
X107481619Y-83430571D01*
X107434000Y-83335333D01*
X107386380Y-83287714D01*
X107291142Y-83240095D01*
X107148285Y-83240095D01*
X107053047Y-83287714D01*
X107005428Y-83335333D01*
X106957809Y-83430571D01*
X106957809Y-83811523D01*
X107481619Y-82906761D02*
X107481619Y-82287714D01*
X107100666Y-82621047D01*
X107100666Y-82478190D01*
X107053047Y-82382952D01*
X107005428Y-82335333D01*
X106910190Y-82287714D01*
X106672095Y-82287714D01*
X106576857Y-82335333D01*
X106529238Y-82382952D01*
X106481619Y-82478190D01*
X106481619Y-82763904D01*
X106529238Y-82859142D01*
X106576857Y-82906761D01*
X107386380Y-81906761D02*
X107434000Y-81859142D01*
X107481619Y-81763904D01*
X107481619Y-81525809D01*
X107434000Y-81430571D01*
X107386380Y-81382952D01*
X107291142Y-81335333D01*
X107195904Y-81335333D01*
X107053047Y-81382952D01*
X106481619Y-81954380D01*
X106481619Y-81335333D01*
X106481619Y-80144857D02*
X107148285Y-80144857D01*
X106957809Y-80144857D02*
X107053047Y-80097238D01*
X107100666Y-80049619D01*
X107148285Y-79954380D01*
X107148285Y-79859142D01*
X106481619Y-79525809D02*
X107148285Y-79525809D01*
X107481619Y-79525809D02*
X107434000Y-79573428D01*
X107386380Y-79525809D01*
X107434000Y-79478190D01*
X107481619Y-79525809D01*
X107386380Y-79525809D01*
X107148285Y-78621047D02*
X106338761Y-78621047D01*
X106243523Y-78668666D01*
X106195904Y-78716285D01*
X106148285Y-78811523D01*
X106148285Y-78954380D01*
X106195904Y-79049619D01*
X106529238Y-78621047D02*
X106481619Y-78716285D01*
X106481619Y-78906761D01*
X106529238Y-79002000D01*
X106576857Y-79049619D01*
X106672095Y-79097238D01*
X106957809Y-79097238D01*
X107053047Y-79049619D01*
X107100666Y-79002000D01*
X107148285Y-78906761D01*
X107148285Y-78716285D01*
X107100666Y-78621047D01*
X106481619Y-78144857D02*
X107481619Y-78144857D01*
X106481619Y-77716285D02*
X107005428Y-77716285D01*
X107100666Y-77763904D01*
X107148285Y-77859142D01*
X107148285Y-78002000D01*
X107100666Y-78097238D01*
X107053047Y-78144857D01*
X107148285Y-77382952D02*
X107148285Y-77002000D01*
X107481619Y-77240095D02*
X106624476Y-77240095D01*
X106529238Y-77192476D01*
X106481619Y-77097238D01*
X106481619Y-77002000D01*
X106529238Y-75954380D02*
X106481619Y-75859142D01*
X106481619Y-75668666D01*
X106529238Y-75573428D01*
X106624476Y-75525809D01*
X106672095Y-75525809D01*
X106767333Y-75573428D01*
X106814952Y-75668666D01*
X106814952Y-75811523D01*
X106862571Y-75906761D01*
X106957809Y-75954380D01*
X107005428Y-75954380D01*
X107100666Y-75906761D01*
X107148285Y-75811523D01*
X107148285Y-75668666D01*
X107100666Y-75573428D01*
X106481619Y-75097238D02*
X107148285Y-75097238D01*
X107481619Y-75097238D02*
X107434000Y-75144857D01*
X107386380Y-75097238D01*
X107434000Y-75049619D01*
X107481619Y-75097238D01*
X107386380Y-75097238D01*
X106481619Y-74192476D02*
X107481619Y-74192476D01*
X106529238Y-74192476D02*
X106481619Y-74287714D01*
X106481619Y-74478190D01*
X106529238Y-74573428D01*
X106576857Y-74621047D01*
X106672095Y-74668666D01*
X106957809Y-74668666D01*
X107053047Y-74621047D01*
X107100666Y-74573428D01*
X107148285Y-74478190D01*
X107148285Y-74287714D01*
X107100666Y-74192476D01*
X106529238Y-73335333D02*
X106481619Y-73430571D01*
X106481619Y-73621047D01*
X106529238Y-73716285D01*
X106624476Y-73763904D01*
X107005428Y-73763904D01*
X107100666Y-73716285D01*
X107148285Y-73621047D01*
X107148285Y-73430571D01*
X107100666Y-73335333D01*
X107005428Y-73287714D01*
X106910190Y-73287714D01*
X106814952Y-73763904D01*
%LPC*%
D12*
X129648000Y-116840000D03*
X129648000Y-114300000D03*
X129648000Y-111760000D03*
X129648000Y-109220000D03*
X129648000Y-106680000D03*
X129648000Y-104140000D03*
X129648000Y-101600000D03*
X129648000Y-99060000D03*
X129648000Y-96520000D03*
X129648000Y-93980000D03*
X129648000Y-91440000D03*
X129648000Y-88900000D03*
X129648000Y-86360000D03*
X129648000Y-83820000D03*
X129648000Y-81280000D03*
X129648000Y-78740000D03*
X129648000Y-76200000D03*
X129648000Y-73660000D03*
D13*
X129648000Y-71120000D03*
X104648000Y-71120000D03*
D12*
X104648000Y-73660000D03*
X104648000Y-76200000D03*
X104648000Y-78740000D03*
X104648000Y-81280000D03*
X104648000Y-83820000D03*
X104648000Y-86360000D03*
X104648000Y-88900000D03*
X104648000Y-91440000D03*
X104648000Y-93980000D03*
X104648000Y-96520000D03*
X104648000Y-99060000D03*
X104648000Y-101600000D03*
X104648000Y-104140000D03*
X104648000Y-106680000D03*
X104648000Y-109220000D03*
X104648000Y-111760000D03*
X104648000Y-114300000D03*
X104648000Y-116840000D03*
D14*
X125984000Y-111760000D03*
D15*
X115824000Y-111760000D03*
D16*
X124714000Y-107208000D03*
D11*
G36*
X125223849Y-103898287D02*
G01*
X125249803Y-103902137D01*
X125275253Y-103908512D01*
X125299957Y-103917351D01*
X125323675Y-103928569D01*
X125346179Y-103942058D01*
X125367253Y-103957687D01*
X125386693Y-103975307D01*
X125404313Y-103994747D01*
X125419942Y-104015821D01*
X125433431Y-104038325D01*
X125444649Y-104062043D01*
X125453488Y-104086747D01*
X125459863Y-104112197D01*
X125463713Y-104138151D01*
X125465000Y-104164356D01*
X125465000Y-105131644D01*
X125463713Y-105157849D01*
X125459863Y-105183803D01*
X125453488Y-105209253D01*
X125444649Y-105233957D01*
X125433431Y-105257675D01*
X125419942Y-105280179D01*
X125404313Y-105301253D01*
X125386693Y-105320693D01*
X125367253Y-105338313D01*
X125346179Y-105353942D01*
X125323675Y-105367431D01*
X125299957Y-105378649D01*
X125275253Y-105387488D01*
X125249803Y-105393863D01*
X125223849Y-105397713D01*
X125197644Y-105399000D01*
X124230356Y-105399000D01*
X124204151Y-105397713D01*
X124178197Y-105393863D01*
X124152747Y-105387488D01*
X124128043Y-105378649D01*
X124104325Y-105367431D01*
X124081821Y-105353942D01*
X124060747Y-105338313D01*
X124041307Y-105320693D01*
X124023687Y-105301253D01*
X124008058Y-105280179D01*
X123994569Y-105257675D01*
X123983351Y-105233957D01*
X123974512Y-105209253D01*
X123968137Y-105183803D01*
X123964287Y-105157849D01*
X123963000Y-105131644D01*
X123963000Y-104164356D01*
X123964287Y-104138151D01*
X123968137Y-104112197D01*
X123974512Y-104086747D01*
X123983351Y-104062043D01*
X123994569Y-104038325D01*
X124008058Y-104015821D01*
X124023687Y-103994747D01*
X124041307Y-103975307D01*
X124060747Y-103957687D01*
X124081821Y-103942058D01*
X124104325Y-103928569D01*
X124128043Y-103917351D01*
X124152747Y-103908512D01*
X124178197Y-103902137D01*
X124204151Y-103898287D01*
X124230356Y-103897000D01*
X125197644Y-103897000D01*
X125223849Y-103898287D01*
X125223849Y-103898287D01*
G37*
D16*
X124714000Y-104648000D03*
X109982000Y-111760000D03*
D17*
X109982000Y-116840000D03*
D18*
X124460000Y-93091000D03*
D19*
X124460000Y-95631000D03*
X124460000Y-98171000D03*
X124460000Y-100711000D03*
D20*
X135128000Y-95250000D03*
D14*
X141628000Y-95250000D03*
X121158000Y-103458000D03*
X121158000Y-108458000D03*
X113030000Y-117856000D03*
X113030000Y-112856000D03*
D21*
X154686000Y-113538000D03*
D22*
X157226000Y-113538000D03*
D12*
X125476000Y-76200000D03*
X122936000Y-76200000D03*
X120396000Y-76200000D03*
X117856000Y-76200000D03*
D13*
X115316000Y-76200000D03*
X115316000Y-73660000D03*
D12*
X117856000Y-73660000D03*
X120396000Y-73660000D03*
X122936000Y-73660000D03*
X125476000Y-73660000D03*
X125476000Y-78740000D03*
X122936000Y-78740000D03*
X120396000Y-78740000D03*
X117856000Y-78740000D03*
D13*
X115316000Y-78740000D03*
X140462000Y-72136000D03*
D12*
X137922000Y-72136000D03*
X135382000Y-72136000D03*
X135382000Y-69596000D03*
X137922000Y-69596000D03*
D13*
X140462000Y-69596000D03*
X125476000Y-69596000D03*
D12*
X122936000Y-69596000D03*
X120396000Y-69596000D03*
X117856000Y-69596000D03*
X115316000Y-69596000D03*
X112776000Y-69596000D03*
D13*
X151384000Y-69596000D03*
D12*
X148844000Y-69596000D03*
X146304000Y-69596000D03*
X135636000Y-84328000D03*
X138176000Y-84328000D03*
D13*
X140716000Y-84328000D03*
X140716000Y-86868000D03*
D12*
X138176000Y-86868000D03*
X135636000Y-86868000D03*
D23*
X162306000Y-86908000D03*
D11*
G36*
X163117975Y-88508276D02*
G01*
X163143699Y-88512092D01*
X163168925Y-88518411D01*
X163193411Y-88527172D01*
X163216920Y-88538291D01*
X163239226Y-88551661D01*
X163260114Y-88567152D01*
X163279383Y-88584617D01*
X163296848Y-88603886D01*
X163312339Y-88624774D01*
X163325709Y-88647080D01*
X163336828Y-88670589D01*
X163345589Y-88695075D01*
X163351908Y-88720301D01*
X163355724Y-88746025D01*
X163357000Y-88772000D01*
X163357000Y-90044000D01*
X163355724Y-90069975D01*
X163351908Y-90095699D01*
X163345589Y-90120925D01*
X163336828Y-90145411D01*
X163325709Y-90168920D01*
X163312339Y-90191226D01*
X163296848Y-90212114D01*
X163279383Y-90231383D01*
X163260114Y-90248848D01*
X163239226Y-90264339D01*
X163216920Y-90277709D01*
X163193411Y-90288828D01*
X163168925Y-90297589D01*
X163143699Y-90303908D01*
X163117975Y-90307724D01*
X163092000Y-90309000D01*
X161520000Y-90309000D01*
X161494025Y-90307724D01*
X161468301Y-90303908D01*
X161443075Y-90297589D01*
X161418589Y-90288828D01*
X161395080Y-90277709D01*
X161372774Y-90264339D01*
X161351886Y-90248848D01*
X161332617Y-90231383D01*
X161315152Y-90212114D01*
X161299661Y-90191226D01*
X161286291Y-90168920D01*
X161275172Y-90145411D01*
X161266411Y-90120925D01*
X161260092Y-90095699D01*
X161256276Y-90069975D01*
X161255000Y-90044000D01*
X161255000Y-88772000D01*
X161256276Y-88746025D01*
X161260092Y-88720301D01*
X161266411Y-88695075D01*
X161275172Y-88670589D01*
X161286291Y-88647080D01*
X161299661Y-88624774D01*
X161315152Y-88603886D01*
X161332617Y-88584617D01*
X161351886Y-88567152D01*
X161372774Y-88551661D01*
X161395080Y-88538291D01*
X161418589Y-88527172D01*
X161443075Y-88518411D01*
X161468301Y-88512092D01*
X161494025Y-88508276D01*
X161520000Y-88507000D01*
X163092000Y-88507000D01*
X163117975Y-88508276D01*
X163117975Y-88508276D01*
G37*
D24*
X162306000Y-89408000D03*
D11*
G36*
X163117975Y-97144276D02*
G01*
X163143699Y-97148092D01*
X163168925Y-97154411D01*
X163193411Y-97163172D01*
X163216920Y-97174291D01*
X163239226Y-97187661D01*
X163260114Y-97203152D01*
X163279383Y-97220617D01*
X163296848Y-97239886D01*
X163312339Y-97260774D01*
X163325709Y-97283080D01*
X163336828Y-97306589D01*
X163345589Y-97331075D01*
X163351908Y-97356301D01*
X163355724Y-97382025D01*
X163357000Y-97408000D01*
X163357000Y-98680000D01*
X163355724Y-98705975D01*
X163351908Y-98731699D01*
X163345589Y-98756925D01*
X163336828Y-98781411D01*
X163325709Y-98804920D01*
X163312339Y-98827226D01*
X163296848Y-98848114D01*
X163279383Y-98867383D01*
X163260114Y-98884848D01*
X163239226Y-98900339D01*
X163216920Y-98913709D01*
X163193411Y-98924828D01*
X163168925Y-98933589D01*
X163143699Y-98939908D01*
X163117975Y-98943724D01*
X163092000Y-98945000D01*
X161520000Y-98945000D01*
X161494025Y-98943724D01*
X161468301Y-98939908D01*
X161443075Y-98933589D01*
X161418589Y-98924828D01*
X161395080Y-98913709D01*
X161372774Y-98900339D01*
X161351886Y-98884848D01*
X161332617Y-98867383D01*
X161315152Y-98848114D01*
X161299661Y-98827226D01*
X161286291Y-98804920D01*
X161275172Y-98781411D01*
X161266411Y-98756925D01*
X161260092Y-98731699D01*
X161256276Y-98705975D01*
X161255000Y-98680000D01*
X161255000Y-97408000D01*
X161256276Y-97382025D01*
X161260092Y-97356301D01*
X161266411Y-97331075D01*
X161275172Y-97306589D01*
X161286291Y-97283080D01*
X161299661Y-97260774D01*
X161315152Y-97239886D01*
X161332617Y-97220617D01*
X161351886Y-97203152D01*
X161372774Y-97187661D01*
X161395080Y-97174291D01*
X161418589Y-97163172D01*
X161443075Y-97154411D01*
X161468301Y-97148092D01*
X161494025Y-97144276D01*
X161520000Y-97143000D01*
X163092000Y-97143000D01*
X163117975Y-97144276D01*
X163117975Y-97144276D01*
G37*
D24*
X162306000Y-98044000D03*
D23*
X162306000Y-95544000D03*
X162306000Y-104180000D03*
D11*
G36*
X163117975Y-105780276D02*
G01*
X163143699Y-105784092D01*
X163168925Y-105790411D01*
X163193411Y-105799172D01*
X163216920Y-105810291D01*
X163239226Y-105823661D01*
X163260114Y-105839152D01*
X163279383Y-105856617D01*
X163296848Y-105875886D01*
X163312339Y-105896774D01*
X163325709Y-105919080D01*
X163336828Y-105942589D01*
X163345589Y-105967075D01*
X163351908Y-105992301D01*
X163355724Y-106018025D01*
X163357000Y-106044000D01*
X163357000Y-107316000D01*
X163355724Y-107341975D01*
X163351908Y-107367699D01*
X163345589Y-107392925D01*
X163336828Y-107417411D01*
X163325709Y-107440920D01*
X163312339Y-107463226D01*
X163296848Y-107484114D01*
X163279383Y-107503383D01*
X163260114Y-107520848D01*
X163239226Y-107536339D01*
X163216920Y-107549709D01*
X163193411Y-107560828D01*
X163168925Y-107569589D01*
X163143699Y-107575908D01*
X163117975Y-107579724D01*
X163092000Y-107581000D01*
X161520000Y-107581000D01*
X161494025Y-107579724D01*
X161468301Y-107575908D01*
X161443075Y-107569589D01*
X161418589Y-107560828D01*
X161395080Y-107549709D01*
X161372774Y-107536339D01*
X161351886Y-107520848D01*
X161332617Y-107503383D01*
X161315152Y-107484114D01*
X161299661Y-107463226D01*
X161286291Y-107440920D01*
X161275172Y-107417411D01*
X161266411Y-107392925D01*
X161260092Y-107367699D01*
X161256276Y-107341975D01*
X161255000Y-107316000D01*
X161255000Y-106044000D01*
X161256276Y-106018025D01*
X161260092Y-105992301D01*
X161266411Y-105967075D01*
X161275172Y-105942589D01*
X161286291Y-105919080D01*
X161299661Y-105896774D01*
X161315152Y-105875886D01*
X161332617Y-105856617D01*
X161351886Y-105839152D01*
X161372774Y-105823661D01*
X161395080Y-105810291D01*
X161418589Y-105799172D01*
X161443075Y-105790411D01*
X161468301Y-105784092D01*
X161494025Y-105780276D01*
X161520000Y-105779000D01*
X163092000Y-105779000D01*
X163117975Y-105780276D01*
X163117975Y-105780276D01*
G37*
D24*
X162306000Y-106680000D03*
D14*
X108204000Y-100076000D03*
D15*
X118364000Y-100076000D03*
X118364000Y-97028000D03*
D14*
X108204000Y-97028000D03*
D15*
X143764000Y-109982000D03*
D14*
X133604000Y-109982000D03*
X133604000Y-106680000D03*
D15*
X143764000Y-106680000D03*
D14*
X108204000Y-103632000D03*
D15*
X118364000Y-103632000D03*
D14*
X108204000Y-108458000D03*
D15*
X118364000Y-108458000D03*
X115824000Y-117348000D03*
D14*
X125984000Y-117348000D03*
D22*
X150368000Y-113538000D03*
D21*
X147828000Y-113538000D03*
D25*
X149178000Y-75438000D03*
X154178000Y-75438000D03*
X149178000Y-87938000D03*
X154178000Y-87938000D03*
X154178000Y-104194000D03*
X149178000Y-104194000D03*
X154178000Y-91694000D03*
X149178000Y-91694000D03*
D14*
X108204000Y-93980000D03*
D15*
X118364000Y-93980000D03*
X143764000Y-103378000D03*
D14*
X133604000Y-103378000D03*
D22*
X164084000Y-113538000D03*
D21*
X161544000Y-113538000D03*
D26*
X162306000Y-80010000D03*
D27*
X163306000Y-79360000D03*
X162306000Y-78710000D03*
X163306000Y-78060000D03*
X162306000Y-77410000D03*
D28*
X162526000Y-82285000D03*
X162526000Y-75135000D03*
D13*
X110236000Y-89154000D03*
D12*
X112776000Y-89154000D03*
X115316000Y-89154000D03*
X117856000Y-89154000D03*
X120396000Y-89154000D03*
X122936000Y-89154000D03*
X125476000Y-89154000D03*
D29*
X161544000Y-70358000D03*
X138938000Y-114808000D03*
D13*
X155956000Y-69596000D03*
D12*
X155956000Y-72136000D03*
D14*
X132842000Y-75946000D03*
D15*
X143002000Y-75946000D03*
X143002000Y-79756000D03*
D14*
X132842000Y-79756000D03*
D13*
X109474000Y-83566000D03*
D12*
X109474000Y-81026000D03*
X109474000Y-78486000D03*
X109474000Y-75946000D03*
X109474000Y-73406000D03*
M02*
