G04 #@! TF.GenerationSoftware,KiCad,Pcbnew,(5.1.2)-1*
G04 #@! TF.CreationDate,2024-09-19T10:13:49+01:00*
G04 #@! TF.ProjectId,ESP32_PCB03,45535033-325f-4504-9342-30332e6b6963,rev?*
G04 #@! TF.SameCoordinates,Original*
G04 #@! TF.FileFunction,Copper,L2,Bot*
G04 #@! TF.FilePolarity,Positive*
%FSLAX46Y46*%
G04 Gerber Fmt 4.6, Leading zero omitted, Abs format (unit mm)*
G04 Created by KiCad (PCBNEW (5.1.2)-1) date 2024-09-19 10:13:49*
%MOMM*%
%LPD*%
G04 APERTURE LIST*
%ADD10O,1.700000X1.700000*%
%ADD11R,1.700000X1.700000*%
%ADD12C,1.600000*%
%ADD13O,1.600000X1.600000*%
%ADD14C,1.400000*%
%ADD15C,0.150000*%
%ADD16O,1.400000X1.400000*%
%ADD17R,1.800000X1.070000*%
%ADD18O,1.800000X1.070000*%
%ADD19R,1.600000X1.600000*%
%ADD20C,1.800000*%
%ADD21R,1.800000X1.800000*%
%ADD22O,2.000000X1.700000*%
%ADD23C,1.700000*%
%ADD24O,1.727200X3.048000*%
%ADD25R,0.840000X0.840000*%
%ADD26C,0.840000*%
%ADD27O,1.850000X0.850000*%
%ADD28C,0.800000*%
%ADD29C,0.500000*%
%ADD30C,0.250000*%
%ADD31C,0.750000*%
%ADD32C,0.508000*%
G04 APERTURE END LIST*
D10*
X129648000Y-116840000D03*
X129648000Y-114300000D03*
X129648000Y-111760000D03*
X129648000Y-109220000D03*
X129648000Y-106680000D03*
X129648000Y-104140000D03*
X129648000Y-101600000D03*
X129648000Y-99060000D03*
X129648000Y-96520000D03*
X129648000Y-93980000D03*
X129648000Y-91440000D03*
X129648000Y-88900000D03*
X129648000Y-86360000D03*
X129648000Y-83820000D03*
X129648000Y-81280000D03*
X129648000Y-78740000D03*
X129648000Y-76200000D03*
X129648000Y-73660000D03*
D11*
X129648000Y-71120000D03*
X104648000Y-71120000D03*
D10*
X104648000Y-73660000D03*
X104648000Y-76200000D03*
X104648000Y-78740000D03*
X104648000Y-81280000D03*
X104648000Y-83820000D03*
X104648000Y-86360000D03*
X104648000Y-88900000D03*
X104648000Y-91440000D03*
X104648000Y-93980000D03*
X104648000Y-96520000D03*
X104648000Y-99060000D03*
X104648000Y-101600000D03*
X104648000Y-104140000D03*
X104648000Y-106680000D03*
X104648000Y-109220000D03*
X104648000Y-111760000D03*
X104648000Y-114300000D03*
X104648000Y-116840000D03*
D12*
X125984000Y-111760000D03*
D13*
X115824000Y-111760000D03*
D14*
X124714000Y-107208000D03*
D15*
G36*
X125189226Y-103949200D02*
G01*
X125213417Y-103952788D01*
X125237139Y-103958730D01*
X125260165Y-103966969D01*
X125282272Y-103977425D01*
X125303248Y-103989998D01*
X125322891Y-104004566D01*
X125341011Y-104020989D01*
X125357434Y-104039109D01*
X125372002Y-104058752D01*
X125384575Y-104079728D01*
X125395031Y-104101835D01*
X125403270Y-104124861D01*
X125409212Y-104148583D01*
X125412800Y-104172774D01*
X125414000Y-104197200D01*
X125414000Y-105098800D01*
X125412800Y-105123226D01*
X125409212Y-105147417D01*
X125403270Y-105171139D01*
X125395031Y-105194165D01*
X125384575Y-105216272D01*
X125372002Y-105237248D01*
X125357434Y-105256891D01*
X125341011Y-105275011D01*
X125322891Y-105291434D01*
X125303248Y-105306002D01*
X125282272Y-105318575D01*
X125260165Y-105329031D01*
X125237139Y-105337270D01*
X125213417Y-105343212D01*
X125189226Y-105346800D01*
X125164800Y-105348000D01*
X124263200Y-105348000D01*
X124238774Y-105346800D01*
X124214583Y-105343212D01*
X124190861Y-105337270D01*
X124167835Y-105329031D01*
X124145728Y-105318575D01*
X124124752Y-105306002D01*
X124105109Y-105291434D01*
X124086989Y-105275011D01*
X124070566Y-105256891D01*
X124055998Y-105237248D01*
X124043425Y-105216272D01*
X124032969Y-105194165D01*
X124024730Y-105171139D01*
X124018788Y-105147417D01*
X124015200Y-105123226D01*
X124014000Y-105098800D01*
X124014000Y-104197200D01*
X124015200Y-104172774D01*
X124018788Y-104148583D01*
X124024730Y-104124861D01*
X124032969Y-104101835D01*
X124043425Y-104079728D01*
X124055998Y-104058752D01*
X124070566Y-104039109D01*
X124086989Y-104020989D01*
X124105109Y-104004566D01*
X124124752Y-103989998D01*
X124145728Y-103977425D01*
X124167835Y-103966969D01*
X124190861Y-103958730D01*
X124214583Y-103952788D01*
X124238774Y-103949200D01*
X124263200Y-103948000D01*
X125164800Y-103948000D01*
X125189226Y-103949200D01*
X125189226Y-103949200D01*
G37*
D14*
X124714000Y-104648000D03*
X109982000Y-111760000D03*
D16*
X109982000Y-116840000D03*
D17*
X124460000Y-93091000D03*
D18*
X124460000Y-95631000D03*
X124460000Y-98171000D03*
X124460000Y-100711000D03*
D19*
X135128000Y-95250000D03*
D12*
X141628000Y-95250000D03*
X121158000Y-103458000D03*
X121158000Y-108458000D03*
X113030000Y-117856000D03*
X113030000Y-112856000D03*
D20*
X154686000Y-113538000D03*
D21*
X157226000Y-113538000D03*
D10*
X125476000Y-76200000D03*
X122936000Y-76200000D03*
X120396000Y-76200000D03*
X117856000Y-76200000D03*
D11*
X115316000Y-76200000D03*
X115316000Y-73660000D03*
D10*
X117856000Y-73660000D03*
X120396000Y-73660000D03*
X122936000Y-73660000D03*
X125476000Y-73660000D03*
X125476000Y-78740000D03*
X122936000Y-78740000D03*
X120396000Y-78740000D03*
X117856000Y-78740000D03*
D11*
X115316000Y-78740000D03*
X140462000Y-72136000D03*
D10*
X137922000Y-72136000D03*
X135382000Y-72136000D03*
X135382000Y-69596000D03*
X137922000Y-69596000D03*
D11*
X140462000Y-69596000D03*
X125476000Y-69596000D03*
D10*
X122936000Y-69596000D03*
X120396000Y-69596000D03*
X117856000Y-69596000D03*
X115316000Y-69596000D03*
X112776000Y-69596000D03*
D11*
X151384000Y-69596000D03*
D10*
X148844000Y-69596000D03*
X146304000Y-69596000D03*
X135636000Y-84328000D03*
X138176000Y-84328000D03*
D11*
X140716000Y-84328000D03*
X140716000Y-86868000D03*
D10*
X138176000Y-86868000D03*
X135636000Y-86868000D03*
D22*
X162306000Y-86908000D03*
D15*
G36*
X163080504Y-88559204D02*
G01*
X163104773Y-88562804D01*
X163128571Y-88568765D01*
X163151671Y-88577030D01*
X163173849Y-88587520D01*
X163194893Y-88600133D01*
X163214598Y-88614747D01*
X163232777Y-88631223D01*
X163249253Y-88649402D01*
X163263867Y-88669107D01*
X163276480Y-88690151D01*
X163286970Y-88712329D01*
X163295235Y-88735429D01*
X163301196Y-88759227D01*
X163304796Y-88783496D01*
X163306000Y-88808000D01*
X163306000Y-90008000D01*
X163304796Y-90032504D01*
X163301196Y-90056773D01*
X163295235Y-90080571D01*
X163286970Y-90103671D01*
X163276480Y-90125849D01*
X163263867Y-90146893D01*
X163249253Y-90166598D01*
X163232777Y-90184777D01*
X163214598Y-90201253D01*
X163194893Y-90215867D01*
X163173849Y-90228480D01*
X163151671Y-90238970D01*
X163128571Y-90247235D01*
X163104773Y-90253196D01*
X163080504Y-90256796D01*
X163056000Y-90258000D01*
X161556000Y-90258000D01*
X161531496Y-90256796D01*
X161507227Y-90253196D01*
X161483429Y-90247235D01*
X161460329Y-90238970D01*
X161438151Y-90228480D01*
X161417107Y-90215867D01*
X161397402Y-90201253D01*
X161379223Y-90184777D01*
X161362747Y-90166598D01*
X161348133Y-90146893D01*
X161335520Y-90125849D01*
X161325030Y-90103671D01*
X161316765Y-90080571D01*
X161310804Y-90056773D01*
X161307204Y-90032504D01*
X161306000Y-90008000D01*
X161306000Y-88808000D01*
X161307204Y-88783496D01*
X161310804Y-88759227D01*
X161316765Y-88735429D01*
X161325030Y-88712329D01*
X161335520Y-88690151D01*
X161348133Y-88669107D01*
X161362747Y-88649402D01*
X161379223Y-88631223D01*
X161397402Y-88614747D01*
X161417107Y-88600133D01*
X161438151Y-88587520D01*
X161460329Y-88577030D01*
X161483429Y-88568765D01*
X161507227Y-88562804D01*
X161531496Y-88559204D01*
X161556000Y-88558000D01*
X163056000Y-88558000D01*
X163080504Y-88559204D01*
X163080504Y-88559204D01*
G37*
D23*
X162306000Y-89408000D03*
D15*
G36*
X163080504Y-97195204D02*
G01*
X163104773Y-97198804D01*
X163128571Y-97204765D01*
X163151671Y-97213030D01*
X163173849Y-97223520D01*
X163194893Y-97236133D01*
X163214598Y-97250747D01*
X163232777Y-97267223D01*
X163249253Y-97285402D01*
X163263867Y-97305107D01*
X163276480Y-97326151D01*
X163286970Y-97348329D01*
X163295235Y-97371429D01*
X163301196Y-97395227D01*
X163304796Y-97419496D01*
X163306000Y-97444000D01*
X163306000Y-98644000D01*
X163304796Y-98668504D01*
X163301196Y-98692773D01*
X163295235Y-98716571D01*
X163286970Y-98739671D01*
X163276480Y-98761849D01*
X163263867Y-98782893D01*
X163249253Y-98802598D01*
X163232777Y-98820777D01*
X163214598Y-98837253D01*
X163194893Y-98851867D01*
X163173849Y-98864480D01*
X163151671Y-98874970D01*
X163128571Y-98883235D01*
X163104773Y-98889196D01*
X163080504Y-98892796D01*
X163056000Y-98894000D01*
X161556000Y-98894000D01*
X161531496Y-98892796D01*
X161507227Y-98889196D01*
X161483429Y-98883235D01*
X161460329Y-98874970D01*
X161438151Y-98864480D01*
X161417107Y-98851867D01*
X161397402Y-98837253D01*
X161379223Y-98820777D01*
X161362747Y-98802598D01*
X161348133Y-98782893D01*
X161335520Y-98761849D01*
X161325030Y-98739671D01*
X161316765Y-98716571D01*
X161310804Y-98692773D01*
X161307204Y-98668504D01*
X161306000Y-98644000D01*
X161306000Y-97444000D01*
X161307204Y-97419496D01*
X161310804Y-97395227D01*
X161316765Y-97371429D01*
X161325030Y-97348329D01*
X161335520Y-97326151D01*
X161348133Y-97305107D01*
X161362747Y-97285402D01*
X161379223Y-97267223D01*
X161397402Y-97250747D01*
X161417107Y-97236133D01*
X161438151Y-97223520D01*
X161460329Y-97213030D01*
X161483429Y-97204765D01*
X161507227Y-97198804D01*
X161531496Y-97195204D01*
X161556000Y-97194000D01*
X163056000Y-97194000D01*
X163080504Y-97195204D01*
X163080504Y-97195204D01*
G37*
D23*
X162306000Y-98044000D03*
D22*
X162306000Y-95544000D03*
X162306000Y-104180000D03*
D15*
G36*
X163080504Y-105831204D02*
G01*
X163104773Y-105834804D01*
X163128571Y-105840765D01*
X163151671Y-105849030D01*
X163173849Y-105859520D01*
X163194893Y-105872133D01*
X163214598Y-105886747D01*
X163232777Y-105903223D01*
X163249253Y-105921402D01*
X163263867Y-105941107D01*
X163276480Y-105962151D01*
X163286970Y-105984329D01*
X163295235Y-106007429D01*
X163301196Y-106031227D01*
X163304796Y-106055496D01*
X163306000Y-106080000D01*
X163306000Y-107280000D01*
X163304796Y-107304504D01*
X163301196Y-107328773D01*
X163295235Y-107352571D01*
X163286970Y-107375671D01*
X163276480Y-107397849D01*
X163263867Y-107418893D01*
X163249253Y-107438598D01*
X163232777Y-107456777D01*
X163214598Y-107473253D01*
X163194893Y-107487867D01*
X163173849Y-107500480D01*
X163151671Y-107510970D01*
X163128571Y-107519235D01*
X163104773Y-107525196D01*
X163080504Y-107528796D01*
X163056000Y-107530000D01*
X161556000Y-107530000D01*
X161531496Y-107528796D01*
X161507227Y-107525196D01*
X161483429Y-107519235D01*
X161460329Y-107510970D01*
X161438151Y-107500480D01*
X161417107Y-107487867D01*
X161397402Y-107473253D01*
X161379223Y-107456777D01*
X161362747Y-107438598D01*
X161348133Y-107418893D01*
X161335520Y-107397849D01*
X161325030Y-107375671D01*
X161316765Y-107352571D01*
X161310804Y-107328773D01*
X161307204Y-107304504D01*
X161306000Y-107280000D01*
X161306000Y-106080000D01*
X161307204Y-106055496D01*
X161310804Y-106031227D01*
X161316765Y-106007429D01*
X161325030Y-105984329D01*
X161335520Y-105962151D01*
X161348133Y-105941107D01*
X161362747Y-105921402D01*
X161379223Y-105903223D01*
X161397402Y-105886747D01*
X161417107Y-105872133D01*
X161438151Y-105859520D01*
X161460329Y-105849030D01*
X161483429Y-105840765D01*
X161507227Y-105834804D01*
X161531496Y-105831204D01*
X161556000Y-105830000D01*
X163056000Y-105830000D01*
X163080504Y-105831204D01*
X163080504Y-105831204D01*
G37*
D23*
X162306000Y-106680000D03*
D12*
X108204000Y-100076000D03*
D13*
X118364000Y-100076000D03*
X118364000Y-97028000D03*
D12*
X108204000Y-97028000D03*
D13*
X143764000Y-109982000D03*
D12*
X133604000Y-109982000D03*
X133604000Y-106680000D03*
D13*
X143764000Y-106680000D03*
D12*
X108204000Y-103632000D03*
D13*
X118364000Y-103632000D03*
D12*
X108204000Y-108458000D03*
D13*
X118364000Y-108458000D03*
X115824000Y-117348000D03*
D12*
X125984000Y-117348000D03*
D21*
X150368000Y-113538000D03*
D20*
X147828000Y-113538000D03*
D24*
X149178000Y-75438000D03*
X154178000Y-75438000D03*
X149178000Y-87938000D03*
X154178000Y-87938000D03*
X154178000Y-104194000D03*
X149178000Y-104194000D03*
X154178000Y-91694000D03*
X149178000Y-91694000D03*
D12*
X108204000Y-93980000D03*
D13*
X118364000Y-93980000D03*
X143764000Y-103378000D03*
D12*
X133604000Y-103378000D03*
D21*
X164084000Y-113538000D03*
D20*
X161544000Y-113538000D03*
D25*
X162306000Y-80010000D03*
D26*
X163306000Y-79360000D03*
X162306000Y-78710000D03*
X163306000Y-78060000D03*
X162306000Y-77410000D03*
D27*
X162526000Y-82285000D03*
X162526000Y-75135000D03*
D11*
X110236000Y-89154000D03*
D10*
X112776000Y-89154000D03*
X115316000Y-89154000D03*
X117856000Y-89154000D03*
X120396000Y-89154000D03*
X122936000Y-89154000D03*
X125476000Y-89154000D03*
D11*
X155956000Y-69596000D03*
D10*
X155956000Y-72136000D03*
D12*
X132842000Y-75946000D03*
D13*
X143002000Y-75946000D03*
X143002000Y-79756000D03*
D12*
X132842000Y-79756000D03*
D11*
X109474000Y-83566000D03*
D10*
X109474000Y-81026000D03*
X109474000Y-78486000D03*
X109474000Y-75946000D03*
X109474000Y-73406000D03*
D28*
X131318000Y-67310000D03*
X113538000Y-67310000D03*
X117348000Y-85598000D03*
X122936000Y-83566000D03*
X143256000Y-71882000D03*
X124714000Y-81026000D03*
X106426000Y-85344000D03*
X106421347Y-77465347D03*
X114046000Y-83820000D03*
D29*
X127508000Y-89408000D02*
X127508000Y-88646000D01*
X162306000Y-77410000D02*
X161350000Y-76454000D01*
X161350000Y-76454000D02*
X160782000Y-76454000D01*
X118364909Y-71949010D02*
X124646990Y-71949010D01*
X117856000Y-73660000D02*
X117856000Y-72457919D01*
X117856000Y-72457919D02*
X118364909Y-71949010D01*
X125476000Y-71120000D02*
X125476000Y-69596000D01*
X124646990Y-71949010D02*
X125476000Y-71120000D01*
D30*
X103378000Y-86360000D02*
X104648000Y-86360000D01*
X102870000Y-85852000D02*
X103378000Y-86360000D01*
X102870000Y-71628000D02*
X102870000Y-85852000D01*
X103124000Y-71374000D02*
X102870000Y-71628000D01*
X104648000Y-71120000D02*
X103124000Y-71120000D01*
X103124000Y-71120000D02*
X103124000Y-71374000D01*
X162306000Y-77410000D02*
X162306000Y-76708000D01*
X162306000Y-76708000D02*
X163830000Y-76708000D01*
X104648000Y-71120000D02*
X104648000Y-69088000D01*
X107151001Y-66584999D02*
X137450999Y-66584999D01*
X104648000Y-69088000D02*
X107151001Y-66584999D01*
X137922000Y-67056000D02*
X137922000Y-69596000D01*
X137450999Y-66584999D02*
X137922000Y-67056000D01*
D29*
X105998000Y-71120000D02*
X106506000Y-70612000D01*
X104648000Y-71120000D02*
X105998000Y-71120000D01*
X130850081Y-104140000D02*
X131318000Y-103672081D01*
X129648000Y-104140000D02*
X130850081Y-104140000D01*
X131318000Y-103672081D02*
X131318000Y-102870000D01*
D31*
X131318000Y-67310000D02*
X113538000Y-67310000D01*
D30*
X106172000Y-76200000D02*
X104648000Y-76200000D01*
X106680000Y-75692000D02*
X106172000Y-76200000D01*
X106680000Y-72898000D02*
X106680000Y-75692000D01*
X120396000Y-69596000D02*
X120396000Y-71374000D01*
X120396000Y-71374000D02*
X108204000Y-71374000D01*
X106680000Y-72898000D02*
X108204000Y-71374000D01*
X123444000Y-79248000D02*
X122936000Y-78740000D01*
X117348000Y-85598000D02*
X122428000Y-85598000D01*
X122428000Y-85598000D02*
X122936000Y-85090000D01*
X122936000Y-85090000D02*
X122936000Y-83566000D01*
X129648000Y-76200000D02*
X131934000Y-73914000D01*
X131934000Y-73914000D02*
X142748000Y-73914000D01*
X143256000Y-73406000D02*
X143256000Y-71882000D01*
X142748000Y-73914000D02*
X143256000Y-73406000D01*
X128445919Y-73660000D02*
X129648000Y-73660000D01*
X109474000Y-83566000D02*
X112268000Y-83566000D01*
X112268000Y-83566000D02*
X113538000Y-82296000D01*
X113538000Y-82296000D02*
X126746000Y-82296000D01*
X126746000Y-82296000D02*
X127762000Y-81280000D01*
X127762000Y-81280000D02*
X127762000Y-74343919D01*
X127762000Y-74343919D02*
X128445919Y-73660000D01*
X109474000Y-81026000D02*
X124714000Y-81026000D01*
X130850081Y-81280000D02*
X131358081Y-81788000D01*
X129648000Y-81280000D02*
X130850081Y-81280000D01*
X140970000Y-81788000D02*
X143002000Y-79756000D01*
X131358081Y-81788000D02*
X140970000Y-81788000D01*
X149178000Y-93468000D02*
X149178000Y-104194000D01*
X149178000Y-91694000D02*
X149178000Y-93468000D01*
X130497999Y-77890001D02*
X131151999Y-77890001D01*
X129648000Y-78740000D02*
X130497999Y-77890001D01*
X131151999Y-77890001D02*
X131318000Y-77724000D01*
X141224000Y-77724000D02*
X143002000Y-75946000D01*
X131318000Y-77724000D02*
X141224000Y-77724000D01*
X106426000Y-85344000D02*
X106426000Y-77470000D01*
X106426000Y-77470000D02*
X106421347Y-77465347D01*
X105850081Y-104140000D02*
X106426000Y-103564081D01*
X104648000Y-104140000D02*
X105850081Y-104140000D01*
X106426000Y-103564081D02*
X106426000Y-88392000D01*
X106426000Y-88392000D02*
X108712000Y-86106000D01*
X108712000Y-86106000D02*
X111760000Y-86106000D01*
X111760000Y-86106000D02*
X114046000Y-83820000D01*
D32*
G36*
X165583001Y-111518135D02*
G01*
X165472360Y-111458996D01*
X165232964Y-111386376D01*
X164984000Y-111361855D01*
X164655500Y-111368000D01*
X164338000Y-111685500D01*
X164338000Y-113284000D01*
X164358000Y-113284000D01*
X164358000Y-113792000D01*
X164338000Y-113792000D01*
X164338000Y-115390500D01*
X164655500Y-115708000D01*
X164984000Y-115714145D01*
X165232964Y-115689624D01*
X165472360Y-115617004D01*
X165583001Y-115557865D01*
X165583001Y-118085000D01*
X131368778Y-118085000D01*
X131419244Y-118023507D01*
X131616101Y-117655214D01*
X131737325Y-117255593D01*
X131778257Y-116840000D01*
X131737325Y-116424407D01*
X131616101Y-116024786D01*
X131419244Y-115656493D01*
X131348261Y-115570000D01*
X131419244Y-115483507D01*
X131616101Y-115115214D01*
X131737325Y-114715593D01*
X131752668Y-114559802D01*
X136418000Y-114559802D01*
X136418000Y-115056198D01*
X136514842Y-115543057D01*
X136704805Y-116001668D01*
X136980588Y-116414406D01*
X137331594Y-116765412D01*
X137744332Y-117041195D01*
X138202943Y-117231158D01*
X138689802Y-117328000D01*
X139186198Y-117328000D01*
X139673057Y-117231158D01*
X140131668Y-117041195D01*
X140544406Y-116765412D01*
X140895412Y-116414406D01*
X141171195Y-116001668D01*
X141361158Y-115543057D01*
X141458000Y-115056198D01*
X141458000Y-114559802D01*
X141361158Y-114072943D01*
X141171195Y-113614332D01*
X140977385Y-113324274D01*
X145658000Y-113324274D01*
X145658000Y-113751726D01*
X145741392Y-114170966D01*
X145904971Y-114565881D01*
X146142451Y-114921295D01*
X146444705Y-115223549D01*
X146800119Y-115461029D01*
X147195034Y-115624608D01*
X147614274Y-115708000D01*
X148041726Y-115708000D01*
X148460966Y-115624608D01*
X148761202Y-115500246D01*
X148979640Y-115617004D01*
X149219036Y-115689624D01*
X149468000Y-115714145D01*
X149796500Y-115708000D01*
X150114000Y-115390500D01*
X150114000Y-113792000D01*
X150094000Y-113792000D01*
X150094000Y-113284000D01*
X150114000Y-113284000D01*
X150114000Y-111685500D01*
X150622000Y-111685500D01*
X150622000Y-113284000D01*
X150642000Y-113284000D01*
X150642000Y-113792000D01*
X150622000Y-113792000D01*
X150622000Y-115390500D01*
X150939500Y-115708000D01*
X151268000Y-115714145D01*
X151516964Y-115689624D01*
X151756360Y-115617004D01*
X151976988Y-115499076D01*
X152170371Y-115340371D01*
X152329076Y-115146988D01*
X152447004Y-114926360D01*
X152519624Y-114686964D01*
X152544145Y-114438000D01*
X152538000Y-114109500D01*
X152220502Y-113792002D01*
X152524011Y-113792002D01*
X152599392Y-114170966D01*
X152762971Y-114565881D01*
X153000451Y-114921295D01*
X153302705Y-115223549D01*
X153658119Y-115461029D01*
X154053034Y-115624608D01*
X154472274Y-115708000D01*
X154899726Y-115708000D01*
X155318966Y-115624608D01*
X155619202Y-115500246D01*
X155837640Y-115617004D01*
X156077036Y-115689624D01*
X156326000Y-115714145D01*
X156654500Y-115708000D01*
X156972000Y-115390500D01*
X156972000Y-113792000D01*
X156952000Y-113792000D01*
X156952000Y-113284000D01*
X156972000Y-113284000D01*
X156972000Y-111685500D01*
X157480000Y-111685500D01*
X157480000Y-113284000D01*
X157500000Y-113284000D01*
X157500000Y-113792000D01*
X157480000Y-113792000D01*
X157480000Y-115390500D01*
X157797500Y-115708000D01*
X158126000Y-115714145D01*
X158374964Y-115689624D01*
X158614360Y-115617004D01*
X158834988Y-115499076D01*
X159028371Y-115340371D01*
X159187076Y-115146988D01*
X159305004Y-114926360D01*
X159377624Y-114686964D01*
X159402145Y-114438000D01*
X159396000Y-114109500D01*
X159078502Y-113792002D01*
X159382011Y-113792002D01*
X159457392Y-114170966D01*
X159620971Y-114565881D01*
X159858451Y-114921295D01*
X160160705Y-115223549D01*
X160516119Y-115461029D01*
X160911034Y-115624608D01*
X161330274Y-115708000D01*
X161757726Y-115708000D01*
X162176966Y-115624608D01*
X162477202Y-115500246D01*
X162695640Y-115617004D01*
X162935036Y-115689624D01*
X163184000Y-115714145D01*
X163512500Y-115708000D01*
X163830000Y-115390500D01*
X163830000Y-113792000D01*
X163810000Y-113792000D01*
X163810000Y-113284000D01*
X163830000Y-113284000D01*
X163830000Y-111685500D01*
X163512500Y-111368000D01*
X163184000Y-111361855D01*
X162935036Y-111386376D01*
X162695640Y-111458996D01*
X162477202Y-111575754D01*
X162176966Y-111451392D01*
X161757726Y-111368000D01*
X161330274Y-111368000D01*
X160911034Y-111451392D01*
X160516119Y-111614971D01*
X160160705Y-111852451D01*
X159858451Y-112154705D01*
X159620971Y-112510119D01*
X159457392Y-112905034D01*
X159382011Y-113283998D01*
X159078502Y-113283998D01*
X159396000Y-112966500D01*
X159402145Y-112638000D01*
X159377624Y-112389036D01*
X159305004Y-112149640D01*
X159187076Y-111929012D01*
X159028371Y-111735629D01*
X158834988Y-111576924D01*
X158614360Y-111458996D01*
X158374964Y-111386376D01*
X158126000Y-111361855D01*
X157797500Y-111368000D01*
X157480000Y-111685500D01*
X156972000Y-111685500D01*
X156654500Y-111368000D01*
X156326000Y-111361855D01*
X156077036Y-111386376D01*
X155837640Y-111458996D01*
X155619202Y-111575754D01*
X155318966Y-111451392D01*
X154899726Y-111368000D01*
X154472274Y-111368000D01*
X154053034Y-111451392D01*
X153658119Y-111614971D01*
X153302705Y-111852451D01*
X153000451Y-112154705D01*
X152762971Y-112510119D01*
X152599392Y-112905034D01*
X152524011Y-113283998D01*
X152220502Y-113283998D01*
X152538000Y-112966500D01*
X152544145Y-112638000D01*
X152519624Y-112389036D01*
X152447004Y-112149640D01*
X152329076Y-111929012D01*
X152170371Y-111735629D01*
X151976988Y-111576924D01*
X151756360Y-111458996D01*
X151516964Y-111386376D01*
X151268000Y-111361855D01*
X150939500Y-111368000D01*
X150622000Y-111685500D01*
X150114000Y-111685500D01*
X149796500Y-111368000D01*
X149468000Y-111361855D01*
X149219036Y-111386376D01*
X148979640Y-111458996D01*
X148761202Y-111575754D01*
X148460966Y-111451392D01*
X148041726Y-111368000D01*
X147614274Y-111368000D01*
X147195034Y-111451392D01*
X146800119Y-111614971D01*
X146444705Y-111852451D01*
X146142451Y-112154705D01*
X145904971Y-112510119D01*
X145741392Y-112905034D01*
X145658000Y-113324274D01*
X140977385Y-113324274D01*
X140895412Y-113201594D01*
X140544406Y-112850588D01*
X140131668Y-112574805D01*
X139673057Y-112384842D01*
X139186198Y-112288000D01*
X138689802Y-112288000D01*
X138202943Y-112384842D01*
X137744332Y-112574805D01*
X137331594Y-112850588D01*
X136980588Y-113201594D01*
X136704805Y-113614332D01*
X136514842Y-114072943D01*
X136418000Y-114559802D01*
X131752668Y-114559802D01*
X131778257Y-114300000D01*
X131737325Y-113884407D01*
X131616101Y-113484786D01*
X131419244Y-113116493D01*
X131348261Y-113030000D01*
X131419244Y-112943507D01*
X131616101Y-112575214D01*
X131737325Y-112175593D01*
X131778257Y-111760000D01*
X131737325Y-111344407D01*
X131616101Y-110944786D01*
X131419244Y-110576493D01*
X131348261Y-110490000D01*
X131419244Y-110403507D01*
X131534426Y-110188017D01*
X131613549Y-110585797D01*
X131769590Y-110962513D01*
X131996126Y-111301548D01*
X132284452Y-111589874D01*
X132623487Y-111816410D01*
X133000203Y-111972451D01*
X133400123Y-112052000D01*
X133807877Y-112052000D01*
X134207797Y-111972451D01*
X134584513Y-111816410D01*
X134923548Y-111589874D01*
X135211874Y-111301548D01*
X135438410Y-110962513D01*
X135594451Y-110585797D01*
X135674000Y-110185877D01*
X135674000Y-109778123D01*
X135594451Y-109378203D01*
X135438410Y-109001487D01*
X135211874Y-108662452D01*
X134923548Y-108374126D01*
X134859005Y-108331000D01*
X134923548Y-108287874D01*
X135211874Y-107999548D01*
X135438410Y-107660513D01*
X135594451Y-107283797D01*
X135674000Y-106883877D01*
X135674000Y-106476123D01*
X135594451Y-106076203D01*
X135438410Y-105699487D01*
X135211874Y-105360452D01*
X134923548Y-105072126D01*
X134859005Y-105029000D01*
X134923548Y-104985874D01*
X135211874Y-104697548D01*
X135438410Y-104358513D01*
X135594451Y-103981797D01*
X135674000Y-103581877D01*
X135674000Y-103378000D01*
X141683985Y-103378000D01*
X141723952Y-103783791D01*
X141842317Y-104173987D01*
X142034531Y-104533594D01*
X142293207Y-104848793D01*
X142512791Y-105029000D01*
X142293207Y-105209207D01*
X142034531Y-105524406D01*
X141842317Y-105884013D01*
X141723952Y-106274209D01*
X141683985Y-106680000D01*
X141723952Y-107085791D01*
X141842317Y-107475987D01*
X142034531Y-107835594D01*
X142293207Y-108150793D01*
X142512791Y-108331000D01*
X142293207Y-108511207D01*
X142034531Y-108826406D01*
X141842317Y-109186013D01*
X141723952Y-109576209D01*
X141683985Y-109982000D01*
X141723952Y-110387791D01*
X141842317Y-110777987D01*
X142034531Y-111137594D01*
X142293207Y-111452793D01*
X142608406Y-111711469D01*
X142968013Y-111903683D01*
X143358209Y-112022048D01*
X143662316Y-112052000D01*
X143865684Y-112052000D01*
X144169791Y-112022048D01*
X144559987Y-111903683D01*
X144919594Y-111711469D01*
X145234793Y-111452793D01*
X145493469Y-111137594D01*
X145685683Y-110777987D01*
X145804048Y-110387791D01*
X145844015Y-109982000D01*
X145804048Y-109576209D01*
X145685683Y-109186013D01*
X145493469Y-108826406D01*
X145234793Y-108511207D01*
X145015209Y-108331000D01*
X145234793Y-108150793D01*
X145493469Y-107835594D01*
X145656812Y-107530000D01*
X160029855Y-107530000D01*
X160054376Y-107778964D01*
X160126996Y-108018360D01*
X160244924Y-108238988D01*
X160403629Y-108432371D01*
X160597012Y-108591076D01*
X160817640Y-108709004D01*
X161057036Y-108781624D01*
X161306000Y-108806145D01*
X161734500Y-108800000D01*
X162052000Y-108482500D01*
X162052000Y-106934000D01*
X162560000Y-106934000D01*
X162560000Y-108482500D01*
X162877500Y-108800000D01*
X163306000Y-108806145D01*
X163554964Y-108781624D01*
X163794360Y-108709004D01*
X164014988Y-108591076D01*
X164208371Y-108432371D01*
X164367076Y-108238988D01*
X164485004Y-108018360D01*
X164557624Y-107778964D01*
X164582145Y-107530000D01*
X164576000Y-107251500D01*
X164258500Y-106934000D01*
X162560000Y-106934000D01*
X162052000Y-106934000D01*
X160353500Y-106934000D01*
X160036000Y-107251500D01*
X160029855Y-107530000D01*
X145656812Y-107530000D01*
X145685683Y-107475987D01*
X145804048Y-107085791D01*
X145844015Y-106680000D01*
X145804048Y-106274209D01*
X145685683Y-105884013D01*
X145493469Y-105524406D01*
X145234793Y-105209207D01*
X145015209Y-105029000D01*
X145234793Y-104848793D01*
X145493469Y-104533594D01*
X145685683Y-104173987D01*
X145804048Y-103783791D01*
X145844015Y-103378000D01*
X145804048Y-102972209D01*
X145685683Y-102582013D01*
X145493469Y-102222406D01*
X145234793Y-101907207D01*
X144919594Y-101648531D01*
X144559987Y-101456317D01*
X144169791Y-101337952D01*
X143865684Y-101308000D01*
X143662316Y-101308000D01*
X143358209Y-101337952D01*
X142968013Y-101456317D01*
X142608406Y-101648531D01*
X142293207Y-101907207D01*
X142034531Y-102222406D01*
X141842317Y-102582013D01*
X141723952Y-102972209D01*
X141683985Y-103378000D01*
X135674000Y-103378000D01*
X135674000Y-103174123D01*
X135594451Y-102774203D01*
X135438410Y-102397487D01*
X135211874Y-102058452D01*
X134923548Y-101770126D01*
X134584513Y-101543590D01*
X134207797Y-101387549D01*
X133807877Y-101308000D01*
X133400123Y-101308000D01*
X133000203Y-101387549D01*
X132623487Y-101543590D01*
X132284452Y-101770126D01*
X131996126Y-102058452D01*
X131769590Y-102397487D01*
X131613549Y-102774203D01*
X131534000Y-103174123D01*
X131534000Y-103186425D01*
X131500065Y-103108357D01*
X131340938Y-102878923D01*
X131419244Y-102783507D01*
X131616101Y-102415214D01*
X131737325Y-102015593D01*
X131778257Y-101600000D01*
X131737325Y-101184407D01*
X131616101Y-100784786D01*
X131419244Y-100416493D01*
X131348261Y-100330000D01*
X131419244Y-100243507D01*
X131616101Y-99875214D01*
X131737325Y-99475593D01*
X131778257Y-99060000D01*
X131737325Y-98644407D01*
X131616101Y-98244786D01*
X131419244Y-97876493D01*
X131348261Y-97790000D01*
X131419244Y-97703507D01*
X131616101Y-97335214D01*
X131737325Y-96935593D01*
X131778257Y-96520000D01*
X131737325Y-96104407D01*
X131616101Y-95704786D01*
X131419244Y-95336493D01*
X131348261Y-95250000D01*
X131419244Y-95163507D01*
X131616101Y-94795214D01*
X131720820Y-94450000D01*
X133051856Y-94450000D01*
X133051856Y-96050000D01*
X133076377Y-96298963D01*
X133148997Y-96538359D01*
X133266925Y-96758988D01*
X133425630Y-96952370D01*
X133619012Y-97111075D01*
X133839641Y-97229003D01*
X134079037Y-97301623D01*
X134328000Y-97326144D01*
X135928000Y-97326144D01*
X136176963Y-97301623D01*
X136416359Y-97229003D01*
X136636988Y-97111075D01*
X136830370Y-96952370D01*
X136989075Y-96758988D01*
X137040443Y-96662883D01*
X140574327Y-96662883D01*
X140620038Y-97069472D01*
X140994367Y-97231156D01*
X141393046Y-97316704D01*
X141800755Y-97322830D01*
X142201824Y-97249298D01*
X142580842Y-97098934D01*
X142635962Y-97069472D01*
X142681673Y-96662883D01*
X141628000Y-95609210D01*
X140574327Y-96662883D01*
X137040443Y-96662883D01*
X137107003Y-96538359D01*
X137179623Y-96298963D01*
X137204144Y-96050000D01*
X137204144Y-95422755D01*
X139555170Y-95422755D01*
X139628702Y-95823824D01*
X139779066Y-96202842D01*
X139808528Y-96257962D01*
X140215117Y-96303673D01*
X141268790Y-95250000D01*
X141987210Y-95250000D01*
X143040883Y-96303673D01*
X143447472Y-96257962D01*
X143609156Y-95883633D01*
X143694704Y-95484954D01*
X143700830Y-95077245D01*
X143627298Y-94676176D01*
X143476934Y-94297158D01*
X143447472Y-94242038D01*
X143040883Y-94196327D01*
X141987210Y-95250000D01*
X141268790Y-95250000D01*
X140215117Y-94196327D01*
X139808528Y-94242038D01*
X139646844Y-94616367D01*
X139561296Y-95015046D01*
X139555170Y-95422755D01*
X137204144Y-95422755D01*
X137204144Y-94450000D01*
X137179623Y-94201037D01*
X137107003Y-93961641D01*
X137040444Y-93837117D01*
X140574327Y-93837117D01*
X141628000Y-94890790D01*
X142681673Y-93837117D01*
X142635962Y-93430528D01*
X142261633Y-93268844D01*
X141862954Y-93183296D01*
X141455245Y-93177170D01*
X141054176Y-93250702D01*
X140675158Y-93401066D01*
X140620038Y-93430528D01*
X140574327Y-93837117D01*
X137040444Y-93837117D01*
X136989075Y-93741012D01*
X136830370Y-93547630D01*
X136636988Y-93388925D01*
X136416359Y-93270997D01*
X136176963Y-93198377D01*
X135928000Y-93173856D01*
X134328000Y-93173856D01*
X134079037Y-93198377D01*
X133839641Y-93270997D01*
X133619012Y-93388925D01*
X133425630Y-93547630D01*
X133266925Y-93741012D01*
X133148997Y-93961641D01*
X133076377Y-94201037D01*
X133051856Y-94450000D01*
X131720820Y-94450000D01*
X131737325Y-94395593D01*
X131778257Y-93980000D01*
X131737325Y-93564407D01*
X131616101Y-93164786D01*
X131419244Y-92796493D01*
X131348261Y-92710000D01*
X131419244Y-92623507D01*
X131616101Y-92255214D01*
X131737325Y-91855593D01*
X131778257Y-91440000D01*
X131737325Y-91024407D01*
X131616101Y-90624786D01*
X131419244Y-90256493D01*
X131348261Y-90170000D01*
X131419244Y-90083507D01*
X131616101Y-89715214D01*
X131737325Y-89315593D01*
X131778257Y-88900000D01*
X131737325Y-88484407D01*
X131616101Y-88084786D01*
X131419244Y-87716493D01*
X131348261Y-87630000D01*
X131419244Y-87543507D01*
X131616101Y-87175214D01*
X131737325Y-86775593D01*
X131778257Y-86360000D01*
X131737325Y-85944407D01*
X131616101Y-85544786D01*
X131419244Y-85176493D01*
X131348261Y-85090000D01*
X131419244Y-85003507D01*
X131616101Y-84635214D01*
X131737325Y-84235593D01*
X131778257Y-83820000D01*
X131737325Y-83404407D01*
X131670162Y-83183000D01*
X133844174Y-83183000D01*
X133667899Y-83512786D01*
X133546675Y-83912407D01*
X133505743Y-84328000D01*
X133546675Y-84743593D01*
X133667899Y-85143214D01*
X133864756Y-85511507D01*
X133935739Y-85598000D01*
X133864756Y-85684493D01*
X133667899Y-86052786D01*
X133546675Y-86452407D01*
X133505743Y-86868000D01*
X133546675Y-87283593D01*
X133667899Y-87683214D01*
X133864756Y-88051507D01*
X134129681Y-88374319D01*
X134452493Y-88639244D01*
X134820786Y-88836101D01*
X135220407Y-88957325D01*
X135531858Y-88988000D01*
X135740142Y-88988000D01*
X136051593Y-88957325D01*
X136451214Y-88836101D01*
X136819507Y-88639244D01*
X136906000Y-88568261D01*
X136992493Y-88639244D01*
X137360786Y-88836101D01*
X137760407Y-88957325D01*
X138071858Y-88988000D01*
X138280142Y-88988000D01*
X138591593Y-88957325D01*
X138991214Y-88836101D01*
X139133697Y-88759942D01*
X139157012Y-88779076D01*
X139377640Y-88897004D01*
X139617036Y-88969624D01*
X139866000Y-88994145D01*
X140144500Y-88988000D01*
X140462000Y-88670500D01*
X140462000Y-87122000D01*
X140970000Y-87122000D01*
X140970000Y-88670500D01*
X141287500Y-88988000D01*
X141566000Y-88994145D01*
X141814964Y-88969624D01*
X142054360Y-88897004D01*
X142274988Y-88779076D01*
X142468371Y-88620371D01*
X142627076Y-88426988D01*
X142745004Y-88206360D01*
X142817624Y-87966964D01*
X142842145Y-87718000D01*
X142836000Y-87439500D01*
X142569289Y-87172789D01*
X147044400Y-87172789D01*
X147044400Y-88703210D01*
X147075272Y-89016658D01*
X147197273Y-89418843D01*
X147395393Y-89789500D01*
X147417142Y-89816001D01*
X147395394Y-89842500D01*
X147197274Y-90213156D01*
X147075272Y-90615341D01*
X147044400Y-90928789D01*
X147044400Y-92459210D01*
X147075272Y-92772658D01*
X147197273Y-93174843D01*
X147395393Y-93545500D01*
X147662018Y-93870382D01*
X147783000Y-93969670D01*
X147783001Y-101918330D01*
X147662019Y-102017618D01*
X147395394Y-102342500D01*
X147197274Y-102713156D01*
X147075272Y-103115341D01*
X147044400Y-103428789D01*
X147044400Y-104959210D01*
X147075272Y-105272658D01*
X147197273Y-105674843D01*
X147395393Y-106045500D01*
X147662018Y-106370382D01*
X147986900Y-106637007D01*
X148357556Y-106835127D01*
X148759741Y-106957128D01*
X149178000Y-106998323D01*
X149596258Y-106957128D01*
X149998443Y-106835127D01*
X150369100Y-106637007D01*
X150693982Y-106370382D01*
X150960607Y-106045500D01*
X151158727Y-105674844D01*
X151280728Y-105272659D01*
X151311600Y-104959211D01*
X151311600Y-104448000D01*
X152044400Y-104448000D01*
X152044400Y-105108400D01*
X152134949Y-105519764D01*
X152304012Y-105905559D01*
X152545091Y-106250958D01*
X152848922Y-106542688D01*
X153203829Y-106769538D01*
X153595732Y-106907011D01*
X153924000Y-106652650D01*
X153924000Y-104448000D01*
X154432000Y-104448000D01*
X154432000Y-106652650D01*
X154760268Y-106907011D01*
X155152171Y-106769538D01*
X155507078Y-106542688D01*
X155810909Y-106250958D01*
X156051988Y-105905559D01*
X156221051Y-105519764D01*
X156311600Y-105108400D01*
X156311600Y-104448000D01*
X154432000Y-104448000D01*
X153924000Y-104448000D01*
X152044400Y-104448000D01*
X151311600Y-104448000D01*
X151311600Y-104180000D01*
X160025743Y-104180000D01*
X160066675Y-104595593D01*
X160187899Y-104995214D01*
X160251110Y-105113474D01*
X160244924Y-105121012D01*
X160126996Y-105341640D01*
X160054376Y-105581036D01*
X160029855Y-105830000D01*
X160036000Y-106108500D01*
X160353500Y-106426000D01*
X162052000Y-106426000D01*
X162052000Y-106406000D01*
X162560000Y-106406000D01*
X162560000Y-106426000D01*
X164258500Y-106426000D01*
X164576000Y-106108500D01*
X164582145Y-105830000D01*
X164557624Y-105581036D01*
X164485004Y-105341640D01*
X164367076Y-105121012D01*
X164360890Y-105113474D01*
X164424101Y-104995214D01*
X164545325Y-104595593D01*
X164586257Y-104180000D01*
X164545325Y-103764407D01*
X164424101Y-103364786D01*
X164227244Y-102996493D01*
X163962319Y-102673681D01*
X163639507Y-102408756D01*
X163271214Y-102211899D01*
X162871593Y-102090675D01*
X162560142Y-102060000D01*
X162051858Y-102060000D01*
X161740407Y-102090675D01*
X161340786Y-102211899D01*
X160972493Y-102408756D01*
X160649681Y-102673681D01*
X160384756Y-102996493D01*
X160187899Y-103364786D01*
X160066675Y-103764407D01*
X160025743Y-104180000D01*
X151311600Y-104180000D01*
X151311600Y-103428790D01*
X151296907Y-103279600D01*
X152044400Y-103279600D01*
X152044400Y-103940000D01*
X153924000Y-103940000D01*
X153924000Y-101735350D01*
X154432000Y-101735350D01*
X154432000Y-103940000D01*
X156311600Y-103940000D01*
X156311600Y-103279600D01*
X156221051Y-102868236D01*
X156051988Y-102482441D01*
X155810909Y-102137042D01*
X155507078Y-101845312D01*
X155152171Y-101618462D01*
X154760268Y-101480989D01*
X154432000Y-101735350D01*
X153924000Y-101735350D01*
X153595732Y-101480989D01*
X153203829Y-101618462D01*
X152848922Y-101845312D01*
X152545091Y-102137042D01*
X152304012Y-102482441D01*
X152134949Y-102868236D01*
X152044400Y-103279600D01*
X151296907Y-103279600D01*
X151280728Y-103115342D01*
X151158727Y-102713156D01*
X150960607Y-102342500D01*
X150693982Y-102017618D01*
X150573000Y-101918330D01*
X150573000Y-98894000D01*
X160029855Y-98894000D01*
X160054376Y-99142964D01*
X160126996Y-99382360D01*
X160244924Y-99602988D01*
X160403629Y-99796371D01*
X160597012Y-99955076D01*
X160817640Y-100073004D01*
X161057036Y-100145624D01*
X161306000Y-100170145D01*
X161734500Y-100164000D01*
X162052000Y-99846500D01*
X162052000Y-98298000D01*
X162560000Y-98298000D01*
X162560000Y-99846500D01*
X162877500Y-100164000D01*
X163306000Y-100170145D01*
X163554964Y-100145624D01*
X163794360Y-100073004D01*
X164014988Y-99955076D01*
X164208371Y-99796371D01*
X164367076Y-99602988D01*
X164485004Y-99382360D01*
X164557624Y-99142964D01*
X164582145Y-98894000D01*
X164576000Y-98615500D01*
X164258500Y-98298000D01*
X162560000Y-98298000D01*
X162052000Y-98298000D01*
X160353500Y-98298000D01*
X160036000Y-98615500D01*
X160029855Y-98894000D01*
X150573000Y-98894000D01*
X150573000Y-95544000D01*
X160025743Y-95544000D01*
X160066675Y-95959593D01*
X160187899Y-96359214D01*
X160251110Y-96477474D01*
X160244924Y-96485012D01*
X160126996Y-96705640D01*
X160054376Y-96945036D01*
X160029855Y-97194000D01*
X160036000Y-97472500D01*
X160353500Y-97790000D01*
X162052000Y-97790000D01*
X162052000Y-97770000D01*
X162560000Y-97770000D01*
X162560000Y-97790000D01*
X164258500Y-97790000D01*
X164576000Y-97472500D01*
X164582145Y-97194000D01*
X164557624Y-96945036D01*
X164485004Y-96705640D01*
X164367076Y-96485012D01*
X164360890Y-96477474D01*
X164424101Y-96359214D01*
X164545325Y-95959593D01*
X164586257Y-95544000D01*
X164545325Y-95128407D01*
X164424101Y-94728786D01*
X164227244Y-94360493D01*
X163962319Y-94037681D01*
X163639507Y-93772756D01*
X163271214Y-93575899D01*
X162871593Y-93454675D01*
X162560142Y-93424000D01*
X162051858Y-93424000D01*
X161740407Y-93454675D01*
X161340786Y-93575899D01*
X160972493Y-93772756D01*
X160649681Y-94037681D01*
X160384756Y-94360493D01*
X160187899Y-94728786D01*
X160066675Y-95128407D01*
X160025743Y-95544000D01*
X150573000Y-95544000D01*
X150573000Y-93969670D01*
X150693982Y-93870382D01*
X150960607Y-93545500D01*
X151158727Y-93174844D01*
X151280728Y-92772659D01*
X151311600Y-92459211D01*
X151311600Y-91948000D01*
X152044400Y-91948000D01*
X152044400Y-92608400D01*
X152134949Y-93019764D01*
X152304012Y-93405559D01*
X152545091Y-93750958D01*
X152848922Y-94042688D01*
X153203829Y-94269538D01*
X153595732Y-94407011D01*
X153924000Y-94152650D01*
X153924000Y-91948000D01*
X154432000Y-91948000D01*
X154432000Y-94152650D01*
X154760268Y-94407011D01*
X155152171Y-94269538D01*
X155507078Y-94042688D01*
X155810909Y-93750958D01*
X156051988Y-93405559D01*
X156221051Y-93019764D01*
X156311600Y-92608400D01*
X156311600Y-91948000D01*
X154432000Y-91948000D01*
X153924000Y-91948000D01*
X152044400Y-91948000D01*
X151311600Y-91948000D01*
X151311600Y-90928790D01*
X151280728Y-90615342D01*
X151158727Y-90213156D01*
X150960607Y-89842500D01*
X150938859Y-89816000D01*
X150960607Y-89789500D01*
X151158727Y-89418844D01*
X151280728Y-89016659D01*
X151311600Y-88703211D01*
X151311600Y-88192000D01*
X152044400Y-88192000D01*
X152044400Y-88852400D01*
X152134949Y-89263764D01*
X152304012Y-89649559D01*
X152420183Y-89816000D01*
X152304012Y-89982441D01*
X152134949Y-90368236D01*
X152044400Y-90779600D01*
X152044400Y-91440000D01*
X153924000Y-91440000D01*
X153924000Y-88192000D01*
X154432000Y-88192000D01*
X154432000Y-91440000D01*
X156311600Y-91440000D01*
X156311600Y-90779600D01*
X156221051Y-90368236D01*
X156172744Y-90258000D01*
X160029855Y-90258000D01*
X160054376Y-90506964D01*
X160126996Y-90746360D01*
X160244924Y-90966988D01*
X160403629Y-91160371D01*
X160597012Y-91319076D01*
X160817640Y-91437004D01*
X161057036Y-91509624D01*
X161306000Y-91534145D01*
X161734500Y-91528000D01*
X162052000Y-91210500D01*
X162052000Y-89662000D01*
X162560000Y-89662000D01*
X162560000Y-91210500D01*
X162877500Y-91528000D01*
X163306000Y-91534145D01*
X163554964Y-91509624D01*
X163794360Y-91437004D01*
X164014988Y-91319076D01*
X164208371Y-91160371D01*
X164367076Y-90966988D01*
X164485004Y-90746360D01*
X164557624Y-90506964D01*
X164582145Y-90258000D01*
X164576000Y-89979500D01*
X164258500Y-89662000D01*
X162560000Y-89662000D01*
X162052000Y-89662000D01*
X160353500Y-89662000D01*
X160036000Y-89979500D01*
X160029855Y-90258000D01*
X156172744Y-90258000D01*
X156051988Y-89982441D01*
X155935817Y-89816000D01*
X156051988Y-89649559D01*
X156221051Y-89263764D01*
X156311600Y-88852400D01*
X156311600Y-88192000D01*
X154432000Y-88192000D01*
X153924000Y-88192000D01*
X152044400Y-88192000D01*
X151311600Y-88192000D01*
X151311600Y-87172790D01*
X151296907Y-87023600D01*
X152044400Y-87023600D01*
X152044400Y-87684000D01*
X153924000Y-87684000D01*
X153924000Y-85479350D01*
X154432000Y-85479350D01*
X154432000Y-87684000D01*
X156311600Y-87684000D01*
X156311600Y-87023600D01*
X156286155Y-86908000D01*
X160025743Y-86908000D01*
X160066675Y-87323593D01*
X160187899Y-87723214D01*
X160251110Y-87841474D01*
X160244924Y-87849012D01*
X160126996Y-88069640D01*
X160054376Y-88309036D01*
X160029855Y-88558000D01*
X160036000Y-88836500D01*
X160353500Y-89154000D01*
X162052000Y-89154000D01*
X162052000Y-89134000D01*
X162560000Y-89134000D01*
X162560000Y-89154000D01*
X164258500Y-89154000D01*
X164576000Y-88836500D01*
X164582145Y-88558000D01*
X164557624Y-88309036D01*
X164485004Y-88069640D01*
X164367076Y-87849012D01*
X164360890Y-87841474D01*
X164424101Y-87723214D01*
X164545325Y-87323593D01*
X164586257Y-86908000D01*
X164545325Y-86492407D01*
X164424101Y-86092786D01*
X164227244Y-85724493D01*
X163962319Y-85401681D01*
X163639507Y-85136756D01*
X163271214Y-84939899D01*
X162871593Y-84818675D01*
X162560142Y-84788000D01*
X162051858Y-84788000D01*
X161740407Y-84818675D01*
X161340786Y-84939899D01*
X160972493Y-85136756D01*
X160649681Y-85401681D01*
X160384756Y-85724493D01*
X160187899Y-86092786D01*
X160066675Y-86492407D01*
X160025743Y-86908000D01*
X156286155Y-86908000D01*
X156221051Y-86612236D01*
X156051988Y-86226441D01*
X155810909Y-85881042D01*
X155507078Y-85589312D01*
X155152171Y-85362462D01*
X154760268Y-85224989D01*
X154432000Y-85479350D01*
X153924000Y-85479350D01*
X153595732Y-85224989D01*
X153203829Y-85362462D01*
X152848922Y-85589312D01*
X152545091Y-85881042D01*
X152304012Y-86226441D01*
X152134949Y-86612236D01*
X152044400Y-87023600D01*
X151296907Y-87023600D01*
X151280728Y-86859342D01*
X151158727Y-86457156D01*
X150960607Y-86086500D01*
X150693982Y-85761618D01*
X150369100Y-85494993D01*
X149998444Y-85296873D01*
X149596259Y-85174872D01*
X149178000Y-85133677D01*
X148759742Y-85174872D01*
X148357557Y-85296873D01*
X147986901Y-85494993D01*
X147662019Y-85761618D01*
X147395394Y-86086500D01*
X147197274Y-86457156D01*
X147075272Y-86859341D01*
X147044400Y-87172789D01*
X142569289Y-87172789D01*
X142518500Y-87122000D01*
X140970000Y-87122000D01*
X140462000Y-87122000D01*
X140442000Y-87122000D01*
X140442000Y-86614000D01*
X140462000Y-86614000D01*
X140462000Y-84582000D01*
X140970000Y-84582000D01*
X140970000Y-86614000D01*
X142518500Y-86614000D01*
X142836000Y-86296500D01*
X142842145Y-86018000D01*
X142817624Y-85769036D01*
X142765741Y-85598000D01*
X142817624Y-85426964D01*
X142842145Y-85178000D01*
X142836000Y-84899500D01*
X142518500Y-84582000D01*
X140970000Y-84582000D01*
X140462000Y-84582000D01*
X140442000Y-84582000D01*
X140442000Y-84074000D01*
X140462000Y-84074000D01*
X140462000Y-84054000D01*
X140970000Y-84054000D01*
X140970000Y-84074000D01*
X142518500Y-84074000D01*
X142836000Y-83756500D01*
X142842145Y-83478000D01*
X142817624Y-83229036D01*
X142745004Y-82989640D01*
X142627076Y-82769012D01*
X142468371Y-82575629D01*
X142296362Y-82434465D01*
X142904827Y-81826000D01*
X143103684Y-81826000D01*
X143407791Y-81796048D01*
X143797987Y-81677683D01*
X144157594Y-81485469D01*
X144472793Y-81226793D01*
X144731469Y-80911594D01*
X144923683Y-80551987D01*
X145042048Y-80161791D01*
X145082015Y-79756000D01*
X145042048Y-79350209D01*
X144923683Y-78960013D01*
X144731469Y-78600406D01*
X144472793Y-78285207D01*
X144157594Y-78026531D01*
X143829199Y-77851000D01*
X144157594Y-77675469D01*
X144472793Y-77416793D01*
X144731469Y-77101594D01*
X144923683Y-76741987D01*
X145042048Y-76351791D01*
X145082015Y-75946000D01*
X145042048Y-75540209D01*
X144923683Y-75150013D01*
X144731469Y-74790406D01*
X144634944Y-74672789D01*
X147044400Y-74672789D01*
X147044400Y-76203210D01*
X147075272Y-76516658D01*
X147197273Y-76918843D01*
X147395393Y-77289500D01*
X147662018Y-77614382D01*
X147986900Y-77881007D01*
X148357556Y-78079127D01*
X148759741Y-78201128D01*
X149178000Y-78242323D01*
X149596258Y-78201128D01*
X149998443Y-78079127D01*
X150369100Y-77881007D01*
X150693982Y-77614382D01*
X150960607Y-77289500D01*
X151158727Y-76918844D01*
X151280728Y-76516659D01*
X151311600Y-76203211D01*
X151311600Y-75692000D01*
X152044400Y-75692000D01*
X152044400Y-76352400D01*
X152134949Y-76763764D01*
X152304012Y-77149559D01*
X152545091Y-77494958D01*
X152848922Y-77786688D01*
X153203829Y-78013538D01*
X153595732Y-78151011D01*
X153924000Y-77896650D01*
X153924000Y-75692000D01*
X154432000Y-75692000D01*
X154432000Y-77896650D01*
X154760268Y-78151011D01*
X155152171Y-78013538D01*
X155507078Y-77786688D01*
X155810909Y-77494958D01*
X156051988Y-77149559D01*
X156221051Y-76763764D01*
X156311600Y-76352400D01*
X156311600Y-75692000D01*
X154432000Y-75692000D01*
X153924000Y-75692000D01*
X152044400Y-75692000D01*
X151311600Y-75692000D01*
X151311600Y-74672790D01*
X151296907Y-74523600D01*
X152044400Y-74523600D01*
X152044400Y-75184000D01*
X153924000Y-75184000D01*
X153924000Y-75164000D01*
X154432000Y-75164000D01*
X154432000Y-75184000D01*
X156311600Y-75184000D01*
X156311600Y-75135000D01*
X160322799Y-75135000D01*
X160355526Y-75467278D01*
X160452447Y-75786787D01*
X160609840Y-76081248D01*
X160821655Y-76339345D01*
X161079752Y-76551160D01*
X161088162Y-76555655D01*
X160841153Y-76550913D01*
X160701700Y-76853198D01*
X160623900Y-77176880D01*
X160610741Y-77509521D01*
X160662731Y-77838337D01*
X160745172Y-78061989D01*
X160680946Y-78217045D01*
X160616000Y-78543550D01*
X160616000Y-78876450D01*
X160679092Y-79193633D01*
X160634377Y-79341037D01*
X160609856Y-79590000D01*
X160609856Y-80430000D01*
X160634377Y-80678963D01*
X160706997Y-80918359D01*
X160804753Y-81101250D01*
X160609840Y-81338752D01*
X160452447Y-81633213D01*
X160355526Y-81952722D01*
X160322799Y-82285000D01*
X160355526Y-82617278D01*
X160452447Y-82936787D01*
X160609840Y-83231248D01*
X160821655Y-83489345D01*
X161079752Y-83701160D01*
X161374213Y-83858553D01*
X161693722Y-83955474D01*
X161942735Y-83980000D01*
X163109265Y-83980000D01*
X163358278Y-83955474D01*
X163677787Y-83858553D01*
X163972248Y-83701160D01*
X164230345Y-83489345D01*
X164442160Y-83231248D01*
X164599553Y-82936787D01*
X164696474Y-82617278D01*
X164729201Y-82285000D01*
X164696474Y-81952722D01*
X164599553Y-81633213D01*
X164442160Y-81338752D01*
X164230345Y-81080655D01*
X164008230Y-80898369D01*
X164106515Y-80857658D01*
X164383312Y-80672709D01*
X164618709Y-80437312D01*
X164803658Y-80160515D01*
X164931054Y-79852955D01*
X164996000Y-79526450D01*
X164996000Y-79193550D01*
X164931054Y-78867045D01*
X164866004Y-78710000D01*
X164931054Y-78552955D01*
X164996000Y-78226450D01*
X164996000Y-77893550D01*
X164931054Y-77567045D01*
X164803658Y-77259485D01*
X164618709Y-76982688D01*
X164383312Y-76747291D01*
X164106515Y-76562342D01*
X164008230Y-76521631D01*
X164230345Y-76339345D01*
X164442160Y-76081248D01*
X164599553Y-75786787D01*
X164696474Y-75467278D01*
X164729201Y-75135000D01*
X164696474Y-74802722D01*
X164599553Y-74483213D01*
X164442160Y-74188752D01*
X164230345Y-73930655D01*
X163972248Y-73718840D01*
X163677787Y-73561447D01*
X163358278Y-73464526D01*
X163109265Y-73440000D01*
X161942735Y-73440000D01*
X161693722Y-73464526D01*
X161374213Y-73561447D01*
X161079752Y-73718840D01*
X160821655Y-73930655D01*
X160609840Y-74188752D01*
X160452447Y-74483213D01*
X160355526Y-74802722D01*
X160322799Y-75135000D01*
X156311600Y-75135000D01*
X156311600Y-74523600D01*
X156248610Y-74237438D01*
X156371593Y-74225325D01*
X156771214Y-74104101D01*
X157139507Y-73907244D01*
X157462319Y-73642319D01*
X157727244Y-73319507D01*
X157924101Y-72951214D01*
X158045325Y-72551593D01*
X158086257Y-72136000D01*
X158045325Y-71720407D01*
X157924101Y-71320786D01*
X157847942Y-71178302D01*
X157867075Y-71154988D01*
X157985003Y-70934359D01*
X158057623Y-70694963D01*
X158082144Y-70446000D01*
X158082144Y-70109802D01*
X159024000Y-70109802D01*
X159024000Y-70606198D01*
X159120842Y-71093057D01*
X159310805Y-71551668D01*
X159586588Y-71964406D01*
X159937594Y-72315412D01*
X160350332Y-72591195D01*
X160808943Y-72781158D01*
X161295802Y-72878000D01*
X161792198Y-72878000D01*
X162279057Y-72781158D01*
X162737668Y-72591195D01*
X163150406Y-72315412D01*
X163501412Y-71964406D01*
X163777195Y-71551668D01*
X163967158Y-71093057D01*
X164064000Y-70606198D01*
X164064000Y-70109802D01*
X163967158Y-69622943D01*
X163777195Y-69164332D01*
X163501412Y-68751594D01*
X163150406Y-68400588D01*
X162737668Y-68124805D01*
X162279057Y-67934842D01*
X161792198Y-67838000D01*
X161295802Y-67838000D01*
X160808943Y-67934842D01*
X160350332Y-68124805D01*
X159937594Y-68400588D01*
X159586588Y-68751594D01*
X159310805Y-69164332D01*
X159120842Y-69622943D01*
X159024000Y-70109802D01*
X158082144Y-70109802D01*
X158082144Y-68746000D01*
X158057623Y-68497037D01*
X157985003Y-68257641D01*
X157867075Y-68037012D01*
X157708370Y-67843630D01*
X157514988Y-67684925D01*
X157294359Y-67566997D01*
X157054963Y-67494377D01*
X156806000Y-67469856D01*
X155106000Y-67469856D01*
X154857037Y-67494377D01*
X154617641Y-67566997D01*
X154397012Y-67684925D01*
X154203630Y-67843630D01*
X154044925Y-68037012D01*
X153926997Y-68257641D01*
X153854377Y-68497037D01*
X153829856Y-68746000D01*
X153829856Y-70446000D01*
X153854377Y-70694963D01*
X153926997Y-70934359D01*
X154044925Y-71154988D01*
X154064058Y-71178302D01*
X153987899Y-71320786D01*
X153866675Y-71720407D01*
X153825743Y-72136000D01*
X153866675Y-72551593D01*
X153923998Y-72740561D01*
X153923998Y-72979348D01*
X153595732Y-72724989D01*
X153203829Y-72862462D01*
X152848922Y-73089312D01*
X152545091Y-73381042D01*
X152304012Y-73726441D01*
X152134949Y-74112236D01*
X152044400Y-74523600D01*
X151296907Y-74523600D01*
X151280728Y-74359342D01*
X151158727Y-73957156D01*
X150960607Y-73586500D01*
X150693982Y-73261618D01*
X150369100Y-72994993D01*
X149998444Y-72796873D01*
X149596259Y-72674872D01*
X149178000Y-72633677D01*
X148759742Y-72674872D01*
X148357557Y-72796873D01*
X147986901Y-72994993D01*
X147662019Y-73261618D01*
X147395394Y-73586500D01*
X147197274Y-73957156D01*
X147075272Y-74359341D01*
X147044400Y-74672789D01*
X144634944Y-74672789D01*
X144472793Y-74475207D01*
X144299721Y-74333171D01*
X144421512Y-74184770D01*
X144551047Y-73942426D01*
X144630815Y-73679468D01*
X144651000Y-73474524D01*
X144651000Y-73474515D01*
X144657748Y-73406001D01*
X144651000Y-73337487D01*
X144651000Y-72800154D01*
X144735934Y-72673041D01*
X144861822Y-72369121D01*
X144926000Y-72046481D01*
X144926000Y-71717519D01*
X144861822Y-71394879D01*
X144735934Y-71090959D01*
X144553173Y-70817437D01*
X144320563Y-70584827D01*
X144047041Y-70402066D01*
X143743121Y-70276178D01*
X143420481Y-70212000D01*
X143091519Y-70212000D01*
X142768879Y-70276178D01*
X142588144Y-70351041D01*
X142588144Y-69596000D01*
X144173743Y-69596000D01*
X144214675Y-70011593D01*
X144335899Y-70411214D01*
X144532756Y-70779507D01*
X144797681Y-71102319D01*
X145120493Y-71367244D01*
X145488786Y-71564101D01*
X145888407Y-71685325D01*
X146199858Y-71716000D01*
X146408142Y-71716000D01*
X146719593Y-71685325D01*
X147119214Y-71564101D01*
X147487507Y-71367244D01*
X147574000Y-71296261D01*
X147660493Y-71367244D01*
X148028786Y-71564101D01*
X148428407Y-71685325D01*
X148739858Y-71716000D01*
X148948142Y-71716000D01*
X149259593Y-71685325D01*
X149659214Y-71564101D01*
X149801697Y-71487942D01*
X149825012Y-71507076D01*
X150045640Y-71625004D01*
X150285036Y-71697624D01*
X150534000Y-71722145D01*
X150812500Y-71716000D01*
X151130000Y-71398500D01*
X151130000Y-69850000D01*
X151638000Y-69850000D01*
X151638000Y-71398500D01*
X151955500Y-71716000D01*
X152234000Y-71722145D01*
X152482964Y-71697624D01*
X152722360Y-71625004D01*
X152942988Y-71507076D01*
X153136371Y-71348371D01*
X153295076Y-71154988D01*
X153413004Y-70934360D01*
X153485624Y-70694964D01*
X153510145Y-70446000D01*
X153504000Y-70167500D01*
X153186500Y-69850000D01*
X151638000Y-69850000D01*
X151130000Y-69850000D01*
X151110000Y-69850000D01*
X151110000Y-69342000D01*
X151130000Y-69342000D01*
X151130000Y-67793500D01*
X151638000Y-67793500D01*
X151638000Y-69342000D01*
X153186500Y-69342000D01*
X153504000Y-69024500D01*
X153510145Y-68746000D01*
X153485624Y-68497036D01*
X153413004Y-68257640D01*
X153295076Y-68037012D01*
X153136371Y-67843629D01*
X152942988Y-67684924D01*
X152722360Y-67566996D01*
X152482964Y-67494376D01*
X152234000Y-67469855D01*
X151955500Y-67476000D01*
X151638000Y-67793500D01*
X151130000Y-67793500D01*
X150812500Y-67476000D01*
X150534000Y-67469855D01*
X150285036Y-67494376D01*
X150045640Y-67566996D01*
X149825012Y-67684924D01*
X149801697Y-67704058D01*
X149659214Y-67627899D01*
X149259593Y-67506675D01*
X148948142Y-67476000D01*
X148739858Y-67476000D01*
X148428407Y-67506675D01*
X148028786Y-67627899D01*
X147660493Y-67824756D01*
X147574000Y-67895739D01*
X147487507Y-67824756D01*
X147119214Y-67627899D01*
X146719593Y-67506675D01*
X146408142Y-67476000D01*
X146199858Y-67476000D01*
X145888407Y-67506675D01*
X145488786Y-67627899D01*
X145120493Y-67824756D01*
X144797681Y-68089681D01*
X144532756Y-68412493D01*
X144335899Y-68780786D01*
X144214675Y-69180407D01*
X144173743Y-69596000D01*
X142588144Y-69596000D01*
X142588144Y-68746000D01*
X142563623Y-68497037D01*
X142491003Y-68257641D01*
X142373075Y-68037012D01*
X142214370Y-67843630D01*
X142020988Y-67684925D01*
X141800359Y-67566997D01*
X141560963Y-67494377D01*
X141312000Y-67469856D01*
X139612000Y-67469856D01*
X139363037Y-67494377D01*
X139123641Y-67566997D01*
X138903012Y-67684925D01*
X138873537Y-67709114D01*
X138572500Y-67578258D01*
X138502125Y-67556918D01*
X138176000Y-67811486D01*
X138176000Y-69342000D01*
X138196000Y-69342000D01*
X138196000Y-69850000D01*
X138176000Y-69850000D01*
X138176000Y-71882000D01*
X138196000Y-71882000D01*
X138196000Y-72390000D01*
X138176000Y-72390000D01*
X138176000Y-72410000D01*
X137668000Y-72410000D01*
X137668000Y-72390000D01*
X137648000Y-72390000D01*
X137648000Y-71882000D01*
X137668000Y-71882000D01*
X137668000Y-69850000D01*
X137648000Y-69850000D01*
X137648000Y-69342000D01*
X137668000Y-69342000D01*
X137668000Y-67811486D01*
X137341875Y-67556918D01*
X137271500Y-67578258D01*
X136890357Y-67743935D01*
X136660923Y-67903062D01*
X136565507Y-67824756D01*
X136197214Y-67627899D01*
X135797593Y-67506675D01*
X135486142Y-67476000D01*
X135277858Y-67476000D01*
X134966407Y-67506675D01*
X134566786Y-67627899D01*
X134198493Y-67824756D01*
X133875681Y-68089681D01*
X133610756Y-68412493D01*
X133413899Y-68780786D01*
X133292675Y-69180407D01*
X133251743Y-69596000D01*
X133292675Y-70011593D01*
X133413899Y-70411214D01*
X133610756Y-70779507D01*
X133681739Y-70866000D01*
X133610756Y-70952493D01*
X133413899Y-71320786D01*
X133292675Y-71720407D01*
X133251743Y-72136000D01*
X133289465Y-72519000D01*
X132002513Y-72519000D01*
X131933999Y-72512252D01*
X131865485Y-72519000D01*
X131865476Y-72519000D01*
X131660532Y-72539185D01*
X131628628Y-72548863D01*
X131677003Y-72458359D01*
X131749623Y-72218963D01*
X131774144Y-71970000D01*
X131774144Y-70270000D01*
X131749623Y-70021037D01*
X131677003Y-69781641D01*
X131559075Y-69561012D01*
X131400370Y-69367630D01*
X131206988Y-69208925D01*
X130986359Y-69090997D01*
X130746963Y-69018377D01*
X130498000Y-68993856D01*
X128798000Y-68993856D01*
X128549037Y-69018377D01*
X128309641Y-69090997D01*
X128089012Y-69208925D01*
X127895630Y-69367630D01*
X127736925Y-69561012D01*
X127618997Y-69781641D01*
X127546377Y-70021037D01*
X127537694Y-70109194D01*
X127278500Y-69850000D01*
X125730000Y-69850000D01*
X125730000Y-69870000D01*
X125222000Y-69870000D01*
X125222000Y-69850000D01*
X125202000Y-69850000D01*
X125202000Y-69342000D01*
X125222000Y-69342000D01*
X125222000Y-69322000D01*
X125730000Y-69322000D01*
X125730000Y-69342000D01*
X127278500Y-69342000D01*
X127596000Y-69024500D01*
X127597533Y-68955000D01*
X131027837Y-68955000D01*
X131153519Y-68980000D01*
X131482481Y-68980000D01*
X131805121Y-68915822D01*
X132109041Y-68789934D01*
X132382563Y-68607173D01*
X132615173Y-68374563D01*
X132797934Y-68101041D01*
X132923822Y-67797121D01*
X132988000Y-67474481D01*
X132988000Y-67335000D01*
X165583000Y-67335000D01*
X165583001Y-111518135D01*
X165583001Y-111518135D01*
G37*
X165583001Y-111518135D02*
X165472360Y-111458996D01*
X165232964Y-111386376D01*
X164984000Y-111361855D01*
X164655500Y-111368000D01*
X164338000Y-111685500D01*
X164338000Y-113284000D01*
X164358000Y-113284000D01*
X164358000Y-113792000D01*
X164338000Y-113792000D01*
X164338000Y-115390500D01*
X164655500Y-115708000D01*
X164984000Y-115714145D01*
X165232964Y-115689624D01*
X165472360Y-115617004D01*
X165583001Y-115557865D01*
X165583001Y-118085000D01*
X131368778Y-118085000D01*
X131419244Y-118023507D01*
X131616101Y-117655214D01*
X131737325Y-117255593D01*
X131778257Y-116840000D01*
X131737325Y-116424407D01*
X131616101Y-116024786D01*
X131419244Y-115656493D01*
X131348261Y-115570000D01*
X131419244Y-115483507D01*
X131616101Y-115115214D01*
X131737325Y-114715593D01*
X131752668Y-114559802D01*
X136418000Y-114559802D01*
X136418000Y-115056198D01*
X136514842Y-115543057D01*
X136704805Y-116001668D01*
X136980588Y-116414406D01*
X137331594Y-116765412D01*
X137744332Y-117041195D01*
X138202943Y-117231158D01*
X138689802Y-117328000D01*
X139186198Y-117328000D01*
X139673057Y-117231158D01*
X140131668Y-117041195D01*
X140544406Y-116765412D01*
X140895412Y-116414406D01*
X141171195Y-116001668D01*
X141361158Y-115543057D01*
X141458000Y-115056198D01*
X141458000Y-114559802D01*
X141361158Y-114072943D01*
X141171195Y-113614332D01*
X140977385Y-113324274D01*
X145658000Y-113324274D01*
X145658000Y-113751726D01*
X145741392Y-114170966D01*
X145904971Y-114565881D01*
X146142451Y-114921295D01*
X146444705Y-115223549D01*
X146800119Y-115461029D01*
X147195034Y-115624608D01*
X147614274Y-115708000D01*
X148041726Y-115708000D01*
X148460966Y-115624608D01*
X148761202Y-115500246D01*
X148979640Y-115617004D01*
X149219036Y-115689624D01*
X149468000Y-115714145D01*
X149796500Y-115708000D01*
X150114000Y-115390500D01*
X150114000Y-113792000D01*
X150094000Y-113792000D01*
X150094000Y-113284000D01*
X150114000Y-113284000D01*
X150114000Y-111685500D01*
X150622000Y-111685500D01*
X150622000Y-113284000D01*
X150642000Y-113284000D01*
X150642000Y-113792000D01*
X150622000Y-113792000D01*
X150622000Y-115390500D01*
X150939500Y-115708000D01*
X151268000Y-115714145D01*
X151516964Y-115689624D01*
X151756360Y-115617004D01*
X151976988Y-115499076D01*
X152170371Y-115340371D01*
X152329076Y-115146988D01*
X152447004Y-114926360D01*
X152519624Y-114686964D01*
X152544145Y-114438000D01*
X152538000Y-114109500D01*
X152220502Y-113792002D01*
X152524011Y-113792002D01*
X152599392Y-114170966D01*
X152762971Y-114565881D01*
X153000451Y-114921295D01*
X153302705Y-115223549D01*
X153658119Y-115461029D01*
X154053034Y-115624608D01*
X154472274Y-115708000D01*
X154899726Y-115708000D01*
X155318966Y-115624608D01*
X155619202Y-115500246D01*
X155837640Y-115617004D01*
X156077036Y-115689624D01*
X156326000Y-115714145D01*
X156654500Y-115708000D01*
X156972000Y-115390500D01*
X156972000Y-113792000D01*
X156952000Y-113792000D01*
X156952000Y-113284000D01*
X156972000Y-113284000D01*
X156972000Y-111685500D01*
X157480000Y-111685500D01*
X157480000Y-113284000D01*
X157500000Y-113284000D01*
X157500000Y-113792000D01*
X157480000Y-113792000D01*
X157480000Y-115390500D01*
X157797500Y-115708000D01*
X158126000Y-115714145D01*
X158374964Y-115689624D01*
X158614360Y-115617004D01*
X158834988Y-115499076D01*
X159028371Y-115340371D01*
X159187076Y-115146988D01*
X159305004Y-114926360D01*
X159377624Y-114686964D01*
X159402145Y-114438000D01*
X159396000Y-114109500D01*
X159078502Y-113792002D01*
X159382011Y-113792002D01*
X159457392Y-114170966D01*
X159620971Y-114565881D01*
X159858451Y-114921295D01*
X160160705Y-115223549D01*
X160516119Y-115461029D01*
X160911034Y-115624608D01*
X161330274Y-115708000D01*
X161757726Y-115708000D01*
X162176966Y-115624608D01*
X162477202Y-115500246D01*
X162695640Y-115617004D01*
X162935036Y-115689624D01*
X163184000Y-115714145D01*
X163512500Y-115708000D01*
X163830000Y-115390500D01*
X163830000Y-113792000D01*
X163810000Y-113792000D01*
X163810000Y-113284000D01*
X163830000Y-113284000D01*
X163830000Y-111685500D01*
X163512500Y-111368000D01*
X163184000Y-111361855D01*
X162935036Y-111386376D01*
X162695640Y-111458996D01*
X162477202Y-111575754D01*
X162176966Y-111451392D01*
X161757726Y-111368000D01*
X161330274Y-111368000D01*
X160911034Y-111451392D01*
X160516119Y-111614971D01*
X160160705Y-111852451D01*
X159858451Y-112154705D01*
X159620971Y-112510119D01*
X159457392Y-112905034D01*
X159382011Y-113283998D01*
X159078502Y-113283998D01*
X159396000Y-112966500D01*
X159402145Y-112638000D01*
X159377624Y-112389036D01*
X159305004Y-112149640D01*
X159187076Y-111929012D01*
X159028371Y-111735629D01*
X158834988Y-111576924D01*
X158614360Y-111458996D01*
X158374964Y-111386376D01*
X158126000Y-111361855D01*
X157797500Y-111368000D01*
X157480000Y-111685500D01*
X156972000Y-111685500D01*
X156654500Y-111368000D01*
X156326000Y-111361855D01*
X156077036Y-111386376D01*
X155837640Y-111458996D01*
X155619202Y-111575754D01*
X155318966Y-111451392D01*
X154899726Y-111368000D01*
X154472274Y-111368000D01*
X154053034Y-111451392D01*
X153658119Y-111614971D01*
X153302705Y-111852451D01*
X153000451Y-112154705D01*
X152762971Y-112510119D01*
X152599392Y-112905034D01*
X152524011Y-113283998D01*
X152220502Y-113283998D01*
X152538000Y-112966500D01*
X152544145Y-112638000D01*
X152519624Y-112389036D01*
X152447004Y-112149640D01*
X152329076Y-111929012D01*
X152170371Y-111735629D01*
X151976988Y-111576924D01*
X151756360Y-111458996D01*
X151516964Y-111386376D01*
X151268000Y-111361855D01*
X150939500Y-111368000D01*
X150622000Y-111685500D01*
X150114000Y-111685500D01*
X149796500Y-111368000D01*
X149468000Y-111361855D01*
X149219036Y-111386376D01*
X148979640Y-111458996D01*
X148761202Y-111575754D01*
X148460966Y-111451392D01*
X148041726Y-111368000D01*
X147614274Y-111368000D01*
X147195034Y-111451392D01*
X146800119Y-111614971D01*
X146444705Y-111852451D01*
X146142451Y-112154705D01*
X145904971Y-112510119D01*
X145741392Y-112905034D01*
X145658000Y-113324274D01*
X140977385Y-113324274D01*
X140895412Y-113201594D01*
X140544406Y-112850588D01*
X140131668Y-112574805D01*
X139673057Y-112384842D01*
X139186198Y-112288000D01*
X138689802Y-112288000D01*
X138202943Y-112384842D01*
X137744332Y-112574805D01*
X137331594Y-112850588D01*
X136980588Y-113201594D01*
X136704805Y-113614332D01*
X136514842Y-114072943D01*
X136418000Y-114559802D01*
X131752668Y-114559802D01*
X131778257Y-114300000D01*
X131737325Y-113884407D01*
X131616101Y-113484786D01*
X131419244Y-113116493D01*
X131348261Y-113030000D01*
X131419244Y-112943507D01*
X131616101Y-112575214D01*
X131737325Y-112175593D01*
X131778257Y-111760000D01*
X131737325Y-111344407D01*
X131616101Y-110944786D01*
X131419244Y-110576493D01*
X131348261Y-110490000D01*
X131419244Y-110403507D01*
X131534426Y-110188017D01*
X131613549Y-110585797D01*
X131769590Y-110962513D01*
X131996126Y-111301548D01*
X132284452Y-111589874D01*
X132623487Y-111816410D01*
X133000203Y-111972451D01*
X133400123Y-112052000D01*
X133807877Y-112052000D01*
X134207797Y-111972451D01*
X134584513Y-111816410D01*
X134923548Y-111589874D01*
X135211874Y-111301548D01*
X135438410Y-110962513D01*
X135594451Y-110585797D01*
X135674000Y-110185877D01*
X135674000Y-109778123D01*
X135594451Y-109378203D01*
X135438410Y-109001487D01*
X135211874Y-108662452D01*
X134923548Y-108374126D01*
X134859005Y-108331000D01*
X134923548Y-108287874D01*
X135211874Y-107999548D01*
X135438410Y-107660513D01*
X135594451Y-107283797D01*
X135674000Y-106883877D01*
X135674000Y-106476123D01*
X135594451Y-106076203D01*
X135438410Y-105699487D01*
X135211874Y-105360452D01*
X134923548Y-105072126D01*
X134859005Y-105029000D01*
X134923548Y-104985874D01*
X135211874Y-104697548D01*
X135438410Y-104358513D01*
X135594451Y-103981797D01*
X135674000Y-103581877D01*
X135674000Y-103378000D01*
X141683985Y-103378000D01*
X141723952Y-103783791D01*
X141842317Y-104173987D01*
X142034531Y-104533594D01*
X142293207Y-104848793D01*
X142512791Y-105029000D01*
X142293207Y-105209207D01*
X142034531Y-105524406D01*
X141842317Y-105884013D01*
X141723952Y-106274209D01*
X141683985Y-106680000D01*
X141723952Y-107085791D01*
X141842317Y-107475987D01*
X142034531Y-107835594D01*
X142293207Y-108150793D01*
X142512791Y-108331000D01*
X142293207Y-108511207D01*
X142034531Y-108826406D01*
X141842317Y-109186013D01*
X141723952Y-109576209D01*
X141683985Y-109982000D01*
X141723952Y-110387791D01*
X141842317Y-110777987D01*
X142034531Y-111137594D01*
X142293207Y-111452793D01*
X142608406Y-111711469D01*
X142968013Y-111903683D01*
X143358209Y-112022048D01*
X143662316Y-112052000D01*
X143865684Y-112052000D01*
X144169791Y-112022048D01*
X144559987Y-111903683D01*
X144919594Y-111711469D01*
X145234793Y-111452793D01*
X145493469Y-111137594D01*
X145685683Y-110777987D01*
X145804048Y-110387791D01*
X145844015Y-109982000D01*
X145804048Y-109576209D01*
X145685683Y-109186013D01*
X145493469Y-108826406D01*
X145234793Y-108511207D01*
X145015209Y-108331000D01*
X145234793Y-108150793D01*
X145493469Y-107835594D01*
X145656812Y-107530000D01*
X160029855Y-107530000D01*
X160054376Y-107778964D01*
X160126996Y-108018360D01*
X160244924Y-108238988D01*
X160403629Y-108432371D01*
X160597012Y-108591076D01*
X160817640Y-108709004D01*
X161057036Y-108781624D01*
X161306000Y-108806145D01*
X161734500Y-108800000D01*
X162052000Y-108482500D01*
X162052000Y-106934000D01*
X162560000Y-106934000D01*
X162560000Y-108482500D01*
X162877500Y-108800000D01*
X163306000Y-108806145D01*
X163554964Y-108781624D01*
X163794360Y-108709004D01*
X164014988Y-108591076D01*
X164208371Y-108432371D01*
X164367076Y-108238988D01*
X164485004Y-108018360D01*
X164557624Y-107778964D01*
X164582145Y-107530000D01*
X164576000Y-107251500D01*
X164258500Y-106934000D01*
X162560000Y-106934000D01*
X162052000Y-106934000D01*
X160353500Y-106934000D01*
X160036000Y-107251500D01*
X160029855Y-107530000D01*
X145656812Y-107530000D01*
X145685683Y-107475987D01*
X145804048Y-107085791D01*
X145844015Y-106680000D01*
X145804048Y-106274209D01*
X145685683Y-105884013D01*
X145493469Y-105524406D01*
X145234793Y-105209207D01*
X145015209Y-105029000D01*
X145234793Y-104848793D01*
X145493469Y-104533594D01*
X145685683Y-104173987D01*
X145804048Y-103783791D01*
X145844015Y-103378000D01*
X145804048Y-102972209D01*
X145685683Y-102582013D01*
X145493469Y-102222406D01*
X145234793Y-101907207D01*
X144919594Y-101648531D01*
X144559987Y-101456317D01*
X144169791Y-101337952D01*
X143865684Y-101308000D01*
X143662316Y-101308000D01*
X143358209Y-101337952D01*
X142968013Y-101456317D01*
X142608406Y-101648531D01*
X142293207Y-101907207D01*
X142034531Y-102222406D01*
X141842317Y-102582013D01*
X141723952Y-102972209D01*
X141683985Y-103378000D01*
X135674000Y-103378000D01*
X135674000Y-103174123D01*
X135594451Y-102774203D01*
X135438410Y-102397487D01*
X135211874Y-102058452D01*
X134923548Y-101770126D01*
X134584513Y-101543590D01*
X134207797Y-101387549D01*
X133807877Y-101308000D01*
X133400123Y-101308000D01*
X133000203Y-101387549D01*
X132623487Y-101543590D01*
X132284452Y-101770126D01*
X131996126Y-102058452D01*
X131769590Y-102397487D01*
X131613549Y-102774203D01*
X131534000Y-103174123D01*
X131534000Y-103186425D01*
X131500065Y-103108357D01*
X131340938Y-102878923D01*
X131419244Y-102783507D01*
X131616101Y-102415214D01*
X131737325Y-102015593D01*
X131778257Y-101600000D01*
X131737325Y-101184407D01*
X131616101Y-100784786D01*
X131419244Y-100416493D01*
X131348261Y-100330000D01*
X131419244Y-100243507D01*
X131616101Y-99875214D01*
X131737325Y-99475593D01*
X131778257Y-99060000D01*
X131737325Y-98644407D01*
X131616101Y-98244786D01*
X131419244Y-97876493D01*
X131348261Y-97790000D01*
X131419244Y-97703507D01*
X131616101Y-97335214D01*
X131737325Y-96935593D01*
X131778257Y-96520000D01*
X131737325Y-96104407D01*
X131616101Y-95704786D01*
X131419244Y-95336493D01*
X131348261Y-95250000D01*
X131419244Y-95163507D01*
X131616101Y-94795214D01*
X131720820Y-94450000D01*
X133051856Y-94450000D01*
X133051856Y-96050000D01*
X133076377Y-96298963D01*
X133148997Y-96538359D01*
X133266925Y-96758988D01*
X133425630Y-96952370D01*
X133619012Y-97111075D01*
X133839641Y-97229003D01*
X134079037Y-97301623D01*
X134328000Y-97326144D01*
X135928000Y-97326144D01*
X136176963Y-97301623D01*
X136416359Y-97229003D01*
X136636988Y-97111075D01*
X136830370Y-96952370D01*
X136989075Y-96758988D01*
X137040443Y-96662883D01*
X140574327Y-96662883D01*
X140620038Y-97069472D01*
X140994367Y-97231156D01*
X141393046Y-97316704D01*
X141800755Y-97322830D01*
X142201824Y-97249298D01*
X142580842Y-97098934D01*
X142635962Y-97069472D01*
X142681673Y-96662883D01*
X141628000Y-95609210D01*
X140574327Y-96662883D01*
X137040443Y-96662883D01*
X137107003Y-96538359D01*
X137179623Y-96298963D01*
X137204144Y-96050000D01*
X137204144Y-95422755D01*
X139555170Y-95422755D01*
X139628702Y-95823824D01*
X139779066Y-96202842D01*
X139808528Y-96257962D01*
X140215117Y-96303673D01*
X141268790Y-95250000D01*
X141987210Y-95250000D01*
X143040883Y-96303673D01*
X143447472Y-96257962D01*
X143609156Y-95883633D01*
X143694704Y-95484954D01*
X143700830Y-95077245D01*
X143627298Y-94676176D01*
X143476934Y-94297158D01*
X143447472Y-94242038D01*
X143040883Y-94196327D01*
X141987210Y-95250000D01*
X141268790Y-95250000D01*
X140215117Y-94196327D01*
X139808528Y-94242038D01*
X139646844Y-94616367D01*
X139561296Y-95015046D01*
X139555170Y-95422755D01*
X137204144Y-95422755D01*
X137204144Y-94450000D01*
X137179623Y-94201037D01*
X137107003Y-93961641D01*
X137040444Y-93837117D01*
X140574327Y-93837117D01*
X141628000Y-94890790D01*
X142681673Y-93837117D01*
X142635962Y-93430528D01*
X142261633Y-93268844D01*
X141862954Y-93183296D01*
X141455245Y-93177170D01*
X141054176Y-93250702D01*
X140675158Y-93401066D01*
X140620038Y-93430528D01*
X140574327Y-93837117D01*
X137040444Y-93837117D01*
X136989075Y-93741012D01*
X136830370Y-93547630D01*
X136636988Y-93388925D01*
X136416359Y-93270997D01*
X136176963Y-93198377D01*
X135928000Y-93173856D01*
X134328000Y-93173856D01*
X134079037Y-93198377D01*
X133839641Y-93270997D01*
X133619012Y-93388925D01*
X133425630Y-93547630D01*
X133266925Y-93741012D01*
X133148997Y-93961641D01*
X133076377Y-94201037D01*
X133051856Y-94450000D01*
X131720820Y-94450000D01*
X131737325Y-94395593D01*
X131778257Y-93980000D01*
X131737325Y-93564407D01*
X131616101Y-93164786D01*
X131419244Y-92796493D01*
X131348261Y-92710000D01*
X131419244Y-92623507D01*
X131616101Y-92255214D01*
X131737325Y-91855593D01*
X131778257Y-91440000D01*
X131737325Y-91024407D01*
X131616101Y-90624786D01*
X131419244Y-90256493D01*
X131348261Y-90170000D01*
X131419244Y-90083507D01*
X131616101Y-89715214D01*
X131737325Y-89315593D01*
X131778257Y-88900000D01*
X131737325Y-88484407D01*
X131616101Y-88084786D01*
X131419244Y-87716493D01*
X131348261Y-87630000D01*
X131419244Y-87543507D01*
X131616101Y-87175214D01*
X131737325Y-86775593D01*
X131778257Y-86360000D01*
X131737325Y-85944407D01*
X131616101Y-85544786D01*
X131419244Y-85176493D01*
X131348261Y-85090000D01*
X131419244Y-85003507D01*
X131616101Y-84635214D01*
X131737325Y-84235593D01*
X131778257Y-83820000D01*
X131737325Y-83404407D01*
X131670162Y-83183000D01*
X133844174Y-83183000D01*
X133667899Y-83512786D01*
X133546675Y-83912407D01*
X133505743Y-84328000D01*
X133546675Y-84743593D01*
X133667899Y-85143214D01*
X133864756Y-85511507D01*
X133935739Y-85598000D01*
X133864756Y-85684493D01*
X133667899Y-86052786D01*
X133546675Y-86452407D01*
X133505743Y-86868000D01*
X133546675Y-87283593D01*
X133667899Y-87683214D01*
X133864756Y-88051507D01*
X134129681Y-88374319D01*
X134452493Y-88639244D01*
X134820786Y-88836101D01*
X135220407Y-88957325D01*
X135531858Y-88988000D01*
X135740142Y-88988000D01*
X136051593Y-88957325D01*
X136451214Y-88836101D01*
X136819507Y-88639244D01*
X136906000Y-88568261D01*
X136992493Y-88639244D01*
X137360786Y-88836101D01*
X137760407Y-88957325D01*
X138071858Y-88988000D01*
X138280142Y-88988000D01*
X138591593Y-88957325D01*
X138991214Y-88836101D01*
X139133697Y-88759942D01*
X139157012Y-88779076D01*
X139377640Y-88897004D01*
X139617036Y-88969624D01*
X139866000Y-88994145D01*
X140144500Y-88988000D01*
X140462000Y-88670500D01*
X140462000Y-87122000D01*
X140970000Y-87122000D01*
X140970000Y-88670500D01*
X141287500Y-88988000D01*
X141566000Y-88994145D01*
X141814964Y-88969624D01*
X142054360Y-88897004D01*
X142274988Y-88779076D01*
X142468371Y-88620371D01*
X142627076Y-88426988D01*
X142745004Y-88206360D01*
X142817624Y-87966964D01*
X142842145Y-87718000D01*
X142836000Y-87439500D01*
X142569289Y-87172789D01*
X147044400Y-87172789D01*
X147044400Y-88703210D01*
X147075272Y-89016658D01*
X147197273Y-89418843D01*
X147395393Y-89789500D01*
X147417142Y-89816001D01*
X147395394Y-89842500D01*
X147197274Y-90213156D01*
X147075272Y-90615341D01*
X147044400Y-90928789D01*
X147044400Y-92459210D01*
X147075272Y-92772658D01*
X147197273Y-93174843D01*
X147395393Y-93545500D01*
X147662018Y-93870382D01*
X147783000Y-93969670D01*
X147783001Y-101918330D01*
X147662019Y-102017618D01*
X147395394Y-102342500D01*
X147197274Y-102713156D01*
X147075272Y-103115341D01*
X147044400Y-103428789D01*
X147044400Y-104959210D01*
X147075272Y-105272658D01*
X147197273Y-105674843D01*
X147395393Y-106045500D01*
X147662018Y-106370382D01*
X147986900Y-106637007D01*
X148357556Y-106835127D01*
X148759741Y-106957128D01*
X149178000Y-106998323D01*
X149596258Y-106957128D01*
X149998443Y-106835127D01*
X150369100Y-106637007D01*
X150693982Y-106370382D01*
X150960607Y-106045500D01*
X151158727Y-105674844D01*
X151280728Y-105272659D01*
X151311600Y-104959211D01*
X151311600Y-104448000D01*
X152044400Y-104448000D01*
X152044400Y-105108400D01*
X152134949Y-105519764D01*
X152304012Y-105905559D01*
X152545091Y-106250958D01*
X152848922Y-106542688D01*
X153203829Y-106769538D01*
X153595732Y-106907011D01*
X153924000Y-106652650D01*
X153924000Y-104448000D01*
X154432000Y-104448000D01*
X154432000Y-106652650D01*
X154760268Y-106907011D01*
X155152171Y-106769538D01*
X155507078Y-106542688D01*
X155810909Y-106250958D01*
X156051988Y-105905559D01*
X156221051Y-105519764D01*
X156311600Y-105108400D01*
X156311600Y-104448000D01*
X154432000Y-104448000D01*
X153924000Y-104448000D01*
X152044400Y-104448000D01*
X151311600Y-104448000D01*
X151311600Y-104180000D01*
X160025743Y-104180000D01*
X160066675Y-104595593D01*
X160187899Y-104995214D01*
X160251110Y-105113474D01*
X160244924Y-105121012D01*
X160126996Y-105341640D01*
X160054376Y-105581036D01*
X160029855Y-105830000D01*
X160036000Y-106108500D01*
X160353500Y-106426000D01*
X162052000Y-106426000D01*
X162052000Y-106406000D01*
X162560000Y-106406000D01*
X162560000Y-106426000D01*
X164258500Y-106426000D01*
X164576000Y-106108500D01*
X164582145Y-105830000D01*
X164557624Y-105581036D01*
X164485004Y-105341640D01*
X164367076Y-105121012D01*
X164360890Y-105113474D01*
X164424101Y-104995214D01*
X164545325Y-104595593D01*
X164586257Y-104180000D01*
X164545325Y-103764407D01*
X164424101Y-103364786D01*
X164227244Y-102996493D01*
X163962319Y-102673681D01*
X163639507Y-102408756D01*
X163271214Y-102211899D01*
X162871593Y-102090675D01*
X162560142Y-102060000D01*
X162051858Y-102060000D01*
X161740407Y-102090675D01*
X161340786Y-102211899D01*
X160972493Y-102408756D01*
X160649681Y-102673681D01*
X160384756Y-102996493D01*
X160187899Y-103364786D01*
X160066675Y-103764407D01*
X160025743Y-104180000D01*
X151311600Y-104180000D01*
X151311600Y-103428790D01*
X151296907Y-103279600D01*
X152044400Y-103279600D01*
X152044400Y-103940000D01*
X153924000Y-103940000D01*
X153924000Y-101735350D01*
X154432000Y-101735350D01*
X154432000Y-103940000D01*
X156311600Y-103940000D01*
X156311600Y-103279600D01*
X156221051Y-102868236D01*
X156051988Y-102482441D01*
X155810909Y-102137042D01*
X155507078Y-101845312D01*
X155152171Y-101618462D01*
X154760268Y-101480989D01*
X154432000Y-101735350D01*
X153924000Y-101735350D01*
X153595732Y-101480989D01*
X153203829Y-101618462D01*
X152848922Y-101845312D01*
X152545091Y-102137042D01*
X152304012Y-102482441D01*
X152134949Y-102868236D01*
X152044400Y-103279600D01*
X151296907Y-103279600D01*
X151280728Y-103115342D01*
X151158727Y-102713156D01*
X150960607Y-102342500D01*
X150693982Y-102017618D01*
X150573000Y-101918330D01*
X150573000Y-98894000D01*
X160029855Y-98894000D01*
X160054376Y-99142964D01*
X160126996Y-99382360D01*
X160244924Y-99602988D01*
X160403629Y-99796371D01*
X160597012Y-99955076D01*
X160817640Y-100073004D01*
X161057036Y-100145624D01*
X161306000Y-100170145D01*
X161734500Y-100164000D01*
X162052000Y-99846500D01*
X162052000Y-98298000D01*
X162560000Y-98298000D01*
X162560000Y-99846500D01*
X162877500Y-100164000D01*
X163306000Y-100170145D01*
X163554964Y-100145624D01*
X163794360Y-100073004D01*
X164014988Y-99955076D01*
X164208371Y-99796371D01*
X164367076Y-99602988D01*
X164485004Y-99382360D01*
X164557624Y-99142964D01*
X164582145Y-98894000D01*
X164576000Y-98615500D01*
X164258500Y-98298000D01*
X162560000Y-98298000D01*
X162052000Y-98298000D01*
X160353500Y-98298000D01*
X160036000Y-98615500D01*
X160029855Y-98894000D01*
X150573000Y-98894000D01*
X150573000Y-95544000D01*
X160025743Y-95544000D01*
X160066675Y-95959593D01*
X160187899Y-96359214D01*
X160251110Y-96477474D01*
X160244924Y-96485012D01*
X160126996Y-96705640D01*
X160054376Y-96945036D01*
X160029855Y-97194000D01*
X160036000Y-97472500D01*
X160353500Y-97790000D01*
X162052000Y-97790000D01*
X162052000Y-97770000D01*
X162560000Y-97770000D01*
X162560000Y-97790000D01*
X164258500Y-97790000D01*
X164576000Y-97472500D01*
X164582145Y-97194000D01*
X164557624Y-96945036D01*
X164485004Y-96705640D01*
X164367076Y-96485012D01*
X164360890Y-96477474D01*
X164424101Y-96359214D01*
X164545325Y-95959593D01*
X164586257Y-95544000D01*
X164545325Y-95128407D01*
X164424101Y-94728786D01*
X164227244Y-94360493D01*
X163962319Y-94037681D01*
X163639507Y-93772756D01*
X163271214Y-93575899D01*
X162871593Y-93454675D01*
X162560142Y-93424000D01*
X162051858Y-93424000D01*
X161740407Y-93454675D01*
X161340786Y-93575899D01*
X160972493Y-93772756D01*
X160649681Y-94037681D01*
X160384756Y-94360493D01*
X160187899Y-94728786D01*
X160066675Y-95128407D01*
X160025743Y-95544000D01*
X150573000Y-95544000D01*
X150573000Y-93969670D01*
X150693982Y-93870382D01*
X150960607Y-93545500D01*
X151158727Y-93174844D01*
X151280728Y-92772659D01*
X151311600Y-92459211D01*
X151311600Y-91948000D01*
X152044400Y-91948000D01*
X152044400Y-92608400D01*
X152134949Y-93019764D01*
X152304012Y-93405559D01*
X152545091Y-93750958D01*
X152848922Y-94042688D01*
X153203829Y-94269538D01*
X153595732Y-94407011D01*
X153924000Y-94152650D01*
X153924000Y-91948000D01*
X154432000Y-91948000D01*
X154432000Y-94152650D01*
X154760268Y-94407011D01*
X155152171Y-94269538D01*
X155507078Y-94042688D01*
X155810909Y-93750958D01*
X156051988Y-93405559D01*
X156221051Y-93019764D01*
X156311600Y-92608400D01*
X156311600Y-91948000D01*
X154432000Y-91948000D01*
X153924000Y-91948000D01*
X152044400Y-91948000D01*
X151311600Y-91948000D01*
X151311600Y-90928790D01*
X151280728Y-90615342D01*
X151158727Y-90213156D01*
X150960607Y-89842500D01*
X150938859Y-89816000D01*
X150960607Y-89789500D01*
X151158727Y-89418844D01*
X151280728Y-89016659D01*
X151311600Y-88703211D01*
X151311600Y-88192000D01*
X152044400Y-88192000D01*
X152044400Y-88852400D01*
X152134949Y-89263764D01*
X152304012Y-89649559D01*
X152420183Y-89816000D01*
X152304012Y-89982441D01*
X152134949Y-90368236D01*
X152044400Y-90779600D01*
X152044400Y-91440000D01*
X153924000Y-91440000D01*
X153924000Y-88192000D01*
X154432000Y-88192000D01*
X154432000Y-91440000D01*
X156311600Y-91440000D01*
X156311600Y-90779600D01*
X156221051Y-90368236D01*
X156172744Y-90258000D01*
X160029855Y-90258000D01*
X160054376Y-90506964D01*
X160126996Y-90746360D01*
X160244924Y-90966988D01*
X160403629Y-91160371D01*
X160597012Y-91319076D01*
X160817640Y-91437004D01*
X161057036Y-91509624D01*
X161306000Y-91534145D01*
X161734500Y-91528000D01*
X162052000Y-91210500D01*
X162052000Y-89662000D01*
X162560000Y-89662000D01*
X162560000Y-91210500D01*
X162877500Y-91528000D01*
X163306000Y-91534145D01*
X163554964Y-91509624D01*
X163794360Y-91437004D01*
X164014988Y-91319076D01*
X164208371Y-91160371D01*
X164367076Y-90966988D01*
X164485004Y-90746360D01*
X164557624Y-90506964D01*
X164582145Y-90258000D01*
X164576000Y-89979500D01*
X164258500Y-89662000D01*
X162560000Y-89662000D01*
X162052000Y-89662000D01*
X160353500Y-89662000D01*
X160036000Y-89979500D01*
X160029855Y-90258000D01*
X156172744Y-90258000D01*
X156051988Y-89982441D01*
X155935817Y-89816000D01*
X156051988Y-89649559D01*
X156221051Y-89263764D01*
X156311600Y-88852400D01*
X156311600Y-88192000D01*
X154432000Y-88192000D01*
X153924000Y-88192000D01*
X152044400Y-88192000D01*
X151311600Y-88192000D01*
X151311600Y-87172790D01*
X151296907Y-87023600D01*
X152044400Y-87023600D01*
X152044400Y-87684000D01*
X153924000Y-87684000D01*
X153924000Y-85479350D01*
X154432000Y-85479350D01*
X154432000Y-87684000D01*
X156311600Y-87684000D01*
X156311600Y-87023600D01*
X156286155Y-86908000D01*
X160025743Y-86908000D01*
X160066675Y-87323593D01*
X160187899Y-87723214D01*
X160251110Y-87841474D01*
X160244924Y-87849012D01*
X160126996Y-88069640D01*
X160054376Y-88309036D01*
X160029855Y-88558000D01*
X160036000Y-88836500D01*
X160353500Y-89154000D01*
X162052000Y-89154000D01*
X162052000Y-89134000D01*
X162560000Y-89134000D01*
X162560000Y-89154000D01*
X164258500Y-89154000D01*
X164576000Y-88836500D01*
X164582145Y-88558000D01*
X164557624Y-88309036D01*
X164485004Y-88069640D01*
X164367076Y-87849012D01*
X164360890Y-87841474D01*
X164424101Y-87723214D01*
X164545325Y-87323593D01*
X164586257Y-86908000D01*
X164545325Y-86492407D01*
X164424101Y-86092786D01*
X164227244Y-85724493D01*
X163962319Y-85401681D01*
X163639507Y-85136756D01*
X163271214Y-84939899D01*
X162871593Y-84818675D01*
X162560142Y-84788000D01*
X162051858Y-84788000D01*
X161740407Y-84818675D01*
X161340786Y-84939899D01*
X160972493Y-85136756D01*
X160649681Y-85401681D01*
X160384756Y-85724493D01*
X160187899Y-86092786D01*
X160066675Y-86492407D01*
X160025743Y-86908000D01*
X156286155Y-86908000D01*
X156221051Y-86612236D01*
X156051988Y-86226441D01*
X155810909Y-85881042D01*
X155507078Y-85589312D01*
X155152171Y-85362462D01*
X154760268Y-85224989D01*
X154432000Y-85479350D01*
X153924000Y-85479350D01*
X153595732Y-85224989D01*
X153203829Y-85362462D01*
X152848922Y-85589312D01*
X152545091Y-85881042D01*
X152304012Y-86226441D01*
X152134949Y-86612236D01*
X152044400Y-87023600D01*
X151296907Y-87023600D01*
X151280728Y-86859342D01*
X151158727Y-86457156D01*
X150960607Y-86086500D01*
X150693982Y-85761618D01*
X150369100Y-85494993D01*
X149998444Y-85296873D01*
X149596259Y-85174872D01*
X149178000Y-85133677D01*
X148759742Y-85174872D01*
X148357557Y-85296873D01*
X147986901Y-85494993D01*
X147662019Y-85761618D01*
X147395394Y-86086500D01*
X147197274Y-86457156D01*
X147075272Y-86859341D01*
X147044400Y-87172789D01*
X142569289Y-87172789D01*
X142518500Y-87122000D01*
X140970000Y-87122000D01*
X140462000Y-87122000D01*
X140442000Y-87122000D01*
X140442000Y-86614000D01*
X140462000Y-86614000D01*
X140462000Y-84582000D01*
X140970000Y-84582000D01*
X140970000Y-86614000D01*
X142518500Y-86614000D01*
X142836000Y-86296500D01*
X142842145Y-86018000D01*
X142817624Y-85769036D01*
X142765741Y-85598000D01*
X142817624Y-85426964D01*
X142842145Y-85178000D01*
X142836000Y-84899500D01*
X142518500Y-84582000D01*
X140970000Y-84582000D01*
X140462000Y-84582000D01*
X140442000Y-84582000D01*
X140442000Y-84074000D01*
X140462000Y-84074000D01*
X140462000Y-84054000D01*
X140970000Y-84054000D01*
X140970000Y-84074000D01*
X142518500Y-84074000D01*
X142836000Y-83756500D01*
X142842145Y-83478000D01*
X142817624Y-83229036D01*
X142745004Y-82989640D01*
X142627076Y-82769012D01*
X142468371Y-82575629D01*
X142296362Y-82434465D01*
X142904827Y-81826000D01*
X143103684Y-81826000D01*
X143407791Y-81796048D01*
X143797987Y-81677683D01*
X144157594Y-81485469D01*
X144472793Y-81226793D01*
X144731469Y-80911594D01*
X144923683Y-80551987D01*
X145042048Y-80161791D01*
X145082015Y-79756000D01*
X145042048Y-79350209D01*
X144923683Y-78960013D01*
X144731469Y-78600406D01*
X144472793Y-78285207D01*
X144157594Y-78026531D01*
X143829199Y-77851000D01*
X144157594Y-77675469D01*
X144472793Y-77416793D01*
X144731469Y-77101594D01*
X144923683Y-76741987D01*
X145042048Y-76351791D01*
X145082015Y-75946000D01*
X145042048Y-75540209D01*
X144923683Y-75150013D01*
X144731469Y-74790406D01*
X144634944Y-74672789D01*
X147044400Y-74672789D01*
X147044400Y-76203210D01*
X147075272Y-76516658D01*
X147197273Y-76918843D01*
X147395393Y-77289500D01*
X147662018Y-77614382D01*
X147986900Y-77881007D01*
X148357556Y-78079127D01*
X148759741Y-78201128D01*
X149178000Y-78242323D01*
X149596258Y-78201128D01*
X149998443Y-78079127D01*
X150369100Y-77881007D01*
X150693982Y-77614382D01*
X150960607Y-77289500D01*
X151158727Y-76918844D01*
X151280728Y-76516659D01*
X151311600Y-76203211D01*
X151311600Y-75692000D01*
X152044400Y-75692000D01*
X152044400Y-76352400D01*
X152134949Y-76763764D01*
X152304012Y-77149559D01*
X152545091Y-77494958D01*
X152848922Y-77786688D01*
X153203829Y-78013538D01*
X153595732Y-78151011D01*
X153924000Y-77896650D01*
X153924000Y-75692000D01*
X154432000Y-75692000D01*
X154432000Y-77896650D01*
X154760268Y-78151011D01*
X155152171Y-78013538D01*
X155507078Y-77786688D01*
X155810909Y-77494958D01*
X156051988Y-77149559D01*
X156221051Y-76763764D01*
X156311600Y-76352400D01*
X156311600Y-75692000D01*
X154432000Y-75692000D01*
X153924000Y-75692000D01*
X152044400Y-75692000D01*
X151311600Y-75692000D01*
X151311600Y-74672790D01*
X151296907Y-74523600D01*
X152044400Y-74523600D01*
X152044400Y-75184000D01*
X153924000Y-75184000D01*
X153924000Y-75164000D01*
X154432000Y-75164000D01*
X154432000Y-75184000D01*
X156311600Y-75184000D01*
X156311600Y-75135000D01*
X160322799Y-75135000D01*
X160355526Y-75467278D01*
X160452447Y-75786787D01*
X160609840Y-76081248D01*
X160821655Y-76339345D01*
X161079752Y-76551160D01*
X161088162Y-76555655D01*
X160841153Y-76550913D01*
X160701700Y-76853198D01*
X160623900Y-77176880D01*
X160610741Y-77509521D01*
X160662731Y-77838337D01*
X160745172Y-78061989D01*
X160680946Y-78217045D01*
X160616000Y-78543550D01*
X160616000Y-78876450D01*
X160679092Y-79193633D01*
X160634377Y-79341037D01*
X160609856Y-79590000D01*
X160609856Y-80430000D01*
X160634377Y-80678963D01*
X160706997Y-80918359D01*
X160804753Y-81101250D01*
X160609840Y-81338752D01*
X160452447Y-81633213D01*
X160355526Y-81952722D01*
X160322799Y-82285000D01*
X160355526Y-82617278D01*
X160452447Y-82936787D01*
X160609840Y-83231248D01*
X160821655Y-83489345D01*
X161079752Y-83701160D01*
X161374213Y-83858553D01*
X161693722Y-83955474D01*
X161942735Y-83980000D01*
X163109265Y-83980000D01*
X163358278Y-83955474D01*
X163677787Y-83858553D01*
X163972248Y-83701160D01*
X164230345Y-83489345D01*
X164442160Y-83231248D01*
X164599553Y-82936787D01*
X164696474Y-82617278D01*
X164729201Y-82285000D01*
X164696474Y-81952722D01*
X164599553Y-81633213D01*
X164442160Y-81338752D01*
X164230345Y-81080655D01*
X164008230Y-80898369D01*
X164106515Y-80857658D01*
X164383312Y-80672709D01*
X164618709Y-80437312D01*
X164803658Y-80160515D01*
X164931054Y-79852955D01*
X164996000Y-79526450D01*
X164996000Y-79193550D01*
X164931054Y-78867045D01*
X164866004Y-78710000D01*
X164931054Y-78552955D01*
X164996000Y-78226450D01*
X164996000Y-77893550D01*
X164931054Y-77567045D01*
X164803658Y-77259485D01*
X164618709Y-76982688D01*
X164383312Y-76747291D01*
X164106515Y-76562342D01*
X164008230Y-76521631D01*
X164230345Y-76339345D01*
X164442160Y-76081248D01*
X164599553Y-75786787D01*
X164696474Y-75467278D01*
X164729201Y-75135000D01*
X164696474Y-74802722D01*
X164599553Y-74483213D01*
X164442160Y-74188752D01*
X164230345Y-73930655D01*
X163972248Y-73718840D01*
X163677787Y-73561447D01*
X163358278Y-73464526D01*
X163109265Y-73440000D01*
X161942735Y-73440000D01*
X161693722Y-73464526D01*
X161374213Y-73561447D01*
X161079752Y-73718840D01*
X160821655Y-73930655D01*
X160609840Y-74188752D01*
X160452447Y-74483213D01*
X160355526Y-74802722D01*
X160322799Y-75135000D01*
X156311600Y-75135000D01*
X156311600Y-74523600D01*
X156248610Y-74237438D01*
X156371593Y-74225325D01*
X156771214Y-74104101D01*
X157139507Y-73907244D01*
X157462319Y-73642319D01*
X157727244Y-73319507D01*
X157924101Y-72951214D01*
X158045325Y-72551593D01*
X158086257Y-72136000D01*
X158045325Y-71720407D01*
X157924101Y-71320786D01*
X157847942Y-71178302D01*
X157867075Y-71154988D01*
X157985003Y-70934359D01*
X158057623Y-70694963D01*
X158082144Y-70446000D01*
X158082144Y-70109802D01*
X159024000Y-70109802D01*
X159024000Y-70606198D01*
X159120842Y-71093057D01*
X159310805Y-71551668D01*
X159586588Y-71964406D01*
X159937594Y-72315412D01*
X160350332Y-72591195D01*
X160808943Y-72781158D01*
X161295802Y-72878000D01*
X161792198Y-72878000D01*
X162279057Y-72781158D01*
X162737668Y-72591195D01*
X163150406Y-72315412D01*
X163501412Y-71964406D01*
X163777195Y-71551668D01*
X163967158Y-71093057D01*
X164064000Y-70606198D01*
X164064000Y-70109802D01*
X163967158Y-69622943D01*
X163777195Y-69164332D01*
X163501412Y-68751594D01*
X163150406Y-68400588D01*
X162737668Y-68124805D01*
X162279057Y-67934842D01*
X161792198Y-67838000D01*
X161295802Y-67838000D01*
X160808943Y-67934842D01*
X160350332Y-68124805D01*
X159937594Y-68400588D01*
X159586588Y-68751594D01*
X159310805Y-69164332D01*
X159120842Y-69622943D01*
X159024000Y-70109802D01*
X158082144Y-70109802D01*
X158082144Y-68746000D01*
X158057623Y-68497037D01*
X157985003Y-68257641D01*
X157867075Y-68037012D01*
X157708370Y-67843630D01*
X157514988Y-67684925D01*
X157294359Y-67566997D01*
X157054963Y-67494377D01*
X156806000Y-67469856D01*
X155106000Y-67469856D01*
X154857037Y-67494377D01*
X154617641Y-67566997D01*
X154397012Y-67684925D01*
X154203630Y-67843630D01*
X154044925Y-68037012D01*
X153926997Y-68257641D01*
X153854377Y-68497037D01*
X153829856Y-68746000D01*
X153829856Y-70446000D01*
X153854377Y-70694963D01*
X153926997Y-70934359D01*
X154044925Y-71154988D01*
X154064058Y-71178302D01*
X153987899Y-71320786D01*
X153866675Y-71720407D01*
X153825743Y-72136000D01*
X153866675Y-72551593D01*
X153923998Y-72740561D01*
X153923998Y-72979348D01*
X153595732Y-72724989D01*
X153203829Y-72862462D01*
X152848922Y-73089312D01*
X152545091Y-73381042D01*
X152304012Y-73726441D01*
X152134949Y-74112236D01*
X152044400Y-74523600D01*
X151296907Y-74523600D01*
X151280728Y-74359342D01*
X151158727Y-73957156D01*
X150960607Y-73586500D01*
X150693982Y-73261618D01*
X150369100Y-72994993D01*
X149998444Y-72796873D01*
X149596259Y-72674872D01*
X149178000Y-72633677D01*
X148759742Y-72674872D01*
X148357557Y-72796873D01*
X147986901Y-72994993D01*
X147662019Y-73261618D01*
X147395394Y-73586500D01*
X147197274Y-73957156D01*
X147075272Y-74359341D01*
X147044400Y-74672789D01*
X144634944Y-74672789D01*
X144472793Y-74475207D01*
X144299721Y-74333171D01*
X144421512Y-74184770D01*
X144551047Y-73942426D01*
X144630815Y-73679468D01*
X144651000Y-73474524D01*
X144651000Y-73474515D01*
X144657748Y-73406001D01*
X144651000Y-73337487D01*
X144651000Y-72800154D01*
X144735934Y-72673041D01*
X144861822Y-72369121D01*
X144926000Y-72046481D01*
X144926000Y-71717519D01*
X144861822Y-71394879D01*
X144735934Y-71090959D01*
X144553173Y-70817437D01*
X144320563Y-70584827D01*
X144047041Y-70402066D01*
X143743121Y-70276178D01*
X143420481Y-70212000D01*
X143091519Y-70212000D01*
X142768879Y-70276178D01*
X142588144Y-70351041D01*
X142588144Y-69596000D01*
X144173743Y-69596000D01*
X144214675Y-70011593D01*
X144335899Y-70411214D01*
X144532756Y-70779507D01*
X144797681Y-71102319D01*
X145120493Y-71367244D01*
X145488786Y-71564101D01*
X145888407Y-71685325D01*
X146199858Y-71716000D01*
X146408142Y-71716000D01*
X146719593Y-71685325D01*
X147119214Y-71564101D01*
X147487507Y-71367244D01*
X147574000Y-71296261D01*
X147660493Y-71367244D01*
X148028786Y-71564101D01*
X148428407Y-71685325D01*
X148739858Y-71716000D01*
X148948142Y-71716000D01*
X149259593Y-71685325D01*
X149659214Y-71564101D01*
X149801697Y-71487942D01*
X149825012Y-71507076D01*
X150045640Y-71625004D01*
X150285036Y-71697624D01*
X150534000Y-71722145D01*
X150812500Y-71716000D01*
X151130000Y-71398500D01*
X151130000Y-69850000D01*
X151638000Y-69850000D01*
X151638000Y-71398500D01*
X151955500Y-71716000D01*
X152234000Y-71722145D01*
X152482964Y-71697624D01*
X152722360Y-71625004D01*
X152942988Y-71507076D01*
X153136371Y-71348371D01*
X153295076Y-71154988D01*
X153413004Y-70934360D01*
X153485624Y-70694964D01*
X153510145Y-70446000D01*
X153504000Y-70167500D01*
X153186500Y-69850000D01*
X151638000Y-69850000D01*
X151130000Y-69850000D01*
X151110000Y-69850000D01*
X151110000Y-69342000D01*
X151130000Y-69342000D01*
X151130000Y-67793500D01*
X151638000Y-67793500D01*
X151638000Y-69342000D01*
X153186500Y-69342000D01*
X153504000Y-69024500D01*
X153510145Y-68746000D01*
X153485624Y-68497036D01*
X153413004Y-68257640D01*
X153295076Y-68037012D01*
X153136371Y-67843629D01*
X152942988Y-67684924D01*
X152722360Y-67566996D01*
X152482964Y-67494376D01*
X152234000Y-67469855D01*
X151955500Y-67476000D01*
X151638000Y-67793500D01*
X151130000Y-67793500D01*
X150812500Y-67476000D01*
X150534000Y-67469855D01*
X150285036Y-67494376D01*
X150045640Y-67566996D01*
X149825012Y-67684924D01*
X149801697Y-67704058D01*
X149659214Y-67627899D01*
X149259593Y-67506675D01*
X148948142Y-67476000D01*
X148739858Y-67476000D01*
X148428407Y-67506675D01*
X148028786Y-67627899D01*
X147660493Y-67824756D01*
X147574000Y-67895739D01*
X147487507Y-67824756D01*
X147119214Y-67627899D01*
X146719593Y-67506675D01*
X146408142Y-67476000D01*
X146199858Y-67476000D01*
X145888407Y-67506675D01*
X145488786Y-67627899D01*
X145120493Y-67824756D01*
X144797681Y-68089681D01*
X144532756Y-68412493D01*
X144335899Y-68780786D01*
X144214675Y-69180407D01*
X144173743Y-69596000D01*
X142588144Y-69596000D01*
X142588144Y-68746000D01*
X142563623Y-68497037D01*
X142491003Y-68257641D01*
X142373075Y-68037012D01*
X142214370Y-67843630D01*
X142020988Y-67684925D01*
X141800359Y-67566997D01*
X141560963Y-67494377D01*
X141312000Y-67469856D01*
X139612000Y-67469856D01*
X139363037Y-67494377D01*
X139123641Y-67566997D01*
X138903012Y-67684925D01*
X138873537Y-67709114D01*
X138572500Y-67578258D01*
X138502125Y-67556918D01*
X138176000Y-67811486D01*
X138176000Y-69342000D01*
X138196000Y-69342000D01*
X138196000Y-69850000D01*
X138176000Y-69850000D01*
X138176000Y-71882000D01*
X138196000Y-71882000D01*
X138196000Y-72390000D01*
X138176000Y-72390000D01*
X138176000Y-72410000D01*
X137668000Y-72410000D01*
X137668000Y-72390000D01*
X137648000Y-72390000D01*
X137648000Y-71882000D01*
X137668000Y-71882000D01*
X137668000Y-69850000D01*
X137648000Y-69850000D01*
X137648000Y-69342000D01*
X137668000Y-69342000D01*
X137668000Y-67811486D01*
X137341875Y-67556918D01*
X137271500Y-67578258D01*
X136890357Y-67743935D01*
X136660923Y-67903062D01*
X136565507Y-67824756D01*
X136197214Y-67627899D01*
X135797593Y-67506675D01*
X135486142Y-67476000D01*
X135277858Y-67476000D01*
X134966407Y-67506675D01*
X134566786Y-67627899D01*
X134198493Y-67824756D01*
X133875681Y-68089681D01*
X133610756Y-68412493D01*
X133413899Y-68780786D01*
X133292675Y-69180407D01*
X133251743Y-69596000D01*
X133292675Y-70011593D01*
X133413899Y-70411214D01*
X133610756Y-70779507D01*
X133681739Y-70866000D01*
X133610756Y-70952493D01*
X133413899Y-71320786D01*
X133292675Y-71720407D01*
X133251743Y-72136000D01*
X133289465Y-72519000D01*
X132002513Y-72519000D01*
X131933999Y-72512252D01*
X131865485Y-72519000D01*
X131865476Y-72519000D01*
X131660532Y-72539185D01*
X131628628Y-72548863D01*
X131677003Y-72458359D01*
X131749623Y-72218963D01*
X131774144Y-71970000D01*
X131774144Y-70270000D01*
X131749623Y-70021037D01*
X131677003Y-69781641D01*
X131559075Y-69561012D01*
X131400370Y-69367630D01*
X131206988Y-69208925D01*
X130986359Y-69090997D01*
X130746963Y-69018377D01*
X130498000Y-68993856D01*
X128798000Y-68993856D01*
X128549037Y-69018377D01*
X128309641Y-69090997D01*
X128089012Y-69208925D01*
X127895630Y-69367630D01*
X127736925Y-69561012D01*
X127618997Y-69781641D01*
X127546377Y-70021037D01*
X127537694Y-70109194D01*
X127278500Y-69850000D01*
X125730000Y-69850000D01*
X125730000Y-69870000D01*
X125222000Y-69870000D01*
X125222000Y-69850000D01*
X125202000Y-69850000D01*
X125202000Y-69342000D01*
X125222000Y-69342000D01*
X125222000Y-69322000D01*
X125730000Y-69322000D01*
X125730000Y-69342000D01*
X127278500Y-69342000D01*
X127596000Y-69024500D01*
X127597533Y-68955000D01*
X131027837Y-68955000D01*
X131153519Y-68980000D01*
X131482481Y-68980000D01*
X131805121Y-68915822D01*
X132109041Y-68789934D01*
X132382563Y-68607173D01*
X132615173Y-68374563D01*
X132797934Y-68101041D01*
X132923822Y-67797121D01*
X132988000Y-67474481D01*
X132988000Y-67335000D01*
X165583000Y-67335000D01*
X165583001Y-111518135D01*
G36*
X127517743Y-83820000D02*
G01*
X127558675Y-84235593D01*
X127679899Y-84635214D01*
X127876756Y-85003507D01*
X127947739Y-85090000D01*
X127876756Y-85176493D01*
X127679899Y-85544786D01*
X127558675Y-85944407D01*
X127517743Y-86360000D01*
X127558675Y-86775593D01*
X127679899Y-87175214D01*
X127876756Y-87543507D01*
X127947739Y-87630000D01*
X127876756Y-87716493D01*
X127679899Y-88084786D01*
X127558675Y-88484407D01*
X127541420Y-88659603D01*
X127444101Y-88338786D01*
X127247244Y-87970493D01*
X126982319Y-87647681D01*
X126659507Y-87382756D01*
X126291214Y-87185899D01*
X125891593Y-87064675D01*
X125580142Y-87034000D01*
X125371858Y-87034000D01*
X125060407Y-87064675D01*
X124660786Y-87185899D01*
X124292493Y-87382756D01*
X124206000Y-87453739D01*
X124119507Y-87382756D01*
X123751214Y-87185899D01*
X123351593Y-87064675D01*
X123040142Y-87034000D01*
X122831858Y-87034000D01*
X122520407Y-87064675D01*
X122120786Y-87185899D01*
X121752493Y-87382756D01*
X121657077Y-87461062D01*
X121427643Y-87301935D01*
X121046500Y-87136258D01*
X120976125Y-87114918D01*
X120650000Y-87369486D01*
X120650000Y-88900000D01*
X120670000Y-88900000D01*
X120670000Y-89408000D01*
X120650000Y-89408000D01*
X120650000Y-90938514D01*
X120976125Y-91193082D01*
X121046500Y-91171742D01*
X121427643Y-91006065D01*
X121657077Y-90846938D01*
X121752493Y-90925244D01*
X122120786Y-91122101D01*
X122520407Y-91243325D01*
X122831858Y-91274000D01*
X123040142Y-91274000D01*
X123351593Y-91243325D01*
X123751214Y-91122101D01*
X124119507Y-90925244D01*
X124206000Y-90854261D01*
X124292493Y-90925244D01*
X124660786Y-91122101D01*
X125060407Y-91243325D01*
X125371858Y-91274000D01*
X125580142Y-91274000D01*
X125891593Y-91243325D01*
X126291214Y-91122101D01*
X126659507Y-90925244D01*
X126982319Y-90660319D01*
X127247244Y-90337507D01*
X127444101Y-89969214D01*
X127565325Y-89569593D01*
X127582580Y-89394397D01*
X127679899Y-89715214D01*
X127876756Y-90083507D01*
X127947739Y-90170000D01*
X127876756Y-90256493D01*
X127679899Y-90624786D01*
X127558675Y-91024407D01*
X127517743Y-91440000D01*
X127558675Y-91855593D01*
X127679899Y-92255214D01*
X127876756Y-92623507D01*
X127947739Y-92710000D01*
X127876756Y-92796493D01*
X127679899Y-93164786D01*
X127558675Y-93564407D01*
X127517743Y-93980000D01*
X127558675Y-94395593D01*
X127679899Y-94795214D01*
X127876756Y-95163507D01*
X127947739Y-95250000D01*
X127876756Y-95336493D01*
X127679899Y-95704786D01*
X127558675Y-96104407D01*
X127517743Y-96520000D01*
X127558675Y-96935593D01*
X127679899Y-97335214D01*
X127876756Y-97703507D01*
X127947739Y-97790000D01*
X127876756Y-97876493D01*
X127679899Y-98244786D01*
X127558675Y-98644407D01*
X127517743Y-99060000D01*
X127558675Y-99475593D01*
X127679899Y-99875214D01*
X127876756Y-100243507D01*
X127947739Y-100330000D01*
X127876756Y-100416493D01*
X127679899Y-100784786D01*
X127558675Y-101184407D01*
X127517743Y-101600000D01*
X127558675Y-102015593D01*
X127679899Y-102415214D01*
X127876756Y-102783507D01*
X127955062Y-102878923D01*
X127795935Y-103108357D01*
X127630258Y-103489500D01*
X127608918Y-103559875D01*
X127863486Y-103886000D01*
X129394000Y-103886000D01*
X129394000Y-103866000D01*
X129902000Y-103866000D01*
X129902000Y-103886000D01*
X129922000Y-103886000D01*
X129922000Y-104394000D01*
X129902000Y-104394000D01*
X129902000Y-104414000D01*
X129394000Y-104414000D01*
X129394000Y-104394000D01*
X127863486Y-104394000D01*
X127608918Y-104720125D01*
X127630258Y-104790500D01*
X127795935Y-105171643D01*
X127955062Y-105401077D01*
X127876756Y-105496493D01*
X127679899Y-105864786D01*
X127558675Y-106264407D01*
X127517743Y-106680000D01*
X127558675Y-107095593D01*
X127679899Y-107495214D01*
X127876756Y-107863507D01*
X127947739Y-107950000D01*
X127876756Y-108036493D01*
X127679899Y-108404786D01*
X127558675Y-108804407D01*
X127517743Y-109220000D01*
X127558675Y-109635593D01*
X127679899Y-110035214D01*
X127876756Y-110403507D01*
X127947739Y-110490000D01*
X127876756Y-110576493D01*
X127790544Y-110737783D01*
X127591874Y-110440452D01*
X127303548Y-110152126D01*
X126964513Y-109925590D01*
X126587797Y-109769549D01*
X126187877Y-109690000D01*
X125780123Y-109690000D01*
X125380203Y-109769549D01*
X125003487Y-109925590D01*
X124664452Y-110152126D01*
X124376126Y-110440452D01*
X124149590Y-110779487D01*
X123993549Y-111156203D01*
X123914000Y-111556123D01*
X123914000Y-111963877D01*
X123993549Y-112363797D01*
X124149590Y-112740513D01*
X124376126Y-113079548D01*
X124664452Y-113367874D01*
X125003487Y-113594410D01*
X125380203Y-113750451D01*
X125780123Y-113830000D01*
X126187877Y-113830000D01*
X126587797Y-113750451D01*
X126964513Y-113594410D01*
X127303548Y-113367874D01*
X127591874Y-113079548D01*
X127790544Y-112782217D01*
X127876756Y-112943507D01*
X127947739Y-113030000D01*
X127876756Y-113116493D01*
X127679899Y-113484786D01*
X127558675Y-113884407D01*
X127517743Y-114300000D01*
X127558675Y-114715593D01*
X127679899Y-115115214D01*
X127876756Y-115483507D01*
X127947739Y-115570000D01*
X127876756Y-115656493D01*
X127679899Y-116024786D01*
X127651649Y-116117912D01*
X127591874Y-116028452D01*
X127303548Y-115740126D01*
X126964513Y-115513590D01*
X126587797Y-115357549D01*
X126187877Y-115278000D01*
X125780123Y-115278000D01*
X125380203Y-115357549D01*
X125003487Y-115513590D01*
X124664452Y-115740126D01*
X124376126Y-116028452D01*
X124149590Y-116367487D01*
X123993549Y-116744203D01*
X123914000Y-117144123D01*
X123914000Y-117551877D01*
X123993549Y-117951797D01*
X124048724Y-118085000D01*
X117763577Y-118085000D01*
X117864048Y-117753791D01*
X117904015Y-117348000D01*
X117864048Y-116942209D01*
X117745683Y-116552013D01*
X117553469Y-116192406D01*
X117294793Y-115877207D01*
X116979594Y-115618531D01*
X116619987Y-115426317D01*
X116229791Y-115307952D01*
X115925684Y-115278000D01*
X115722316Y-115278000D01*
X115418209Y-115307952D01*
X115028013Y-115426317D01*
X114668406Y-115618531D01*
X114353207Y-115877207D01*
X114155313Y-116118342D01*
X114010513Y-116021590D01*
X113633797Y-115865549D01*
X113233877Y-115786000D01*
X112826123Y-115786000D01*
X112426203Y-115865549D01*
X112049487Y-116021590D01*
X111835712Y-116164430D01*
X111810848Y-116082466D01*
X111627920Y-115740232D01*
X111381740Y-115440260D01*
X111081768Y-115194080D01*
X110739534Y-115011152D01*
X110368187Y-114898505D01*
X110078770Y-114870000D01*
X109885230Y-114870000D01*
X109595813Y-114898505D01*
X109224466Y-115011152D01*
X108882232Y-115194080D01*
X108582260Y-115440260D01*
X108336080Y-115740232D01*
X108153152Y-116082466D01*
X108040505Y-116453813D01*
X108002469Y-116840000D01*
X108040505Y-117226187D01*
X108153152Y-117597534D01*
X108336080Y-117939768D01*
X108455269Y-118085000D01*
X106368778Y-118085000D01*
X106419244Y-118023507D01*
X106616101Y-117655214D01*
X106737325Y-117255593D01*
X106778257Y-116840000D01*
X106737325Y-116424407D01*
X106616101Y-116024786D01*
X106419244Y-115656493D01*
X106348261Y-115570000D01*
X106419244Y-115483507D01*
X106616101Y-115115214D01*
X106737325Y-114715593D01*
X106778257Y-114300000D01*
X106775193Y-114268883D01*
X111976327Y-114268883D01*
X112022038Y-114675472D01*
X112396367Y-114837156D01*
X112795046Y-114922704D01*
X113202755Y-114928830D01*
X113603824Y-114855298D01*
X113982842Y-114704934D01*
X114037962Y-114675472D01*
X114083673Y-114268883D01*
X113030000Y-113215210D01*
X111976327Y-114268883D01*
X106775193Y-114268883D01*
X106737325Y-113884407D01*
X106616101Y-113484786D01*
X106419244Y-113116493D01*
X106348261Y-113030000D01*
X106419244Y-112943507D01*
X106616101Y-112575214D01*
X106737325Y-112175593D01*
X106778257Y-111760000D01*
X106737325Y-111344407D01*
X106616101Y-110944786D01*
X106419244Y-110576493D01*
X106348261Y-110490000D01*
X106419244Y-110403507D01*
X106616101Y-110035214D01*
X106671422Y-109852844D01*
X106884452Y-110065874D01*
X107223487Y-110292410D01*
X107600203Y-110448451D01*
X108000123Y-110528000D01*
X108407877Y-110528000D01*
X108440192Y-110521572D01*
X108236209Y-110826855D01*
X108087706Y-111185372D01*
X108012000Y-111565972D01*
X108012000Y-111954028D01*
X108087706Y-112334628D01*
X108236209Y-112693145D01*
X108451801Y-113015802D01*
X108726198Y-113290199D01*
X109048855Y-113505791D01*
X109407372Y-113654294D01*
X109787972Y-113730000D01*
X110176028Y-113730000D01*
X110556628Y-113654294D01*
X110915145Y-113505791D01*
X111030499Y-113428714D01*
X111030702Y-113429824D01*
X111181066Y-113808842D01*
X111210528Y-113863962D01*
X111617117Y-113909673D01*
X112670790Y-112856000D01*
X112656648Y-112841858D01*
X113015858Y-112482648D01*
X113030000Y-112496790D01*
X113044143Y-112482648D01*
X113403353Y-112841858D01*
X113389210Y-112856000D01*
X114442883Y-113909673D01*
X114849472Y-113863962D01*
X114946925Y-113638340D01*
X115028013Y-113681683D01*
X115418209Y-113800048D01*
X115722316Y-113830000D01*
X115925684Y-113830000D01*
X116229791Y-113800048D01*
X116619987Y-113681683D01*
X116979594Y-113489469D01*
X117294793Y-113230793D01*
X117553469Y-112915594D01*
X117745683Y-112555987D01*
X117864048Y-112165791D01*
X117904015Y-111760000D01*
X117864048Y-111354209D01*
X117745683Y-110964013D01*
X117553469Y-110604406D01*
X117294793Y-110289207D01*
X116979594Y-110030531D01*
X116619987Y-109838317D01*
X116229791Y-109719952D01*
X115925684Y-109690000D01*
X115722316Y-109690000D01*
X115418209Y-109719952D01*
X115028013Y-109838317D01*
X114668406Y-110030531D01*
X114353207Y-110289207D01*
X114094531Y-110604406D01*
X113902317Y-110964013D01*
X113898582Y-110976326D01*
X113663633Y-110874844D01*
X113264954Y-110789296D01*
X112857245Y-110783170D01*
X112456176Y-110856702D01*
X112077158Y-111007066D01*
X112022038Y-111036528D01*
X111976327Y-111443114D01*
X111915454Y-111382241D01*
X111876294Y-111185372D01*
X111727791Y-110826855D01*
X111512199Y-110504198D01*
X111237802Y-110229801D01*
X110915145Y-110014209D01*
X110556628Y-109865706D01*
X110176028Y-109790000D01*
X109799422Y-109790000D01*
X109811874Y-109777548D01*
X110038410Y-109438513D01*
X110194451Y-109061797D01*
X110274000Y-108661877D01*
X110274000Y-108458000D01*
X116283985Y-108458000D01*
X116323952Y-108863791D01*
X116442317Y-109253987D01*
X116634531Y-109613594D01*
X116893207Y-109928793D01*
X117208406Y-110187469D01*
X117568013Y-110379683D01*
X117958209Y-110498048D01*
X118262316Y-110528000D01*
X118465684Y-110528000D01*
X118769791Y-110498048D01*
X119159987Y-110379683D01*
X119519594Y-110187469D01*
X119761511Y-109988933D01*
X119838452Y-110065874D01*
X120177487Y-110292410D01*
X120554203Y-110448451D01*
X120954123Y-110528000D01*
X121361877Y-110528000D01*
X121761797Y-110448451D01*
X122138513Y-110292410D01*
X122477548Y-110065874D01*
X122765874Y-109777548D01*
X122992410Y-109438513D01*
X123148451Y-109061797D01*
X123228000Y-108661877D01*
X123228000Y-108508001D01*
X123458198Y-108738199D01*
X123780855Y-108953791D01*
X124139372Y-109102294D01*
X124519972Y-109178000D01*
X124908028Y-109178000D01*
X125288628Y-109102294D01*
X125647145Y-108953791D01*
X125969802Y-108738199D01*
X126244199Y-108463802D01*
X126459791Y-108141145D01*
X126608294Y-107782628D01*
X126684000Y-107402028D01*
X126684000Y-107013972D01*
X126608294Y-106633372D01*
X126459791Y-106274855D01*
X126326769Y-106075773D01*
X126433077Y-105946236D01*
X126574034Y-105682524D01*
X126660835Y-105396380D01*
X126690144Y-105098800D01*
X126690144Y-104197200D01*
X126660835Y-103899620D01*
X126574034Y-103613476D01*
X126433077Y-103349764D01*
X126243381Y-103118619D01*
X126012236Y-102928923D01*
X125748524Y-102787966D01*
X125462380Y-102701165D01*
X125164800Y-102671856D01*
X124263200Y-102671856D01*
X123965620Y-102701165D01*
X123679476Y-102787966D01*
X123415764Y-102928923D01*
X123198232Y-103107447D01*
X123157298Y-102884176D01*
X123006934Y-102505158D01*
X122977472Y-102450038D01*
X122570883Y-102404327D01*
X121517210Y-103458000D01*
X122570883Y-104511673D01*
X122737856Y-104492901D01*
X122737856Y-105098800D01*
X122767165Y-105396380D01*
X122853966Y-105682524D01*
X122994923Y-105946236D01*
X123101231Y-106075773D01*
X122968209Y-106274855D01*
X122819706Y-106633372D01*
X122744000Y-107013972D01*
X122744000Y-107116578D01*
X122477548Y-106850126D01*
X122138513Y-106623590D01*
X121761797Y-106467549D01*
X121361877Y-106388000D01*
X120954123Y-106388000D01*
X120554203Y-106467549D01*
X120177487Y-106623590D01*
X119838452Y-106850126D01*
X119761511Y-106927067D01*
X119519594Y-106728531D01*
X119159987Y-106536317D01*
X118769791Y-106417952D01*
X118465684Y-106388000D01*
X118262316Y-106388000D01*
X117958209Y-106417952D01*
X117568013Y-106536317D01*
X117208406Y-106728531D01*
X116893207Y-106987207D01*
X116634531Y-107302406D01*
X116442317Y-107662013D01*
X116323952Y-108052209D01*
X116283985Y-108458000D01*
X110274000Y-108458000D01*
X110274000Y-108254123D01*
X110194451Y-107854203D01*
X110038410Y-107477487D01*
X109811874Y-107138452D01*
X109523548Y-106850126D01*
X109184513Y-106623590D01*
X108807797Y-106467549D01*
X108407877Y-106388000D01*
X108000123Y-106388000D01*
X107600203Y-106467549D01*
X107223487Y-106623590D01*
X106884452Y-106850126D01*
X106748069Y-106986509D01*
X106778257Y-106680000D01*
X106737325Y-106264407D01*
X106616101Y-105864786D01*
X106419244Y-105496493D01*
X106372343Y-105439344D01*
X106386507Y-105435047D01*
X106628851Y-105305512D01*
X106805290Y-105160712D01*
X106884452Y-105239874D01*
X107223487Y-105466410D01*
X107600203Y-105622451D01*
X108000123Y-105702000D01*
X108407877Y-105702000D01*
X108807797Y-105622451D01*
X109184513Y-105466410D01*
X109523548Y-105239874D01*
X109811874Y-104951548D01*
X110038410Y-104612513D01*
X110194451Y-104235797D01*
X110274000Y-103835877D01*
X110274000Y-103428123D01*
X110194451Y-103028203D01*
X110038410Y-102651487D01*
X109811874Y-102312452D01*
X109523548Y-102024126D01*
X109268937Y-101854000D01*
X109523548Y-101683874D01*
X109811874Y-101395548D01*
X110038410Y-101056513D01*
X110194451Y-100679797D01*
X110274000Y-100279877D01*
X110274000Y-99872123D01*
X110194451Y-99472203D01*
X110038410Y-99095487D01*
X109811874Y-98756452D01*
X109607422Y-98552000D01*
X109811874Y-98347548D01*
X110038410Y-98008513D01*
X110194451Y-97631797D01*
X110274000Y-97231877D01*
X110274000Y-96824123D01*
X110194451Y-96424203D01*
X110038410Y-96047487D01*
X109811874Y-95708452D01*
X109607422Y-95504000D01*
X109811874Y-95299548D01*
X110038410Y-94960513D01*
X110194451Y-94583797D01*
X110274000Y-94183877D01*
X110274000Y-93980000D01*
X116283985Y-93980000D01*
X116323952Y-94385791D01*
X116442317Y-94775987D01*
X116634531Y-95135594D01*
X116893207Y-95450793D01*
X116958040Y-95504000D01*
X116893207Y-95557207D01*
X116634531Y-95872406D01*
X116442317Y-96232013D01*
X116323952Y-96622209D01*
X116283985Y-97028000D01*
X116323952Y-97433791D01*
X116442317Y-97823987D01*
X116634531Y-98183594D01*
X116893207Y-98498793D01*
X116958040Y-98552000D01*
X116893207Y-98605207D01*
X116634531Y-98920406D01*
X116442317Y-99280013D01*
X116323952Y-99670209D01*
X116283985Y-100076000D01*
X116323952Y-100481791D01*
X116442317Y-100871987D01*
X116634531Y-101231594D01*
X116893207Y-101546793D01*
X117208406Y-101805469D01*
X117299201Y-101854000D01*
X117208406Y-101902531D01*
X116893207Y-102161207D01*
X116634531Y-102476406D01*
X116442317Y-102836013D01*
X116323952Y-103226209D01*
X116283985Y-103632000D01*
X116323952Y-104037791D01*
X116442317Y-104427987D01*
X116634531Y-104787594D01*
X116893207Y-105102793D01*
X117208406Y-105361469D01*
X117568013Y-105553683D01*
X117958209Y-105672048D01*
X118262316Y-105702000D01*
X118465684Y-105702000D01*
X118769791Y-105672048D01*
X119159987Y-105553683D01*
X119519594Y-105361469D01*
X119834793Y-105102793D01*
X119847482Y-105087331D01*
X119867682Y-105107531D01*
X120104327Y-104870886D01*
X120150038Y-105277472D01*
X120524367Y-105439156D01*
X120923046Y-105524704D01*
X121330755Y-105530830D01*
X121731824Y-105457298D01*
X122110842Y-105306934D01*
X122165962Y-105277472D01*
X122211673Y-104870883D01*
X121158000Y-103817210D01*
X121143858Y-103831353D01*
X120784648Y-103472143D01*
X120798790Y-103458000D01*
X120333093Y-102992303D01*
X120285683Y-102836013D01*
X120093469Y-102476406D01*
X119834793Y-102161207D01*
X119693337Y-102045117D01*
X120104327Y-102045117D01*
X121158000Y-103098790D01*
X122211673Y-102045117D01*
X122165962Y-101638528D01*
X121791633Y-101476844D01*
X121392954Y-101391296D01*
X120985245Y-101385170D01*
X120584176Y-101458702D01*
X120205158Y-101609066D01*
X120150038Y-101638528D01*
X120104327Y-102045117D01*
X119693337Y-102045117D01*
X119519594Y-101902531D01*
X119428799Y-101854000D01*
X119519594Y-101805469D01*
X119834793Y-101546793D01*
X120093469Y-101231594D01*
X120285683Y-100871987D01*
X120404048Y-100481791D01*
X120444015Y-100076000D01*
X120404048Y-99670209D01*
X120285683Y-99280013D01*
X120093469Y-98920406D01*
X119834793Y-98605207D01*
X119769960Y-98552000D01*
X119834793Y-98498793D01*
X120093469Y-98183594D01*
X120100200Y-98171000D01*
X122281267Y-98171000D01*
X122316117Y-98524842D01*
X122419329Y-98865086D01*
X122586936Y-99178656D01*
X122802236Y-99441000D01*
X122586936Y-99703344D01*
X122419329Y-100016914D01*
X122316117Y-100357158D01*
X122281267Y-100711000D01*
X122316117Y-101064842D01*
X122419329Y-101405086D01*
X122586936Y-101718656D01*
X122812497Y-101993503D01*
X123087344Y-102219064D01*
X123400914Y-102386671D01*
X123741158Y-102489883D01*
X124006331Y-102516000D01*
X124913669Y-102516000D01*
X125178842Y-102489883D01*
X125519086Y-102386671D01*
X125832656Y-102219064D01*
X126107503Y-101993503D01*
X126333064Y-101718656D01*
X126500671Y-101405086D01*
X126603883Y-101064842D01*
X126638733Y-100711000D01*
X126603883Y-100357158D01*
X126500671Y-100016914D01*
X126333064Y-99703344D01*
X126117764Y-99441000D01*
X126333064Y-99178656D01*
X126500671Y-98865086D01*
X126603883Y-98524842D01*
X126638733Y-98171000D01*
X126603883Y-97817158D01*
X126500671Y-97476914D01*
X126333064Y-97163344D01*
X126114790Y-96897376D01*
X126226333Y-96786333D01*
X126424801Y-96490747D01*
X126550303Y-96161427D01*
X126290654Y-95885000D01*
X124714000Y-95885000D01*
X124714000Y-95905000D01*
X124206000Y-95905000D01*
X124206000Y-95885000D01*
X122629346Y-95885000D01*
X122369697Y-96161427D01*
X122495199Y-96490747D01*
X122693667Y-96786333D01*
X122805210Y-96897376D01*
X122586936Y-97163344D01*
X122419329Y-97476914D01*
X122316117Y-97817158D01*
X122281267Y-98171000D01*
X120100200Y-98171000D01*
X120285683Y-97823987D01*
X120404048Y-97433791D01*
X120444015Y-97028000D01*
X120404048Y-96622209D01*
X120285683Y-96232013D01*
X120093469Y-95872406D01*
X119834793Y-95557207D01*
X119769960Y-95504000D01*
X119834793Y-95450793D01*
X120093469Y-95135594D01*
X120285683Y-94775987D01*
X120404048Y-94385791D01*
X120444015Y-93980000D01*
X120404048Y-93574209D01*
X120285683Y-93184013D01*
X120093469Y-92824406D01*
X119873195Y-92556000D01*
X122283856Y-92556000D01*
X122283856Y-93626000D01*
X122308377Y-93874963D01*
X122380997Y-94114359D01*
X122498925Y-94334988D01*
X122657630Y-94528370D01*
X122658049Y-94528714D01*
X122495199Y-94771253D01*
X122369697Y-95100573D01*
X122629346Y-95377000D01*
X124206000Y-95377000D01*
X124206000Y-95357000D01*
X124714000Y-95357000D01*
X124714000Y-95377000D01*
X126290654Y-95377000D01*
X126550303Y-95100573D01*
X126424801Y-94771253D01*
X126261951Y-94528714D01*
X126262370Y-94528370D01*
X126421075Y-94334988D01*
X126539003Y-94114359D01*
X126611623Y-93874963D01*
X126636144Y-93626000D01*
X126636144Y-92556000D01*
X126611623Y-92307037D01*
X126539003Y-92067641D01*
X126421075Y-91847012D01*
X126262370Y-91653630D01*
X126068988Y-91494925D01*
X125848359Y-91376997D01*
X125608963Y-91304377D01*
X125360000Y-91279856D01*
X123560000Y-91279856D01*
X123311037Y-91304377D01*
X123071641Y-91376997D01*
X122851012Y-91494925D01*
X122657630Y-91653630D01*
X122498925Y-91847012D01*
X122380997Y-92067641D01*
X122308377Y-92307037D01*
X122283856Y-92556000D01*
X119873195Y-92556000D01*
X119834793Y-92509207D01*
X119519594Y-92250531D01*
X119159987Y-92058317D01*
X118769791Y-91939952D01*
X118465684Y-91910000D01*
X118262316Y-91910000D01*
X117958209Y-91939952D01*
X117568013Y-92058317D01*
X117208406Y-92250531D01*
X116893207Y-92509207D01*
X116634531Y-92824406D01*
X116442317Y-93184013D01*
X116323952Y-93574209D01*
X116283985Y-93980000D01*
X110274000Y-93980000D01*
X110274000Y-93776123D01*
X110194451Y-93376203D01*
X110038410Y-92999487D01*
X109811874Y-92660452D01*
X109523548Y-92372126D01*
X109184513Y-92145590D01*
X108807797Y-91989549D01*
X108407877Y-91910000D01*
X108000123Y-91910000D01*
X107821000Y-91945630D01*
X107821000Y-88969827D01*
X108109856Y-88680971D01*
X108109856Y-90004000D01*
X108134377Y-90252963D01*
X108206997Y-90492359D01*
X108324925Y-90712988D01*
X108483630Y-90906370D01*
X108677012Y-91065075D01*
X108897641Y-91183003D01*
X109137037Y-91255623D01*
X109386000Y-91280144D01*
X111086000Y-91280144D01*
X111334963Y-91255623D01*
X111574359Y-91183003D01*
X111794988Y-91065075D01*
X111818302Y-91045942D01*
X111960786Y-91122101D01*
X112360407Y-91243325D01*
X112671858Y-91274000D01*
X112880142Y-91274000D01*
X113191593Y-91243325D01*
X113591214Y-91122101D01*
X113959507Y-90925244D01*
X114046000Y-90854261D01*
X114132493Y-90925244D01*
X114500786Y-91122101D01*
X114900407Y-91243325D01*
X115211858Y-91274000D01*
X115420142Y-91274000D01*
X115731593Y-91243325D01*
X116131214Y-91122101D01*
X116499507Y-90925244D01*
X116586000Y-90854261D01*
X116672493Y-90925244D01*
X117040786Y-91122101D01*
X117440407Y-91243325D01*
X117751858Y-91274000D01*
X117960142Y-91274000D01*
X118271593Y-91243325D01*
X118671214Y-91122101D01*
X119039507Y-90925244D01*
X119134923Y-90846938D01*
X119364357Y-91006065D01*
X119745500Y-91171742D01*
X119815875Y-91193082D01*
X120142000Y-90938514D01*
X120142000Y-89408000D01*
X120122000Y-89408000D01*
X120122000Y-88900000D01*
X120142000Y-88900000D01*
X120142000Y-87369486D01*
X119815875Y-87114918D01*
X119745500Y-87136258D01*
X119364357Y-87301935D01*
X119134923Y-87461062D01*
X119039507Y-87382756D01*
X118671214Y-87185899D01*
X118271593Y-87064675D01*
X118173364Y-87055000D01*
X118266154Y-86993000D01*
X122359486Y-86993000D01*
X122428000Y-86999748D01*
X122496514Y-86993000D01*
X122496524Y-86993000D01*
X122701468Y-86972815D01*
X122964426Y-86893047D01*
X123206770Y-86763512D01*
X123419186Y-86589186D01*
X123462870Y-86535957D01*
X123873961Y-86124866D01*
X123927185Y-86081186D01*
X124101512Y-85868770D01*
X124231047Y-85626426D01*
X124310815Y-85363468D01*
X124331000Y-85158524D01*
X124331000Y-85158515D01*
X124337748Y-85090001D01*
X124331000Y-85021487D01*
X124331000Y-84484154D01*
X124415934Y-84357041D01*
X124541822Y-84053121D01*
X124606000Y-83730481D01*
X124606000Y-83691000D01*
X126677486Y-83691000D01*
X126746000Y-83697748D01*
X126814514Y-83691000D01*
X126814524Y-83691000D01*
X127019468Y-83670815D01*
X127282426Y-83591047D01*
X127524770Y-83461512D01*
X127555538Y-83436262D01*
X127517743Y-83820000D01*
X127517743Y-83820000D01*
G37*
X127517743Y-83820000D02*
X127558675Y-84235593D01*
X127679899Y-84635214D01*
X127876756Y-85003507D01*
X127947739Y-85090000D01*
X127876756Y-85176493D01*
X127679899Y-85544786D01*
X127558675Y-85944407D01*
X127517743Y-86360000D01*
X127558675Y-86775593D01*
X127679899Y-87175214D01*
X127876756Y-87543507D01*
X127947739Y-87630000D01*
X127876756Y-87716493D01*
X127679899Y-88084786D01*
X127558675Y-88484407D01*
X127541420Y-88659603D01*
X127444101Y-88338786D01*
X127247244Y-87970493D01*
X126982319Y-87647681D01*
X126659507Y-87382756D01*
X126291214Y-87185899D01*
X125891593Y-87064675D01*
X125580142Y-87034000D01*
X125371858Y-87034000D01*
X125060407Y-87064675D01*
X124660786Y-87185899D01*
X124292493Y-87382756D01*
X124206000Y-87453739D01*
X124119507Y-87382756D01*
X123751214Y-87185899D01*
X123351593Y-87064675D01*
X123040142Y-87034000D01*
X122831858Y-87034000D01*
X122520407Y-87064675D01*
X122120786Y-87185899D01*
X121752493Y-87382756D01*
X121657077Y-87461062D01*
X121427643Y-87301935D01*
X121046500Y-87136258D01*
X120976125Y-87114918D01*
X120650000Y-87369486D01*
X120650000Y-88900000D01*
X120670000Y-88900000D01*
X120670000Y-89408000D01*
X120650000Y-89408000D01*
X120650000Y-90938514D01*
X120976125Y-91193082D01*
X121046500Y-91171742D01*
X121427643Y-91006065D01*
X121657077Y-90846938D01*
X121752493Y-90925244D01*
X122120786Y-91122101D01*
X122520407Y-91243325D01*
X122831858Y-91274000D01*
X123040142Y-91274000D01*
X123351593Y-91243325D01*
X123751214Y-91122101D01*
X124119507Y-90925244D01*
X124206000Y-90854261D01*
X124292493Y-90925244D01*
X124660786Y-91122101D01*
X125060407Y-91243325D01*
X125371858Y-91274000D01*
X125580142Y-91274000D01*
X125891593Y-91243325D01*
X126291214Y-91122101D01*
X126659507Y-90925244D01*
X126982319Y-90660319D01*
X127247244Y-90337507D01*
X127444101Y-89969214D01*
X127565325Y-89569593D01*
X127582580Y-89394397D01*
X127679899Y-89715214D01*
X127876756Y-90083507D01*
X127947739Y-90170000D01*
X127876756Y-90256493D01*
X127679899Y-90624786D01*
X127558675Y-91024407D01*
X127517743Y-91440000D01*
X127558675Y-91855593D01*
X127679899Y-92255214D01*
X127876756Y-92623507D01*
X127947739Y-92710000D01*
X127876756Y-92796493D01*
X127679899Y-93164786D01*
X127558675Y-93564407D01*
X127517743Y-93980000D01*
X127558675Y-94395593D01*
X127679899Y-94795214D01*
X127876756Y-95163507D01*
X127947739Y-95250000D01*
X127876756Y-95336493D01*
X127679899Y-95704786D01*
X127558675Y-96104407D01*
X127517743Y-96520000D01*
X127558675Y-96935593D01*
X127679899Y-97335214D01*
X127876756Y-97703507D01*
X127947739Y-97790000D01*
X127876756Y-97876493D01*
X127679899Y-98244786D01*
X127558675Y-98644407D01*
X127517743Y-99060000D01*
X127558675Y-99475593D01*
X127679899Y-99875214D01*
X127876756Y-100243507D01*
X127947739Y-100330000D01*
X127876756Y-100416493D01*
X127679899Y-100784786D01*
X127558675Y-101184407D01*
X127517743Y-101600000D01*
X127558675Y-102015593D01*
X127679899Y-102415214D01*
X127876756Y-102783507D01*
X127955062Y-102878923D01*
X127795935Y-103108357D01*
X127630258Y-103489500D01*
X127608918Y-103559875D01*
X127863486Y-103886000D01*
X129394000Y-103886000D01*
X129394000Y-103866000D01*
X129902000Y-103866000D01*
X129902000Y-103886000D01*
X129922000Y-103886000D01*
X129922000Y-104394000D01*
X129902000Y-104394000D01*
X129902000Y-104414000D01*
X129394000Y-104414000D01*
X129394000Y-104394000D01*
X127863486Y-104394000D01*
X127608918Y-104720125D01*
X127630258Y-104790500D01*
X127795935Y-105171643D01*
X127955062Y-105401077D01*
X127876756Y-105496493D01*
X127679899Y-105864786D01*
X127558675Y-106264407D01*
X127517743Y-106680000D01*
X127558675Y-107095593D01*
X127679899Y-107495214D01*
X127876756Y-107863507D01*
X127947739Y-107950000D01*
X127876756Y-108036493D01*
X127679899Y-108404786D01*
X127558675Y-108804407D01*
X127517743Y-109220000D01*
X127558675Y-109635593D01*
X127679899Y-110035214D01*
X127876756Y-110403507D01*
X127947739Y-110490000D01*
X127876756Y-110576493D01*
X127790544Y-110737783D01*
X127591874Y-110440452D01*
X127303548Y-110152126D01*
X126964513Y-109925590D01*
X126587797Y-109769549D01*
X126187877Y-109690000D01*
X125780123Y-109690000D01*
X125380203Y-109769549D01*
X125003487Y-109925590D01*
X124664452Y-110152126D01*
X124376126Y-110440452D01*
X124149590Y-110779487D01*
X123993549Y-111156203D01*
X123914000Y-111556123D01*
X123914000Y-111963877D01*
X123993549Y-112363797D01*
X124149590Y-112740513D01*
X124376126Y-113079548D01*
X124664452Y-113367874D01*
X125003487Y-113594410D01*
X125380203Y-113750451D01*
X125780123Y-113830000D01*
X126187877Y-113830000D01*
X126587797Y-113750451D01*
X126964513Y-113594410D01*
X127303548Y-113367874D01*
X127591874Y-113079548D01*
X127790544Y-112782217D01*
X127876756Y-112943507D01*
X127947739Y-113030000D01*
X127876756Y-113116493D01*
X127679899Y-113484786D01*
X127558675Y-113884407D01*
X127517743Y-114300000D01*
X127558675Y-114715593D01*
X127679899Y-115115214D01*
X127876756Y-115483507D01*
X127947739Y-115570000D01*
X127876756Y-115656493D01*
X127679899Y-116024786D01*
X127651649Y-116117912D01*
X127591874Y-116028452D01*
X127303548Y-115740126D01*
X126964513Y-115513590D01*
X126587797Y-115357549D01*
X126187877Y-115278000D01*
X125780123Y-115278000D01*
X125380203Y-115357549D01*
X125003487Y-115513590D01*
X124664452Y-115740126D01*
X124376126Y-116028452D01*
X124149590Y-116367487D01*
X123993549Y-116744203D01*
X123914000Y-117144123D01*
X123914000Y-117551877D01*
X123993549Y-117951797D01*
X124048724Y-118085000D01*
X117763577Y-118085000D01*
X117864048Y-117753791D01*
X117904015Y-117348000D01*
X117864048Y-116942209D01*
X117745683Y-116552013D01*
X117553469Y-116192406D01*
X117294793Y-115877207D01*
X116979594Y-115618531D01*
X116619987Y-115426317D01*
X116229791Y-115307952D01*
X115925684Y-115278000D01*
X115722316Y-115278000D01*
X115418209Y-115307952D01*
X115028013Y-115426317D01*
X114668406Y-115618531D01*
X114353207Y-115877207D01*
X114155313Y-116118342D01*
X114010513Y-116021590D01*
X113633797Y-115865549D01*
X113233877Y-115786000D01*
X112826123Y-115786000D01*
X112426203Y-115865549D01*
X112049487Y-116021590D01*
X111835712Y-116164430D01*
X111810848Y-116082466D01*
X111627920Y-115740232D01*
X111381740Y-115440260D01*
X111081768Y-115194080D01*
X110739534Y-115011152D01*
X110368187Y-114898505D01*
X110078770Y-114870000D01*
X109885230Y-114870000D01*
X109595813Y-114898505D01*
X109224466Y-115011152D01*
X108882232Y-115194080D01*
X108582260Y-115440260D01*
X108336080Y-115740232D01*
X108153152Y-116082466D01*
X108040505Y-116453813D01*
X108002469Y-116840000D01*
X108040505Y-117226187D01*
X108153152Y-117597534D01*
X108336080Y-117939768D01*
X108455269Y-118085000D01*
X106368778Y-118085000D01*
X106419244Y-118023507D01*
X106616101Y-117655214D01*
X106737325Y-117255593D01*
X106778257Y-116840000D01*
X106737325Y-116424407D01*
X106616101Y-116024786D01*
X106419244Y-115656493D01*
X106348261Y-115570000D01*
X106419244Y-115483507D01*
X106616101Y-115115214D01*
X106737325Y-114715593D01*
X106778257Y-114300000D01*
X106775193Y-114268883D01*
X111976327Y-114268883D01*
X112022038Y-114675472D01*
X112396367Y-114837156D01*
X112795046Y-114922704D01*
X113202755Y-114928830D01*
X113603824Y-114855298D01*
X113982842Y-114704934D01*
X114037962Y-114675472D01*
X114083673Y-114268883D01*
X113030000Y-113215210D01*
X111976327Y-114268883D01*
X106775193Y-114268883D01*
X106737325Y-113884407D01*
X106616101Y-113484786D01*
X106419244Y-113116493D01*
X106348261Y-113030000D01*
X106419244Y-112943507D01*
X106616101Y-112575214D01*
X106737325Y-112175593D01*
X106778257Y-111760000D01*
X106737325Y-111344407D01*
X106616101Y-110944786D01*
X106419244Y-110576493D01*
X106348261Y-110490000D01*
X106419244Y-110403507D01*
X106616101Y-110035214D01*
X106671422Y-109852844D01*
X106884452Y-110065874D01*
X107223487Y-110292410D01*
X107600203Y-110448451D01*
X108000123Y-110528000D01*
X108407877Y-110528000D01*
X108440192Y-110521572D01*
X108236209Y-110826855D01*
X108087706Y-111185372D01*
X108012000Y-111565972D01*
X108012000Y-111954028D01*
X108087706Y-112334628D01*
X108236209Y-112693145D01*
X108451801Y-113015802D01*
X108726198Y-113290199D01*
X109048855Y-113505791D01*
X109407372Y-113654294D01*
X109787972Y-113730000D01*
X110176028Y-113730000D01*
X110556628Y-113654294D01*
X110915145Y-113505791D01*
X111030499Y-113428714D01*
X111030702Y-113429824D01*
X111181066Y-113808842D01*
X111210528Y-113863962D01*
X111617117Y-113909673D01*
X112670790Y-112856000D01*
X112656648Y-112841858D01*
X113015858Y-112482648D01*
X113030000Y-112496790D01*
X113044143Y-112482648D01*
X113403353Y-112841858D01*
X113389210Y-112856000D01*
X114442883Y-113909673D01*
X114849472Y-113863962D01*
X114946925Y-113638340D01*
X115028013Y-113681683D01*
X115418209Y-113800048D01*
X115722316Y-113830000D01*
X115925684Y-113830000D01*
X116229791Y-113800048D01*
X116619987Y-113681683D01*
X116979594Y-113489469D01*
X117294793Y-113230793D01*
X117553469Y-112915594D01*
X117745683Y-112555987D01*
X117864048Y-112165791D01*
X117904015Y-111760000D01*
X117864048Y-111354209D01*
X117745683Y-110964013D01*
X117553469Y-110604406D01*
X117294793Y-110289207D01*
X116979594Y-110030531D01*
X116619987Y-109838317D01*
X116229791Y-109719952D01*
X115925684Y-109690000D01*
X115722316Y-109690000D01*
X115418209Y-109719952D01*
X115028013Y-109838317D01*
X114668406Y-110030531D01*
X114353207Y-110289207D01*
X114094531Y-110604406D01*
X113902317Y-110964013D01*
X113898582Y-110976326D01*
X113663633Y-110874844D01*
X113264954Y-110789296D01*
X112857245Y-110783170D01*
X112456176Y-110856702D01*
X112077158Y-111007066D01*
X112022038Y-111036528D01*
X111976327Y-111443114D01*
X111915454Y-111382241D01*
X111876294Y-111185372D01*
X111727791Y-110826855D01*
X111512199Y-110504198D01*
X111237802Y-110229801D01*
X110915145Y-110014209D01*
X110556628Y-109865706D01*
X110176028Y-109790000D01*
X109799422Y-109790000D01*
X109811874Y-109777548D01*
X110038410Y-109438513D01*
X110194451Y-109061797D01*
X110274000Y-108661877D01*
X110274000Y-108458000D01*
X116283985Y-108458000D01*
X116323952Y-108863791D01*
X116442317Y-109253987D01*
X116634531Y-109613594D01*
X116893207Y-109928793D01*
X117208406Y-110187469D01*
X117568013Y-110379683D01*
X117958209Y-110498048D01*
X118262316Y-110528000D01*
X118465684Y-110528000D01*
X118769791Y-110498048D01*
X119159987Y-110379683D01*
X119519594Y-110187469D01*
X119761511Y-109988933D01*
X119838452Y-110065874D01*
X120177487Y-110292410D01*
X120554203Y-110448451D01*
X120954123Y-110528000D01*
X121361877Y-110528000D01*
X121761797Y-110448451D01*
X122138513Y-110292410D01*
X122477548Y-110065874D01*
X122765874Y-109777548D01*
X122992410Y-109438513D01*
X123148451Y-109061797D01*
X123228000Y-108661877D01*
X123228000Y-108508001D01*
X123458198Y-108738199D01*
X123780855Y-108953791D01*
X124139372Y-109102294D01*
X124519972Y-109178000D01*
X124908028Y-109178000D01*
X125288628Y-109102294D01*
X125647145Y-108953791D01*
X125969802Y-108738199D01*
X126244199Y-108463802D01*
X126459791Y-108141145D01*
X126608294Y-107782628D01*
X126684000Y-107402028D01*
X126684000Y-107013972D01*
X126608294Y-106633372D01*
X126459791Y-106274855D01*
X126326769Y-106075773D01*
X126433077Y-105946236D01*
X126574034Y-105682524D01*
X126660835Y-105396380D01*
X126690144Y-105098800D01*
X126690144Y-104197200D01*
X126660835Y-103899620D01*
X126574034Y-103613476D01*
X126433077Y-103349764D01*
X126243381Y-103118619D01*
X126012236Y-102928923D01*
X125748524Y-102787966D01*
X125462380Y-102701165D01*
X125164800Y-102671856D01*
X124263200Y-102671856D01*
X123965620Y-102701165D01*
X123679476Y-102787966D01*
X123415764Y-102928923D01*
X123198232Y-103107447D01*
X123157298Y-102884176D01*
X123006934Y-102505158D01*
X122977472Y-102450038D01*
X122570883Y-102404327D01*
X121517210Y-103458000D01*
X122570883Y-104511673D01*
X122737856Y-104492901D01*
X122737856Y-105098800D01*
X122767165Y-105396380D01*
X122853966Y-105682524D01*
X122994923Y-105946236D01*
X123101231Y-106075773D01*
X122968209Y-106274855D01*
X122819706Y-106633372D01*
X122744000Y-107013972D01*
X122744000Y-107116578D01*
X122477548Y-106850126D01*
X122138513Y-106623590D01*
X121761797Y-106467549D01*
X121361877Y-106388000D01*
X120954123Y-106388000D01*
X120554203Y-106467549D01*
X120177487Y-106623590D01*
X119838452Y-106850126D01*
X119761511Y-106927067D01*
X119519594Y-106728531D01*
X119159987Y-106536317D01*
X118769791Y-106417952D01*
X118465684Y-106388000D01*
X118262316Y-106388000D01*
X117958209Y-106417952D01*
X117568013Y-106536317D01*
X117208406Y-106728531D01*
X116893207Y-106987207D01*
X116634531Y-107302406D01*
X116442317Y-107662013D01*
X116323952Y-108052209D01*
X116283985Y-108458000D01*
X110274000Y-108458000D01*
X110274000Y-108254123D01*
X110194451Y-107854203D01*
X110038410Y-107477487D01*
X109811874Y-107138452D01*
X109523548Y-106850126D01*
X109184513Y-106623590D01*
X108807797Y-106467549D01*
X108407877Y-106388000D01*
X108000123Y-106388000D01*
X107600203Y-106467549D01*
X107223487Y-106623590D01*
X106884452Y-106850126D01*
X106748069Y-106986509D01*
X106778257Y-106680000D01*
X106737325Y-106264407D01*
X106616101Y-105864786D01*
X106419244Y-105496493D01*
X106372343Y-105439344D01*
X106386507Y-105435047D01*
X106628851Y-105305512D01*
X106805290Y-105160712D01*
X106884452Y-105239874D01*
X107223487Y-105466410D01*
X107600203Y-105622451D01*
X108000123Y-105702000D01*
X108407877Y-105702000D01*
X108807797Y-105622451D01*
X109184513Y-105466410D01*
X109523548Y-105239874D01*
X109811874Y-104951548D01*
X110038410Y-104612513D01*
X110194451Y-104235797D01*
X110274000Y-103835877D01*
X110274000Y-103428123D01*
X110194451Y-103028203D01*
X110038410Y-102651487D01*
X109811874Y-102312452D01*
X109523548Y-102024126D01*
X109268937Y-101854000D01*
X109523548Y-101683874D01*
X109811874Y-101395548D01*
X110038410Y-101056513D01*
X110194451Y-100679797D01*
X110274000Y-100279877D01*
X110274000Y-99872123D01*
X110194451Y-99472203D01*
X110038410Y-99095487D01*
X109811874Y-98756452D01*
X109607422Y-98552000D01*
X109811874Y-98347548D01*
X110038410Y-98008513D01*
X110194451Y-97631797D01*
X110274000Y-97231877D01*
X110274000Y-96824123D01*
X110194451Y-96424203D01*
X110038410Y-96047487D01*
X109811874Y-95708452D01*
X109607422Y-95504000D01*
X109811874Y-95299548D01*
X110038410Y-94960513D01*
X110194451Y-94583797D01*
X110274000Y-94183877D01*
X110274000Y-93980000D01*
X116283985Y-93980000D01*
X116323952Y-94385791D01*
X116442317Y-94775987D01*
X116634531Y-95135594D01*
X116893207Y-95450793D01*
X116958040Y-95504000D01*
X116893207Y-95557207D01*
X116634531Y-95872406D01*
X116442317Y-96232013D01*
X116323952Y-96622209D01*
X116283985Y-97028000D01*
X116323952Y-97433791D01*
X116442317Y-97823987D01*
X116634531Y-98183594D01*
X116893207Y-98498793D01*
X116958040Y-98552000D01*
X116893207Y-98605207D01*
X116634531Y-98920406D01*
X116442317Y-99280013D01*
X116323952Y-99670209D01*
X116283985Y-100076000D01*
X116323952Y-100481791D01*
X116442317Y-100871987D01*
X116634531Y-101231594D01*
X116893207Y-101546793D01*
X117208406Y-101805469D01*
X117299201Y-101854000D01*
X117208406Y-101902531D01*
X116893207Y-102161207D01*
X116634531Y-102476406D01*
X116442317Y-102836013D01*
X116323952Y-103226209D01*
X116283985Y-103632000D01*
X116323952Y-104037791D01*
X116442317Y-104427987D01*
X116634531Y-104787594D01*
X116893207Y-105102793D01*
X117208406Y-105361469D01*
X117568013Y-105553683D01*
X117958209Y-105672048D01*
X118262316Y-105702000D01*
X118465684Y-105702000D01*
X118769791Y-105672048D01*
X119159987Y-105553683D01*
X119519594Y-105361469D01*
X119834793Y-105102793D01*
X119847482Y-105087331D01*
X119867682Y-105107531D01*
X120104327Y-104870886D01*
X120150038Y-105277472D01*
X120524367Y-105439156D01*
X120923046Y-105524704D01*
X121330755Y-105530830D01*
X121731824Y-105457298D01*
X122110842Y-105306934D01*
X122165962Y-105277472D01*
X122211673Y-104870883D01*
X121158000Y-103817210D01*
X121143858Y-103831353D01*
X120784648Y-103472143D01*
X120798790Y-103458000D01*
X120333093Y-102992303D01*
X120285683Y-102836013D01*
X120093469Y-102476406D01*
X119834793Y-102161207D01*
X119693337Y-102045117D01*
X120104327Y-102045117D01*
X121158000Y-103098790D01*
X122211673Y-102045117D01*
X122165962Y-101638528D01*
X121791633Y-101476844D01*
X121392954Y-101391296D01*
X120985245Y-101385170D01*
X120584176Y-101458702D01*
X120205158Y-101609066D01*
X120150038Y-101638528D01*
X120104327Y-102045117D01*
X119693337Y-102045117D01*
X119519594Y-101902531D01*
X119428799Y-101854000D01*
X119519594Y-101805469D01*
X119834793Y-101546793D01*
X120093469Y-101231594D01*
X120285683Y-100871987D01*
X120404048Y-100481791D01*
X120444015Y-100076000D01*
X120404048Y-99670209D01*
X120285683Y-99280013D01*
X120093469Y-98920406D01*
X119834793Y-98605207D01*
X119769960Y-98552000D01*
X119834793Y-98498793D01*
X120093469Y-98183594D01*
X120100200Y-98171000D01*
X122281267Y-98171000D01*
X122316117Y-98524842D01*
X122419329Y-98865086D01*
X122586936Y-99178656D01*
X122802236Y-99441000D01*
X122586936Y-99703344D01*
X122419329Y-100016914D01*
X122316117Y-100357158D01*
X122281267Y-100711000D01*
X122316117Y-101064842D01*
X122419329Y-101405086D01*
X122586936Y-101718656D01*
X122812497Y-101993503D01*
X123087344Y-102219064D01*
X123400914Y-102386671D01*
X123741158Y-102489883D01*
X124006331Y-102516000D01*
X124913669Y-102516000D01*
X125178842Y-102489883D01*
X125519086Y-102386671D01*
X125832656Y-102219064D01*
X126107503Y-101993503D01*
X126333064Y-101718656D01*
X126500671Y-101405086D01*
X126603883Y-101064842D01*
X126638733Y-100711000D01*
X126603883Y-100357158D01*
X126500671Y-100016914D01*
X126333064Y-99703344D01*
X126117764Y-99441000D01*
X126333064Y-99178656D01*
X126500671Y-98865086D01*
X126603883Y-98524842D01*
X126638733Y-98171000D01*
X126603883Y-97817158D01*
X126500671Y-97476914D01*
X126333064Y-97163344D01*
X126114790Y-96897376D01*
X126226333Y-96786333D01*
X126424801Y-96490747D01*
X126550303Y-96161427D01*
X126290654Y-95885000D01*
X124714000Y-95885000D01*
X124714000Y-95905000D01*
X124206000Y-95905000D01*
X124206000Y-95885000D01*
X122629346Y-95885000D01*
X122369697Y-96161427D01*
X122495199Y-96490747D01*
X122693667Y-96786333D01*
X122805210Y-96897376D01*
X122586936Y-97163344D01*
X122419329Y-97476914D01*
X122316117Y-97817158D01*
X122281267Y-98171000D01*
X120100200Y-98171000D01*
X120285683Y-97823987D01*
X120404048Y-97433791D01*
X120444015Y-97028000D01*
X120404048Y-96622209D01*
X120285683Y-96232013D01*
X120093469Y-95872406D01*
X119834793Y-95557207D01*
X119769960Y-95504000D01*
X119834793Y-95450793D01*
X120093469Y-95135594D01*
X120285683Y-94775987D01*
X120404048Y-94385791D01*
X120444015Y-93980000D01*
X120404048Y-93574209D01*
X120285683Y-93184013D01*
X120093469Y-92824406D01*
X119873195Y-92556000D01*
X122283856Y-92556000D01*
X122283856Y-93626000D01*
X122308377Y-93874963D01*
X122380997Y-94114359D01*
X122498925Y-94334988D01*
X122657630Y-94528370D01*
X122658049Y-94528714D01*
X122495199Y-94771253D01*
X122369697Y-95100573D01*
X122629346Y-95377000D01*
X124206000Y-95377000D01*
X124206000Y-95357000D01*
X124714000Y-95357000D01*
X124714000Y-95377000D01*
X126290654Y-95377000D01*
X126550303Y-95100573D01*
X126424801Y-94771253D01*
X126261951Y-94528714D01*
X126262370Y-94528370D01*
X126421075Y-94334988D01*
X126539003Y-94114359D01*
X126611623Y-93874963D01*
X126636144Y-93626000D01*
X126636144Y-92556000D01*
X126611623Y-92307037D01*
X126539003Y-92067641D01*
X126421075Y-91847012D01*
X126262370Y-91653630D01*
X126068988Y-91494925D01*
X125848359Y-91376997D01*
X125608963Y-91304377D01*
X125360000Y-91279856D01*
X123560000Y-91279856D01*
X123311037Y-91304377D01*
X123071641Y-91376997D01*
X122851012Y-91494925D01*
X122657630Y-91653630D01*
X122498925Y-91847012D01*
X122380997Y-92067641D01*
X122308377Y-92307037D01*
X122283856Y-92556000D01*
X119873195Y-92556000D01*
X119834793Y-92509207D01*
X119519594Y-92250531D01*
X119159987Y-92058317D01*
X118769791Y-91939952D01*
X118465684Y-91910000D01*
X118262316Y-91910000D01*
X117958209Y-91939952D01*
X117568013Y-92058317D01*
X117208406Y-92250531D01*
X116893207Y-92509207D01*
X116634531Y-92824406D01*
X116442317Y-93184013D01*
X116323952Y-93574209D01*
X116283985Y-93980000D01*
X110274000Y-93980000D01*
X110274000Y-93776123D01*
X110194451Y-93376203D01*
X110038410Y-92999487D01*
X109811874Y-92660452D01*
X109523548Y-92372126D01*
X109184513Y-92145590D01*
X108807797Y-91989549D01*
X108407877Y-91910000D01*
X108000123Y-91910000D01*
X107821000Y-91945630D01*
X107821000Y-88969827D01*
X108109856Y-88680971D01*
X108109856Y-90004000D01*
X108134377Y-90252963D01*
X108206997Y-90492359D01*
X108324925Y-90712988D01*
X108483630Y-90906370D01*
X108677012Y-91065075D01*
X108897641Y-91183003D01*
X109137037Y-91255623D01*
X109386000Y-91280144D01*
X111086000Y-91280144D01*
X111334963Y-91255623D01*
X111574359Y-91183003D01*
X111794988Y-91065075D01*
X111818302Y-91045942D01*
X111960786Y-91122101D01*
X112360407Y-91243325D01*
X112671858Y-91274000D01*
X112880142Y-91274000D01*
X113191593Y-91243325D01*
X113591214Y-91122101D01*
X113959507Y-90925244D01*
X114046000Y-90854261D01*
X114132493Y-90925244D01*
X114500786Y-91122101D01*
X114900407Y-91243325D01*
X115211858Y-91274000D01*
X115420142Y-91274000D01*
X115731593Y-91243325D01*
X116131214Y-91122101D01*
X116499507Y-90925244D01*
X116586000Y-90854261D01*
X116672493Y-90925244D01*
X117040786Y-91122101D01*
X117440407Y-91243325D01*
X117751858Y-91274000D01*
X117960142Y-91274000D01*
X118271593Y-91243325D01*
X118671214Y-91122101D01*
X119039507Y-90925244D01*
X119134923Y-90846938D01*
X119364357Y-91006065D01*
X119745500Y-91171742D01*
X119815875Y-91193082D01*
X120142000Y-90938514D01*
X120142000Y-89408000D01*
X120122000Y-89408000D01*
X120122000Y-88900000D01*
X120142000Y-88900000D01*
X120142000Y-87369486D01*
X119815875Y-87114918D01*
X119745500Y-87136258D01*
X119364357Y-87301935D01*
X119134923Y-87461062D01*
X119039507Y-87382756D01*
X118671214Y-87185899D01*
X118271593Y-87064675D01*
X118173364Y-87055000D01*
X118266154Y-86993000D01*
X122359486Y-86993000D01*
X122428000Y-86999748D01*
X122496514Y-86993000D01*
X122496524Y-86993000D01*
X122701468Y-86972815D01*
X122964426Y-86893047D01*
X123206770Y-86763512D01*
X123419186Y-86589186D01*
X123462870Y-86535957D01*
X123873961Y-86124866D01*
X123927185Y-86081186D01*
X124101512Y-85868770D01*
X124231047Y-85626426D01*
X124310815Y-85363468D01*
X124331000Y-85158524D01*
X124331000Y-85158515D01*
X124337748Y-85090001D01*
X124331000Y-85021487D01*
X124331000Y-84484154D01*
X124415934Y-84357041D01*
X124541822Y-84053121D01*
X124606000Y-83730481D01*
X124606000Y-83691000D01*
X126677486Y-83691000D01*
X126746000Y-83697748D01*
X126814514Y-83691000D01*
X126814524Y-83691000D01*
X127019468Y-83670815D01*
X127282426Y-83591047D01*
X127524770Y-83461512D01*
X127555538Y-83436262D01*
X127517743Y-83820000D01*
G36*
X104902000Y-86106000D02*
G01*
X104922000Y-86106000D01*
X104922000Y-86614000D01*
X104902000Y-86614000D01*
X104902000Y-86634000D01*
X104394000Y-86634000D01*
X104394000Y-86614000D01*
X104374000Y-86614000D01*
X104374000Y-86106000D01*
X104394000Y-86106000D01*
X104394000Y-86086000D01*
X104902000Y-86086000D01*
X104902000Y-86106000D01*
X104902000Y-86106000D01*
G37*
X104902000Y-86106000D02*
X104922000Y-86106000D01*
X104922000Y-86614000D01*
X104902000Y-86614000D01*
X104902000Y-86634000D01*
X104394000Y-86634000D01*
X104394000Y-86614000D01*
X104374000Y-86614000D01*
X104374000Y-86106000D01*
X104394000Y-86106000D01*
X104394000Y-86086000D01*
X104902000Y-86086000D01*
X104902000Y-86106000D01*
G36*
X118110000Y-73406000D02*
G01*
X118130000Y-73406000D01*
X118130000Y-73914000D01*
X118110000Y-73914000D01*
X118110000Y-75946000D01*
X118130000Y-75946000D01*
X118130000Y-76454000D01*
X118110000Y-76454000D01*
X118110000Y-78486000D01*
X118130000Y-78486000D01*
X118130000Y-78994000D01*
X118110000Y-78994000D01*
X118110000Y-79014000D01*
X117602000Y-79014000D01*
X117602000Y-78994000D01*
X117582000Y-78994000D01*
X117582000Y-78486000D01*
X117602000Y-78486000D01*
X117602000Y-76454000D01*
X117582000Y-76454000D01*
X117582000Y-75946000D01*
X117602000Y-75946000D01*
X117602000Y-73914000D01*
X117582000Y-73914000D01*
X117582000Y-73406000D01*
X117602000Y-73406000D01*
X117602000Y-73386000D01*
X118110000Y-73386000D01*
X118110000Y-73406000D01*
X118110000Y-73406000D01*
G37*
X118110000Y-73406000D02*
X118130000Y-73406000D01*
X118130000Y-73914000D01*
X118110000Y-73914000D01*
X118110000Y-75946000D01*
X118130000Y-75946000D01*
X118130000Y-76454000D01*
X118110000Y-76454000D01*
X118110000Y-78486000D01*
X118130000Y-78486000D01*
X118130000Y-78994000D01*
X118110000Y-78994000D01*
X118110000Y-79014000D01*
X117602000Y-79014000D01*
X117602000Y-78994000D01*
X117582000Y-78994000D01*
X117582000Y-78486000D01*
X117602000Y-78486000D01*
X117602000Y-76454000D01*
X117582000Y-76454000D01*
X117582000Y-75946000D01*
X117602000Y-75946000D01*
X117602000Y-73914000D01*
X117582000Y-73914000D01*
X117582000Y-73406000D01*
X117602000Y-73406000D01*
X117602000Y-73386000D01*
X118110000Y-73386000D01*
X118110000Y-73406000D01*
G36*
X123917012Y-71507076D02*
G01*
X124137640Y-71625004D01*
X124377036Y-71697624D01*
X124607592Y-71720332D01*
X124292493Y-71888756D01*
X124206000Y-71959739D01*
X124119507Y-71888756D01*
X123751214Y-71691899D01*
X123540568Y-71628000D01*
X123751214Y-71564101D01*
X123893697Y-71487942D01*
X123917012Y-71507076D01*
X123917012Y-71507076D01*
G37*
X123917012Y-71507076D02*
X124137640Y-71625004D01*
X124377036Y-71697624D01*
X124607592Y-71720332D01*
X124292493Y-71888756D01*
X124206000Y-71959739D01*
X124119507Y-71888756D01*
X123751214Y-71691899D01*
X123540568Y-71628000D01*
X123751214Y-71564101D01*
X123893697Y-71487942D01*
X123917012Y-71507076D01*
G36*
X125221998Y-71554760D02*
G01*
X125060407Y-71570675D01*
X125045217Y-71575283D01*
X125221998Y-71398502D01*
X125221998Y-71554760D01*
X125221998Y-71554760D01*
G37*
X125221998Y-71554760D02*
X125060407Y-71570675D01*
X125045217Y-71575283D01*
X125221998Y-71398502D01*
X125221998Y-71554760D01*
G36*
X125906783Y-71575283D02*
G01*
X125891593Y-71570675D01*
X125730002Y-71554760D01*
X125730002Y-71398502D01*
X125906783Y-71575283D01*
X125906783Y-71575283D01*
G37*
X125906783Y-71575283D02*
X125891593Y-71570675D01*
X125730002Y-71554760D01*
X125730002Y-71398502D01*
X125906783Y-71575283D01*
G36*
X111868000Y-67474481D02*
G01*
X111904501Y-67657984D01*
X111592493Y-67824756D01*
X111269681Y-68089681D01*
X111004756Y-68412493D01*
X110807899Y-68780786D01*
X110686675Y-69180407D01*
X110645743Y-69596000D01*
X110683465Y-69979000D01*
X108272513Y-69979000D01*
X108203999Y-69972252D01*
X108135485Y-69979000D01*
X108135476Y-69979000D01*
X107930532Y-69999185D01*
X107667574Y-70078953D01*
X107425230Y-70208488D01*
X107212814Y-70382814D01*
X107169134Y-70436038D01*
X106739174Y-70865998D01*
X106450502Y-70865998D01*
X106768000Y-70548500D01*
X106774145Y-70270000D01*
X106749624Y-70021036D01*
X106677004Y-69781640D01*
X106559076Y-69561012D01*
X106400371Y-69367629D01*
X106206988Y-69208924D01*
X105986360Y-69090996D01*
X105746964Y-69018376D01*
X105498000Y-68993855D01*
X105219500Y-69000000D01*
X104902000Y-69317500D01*
X104902000Y-70866000D01*
X104922000Y-70866000D01*
X104922000Y-71374000D01*
X104902000Y-71374000D01*
X104902000Y-71394000D01*
X104394000Y-71394000D01*
X104394000Y-71374000D01*
X104374000Y-71374000D01*
X104374000Y-70866000D01*
X104394000Y-70866000D01*
X104394000Y-69317500D01*
X104076500Y-69000000D01*
X103798000Y-68993855D01*
X103657000Y-69007742D01*
X103657000Y-67335000D01*
X111868000Y-67335000D01*
X111868000Y-67474481D01*
X111868000Y-67474481D01*
G37*
X111868000Y-67474481D02*
X111904501Y-67657984D01*
X111592493Y-67824756D01*
X111269681Y-68089681D01*
X111004756Y-68412493D01*
X110807899Y-68780786D01*
X110686675Y-69180407D01*
X110645743Y-69596000D01*
X110683465Y-69979000D01*
X108272513Y-69979000D01*
X108203999Y-69972252D01*
X108135485Y-69979000D01*
X108135476Y-69979000D01*
X107930532Y-69999185D01*
X107667574Y-70078953D01*
X107425230Y-70208488D01*
X107212814Y-70382814D01*
X107169134Y-70436038D01*
X106739174Y-70865998D01*
X106450502Y-70865998D01*
X106768000Y-70548500D01*
X106774145Y-70270000D01*
X106749624Y-70021036D01*
X106677004Y-69781640D01*
X106559076Y-69561012D01*
X106400371Y-69367629D01*
X106206988Y-69208924D01*
X105986360Y-69090996D01*
X105746964Y-69018376D01*
X105498000Y-68993855D01*
X105219500Y-69000000D01*
X104902000Y-69317500D01*
X104902000Y-70866000D01*
X104922000Y-70866000D01*
X104922000Y-71374000D01*
X104902000Y-71374000D01*
X104902000Y-71394000D01*
X104394000Y-71394000D01*
X104394000Y-71374000D01*
X104374000Y-71374000D01*
X104374000Y-70866000D01*
X104394000Y-70866000D01*
X104394000Y-69317500D01*
X104076500Y-69000000D01*
X103798000Y-68993855D01*
X103657000Y-69007742D01*
X103657000Y-67335000D01*
X111868000Y-67335000D01*
X111868000Y-67474481D01*
M02*
