M48
; DRILL file {KiCad (5.1.2)-1} date 19/09/2024 10:14:28
; FORMAT={-:-/ absolute / metric / decimal}
; #@! TF.CreationDate,2024-09-19T10:14:28+01:00
; #@! TF.GenerationSoftware,Kicad,Pcbnew,(5.1.2)-1
; #@! TF.FileFunction,Plated,1,2,PTH
FMAT,2
METRIC
T1C0.350
T2C0.400
T3C0.440
T4C0.700
T5C0.800
T6C0.813
T7C0.900
T8C1.000
%
G90
G05
T2
X106.421Y-77.465
X106.426Y-85.344
X113.538Y-67.31
X114.046Y-83.82
X117.348Y-85.598
X122.936Y-83.566
X124.714Y-81.026
X131.318Y-67.31
X143.256Y-71.882
T3
X162.306Y-77.41
X162.306Y-78.71
X162.306Y-80.01
X163.306Y-78.06
X163.306Y-79.36
T4
X109.982Y-111.76
X109.982Y-116.84
X124.714Y-104.648
X124.714Y-107.208
T5
X108.204Y-93.98
X118.364Y-93.98
X108.204Y-103.632
X118.364Y-103.632
X132.842Y-79.756
X143.002Y-79.756
X108.204Y-97.028
X118.364Y-97.028
X108.204Y-108.458
X118.364Y-108.458
X133.604Y-106.68
X143.764Y-106.68
X115.824Y-117.348
X125.984Y-117.348
X108.204Y-100.076
X118.364Y-100.076
X132.842Y-75.946
X143.002Y-75.946
X121.158Y-103.458
X121.158Y-108.458
X133.604Y-103.378
X143.764Y-103.378
X133.604Y-109.982
X143.764Y-109.982
X115.824Y-111.76
X125.984Y-111.76
X113.03Y-112.856
X113.03Y-117.856
T7
X124.46Y-93.091
X124.46Y-95.631
X124.46Y-98.171
X124.46Y-100.711
X161.544Y-113.538
X164.084Y-113.538
X154.686Y-113.538
X157.226Y-113.538
X147.828Y-113.538
X150.368Y-113.538
T8
X135.382Y-69.596
X137.922Y-69.596
X140.462Y-69.596
X115.316Y-73.66
X117.856Y-73.66
X120.396Y-73.66
X122.936Y-73.66
X125.476Y-73.66
X162.306Y-86.908
X162.306Y-89.408
X129.648Y-71.12
X129.648Y-73.66
X129.648Y-76.2
X129.648Y-78.74
X129.648Y-81.28
X129.648Y-83.82
X129.648Y-86.36
X129.648Y-88.9
X129.648Y-91.44
X129.648Y-93.98
X129.648Y-96.52
X129.648Y-99.06
X129.648Y-101.6
X129.648Y-104.14
X129.648Y-106.68
X129.648Y-109.22
X129.648Y-111.76
X129.648Y-114.3
X129.648Y-116.84
X162.306Y-104.18
X162.306Y-106.68
X112.776Y-69.596
X115.316Y-69.596
X117.856Y-69.596
X120.396Y-69.596
X122.936Y-69.596
X125.476Y-69.596
X135.382Y-72.136
X137.922Y-72.136
X140.462Y-72.136
X110.236Y-89.154
X112.776Y-89.154
X115.316Y-89.154
X117.856Y-89.154
X120.396Y-89.154
X122.936Y-89.154
X125.476Y-89.154
X109.474Y-73.406
X109.474Y-75.946
X109.474Y-78.486
X109.474Y-81.026
X109.474Y-83.566
X135.636Y-84.328
X138.176Y-84.328
X140.716Y-84.328
X155.956Y-69.596
X155.956Y-72.136
X104.648Y-71.12
X104.648Y-73.66
X104.648Y-76.2
X104.648Y-78.74
X104.648Y-81.28
X104.648Y-83.82
X104.648Y-86.36
X104.648Y-88.9
X104.648Y-91.44
X104.648Y-93.98
X104.648Y-96.52
X104.648Y-99.06
X104.648Y-101.6
X104.648Y-104.14
X104.648Y-106.68
X104.648Y-109.22
X104.648Y-111.76
X104.648Y-114.3
X104.648Y-116.84
X135.128Y-95.25
X141.628Y-95.25
X115.316Y-76.2
X117.856Y-76.2
X120.396Y-76.2
X122.936Y-76.2
X125.476Y-76.2
X115.316Y-78.74
X117.856Y-78.74
X120.396Y-78.74
X122.936Y-78.74
X125.476Y-78.74
X146.304Y-69.596
X148.844Y-69.596
X151.384Y-69.596
X135.636Y-86.868
X138.176Y-86.868
X140.716Y-86.868
X162.306Y-95.544
X162.306Y-98.044
T1
X162.026Y-75.135G85X163.026Y-75.135
G05
X162.026Y-82.285G85X163.026Y-82.285
G05
T6
X149.378Y-91.694G85X148.978Y-91.694
G05
X149.378Y-104.194G85X148.978Y-104.194
G05
X154.378Y-91.694G85X153.978Y-91.694
G05
X154.378Y-104.194G85X153.978Y-104.194
G05
X149.378Y-75.438G85X148.978Y-75.438
G05
X149.378Y-87.938G85X148.978Y-87.938
G05
X154.378Y-75.438G85X153.978Y-75.438
G05
X154.378Y-87.938G85X153.978Y-87.938
G05
T0
M30
